{
	"asset":{
		"generator":"Khronos glTF Blender I/O v3.6.28",
		"version":"2.0"
	},
	"scene":0,
	"scenes":[
		{
			"name":"Scene",
			"nodes":[
				0
			]
		}
	],
	"nodes":[
		{
			"mesh":0,
			"name":"\u0430\u0431\u044b\u0439\u0441\u043a\u0438\u0439"
		}
	],
	"materials":[
		{
			"doubleSided":true,
			"name":"osn",
			"pbrMetallicRoughness":{
				"baseColorFactor":[
					0.17144113779067993,
					0.2746773660182953,
					0.1247718334197998,
					1
				],
				"metallicFactor":0,
				"roughnessFactor":0.5
			}
		},
		{
			"doubleSided":true,
			"name":"lightosn",
			"pbrMetallicRoughness":{
				"baseColorFactor":[
					0.22696588933467865,
					0.34191450476646423,
					0.14412851631641388,
					1
				],
				"metallicFactor":0,
				"roughnessFactor":0.5
			}
		},
		{
			"doubleSided":true,
			"name":"onlightosn",
			"pbrMetallicRoughness":{
				"baseColorFactor":[
					0.14995980262756348,
					0.2541521489620209,
					0.12213879823684692,
					1
				],
				"metallicFactor":0,
				"roughnessFactor":0.5
			}
		},
		{
			"doubleSided":true,
			"name":"osn-2",
			"pbrMetallicRoughness":{
				"baseColorFactor":[
					0.17151030898094177,
					0.29630887508392334,
					0.1398809403181076,
					1
				],
				"metallicFactor":0,
				"roughnessFactor":0.5
			}
		},
		{
			"doubleSided":true,
			"name":"shadosn",
			"pbrMetallicRoughness":{
				"baseColorFactor":[
					0.06301002949476242,
					0.14412851631641388,
					0.10224173218011856,
					1
				],
				"metallicFactor":0,
				"roughnessFactor":0.5
			}
		},
		{
			"doubleSided":true,
			"name":"underosn",
			"pbrMetallicRoughness":{
				"baseColorFactor":[
					0.19120171666145325,
					0.11193244159221649,
					0.09758733212947845,
					1
				],
				"metallicFactor":0,
				"roughnessFactor":0.5
			}
		},
		{
			"doubleSided":true,
			"name":"normal-tree",
			"pbrMetallicRoughness":{
				"baseColorFactor":[
					0.10702310502529144,
					0.22322800755500793,
					0.10224173218011856,
					1
				],
				"metallicFactor":0,
				"roughnessFactor":0.5
			}
		},
		{
			"doubleSided":true,
			"name":"osn-tree",
			"pbrMetallicRoughness":{
				"baseColorFactor":[
					0.23455063998699188,
					0.12743771076202393,
					0.05126946046948433,
					1
				],
				"metallicFactor":0,
				"roughnessFactor":0.5
			}
		},
		{
			"doubleSided":true,
			"name":"shad-tree",
			"pbrMetallicRoughness":{
				"baseColorFactor":[
					0.09305897355079651,
					0.2195262312889099,
					0.09758733212947845,
					1
				],
				"metallicFactor":0,
				"roughnessFactor":0.5
			}
		},
		{
			"doubleSided":true,
			"name":"normal-kus",
			"pbrMetallicRoughness":{
				"baseColorFactor":[
					0.10702310502529144,
					0.18116427958011627,
					0.07818741351366043,
					1
				],
				"metallicFactor":0,
				"roughnessFactor":0.5
			}
		},
		{
			"doubleSided":true,
			"name":"shad-kus",
			"pbrMetallicRoughness":{
				"baseColorFactor":[
					0.06171619892120361,
					0.10226551443338394,
					0.04822072759270668,
					1
				],
				"metallicFactor":0,
				"roughnessFactor":0.5
			}
		},
		{
			"doubleSided":true,
			"name":"light-kus",
			"pbrMetallicRoughness":{
				"baseColorFactor":[
					0.1247718334197998,
					0.22322800755500793,
					0.09305897355079651,
					1
				],
				"metallicFactor":0,
				"roughnessFactor":0.5
			}
		},
		{
			"doubleSided":true,
			"name":"rock",
			"pbrMetallicRoughness":{
				"baseColorFactor":[
					0.3813260495662689,
					0.34670406579971313,
					0.26225075125694275,
					1
				],
				"metallicFactor":0,
				"roughnessFactor":0.5
			}
		},
		{
			"doubleSided":true,
			"name":"rock-sh",
			"pbrMetallicRoughness":{
				"baseColorFactor":[
					0.2195262312889099,
					0.19120171666145325,
					0.1384316384792328,
					1
				],
				"metallicFactor":0,
				"roughnessFactor":0.5
			}
		}
	],
	"meshes":[
		{
			"name":"Vert.024",
			"primitives":[
				{
					"attributes":{
						"POSITION":0,
						"NORMAL":1,
						"TEXCOORD_0":2
					},
					"indices":3,
					"material":0
				},
				{
					"attributes":{
						"POSITION":4,
						"NORMAL":5,
						"TEXCOORD_0":6
					},
					"indices":7,
					"material":1
				},
				{
					"attributes":{
						"POSITION":8,
						"NORMAL":9,
						"TEXCOORD_0":10
					},
					"indices":11,
					"material":2
				},
				{
					"attributes":{
						"POSITION":12,
						"NORMAL":13,
						"TEXCOORD_0":14
					},
					"indices":15,
					"material":3
				},
				{
					"attributes":{
						"POSITION":16,
						"NORMAL":17,
						"TEXCOORD_0":18
					},
					"indices":19,
					"material":4
				},
				{
					"attributes":{
						"POSITION":20,
						"NORMAL":21,
						"TEXCOORD_0":22
					},
					"indices":23,
					"material":5
				},
				{
					"attributes":{
						"POSITION":24,
						"NORMAL":25,
						"TEXCOORD_0":26
					},
					"indices":27,
					"material":6
				},
				{
					"attributes":{
						"POSITION":28,
						"NORMAL":29,
						"TEXCOORD_0":30
					},
					"indices":31,
					"material":7
				},
				{
					"attributes":{
						"POSITION":32,
						"NORMAL":33,
						"TEXCOORD_0":34
					},
					"indices":35,
					"material":8
				},
				{
					"attributes":{
						"POSITION":36,
						"NORMAL":37,
						"TEXCOORD_0":38
					},
					"indices":39,
					"material":9
				},
				{
					"attributes":{
						"POSITION":40,
						"NORMAL":41,
						"TEXCOORD_0":42
					},
					"indices":43,
					"material":10
				},
				{
					"attributes":{
						"POSITION":44,
						"NORMAL":45,
						"TEXCOORD_0":46
					},
					"indices":47,
					"material":11
				},
				{
					"attributes":{
						"POSITION":48,
						"NORMAL":49,
						"TEXCOORD_0":50
					},
					"indices":51,
					"material":12
				},
				{
					"attributes":{
						"POSITION":52,
						"NORMAL":53,
						"TEXCOORD_0":54
					},
					"indices":55,
					"material":13
				}
			]
		}
	],
	"accessors":[
		{
			"bufferView":0,
			"componentType":5126,
			"count":342,
			"max":[
				3.174715042114258,
				0.15620458126068115,
				-1.11337149143219
			],
			"min":[
				1.6183229684829712,
				0,
				-2.761229991912842
			],
			"type":"VEC3"
		},
		{
			"bufferView":1,
			"componentType":5126,
			"count":342,
			"type":"VEC3"
		},
		{
			"bufferView":2,
			"componentType":5126,
			"count":342,
			"type":"VEC2"
		},
		{
			"bufferView":3,
			"componentType":5123,
			"count":522,
			"type":"SCALAR"
		},
		{
			"bufferView":4,
			"componentType":5126,
			"count":12,
			"max":[
				2.954434394836426,
				0.15620458126068115,
				-1.3736648559570312
			],
			"min":[
				1.7554430961608887,
				0.15620458126068115,
				-2.35141921043396
			],
			"type":"VEC3"
		},
		{
			"bufferView":5,
			"componentType":5126,
			"count":12,
			"type":"VEC3"
		},
		{
			"bufferView":6,
			"componentType":5126,
			"count":12,
			"type":"VEC2"
		},
		{
			"bufferView":7,
			"componentType":5123,
			"count":18,
			"type":"SCALAR"
		},
		{
			"bufferView":8,
			"componentType":5126,
			"count":24,
			"max":[
				3.0995309352874756,
				0.15620458126068115,
				-1.3103471994400024
			],
			"min":[
				1.7025713920593262,
				0.15620458126068115,
				-2.4348666667938232
			],
			"type":"VEC3"
		},
		{
			"bufferView":9,
			"componentType":5126,
			"count":24,
			"type":"VEC3"
		},
		{
			"bufferView":10,
			"componentType":5126,
			"count":24,
			"type":"VEC2"
		},
		{
			"bufferView":11,
			"componentType":5123,
			"count":48,
			"type":"SCALAR"
		},
		{
			"bufferView":12,
			"componentType":5126,
			"count":21,
			"max":[
				2.954434394836426,
				0.15620458126068115,
				-1.3308521509170532
			],
			"min":[
				1.6990115642547607,
				0.15620458126068115,
				-2.35141921043396
			],
			"type":"VEC3"
		},
		{
			"bufferView":13,
			"componentType":5126,
			"count":21,
			"type":"VEC3"
		},
		{
			"bufferView":14,
			"componentType":5126,
			"count":21,
			"type":"VEC2"
		},
		{
			"bufferView":15,
			"componentType":5123,
			"count":42,
			"type":"SCALAR"
		},
		{
			"bufferView":16,
			"componentType":5126,
			"count":91,
			"max":[
				3.174715042114258,
				0.15620458126068115,
				-1.11337149143219
			],
			"min":[
				1.6183229684829712,
				0.15620458126068115,
				-2.761229991912842
			],
			"type":"VEC3"
		},
		{
			"bufferView":17,
			"componentType":5126,
			"count":91,
			"type":"VEC3"
		},
		{
			"bufferView":18,
			"componentType":5126,
			"count":91,
			"type":"VEC2"
		},
		{
			"bufferView":19,
			"componentType":5123,
			"count":240,
			"type":"SCALAR"
		},
		{
			"bufferView":20,
			"componentType":5126,
			"count":387,
			"max":[
				3.174715042114258,
				0.07810229063034058,
				-1.11337149143219
			],
			"min":[
				1.6183229684829712,
				0,
				-2.761229991912842
			],
			"type":"VEC3"
		},
		{
			"bufferView":21,
			"componentType":5126,
			"count":387,
			"type":"VEC3"
		},
		{
			"bufferView":22,
			"componentType":5126,
			"count":387,
			"type":"VEC2"
		},
		{
			"bufferView":23,
			"componentType":5123,
			"count":786,
			"type":"SCALAR"
		},
		{
			"bufferView":24,
			"componentType":5126,
			"count":960,
			"max":[
				3.127573251724243,
				0.5324561595916748,
				-1.4127416610717773
			],
			"min":[
				1.741503357887268,
				0.17209547758102417,
				-2.562540054321289
			],
			"type":"VEC3"
		},
		{
			"bufferView":25,
			"componentType":5126,
			"count":960,
			"type":"VEC3"
		},
		{
			"bufferView":26,
			"componentType":5126,
			"count":960,
			"type":"VEC2"
		},
		{
			"bufferView":27,
			"componentType":5123,
			"count":1560,
			"type":"SCALAR"
		},
		{
			"bufferView":28,
			"componentType":5126,
			"count":205,
			"max":[
				2.9947738647460938,
				0.21646273136138916,
				-1.5527317523956299
			],
			"min":[
				1.7479794025421143,
				0.14710834622383118,
				-2.4671244621276855
			],
			"type":"VEC3"
		},
		{
			"bufferView":29,
			"componentType":5126,
			"count":205,
			"type":"VEC3"
		},
		{
			"bufferView":30,
			"componentType":5126,
			"count":205,
			"type":"VEC2"
		},
		{
			"bufferView":31,
			"componentType":5123,
			"count":360,
			"type":"SCALAR"
		},
		{
			"bufferView":32,
			"componentType":5126,
			"count":890,
			"max":[
				2.994013547897339,
				0.5324561595916748,
				-1.4127416610717773
			],
			"min":[
				1.657464861869812,
				0.17209547758102417,
				-2.562540054321289
			],
			"type":"VEC3"
		},
		{
			"bufferView":33,
			"componentType":5126,
			"count":890,
			"type":"VEC3"
		},
		{
			"bufferView":34,
			"componentType":5126,
			"count":890,
			"type":"VEC2"
		},
		{
			"bufferView":35,
			"componentType":5123,
			"count":1440,
			"type":"SCALAR"
		},
		{
			"bufferView":36,
			"componentType":5126,
			"count":256,
			"max":[
				2.9329404830932617,
				0.23280784487724304,
				-1.3401120901107788
			],
			"min":[
				1.7013252973556519,
				0.16613662242889404,
				-2.347381830215454
			],
			"type":"VEC3"
		},
		{
			"bufferView":37,
			"componentType":5126,
			"count":256,
			"type":"VEC3"
		},
		{
			"bufferView":38,
			"componentType":5126,
			"count":256,
			"type":"VEC2"
		},
		{
			"bufferView":39,
			"componentType":5123,
			"count":384,
			"type":"SCALAR"
		},
		{
			"bufferView":40,
			"componentType":5126,
			"count":164,
			"max":[
				2.9329404830932617,
				0.1781691312789917,
				-1.3401120901107788
			],
			"min":[
				1.7013252973556519,
				0.1478251814842224,
				-2.347381830215454
			],
			"type":"VEC3"
		},
		{
			"bufferView":41,
			"componentType":5126,
			"count":164,
			"type":"VEC3"
		},
		{
			"bufferView":42,
			"componentType":5126,
			"count":164,
			"type":"VEC2"
		},
		{
			"bufferView":43,
			"componentType":5123,
			"count":288,
			"type":"SCALAR"
		},
		{
			"bufferView":44,
			"componentType":5126,
			"count":64,
			"max":[
				2.9019386768341064,
				0.24821141362190247,
				-1.3666114807128906
			],
			"min":[
				1.7323269844055176,
				0.21695777773857117,
				-2.3161330223083496
			],
			"type":"VEC3"
		},
		{
			"bufferView":45,
			"componentType":5126,
			"count":64,
			"type":"VEC3"
		},
		{
			"bufferView":46,
			"componentType":5126,
			"count":64,
			"type":"VEC2"
		},
		{
			"bufferView":47,
			"componentType":5123,
			"count":96,
			"type":"SCALAR"
		},
		{
			"bufferView":48,
			"componentType":5126,
			"count":39,
			"max":[
				2.162889003753662,
				0.25727108120918274,
				-2.0592005252838135
			],
			"min":[
				1.8722578287124634,
				0.15202704071998596,
				-2.352647542953491
			],
			"type":"VEC3"
		},
		{
			"bufferView":49,
			"componentType":5126,
			"count":39,
			"type":"VEC3"
		},
		{
			"bufferView":50,
			"componentType":5126,
			"count":39,
			"type":"VEC2"
		},
		{
			"bufferView":51,
			"componentType":5123,
			"count":72,
			"type":"SCALAR"
		},
		{
			"bufferView":52,
			"componentType":5126,
			"count":104,
			"max":[
				2.162889003753662,
				0.2820605933666229,
				-2.0592005252838135
			],
			"min":[
				1.8722578287124634,
				0.15202704071998596,
				-2.352647542953491
			],
			"type":"VEC3"
		},
		{
			"bufferView":53,
			"componentType":5126,
			"count":104,
			"type":"VEC3"
		},
		{
			"bufferView":54,
			"componentType":5126,
			"count":104,
			"type":"VEC2"
		},
		{
			"bufferView":55,
			"componentType":5123,
			"count":156,
			"type":"SCALAR"
		}
	],
	"bufferViews":[
		{
			"buffer":0,
			"byteLength":4104,
			"byteOffset":0,
			"target":34962
		},
		{
			"buffer":0,
			"byteLength":4104,
			"byteOffset":4104,
			"target":34962
		},
		{
			"buffer":0,
			"byteLength":2736,
			"byteOffset":8208,
			"target":34962
		},
		{
			"buffer":0,
			"byteLength":1044,
			"byteOffset":10944,
			"target":34963
		},
		{
			"buffer":0,
			"byteLength":144,
			"byteOffset":11988,
			"target":34962
		},
		{
			"buffer":0,
			"byteLength":144,
			"byteOffset":12132,
			"target":34962
		},
		{
			"buffer":0,
			"byteLength":96,
			"byteOffset":12276,
			"target":34962
		},
		{
			"buffer":0,
			"byteLength":36,
			"byteOffset":12372,
			"target":34963
		},
		{
			"buffer":0,
			"byteLength":288,
			"byteOffset":12408,
			"target":34962
		},
		{
			"buffer":0,
			"byteLength":288,
			"byteOffset":12696,
			"target":34962
		},
		{
			"buffer":0,
			"byteLength":192,
			"byteOffset":12984,
			"target":34962
		},
		{
			"buffer":0,
			"byteLength":96,
			"byteOffset":13176,
			"target":34963
		},
		{
			"buffer":0,
			"byteLength":252,
			"byteOffset":13272,
			"target":34962
		},
		{
			"buffer":0,
			"byteLength":252,
			"byteOffset":13524,
			"target":34962
		},
		{
			"buffer":0,
			"byteLength":168,
			"byteOffset":13776,
			"target":34962
		},
		{
			"buffer":0,
			"byteLength":84,
			"byteOffset":13944,
			"target":34963
		},
		{
			"buffer":0,
			"byteLength":1092,
			"byteOffset":14028,
			"target":34962
		},
		{
			"buffer":0,
			"byteLength":1092,
			"byteOffset":15120,
			"target":34962
		},
		{
			"buffer":0,
			"byteLength":728,
			"byteOffset":16212,
			"target":34962
		},
		{
			"buffer":0,
			"byteLength":480,
			"byteOffset":16940,
			"target":34963
		},
		{
			"buffer":0,
			"byteLength":4644,
			"byteOffset":17420,
			"target":34962
		},
		{
			"buffer":0,
			"byteLength":4644,
			"byteOffset":22064,
			"target":34962
		},
		{
			"buffer":0,
			"byteLength":3096,
			"byteOffset":26708,
			"target":34962
		},
		{
			"buffer":0,
			"byteLength":1572,
			"byteOffset":29804,
			"target":34963
		},
		{
			"buffer":0,
			"byteLength":11520,
			"byteOffset":31376,
			"target":34962
		},
		{
			"buffer":0,
			"byteLength":11520,
			"byteOffset":42896,
			"target":34962
		},
		{
			"buffer":0,
			"byteLength":7680,
			"byteOffset":54416,
			"target":34962
		},
		{
			"buffer":0,
			"byteLength":3120,
			"byteOffset":62096,
			"target":34963
		},
		{
			"buffer":0,
			"byteLength":2460,
			"byteOffset":65216,
			"target":34962
		},
		{
			"buffer":0,
			"byteLength":2460,
			"byteOffset":67676,
			"target":34962
		},
		{
			"buffer":0,
			"byteLength":1640,
			"byteOffset":70136,
			"target":34962
		},
		{
			"buffer":0,
			"byteLength":720,
			"byteOffset":71776,
			"target":34963
		},
		{
			"buffer":0,
			"byteLength":10680,
			"byteOffset":72496,
			"target":34962
		},
		{
			"buffer":0,
			"byteLength":10680,
			"byteOffset":83176,
			"target":34962
		},
		{
			"buffer":0,
			"byteLength":7120,
			"byteOffset":93856,
			"target":34962
		},
		{
			"buffer":0,
			"byteLength":2880,
			"byteOffset":100976,
			"target":34963
		},
		{
			"buffer":0,
			"byteLength":3072,
			"byteOffset":103856,
			"target":34962
		},
		{
			"buffer":0,
			"byteLength":3072,
			"byteOffset":106928,
			"target":34962
		},
		{
			"buffer":0,
			"byteLength":2048,
			"byteOffset":110000,
			"target":34962
		},
		{
			"buffer":0,
			"byteLength":768,
			"byteOffset":112048,
			"target":34963
		},
		{
			"buffer":0,
			"byteLength":1968,
			"byteOffset":112816,
			"target":34962
		},
		{
			"buffer":0,
			"byteLength":1968,
			"byteOffset":114784,
			"target":34962
		},
		{
			"buffer":0,
			"byteLength":1312,
			"byteOffset":116752,
			"target":34962
		},
		{
			"buffer":0,
			"byteLength":576,
			"byteOffset":118064,
			"target":34963
		},
		{
			"buffer":0,
			"byteLength":768,
			"byteOffset":118640,
			"target":34962
		},
		{
			"buffer":0,
			"byteLength":768,
			"byteOffset":119408,
			"target":34962
		},
		{
			"buffer":0,
			"byteLength":512,
			"byteOffset":120176,
			"target":34962
		},
		{
			"buffer":0,
			"byteLength":192,
			"byteOffset":120688,
			"target":34963
		},
		{
			"buffer":0,
			"byteLength":468,
			"byteOffset":120880,
			"target":34962
		},
		{
			"buffer":0,
			"byteLength":468,
			"byteOffset":121348,
			"target":34962
		},
		{
			"buffer":0,
			"byteLength":312,
			"byteOffset":121816,
			"target":34962
		},
		{
			"buffer":0,
			"byteLength":144,
			"byteOffset":122128,
			"target":34963
		},
		{
			"buffer":0,
			"byteLength":1248,
			"byteOffset":122272,
			"target":34962
		},
		{
			"buffer":0,
			"byteLength":1248,
			"byteOffset":123520,
			"target":34962
		},
		{
			"buffer":0,
			"byteLength":832,
			"byteOffset":124768,
			"target":34962
		},
		{
			"buffer":0,
			"byteLength":312,
			"byteOffset":125600,
			"target":34963
		}
	],
	"buffers":[
		{
			"byteLength":125912,
			"uri":"data:application/octet-stream;base64,"
		}
	]
}
