{
	"asset":{
		"generator":"Khronos glTF Blender I/O v3.6.28",
		"version":"2.0"
	},
	"scene":0,
	"scenes":[
		{
			"name":"Scene",
			"nodes":[
				0
			]
		}
	],
	"nodes":[
		{
			"mesh":0,
			"name":"\u0430\u043b\u0434\u0430\u043d",
			"translation":[
				0,
				0.0008604929316788912,
				0
			]
		}
	],
	"materials":[
		{
			"doubleSided":true,
			"name":"osn",
			"pbrMetallicRoughness":{
				"baseColorFactor":[
					0.17144113779067993,
					0.2746773660182953,
					0.1247718334197998,
					1
				],
				"metallicFactor":0,
				"roughnessFactor":0.5
			}
		},
		{
			"doubleSided":true,
			"name":"underosn",
			"pbrMetallicRoughness":{
				"baseColorFactor":[
					0.19120171666145325,
					0.11193244159221649,
					0.09758733212947845,
					1
				],
				"metallicFactor":0,
				"roughnessFactor":0.5
			}
		},
		{
			"doubleSided":true,
			"name":"Material",
			"pbrMetallicRoughness":{
				"baseColorFactor":[
					0.15292617678642273,
					0.25818291306495667,
					0.1247718334197998,
					1
				],
				"metallicFactor":0,
				"roughnessFactor":0.5
			}
		},
		{
			"doubleSided":true,
			"name":"shadosn",
			"pbrMetallicRoughness":{
				"baseColorFactor":[
					0.06301002949476242,
					0.14412851631641388,
					0.10224173218011856,
					1
				],
				"metallicFactor":0,
				"roughnessFactor":0.5
			}
		},
		{
			"doubleSided":true,
			"name":"lightosn",
			"pbrMetallicRoughness":{
				"baseColorFactor":[
					0.22696588933467865,
					0.34191450476646423,
					0.14412851631641388,
					1
				],
				"metallicFactor":0,
				"roughnessFactor":0.5
			}
		},
		{
			"doubleSided":true,
			"name":"osn-2",
			"pbrMetallicRoughness":{
				"baseColorFactor":[
					0.17151030898094177,
					0.29630887508392334,
					0.1398809403181076,
					1
				],
				"metallicFactor":0,
				"roughnessFactor":0.5
			}
		},
		{
			"doubleSided":true,
			"name":"normal-tree",
			"pbrMetallicRoughness":{
				"baseColorFactor":[
					0.10702310502529144,
					0.22322800755500793,
					0.10224173218011856,
					1
				],
				"metallicFactor":0,
				"roughnessFactor":0.5
			}
		},
		{
			"doubleSided":true,
			"name":"osn-tree",
			"pbrMetallicRoughness":{
				"baseColorFactor":[
					0.23455063998699188,
					0.12743771076202393,
					0.05126946046948433,
					1
				],
				"metallicFactor":0,
				"roughnessFactor":0.5
			}
		},
		{
			"doubleSided":true,
			"name":"shad-tree",
			"pbrMetallicRoughness":{
				"baseColorFactor":[
					0.09305897355079651,
					0.2195262312889099,
					0.09758733212947845,
					1
				],
				"metallicFactor":0,
				"roughnessFactor":0.5
			}
		},
		{
			"doubleSided":true,
			"name":"rock",
			"pbrMetallicRoughness":{
				"baseColorFactor":[
					0.3813260495662689,
					0.34670406579971313,
					0.26225075125694275,
					1
				],
				"metallicFactor":0,
				"roughnessFactor":0.5
			}
		},
		{
			"doubleSided":true,
			"name":"rock-sh",
			"pbrMetallicRoughness":{
				"baseColorFactor":[
					0.2195262312889099,
					0.19120171666145325,
					0.1384316384792328,
					1
				],
				"metallicFactor":0,
				"roughnessFactor":0.5
			}
		},
		{
			"doubleSided":true,
			"name":"normal-kus",
			"pbrMetallicRoughness":{
				"baseColorFactor":[
					0.10702310502529144,
					0.18116427958011627,
					0.07818741351366043,
					1
				],
				"metallicFactor":0,
				"roughnessFactor":0.5
			}
		},
		{
			"doubleSided":true,
			"name":"shad-kus",
			"pbrMetallicRoughness":{
				"baseColorFactor":[
					0.06171619892120361,
					0.10226551443338394,
					0.04822072759270668,
					1
				],
				"metallicFactor":0,
				"roughnessFactor":0.5
			}
		},
		{
			"doubleSided":true,
			"name":"light-kus",
			"pbrMetallicRoughness":{
				"baseColorFactor":[
					0.1247718334197998,
					0.22322800755500793,
					0.09305897355079651,
					1
				],
				"metallicFactor":0,
				"roughnessFactor":0.5
			}
		}
	],
	"meshes":[
		{
			"name":"Vert.019",
			"primitives":[
				{
					"attributes":{
						"POSITION":0,
						"NORMAL":1,
						"TEXCOORD_0":2
					},
					"indices":3,
					"material":0
				},
				{
					"attributes":{
						"POSITION":4,
						"NORMAL":5,
						"TEXCOORD_0":6
					},
					"indices":7,
					"material":1
				},
				{
					"attributes":{
						"POSITION":8,
						"NORMAL":9,
						"TEXCOORD_0":10
					},
					"indices":11,
					"material":2
				},
				{
					"attributes":{
						"POSITION":12,
						"NORMAL":13,
						"TEXCOORD_0":14
					},
					"indices":15,
					"material":3
				},
				{
					"attributes":{
						"POSITION":16,
						"NORMAL":17,
						"TEXCOORD_0":18
					},
					"indices":19,
					"material":4
				},
				{
					"attributes":{
						"POSITION":20,
						"NORMAL":21,
						"TEXCOORD_0":22
					},
					"indices":23,
					"material":5
				},
				{
					"attributes":{
						"POSITION":24,
						"NORMAL":25,
						"TEXCOORD_0":26
					},
					"indices":27,
					"material":6
				},
				{
					"attributes":{
						"POSITION":28,
						"NORMAL":29,
						"TEXCOORD_0":30
					},
					"indices":31,
					"material":7
				},
				{
					"attributes":{
						"POSITION":32,
						"NORMAL":33,
						"TEXCOORD_0":34
					},
					"indices":35,
					"material":8
				},
				{
					"attributes":{
						"POSITION":36,
						"NORMAL":37,
						"TEXCOORD_0":38
					},
					"indices":39,
					"material":9
				},
				{
					"attributes":{
						"POSITION":40,
						"NORMAL":41,
						"TEXCOORD_0":42
					},
					"indices":43,
					"material":10
				},
				{
					"attributes":{
						"POSITION":44,
						"NORMAL":45,
						"TEXCOORD_0":46
					},
					"indices":47,
					"material":11
				},
				{
					"attributes":{
						"POSITION":48,
						"NORMAL":49,
						"TEXCOORD_0":50
					},
					"indices":51,
					"material":12
				},
				{
					"attributes":{
						"POSITION":52,
						"NORMAL":53,
						"TEXCOORD_0":54
					},
					"indices":55,
					"material":13
				}
			]
		}
	],
	"accessors":[
		{
			"bufferView":0,
			"componentType":5126,
			"count":564,
			"max":[
				1.0384571552276611,
				0.1553446501493454,
				4.797786712646484
			],
			"min":[
				-1.6307635307312012,
				-0.0008599323919042945,
				2.716521978378296
			],
			"type":"VEC3"
		},
		{
			"bufferView":1,
			"componentType":5126,
			"count":564,
			"type":"VEC3"
		},
		{
			"bufferView":2,
			"componentType":5126,
			"count":564,
			"type":"VEC2"
		},
		{
			"bufferView":3,
			"componentType":5123,
			"count":852,
			"type":"SCALAR"
		},
		{
			"bufferView":4,
			"componentType":5126,
			"count":719,
			"max":[
				1.0384571552276611,
				0.07724235951900482,
				4.797786712646484
			],
			"min":[
				-1.6307635307312012,
				-0.0008599323919042945,
				2.716521978378296
			],
			"type":"VEC3"
		},
		{
			"bufferView":5,
			"componentType":5126,
			"count":719,
			"type":"VEC3"
		},
		{
			"bufferView":6,
			"componentType":5126,
			"count":719,
			"type":"VEC2"
		},
		{
			"bufferView":7,
			"componentType":5123,
			"count":1458,
			"type":"SCALAR"
		},
		{
			"bufferView":8,
			"componentType":5126,
			"count":21,
			"max":[
				0.9493193030357361,
				0.1553446501493454,
				4.697572231292725
			],
			"min":[
				-1.1452163457870483,
				0.1553446501493454,
				3.347731828689575
			],
			"type":"VEC3"
		},
		{
			"bufferView":9,
			"componentType":5126,
			"count":21,
			"type":"VEC3"
		},
		{
			"bufferView":10,
			"componentType":5126,
			"count":21,
			"type":"VEC2"
		},
		{
			"bufferView":11,
			"componentType":5123,
			"count":48,
			"type":"SCALAR"
		},
		{
			"bufferView":12,
			"componentType":5126,
			"count":170,
			"max":[
				1.0384571552276611,
				0.1553446501493454,
				4.797786712646484
			],
			"min":[
				-1.6307635307312012,
				0.1553446501493454,
				2.716521978378296
			],
			"type":"VEC3"
		},
		{
			"bufferView":13,
			"componentType":5126,
			"count":170,
			"type":"VEC3"
		},
		{
			"bufferView":14,
			"componentType":5126,
			"count":170,
			"type":"VEC2"
		},
		{
			"bufferView":15,
			"componentType":5123,
			"count":510,
			"type":"SCALAR"
		},
		{
			"bufferView":16,
			"componentType":5126,
			"count":12,
			"max":[
				0.7293956875801086,
				0.1553446501493454,
				4.698574542999268
			],
			"min":[
				-0.984492301940918,
				0.1553446501493454,
				3.1120457649230957
			],
			"type":"VEC3"
		},
		{
			"bufferView":17,
			"componentType":5126,
			"count":12,
			"type":"VEC3"
		},
		{
			"bufferView":18,
			"componentType":5126,
			"count":12,
			"type":"VEC2"
		},
		{
			"bufferView":19,
			"componentType":5123,
			"count":24,
			"type":"SCALAR"
		},
		{
			"bufferView":20,
			"componentType":5126,
			"count":26,
			"max":[
				0.8424376249313354,
				0.1553446501493454,
				4.715610980987549
			],
			"min":[
				-1.0343652963638306,
				0.1553446501493454,
				3.0962822437286377
			],
			"type":"VEC3"
		},
		{
			"bufferView":21,
			"componentType":5126,
			"count":26,
			"type":"VEC3"
		},
		{
			"bufferView":22,
			"componentType":5126,
			"count":26,
			"type":"VEC2"
		},
		{
			"bufferView":23,
			"componentType":5123,
			"count":48,
			"type":"SCALAR"
		},
		{
			"bufferView":24,
			"componentType":5126,
			"count":1152,
			"max":[
				0.7780642509460449,
				0.6266914010047913,
				4.675225257873535
			],
			"min":[
				-1.0900790691375732,
				0.17568838596343994,
				2.936947822570801
			],
			"type":"VEC3"
		},
		{
			"bufferView":25,
			"componentType":5126,
			"count":1152,
			"type":"VEC3"
		},
		{
			"bufferView":26,
			"componentType":5126,
			"count":1152,
			"type":"VEC2"
		},
		{
			"bufferView":27,
			"componentType":5123,
			"count":1872,
			"type":"SCALAR"
		},
		{
			"bufferView":28,
			"componentType":5126,
			"count":246,
			"max":[
				0.6452650427818298,
				0.23973722755908966,
				4.5352349281311035
			],
			"min":[
				-1.078444004058838,
				0.14624784886837006,
				3.0769379138946533
			],
			"type":"VEC3"
		},
		{
			"bufferView":29,
			"componentType":5126,
			"count":246,
			"type":"VEC3"
		},
		{
			"bufferView":30,
			"componentType":5126,
			"count":246,
			"type":"VEC2"
		},
		{
			"bufferView":31,
			"componentType":5123,
			"count":432,
			"type":"SCALAR"
		},
		{
			"bufferView":32,
			"componentType":5126,
			"count":1068,
			"max":[
				0.6445047855377197,
				0.6266914010047913,
				4.675225257873535
			],
			"min":[
				-1.241065263748169,
				0.17568838596343994,
				2.936947822570801
			],
			"type":"VEC3"
		},
		{
			"bufferView":33,
			"componentType":5126,
			"count":1068,
			"type":"VEC3"
		},
		{
			"bufferView":34,
			"componentType":5126,
			"count":1068,
			"type":"VEC2"
		},
		{
			"bufferView":35,
			"componentType":5123,
			"count":1728,
			"type":"SCALAR"
		},
		{
			"bufferView":36,
			"componentType":5126,
			"count":78,
			"max":[
				0.7689454555511475,
				0.2564105689525604,
				4.438617706298828
			],
			"min":[
				-0.9286691546440125,
				0.15116654336452484,
				3.7579638957977295
			],
			"type":"VEC3"
		},
		{
			"bufferView":37,
			"componentType":5126,
			"count":78,
			"type":"VEC3"
		},
		{
			"bufferView":38,
			"componentType":5126,
			"count":78,
			"type":"VEC2"
		},
		{
			"bufferView":39,
			"componentType":5123,
			"count":144,
			"type":"SCALAR"
		},
		{
			"bufferView":40,
			"componentType":5126,
			"count":208,
			"max":[
				0.7689454555511475,
				0.281200110912323,
				4.438617706298828
			],
			"min":[
				-0.9286691546440125,
				0.15116654336452484,
				3.7579638957977295
			],
			"type":"VEC3"
		},
		{
			"bufferView":41,
			"componentType":5126,
			"count":208,
			"type":"VEC3"
		},
		{
			"bufferView":42,
			"componentType":5126,
			"count":208,
			"type":"VEC2"
		},
		{
			"bufferView":43,
			"componentType":5123,
			"count":312,
			"type":"SCALAR"
		},
		{
			"bufferView":44,
			"componentType":5126,
			"count":384,
			"max":[
				0.9423381090164185,
				0.23194734752178192,
				4.365291118621826
			],
			"min":[
				-1.4281235933303833,
				0.16527612507343292,
				2.990744113922119
			],
			"type":"VEC3"
		},
		{
			"bufferView":45,
			"componentType":5126,
			"count":384,
			"type":"VEC3"
		},
		{
			"bufferView":46,
			"componentType":5126,
			"count":384,
			"type":"VEC2"
		},
		{
			"bufferView":47,
			"componentType":5123,
			"count":576,
			"type":"SCALAR"
		},
		{
			"bufferView":48,
			"componentType":5126,
			"count":246,
			"max":[
				0.9423381090164185,
				0.17730861902236938,
				4.365291118621826
			],
			"min":[
				-1.4281235933303833,
				0.1469646841287613,
				2.990744113922119
			],
			"type":"VEC3"
		},
		{
			"bufferView":49,
			"componentType":5126,
			"count":246,
			"type":"VEC3"
		},
		{
			"bufferView":50,
			"componentType":5126,
			"count":246,
			"type":"VEC2"
		},
		{
			"bufferView":51,
			"componentType":5123,
			"count":432,
			"type":"SCALAR"
		},
		{
			"bufferView":52,
			"componentType":5126,
			"count":96,
			"max":[
				0.9182311296463013,
				0.24735090136528015,
				4.3387627601623535
			],
			"min":[
				-1.4040166139602661,
				0.21609729528427124,
				3.017272710800171
			],
			"type":"VEC3"
		},
		{
			"bufferView":53,
			"componentType":5126,
			"count":96,
			"type":"VEC3"
		},
		{
			"bufferView":54,
			"componentType":5126,
			"count":96,
			"type":"VEC2"
		},
		{
			"bufferView":55,
			"componentType":5123,
			"count":144,
			"type":"SCALAR"
		}
	],
	"bufferViews":[
		{
			"buffer":0,
			"byteLength":6768,
			"byteOffset":0,
			"target":34962
		},
		{
			"buffer":0,
			"byteLength":6768,
			"byteOffset":6768,
			"target":34962
		},
		{
			"buffer":0,
			"byteLength":4512,
			"byteOffset":13536,
			"target":34962
		},
		{
			"buffer":0,
			"byteLength":1704,
			"byteOffset":18048,
			"target":34963
		},
		{
			"buffer":0,
			"byteLength":8628,
			"byteOffset":19752,
			"target":34962
		},
		{
			"buffer":0,
			"byteLength":8628,
			"byteOffset":28380,
			"target":34962
		},
		{
			"buffer":0,
			"byteLength":5752,
			"byteOffset":37008,
			"target":34962
		},
		{
			"buffer":0,
			"byteLength":2916,
			"byteOffset":42760,
			"target":34963
		},
		{
			"buffer":0,
			"byteLength":252,
			"byteOffset":45676,
			"target":34962
		},
		{
			"buffer":0,
			"byteLength":252,
			"byteOffset":45928,
			"target":34962
		},
		{
			"buffer":0,
			"byteLength":168,
			"byteOffset":46180,
			"target":34962
		},
		{
			"buffer":0,
			"byteLength":96,
			"byteOffset":46348,
			"target":34963
		},
		{
			"buffer":0,
			"byteLength":2040,
			"byteOffset":46444,
			"target":34962
		},
		{
			"buffer":0,
			"byteLength":2040,
			"byteOffset":48484,
			"target":34962
		},
		{
			"buffer":0,
			"byteLength":1360,
			"byteOffset":50524,
			"target":34962
		},
		{
			"buffer":0,
			"byteLength":1020,
			"byteOffset":51884,
			"target":34963
		},
		{
			"buffer":0,
			"byteLength":144,
			"byteOffset":52904,
			"target":34962
		},
		{
			"buffer":0,
			"byteLength":144,
			"byteOffset":53048,
			"target":34962
		},
		{
			"buffer":0,
			"byteLength":96,
			"byteOffset":53192,
			"target":34962
		},
		{
			"buffer":0,
			"byteLength":48,
			"byteOffset":53288,
			"target":34963
		},
		{
			"buffer":0,
			"byteLength":312,
			"byteOffset":53336,
			"target":34962
		},
		{
			"buffer":0,
			"byteLength":312,
			"byteOffset":53648,
			"target":34962
		},
		{
			"buffer":0,
			"byteLength":208,
			"byteOffset":53960,
			"target":34962
		},
		{
			"buffer":0,
			"byteLength":96,
			"byteOffset":54168,
			"target":34963
		},
		{
			"buffer":0,
			"byteLength":13824,
			"byteOffset":54264,
			"target":34962
		},
		{
			"buffer":0,
			"byteLength":13824,
			"byteOffset":68088,
			"target":34962
		},
		{
			"buffer":0,
			"byteLength":9216,
			"byteOffset":81912,
			"target":34962
		},
		{
			"buffer":0,
			"byteLength":3744,
			"byteOffset":91128,
			"target":34963
		},
		{
			"buffer":0,
			"byteLength":2952,
			"byteOffset":94872,
			"target":34962
		},
		{
			"buffer":0,
			"byteLength":2952,
			"byteOffset":97824,
			"target":34962
		},
		{
			"buffer":0,
			"byteLength":1968,
			"byteOffset":100776,
			"target":34962
		},
		{
			"buffer":0,
			"byteLength":864,
			"byteOffset":102744,
			"target":34963
		},
		{
			"buffer":0,
			"byteLength":12816,
			"byteOffset":103608,
			"target":34962
		},
		{
			"buffer":0,
			"byteLength":12816,
			"byteOffset":116424,
			"target":34962
		},
		{
			"buffer":0,
			"byteLength":8544,
			"byteOffset":129240,
			"target":34962
		},
		{
			"buffer":0,
			"byteLength":3456,
			"byteOffset":137784,
			"target":34963
		},
		{
			"buffer":0,
			"byteLength":936,
			"byteOffset":141240,
			"target":34962
		},
		{
			"buffer":0,
			"byteLength":936,
			"byteOffset":142176,
			"target":34962
		},
		{
			"buffer":0,
			"byteLength":624,
			"byteOffset":143112,
			"target":34962
		},
		{
			"buffer":0,
			"byteLength":288,
			"byteOffset":143736,
			"target":34963
		},
		{
			"buffer":0,
			"byteLength":2496,
			"byteOffset":144024,
			"target":34962
		},
		{
			"buffer":0,
			"byteLength":2496,
			"byteOffset":146520,
			"target":34962
		},
		{
			"buffer":0,
			"byteLength":1664,
			"byteOffset":149016,
			"target":34962
		},
		{
			"buffer":0,
			"byteLength":624,
			"byteOffset":150680,
			"target":34963
		},
		{
			"buffer":0,
			"byteLength":4608,
			"byteOffset":151304,
			"target":34962
		},
		{
			"buffer":0,
			"byteLength":4608,
			"byteOffset":155912,
			"target":34962
		},
		{
			"buffer":0,
			"byteLength":3072,
			"byteOffset":160520,
			"target":34962
		},
		{
			"buffer":0,
			"byteLength":1152,
			"byteOffset":163592,
			"target":34963
		},
		{
			"buffer":0,
			"byteLength":2952,
			"byteOffset":164744,
			"target":34962
		},
		{
			"buffer":0,
			"byteLength":2952,
			"byteOffset":167696,
			"target":34962
		},
		{
			"buffer":0,
			"byteLength":1968,
			"byteOffset":170648,
			"target":34962
		},
		{
			"buffer":0,
			"byteLength":864,
			"byteOffset":172616,
			"target":34963
		},
		{
			"buffer":0,
			"byteLength":1152,
			"byteOffset":173480,
			"target":34962
		},
		{
			"buffer":0,
			"byteLength":1152,
			"byteOffset":174632,
			"target":34962
		},
		{
			"buffer":0,
			"byteLength":768,
			"byteOffset":175784,
			"target":34962
		},
		{
			"buffer":0,
			"byteLength":288,
			"byteOffset":176552,
			"target":34963
		}
	],
	"buffers":[
		{
			"byteLength":176840,
			"uri":"data:application/octet-stream;base64,"
		}
	]
}
