{
	"asset":{
		"generator":"Khronos glTF Blender I/O v3.6.28",
		"version":"2.0"
	},
	"scene":0,
	"scenes":[
		{
			"name":"Scene",
			"nodes":[
				0
			]
		}
	],
	"nodes":[
		{
			"mesh":0,
			"name":"\u0430\u043c\u0433\u0430"
		}
	],
	"materials":[
		{
			"doubleSided":true,
			"name":"osn",
			"pbrMetallicRoughness":{
				"baseColorFactor":[
					0.17144113779067993,
					0.2746773660182953,
					0.1247718334197998,
					1
				],
				"metallicFactor":0,
				"roughnessFactor":0.5
			}
		},
		{
			"doubleSided":true,
			"name":"lightosn",
			"pbrMetallicRoughness":{
				"baseColorFactor":[
					0.22696588933467865,
					0.34191450476646423,
					0.14412851631641388,
					1
				],
				"metallicFactor":0,
				"roughnessFactor":0.5
			}
		},
		{
			"doubleSided":true,
			"name":"onlightosn",
			"pbrMetallicRoughness":{
				"baseColorFactor":[
					0.14995980262756348,
					0.2541521489620209,
					0.12213879823684692,
					1
				],
				"metallicFactor":0,
				"roughnessFactor":0.5
			}
		},
		{
			"doubleSided":true,
			"name":"osn-2",
			"pbrMetallicRoughness":{
				"baseColorFactor":[
					0.17151030898094177,
					0.29630887508392334,
					0.1398809403181076,
					1
				],
				"metallicFactor":0,
				"roughnessFactor":0.5
			}
		},
		{
			"doubleSided":true,
			"name":"shadosn",
			"pbrMetallicRoughness":{
				"baseColorFactor":[
					0.06301002949476242,
					0.14412851631641388,
					0.10224173218011856,
					1
				],
				"metallicFactor":0,
				"roughnessFactor":0.5
			}
		},
		{
			"doubleSided":true,
			"name":"underosn",
			"pbrMetallicRoughness":{
				"baseColorFactor":[
					0.19120171666145325,
					0.11193244159221649,
					0.09758733212947845,
					1
				],
				"metallicFactor":0,
				"roughnessFactor":0.5
			}
		},
		{
			"doubleSided":true,
			"name":"normal-tree",
			"pbrMetallicRoughness":{
				"baseColorFactor":[
					0.10702310502529144,
					0.22322800755500793,
					0.10224173218011856,
					1
				],
				"metallicFactor":0,
				"roughnessFactor":0.5
			}
		},
		{
			"doubleSided":true,
			"name":"osn-tree",
			"pbrMetallicRoughness":{
				"baseColorFactor":[
					0.23455063998699188,
					0.12743771076202393,
					0.05126946046948433,
					1
				],
				"metallicFactor":0,
				"roughnessFactor":0.5
			}
		},
		{
			"doubleSided":true,
			"name":"shad-tree",
			"pbrMetallicRoughness":{
				"baseColorFactor":[
					0.09305897355079651,
					0.2195262312889099,
					0.09758733212947845,
					1
				],
				"metallicFactor":0,
				"roughnessFactor":0.5
			}
		},
		{
			"doubleSided":true,
			"name":"normal-kus",
			"pbrMetallicRoughness":{
				"baseColorFactor":[
					0.10702310502529144,
					0.18116427958011627,
					0.07818741351366043,
					1
				],
				"metallicFactor":0,
				"roughnessFactor":0.5
			}
		},
		{
			"doubleSided":true,
			"name":"shad-kus",
			"pbrMetallicRoughness":{
				"baseColorFactor":[
					0.06171619892120361,
					0.10226551443338394,
					0.04822072759270668,
					1
				],
				"metallicFactor":0,
				"roughnessFactor":0.5
			}
		},
		{
			"doubleSided":true,
			"name":"light-kus",
			"pbrMetallicRoughness":{
				"baseColorFactor":[
					0.1247718334197998,
					0.22322800755500793,
					0.09305897355079651,
					1
				],
				"metallicFactor":0,
				"roughnessFactor":0.5
			}
		}
	],
	"meshes":[
		{
			"name":"Vert.006",
			"primitives":[
				{
					"attributes":{
						"POSITION":0,
						"NORMAL":1,
						"TEXCOORD_0":2
					},
					"indices":3,
					"material":0
				},
				{
					"attributes":{
						"POSITION":4,
						"NORMAL":5,
						"TEXCOORD_0":6
					},
					"indices":7,
					"material":1
				},
				{
					"attributes":{
						"POSITION":8,
						"NORMAL":9,
						"TEXCOORD_0":10
					},
					"indices":11,
					"material":2
				},
				{
					"attributes":{
						"POSITION":12,
						"NORMAL":13,
						"TEXCOORD_0":14
					},
					"indices":15,
					"material":3
				},
				{
					"attributes":{
						"POSITION":16,
						"NORMAL":17,
						"TEXCOORD_0":18
					},
					"indices":19,
					"material":4
				},
				{
					"attributes":{
						"POSITION":20,
						"NORMAL":21,
						"TEXCOORD_0":22
					},
					"indices":23,
					"material":5
				},
				{
					"attributes":{
						"POSITION":24,
						"NORMAL":25,
						"TEXCOORD_0":26
					},
					"indices":27,
					"material":6
				},
				{
					"attributes":{
						"POSITION":28,
						"NORMAL":29,
						"TEXCOORD_0":30
					},
					"indices":31,
					"material":7
				},
				{
					"attributes":{
						"POSITION":32,
						"NORMAL":33,
						"TEXCOORD_0":34
					},
					"indices":35,
					"material":8
				},
				{
					"attributes":{
						"POSITION":36,
						"NORMAL":37,
						"TEXCOORD_0":38
					},
					"indices":39,
					"material":9
				},
				{
					"attributes":{
						"POSITION":40,
						"NORMAL":41,
						"TEXCOORD_0":42
					},
					"indices":43,
					"material":10
				},
				{
					"attributes":{
						"POSITION":44,
						"NORMAL":45,
						"TEXCOORD_0":46
					},
					"indices":47,
					"material":11
				}
			]
		}
	],
	"accessors":[
		{
			"bufferView":0,
			"componentType":5126,
			"count":258,
			"max":[
				0.9880507588386536,
				0.15620458126068115,
				3.283945083618164
			],
			"min":[
				-0.07151828706264496,
				0.07810229063034058,
				2.219184637069702
			],
			"type":"VEC3"
		},
		{
			"bufferView":1,
			"componentType":5126,
			"count":258,
			"type":"VEC3"
		},
		{
			"bufferView":2,
			"componentType":5126,
			"count":258,
			"type":"VEC2"
		},
		{
			"bufferView":3,
			"componentType":5123,
			"count":390,
			"type":"SCALAR"
		},
		{
			"bufferView":4,
			"componentType":5126,
			"count":15,
			"max":[
				0.905538022518158,
				0.15620458126068115,
				3.283945083618164
			],
			"min":[
				0.06196737661957741,
				0.15620458126068115,
				2.3360753059387207
			],
			"type":"VEC3"
		},
		{
			"bufferView":5,
			"componentType":5126,
			"count":15,
			"type":"VEC3"
		},
		{
			"bufferView":6,
			"componentType":5126,
			"count":15,
			"type":"VEC2"
		},
		{
			"bufferView":7,
			"componentType":5123,
			"count":24,
			"type":"SCALAR"
		},
		{
			"bufferView":8,
			"componentType":5126,
			"count":26,
			"max":[
				0.9519734382629395,
				0.15620458126068115,
				3.283945083618164
			],
			"min":[
				-0.04265652224421501,
				0.15620458126068115,
				2.2884531021118164
			],
			"type":"VEC3"
		},
		{
			"bufferView":9,
			"componentType":5126,
			"count":26,
			"type":"VEC3"
		},
		{
			"bufferView":10,
			"componentType":5126,
			"count":26,
			"type":"VEC2"
		},
		{
			"bufferView":11,
			"componentType":5123,
			"count":54,
			"type":"SCALAR"
		},
		{
			"bufferView":12,
			"componentType":5126,
			"count":12,
			"max":[
				0.905538022518158,
				0.15620458126068115,
				3.117990016937256
			],
			"min":[
				0.33433017134666443,
				0.15620458126068115,
				2.3216443061828613
			],
			"type":"VEC3"
		},
		{
			"bufferView":13,
			"componentType":5126,
			"count":12,
			"type":"VEC3"
		},
		{
			"bufferView":14,
			"componentType":5126,
			"count":12,
			"type":"VEC2"
		},
		{
			"bufferView":15,
			"componentType":5123,
			"count":18,
			"type":"SCALAR"
		},
		{
			"bufferView":16,
			"componentType":5126,
			"count":57,
			"max":[
				0.9880507588386536,
				0.15620458126068115,
				3.282742500305176
			],
			"min":[
				-0.07151828706264496,
				0.15620458126068115,
				2.219184637069702
			],
			"type":"VEC3"
		},
		{
			"bufferView":17,
			"componentType":5126,
			"count":57,
			"type":"VEC3"
		},
		{
			"bufferView":18,
			"componentType":5126,
			"count":57,
			"type":"VEC2"
		},
		{
			"bufferView":19,
			"componentType":5123,
			"count":126,
			"type":"SCALAR"
		},
		{
			"bufferView":20,
			"componentType":5126,
			"count":318,
			"max":[
				0.9880507588386536,
				0.07810229063034058,
				3.283945083618164
			],
			"min":[
				-0.07151828706264496,
				0,
				2.219184637069702
			],
			"type":"VEC3"
		},
		{
			"bufferView":21,
			"componentType":5126,
			"count":318,
			"type":"VEC3"
		},
		{
			"bufferView":22,
			"componentType":5126,
			"count":318,
			"type":"VEC2"
		},
		{
			"bufferView":23,
			"componentType":5123,
			"count":612,
			"type":"SCALAR"
		},
		{
			"bufferView":24,
			"componentType":5126,
			"count":576,
			"max":[
				0.8343625068664551,
				0.5324561595916748,
				3.253258466720581
			],
			"min":[
				0.011815577745437622,
				0.17749062180519104,
				2.3305306434631348
			],
			"type":"VEC3"
		},
		{
			"bufferView":25,
			"componentType":5126,
			"count":576,
			"type":"VEC3"
		},
		{
			"bufferView":26,
			"componentType":5126,
			"count":576,
			"type":"VEC2"
		},
		{
			"bufferView":27,
			"componentType":5123,
			"count":936,
			"type":"SCALAR"
		},
		{
			"bufferView":28,
			"componentType":5126,
			"count":123,
			"max":[
				0.755509078502655,
				0.21646273136138916,
				3.16816782951355
			],
			"min":[
				0.02131696417927742,
				0.14710834622383118,
				2.3604953289031982
			],
			"type":"VEC3"
		},
		{
			"bufferView":29,
			"componentType":5126,
			"count":123,
			"type":"VEC3"
		},
		{
			"bufferView":30,
			"componentType":5126,
			"count":123,
			"type":"VEC2"
		},
		{
			"bufferView":31,
			"componentType":5123,
			"count":216,
			"type":"SCALAR"
		},
		{
			"bufferView":32,
			"componentType":5126,
			"count":534,
			"max":[
				0.8373616933822632,
				0.5324561595916748,
				3.206312894821167
			],
			"min":[
				-0.11148227751255035,
				0.17749062180519104,
				2.2779929637908936
			],
			"type":"VEC3"
		},
		{
			"bufferView":33,
			"componentType":5126,
			"count":534,
			"type":"VEC3"
		},
		{
			"bufferView":34,
			"componentType":5126,
			"count":534,
			"type":"VEC2"
		},
		{
			"bufferView":35,
			"componentType":5123,
			"count":864,
			"type":"SCALAR"
		},
		{
			"bufferView":36,
			"componentType":5126,
			"count":128,
			"max":[
				0.9450563192367554,
				0.23280784487724304,
				3.172842502593994
			],
			"min":[
				-0.04619978368282318,
				0.162727952003479,
				2.4058916568756104
			],
			"type":"VEC3"
		},
		{
			"bufferView":37,
			"componentType":5126,
			"count":128,
			"type":"VEC3"
		},
		{
			"bufferView":38,
			"componentType":5126,
			"count":128,
			"type":"VEC2"
		},
		{
			"bufferView":39,
			"componentType":5123,
			"count":192,
			"type":"SCALAR"
		},
		{
			"bufferView":40,
			"componentType":5126,
			"count":82,
			"max":[
				0.9450563192367554,
				0.1781691312789917,
				3.172842502593994
			],
			"min":[
				-0.04619978368282318,
				0.1478251814842224,
				2.4058916568756104
			],
			"type":"VEC3"
		},
		{
			"bufferView":41,
			"componentType":5126,
			"count":82,
			"type":"VEC3"
		},
		{
			"bufferView":42,
			"componentType":5126,
			"count":82,
			"type":"VEC2"
		},
		{
			"bufferView":43,
			"componentType":5123,
			"count":144,
			"type":"SCALAR"
		},
		{
			"bufferView":44,
			"componentType":5126,
			"count":32,
			"max":[
				0.9138075113296509,
				0.24821141362190247,
				3.1557888984680176
			],
			"min":[
				-0.03070273995399475,
				0.1953980177640915,
				2.4368929862976074
			],
			"type":"VEC3"
		},
		{
			"bufferView":45,
			"componentType":5126,
			"count":32,
			"type":"VEC3"
		},
		{
			"bufferView":46,
			"componentType":5126,
			"count":32,
			"type":"VEC2"
		},
		{
			"bufferView":47,
			"componentType":5123,
			"count":48,
			"type":"SCALAR"
		}
	],
	"bufferViews":[
		{
			"buffer":0,
			"byteLength":3096,
			"byteOffset":0,
			"target":34962
		},
		{
			"buffer":0,
			"byteLength":3096,
			"byteOffset":3096,
			"target":34962
		},
		{
			"buffer":0,
			"byteLength":2064,
			"byteOffset":6192,
			"target":34962
		},
		{
			"buffer":0,
			"byteLength":780,
			"byteOffset":8256,
			"target":34963
		},
		{
			"buffer":0,
			"byteLength":180,
			"byteOffset":9036,
			"target":34962
		},
		{
			"buffer":0,
			"byteLength":180,
			"byteOffset":9216,
			"target":34962
		},
		{
			"buffer":0,
			"byteLength":120,
			"byteOffset":9396,
			"target":34962
		},
		{
			"buffer":0,
			"byteLength":48,
			"byteOffset":9516,
			"target":34963
		},
		{
			"buffer":0,
			"byteLength":312,
			"byteOffset":9564,
			"target":34962
		},
		{
			"buffer":0,
			"byteLength":312,
			"byteOffset":9876,
			"target":34962
		},
		{
			"buffer":0,
			"byteLength":208,
			"byteOffset":10188,
			"target":34962
		},
		{
			"buffer":0,
			"byteLength":108,
			"byteOffset":10396,
			"target":34963
		},
		{
			"buffer":0,
			"byteLength":144,
			"byteOffset":10504,
			"target":34962
		},
		{
			"buffer":0,
			"byteLength":144,
			"byteOffset":10648,
			"target":34962
		},
		{
			"buffer":0,
			"byteLength":96,
			"byteOffset":10792,
			"target":34962
		},
		{
			"buffer":0,
			"byteLength":36,
			"byteOffset":10888,
			"target":34963
		},
		{
			"buffer":0,
			"byteLength":684,
			"byteOffset":10924,
			"target":34962
		},
		{
			"buffer":0,
			"byteLength":684,
			"byteOffset":11608,
			"target":34962
		},
		{
			"buffer":0,
			"byteLength":456,
			"byteOffset":12292,
			"target":34962
		},
		{
			"buffer":0,
			"byteLength":252,
			"byteOffset":12748,
			"target":34963
		},
		{
			"buffer":0,
			"byteLength":3816,
			"byteOffset":13000,
			"target":34962
		},
		{
			"buffer":0,
			"byteLength":3816,
			"byteOffset":16816,
			"target":34962
		},
		{
			"buffer":0,
			"byteLength":2544,
			"byteOffset":20632,
			"target":34962
		},
		{
			"buffer":0,
			"byteLength":1224,
			"byteOffset":23176,
			"target":34963
		},
		{
			"buffer":0,
			"byteLength":6912,
			"byteOffset":24400,
			"target":34962
		},
		{
			"buffer":0,
			"byteLength":6912,
			"byteOffset":31312,
			"target":34962
		},
		{
			"buffer":0,
			"byteLength":4608,
			"byteOffset":38224,
			"target":34962
		},
		{
			"buffer":0,
			"byteLength":1872,
			"byteOffset":42832,
			"target":34963
		},
		{
			"buffer":0,
			"byteLength":1476,
			"byteOffset":44704,
			"target":34962
		},
		{
			"buffer":0,
			"byteLength":1476,
			"byteOffset":46180,
			"target":34962
		},
		{
			"buffer":0,
			"byteLength":984,
			"byteOffset":47656,
			"target":34962
		},
		{
			"buffer":0,
			"byteLength":432,
			"byteOffset":48640,
			"target":34963
		},
		{
			"buffer":0,
			"byteLength":6408,
			"byteOffset":49072,
			"target":34962
		},
		{
			"buffer":0,
			"byteLength":6408,
			"byteOffset":55480,
			"target":34962
		},
		{
			"buffer":0,
			"byteLength":4272,
			"byteOffset":61888,
			"target":34962
		},
		{
			"buffer":0,
			"byteLength":1728,
			"byteOffset":66160,
			"target":34963
		},
		{
			"buffer":0,
			"byteLength":1536,
			"byteOffset":67888,
			"target":34962
		},
		{
			"buffer":0,
			"byteLength":1536,
			"byteOffset":69424,
			"target":34962
		},
		{
			"buffer":0,
			"byteLength":1024,
			"byteOffset":70960,
			"target":34962
		},
		{
			"buffer":0,
			"byteLength":384,
			"byteOffset":71984,
			"target":34963
		},
		{
			"buffer":0,
			"byteLength":984,
			"byteOffset":72368,
			"target":34962
		},
		{
			"buffer":0,
			"byteLength":984,
			"byteOffset":73352,
			"target":34962
		},
		{
			"buffer":0,
			"byteLength":656,
			"byteOffset":74336,
			"target":34962
		},
		{
			"buffer":0,
			"byteLength":288,
			"byteOffset":74992,
			"target":34963
		},
		{
			"buffer":0,
			"byteLength":384,
			"byteOffset":75280,
			"target":34962
		},
		{
			"buffer":0,
			"byteLength":384,
			"byteOffset":75664,
			"target":34962
		},
		{
			"buffer":0,
			"byteLength":256,
			"byteOffset":76048,
			"target":34962
		},
		{
			"buffer":0,
			"byteLength":96,
			"byteOffset":76304,
			"target":34963
		}
	],
	"buffers":[
		{
			"byteLength":76400,
			"uri":"data:application/octet-stream;base64,"
		}
	]
}
