{
	"asset":{
		"generator":"Khronos glTF Blender I/O v3.6.28",
		"version":"2.0"
	},
	"scene":0,
	"scenes":[
		{
			"name":"Scene",
			"nodes":[
				0
			]
		}
	],
	"nodes":[
		{
			"mesh":0,
			"name":"\u0431\u0430\u0442\u0430\u0433\u0430\u0439"
		}
	],
	"materials":[
		{
			"doubleSided":true,
			"name":"osn",
			"pbrMetallicRoughness":{
				"baseColorFactor":[
					0.17144113779067993,
					0.2746773660182953,
					0.1247718334197998,
					1
				],
				"metallicFactor":0,
				"roughnessFactor":0.5
			}
		},
		{
			"doubleSided":true,
			"name":"lightosn",
			"pbrMetallicRoughness":{
				"baseColorFactor":[
					0.22696588933467865,
					0.34191450476646423,
					0.14412851631641388,
					1
				],
				"metallicFactor":0,
				"roughnessFactor":0.5
			}
		},
		{
			"doubleSided":true,
			"name":"onlightosn",
			"pbrMetallicRoughness":{
				"baseColorFactor":[
					0.14995980262756348,
					0.2541521489620209,
					0.12213879823684692,
					1
				],
				"metallicFactor":0,
				"roughnessFactor":0.5
			}
		},
		{
			"doubleSided":true,
			"name":"osn-2",
			"pbrMetallicRoughness":{
				"baseColorFactor":[
					0.17151030898094177,
					0.29630887508392334,
					0.1398809403181076,
					1
				],
				"metallicFactor":0,
				"roughnessFactor":0.5
			}
		},
		{
			"doubleSided":true,
			"name":"shadosn",
			"pbrMetallicRoughness":{
				"baseColorFactor":[
					0.06301002949476242,
					0.14412851631641388,
					0.10224173218011856,
					1
				],
				"metallicFactor":0,
				"roughnessFactor":0.5
			}
		},
		{
			"doubleSided":true,
			"name":"underosn",
			"pbrMetallicRoughness":{
				"baseColorFactor":[
					0.19120171666145325,
					0.11193244159221649,
					0.09758733212947845,
					1
				],
				"metallicFactor":0,
				"roughnessFactor":0.5
			}
		},
		{
			"doubleSided":true,
			"name":"normal-tree",
			"pbrMetallicRoughness":{
				"baseColorFactor":[
					0.10702310502529144,
					0.22322800755500793,
					0.10224173218011856,
					1
				],
				"metallicFactor":0,
				"roughnessFactor":0.5
			}
		},
		{
			"doubleSided":true,
			"name":"osn-tree",
			"pbrMetallicRoughness":{
				"baseColorFactor":[
					0.23455063998699188,
					0.12743771076202393,
					0.05126946046948433,
					1
				],
				"metallicFactor":0,
				"roughnessFactor":0.5
			}
		},
		{
			"doubleSided":true,
			"name":"shad-tree",
			"pbrMetallicRoughness":{
				"baseColorFactor":[
					0.09305897355079651,
					0.2195262312889099,
					0.09758733212947845,
					1
				],
				"metallicFactor":0,
				"roughnessFactor":0.5
			}
		},
		{
			"doubleSided":true,
			"name":"rock",
			"pbrMetallicRoughness":{
				"baseColorFactor":[
					0.3813260495662689,
					0.34670406579971313,
					0.26225075125694275,
					1
				],
				"metallicFactor":0,
				"roughnessFactor":0.5
			}
		},
		{
			"doubleSided":true,
			"name":"rock-sh",
			"pbrMetallicRoughness":{
				"baseColorFactor":[
					0.2195262312889099,
					0.19120171666145325,
					0.1384316384792328,
					1
				],
				"metallicFactor":0,
				"roughnessFactor":0.5
			}
		},
		{
			"doubleSided":true,
			"name":"normal-kus",
			"pbrMetallicRoughness":{
				"baseColorFactor":[
					0.10702310502529144,
					0.18116427958011627,
					0.07818741351366043,
					1
				],
				"metallicFactor":0,
				"roughnessFactor":0.5
			}
		},
		{
			"doubleSided":true,
			"name":"shad-kus",
			"pbrMetallicRoughness":{
				"baseColorFactor":[
					0.06171619892120361,
					0.10226551443338394,
					0.04822072759270668,
					1
				],
				"metallicFactor":0,
				"roughnessFactor":0.5
			}
		},
		{
			"doubleSided":true,
			"name":"light-kus",
			"pbrMetallicRoughness":{
				"baseColorFactor":[
					0.1247718334197998,
					0.22322800755500793,
					0.09305897355079651,
					1
				],
				"metallicFactor":0,
				"roughnessFactor":0.5
			}
		}
	],
	"meshes":[
		{
			"name":"Vert.045",
			"primitives":[
				{
					"attributes":{
						"POSITION":0,
						"NORMAL":1,
						"TEXCOORD_0":2
					},
					"indices":3,
					"material":0
				},
				{
					"attributes":{
						"POSITION":4,
						"NORMAL":5,
						"TEXCOORD_0":6
					},
					"indices":7,
					"material":1
				},
				{
					"attributes":{
						"POSITION":8,
						"NORMAL":9,
						"TEXCOORD_0":10
					},
					"indices":11,
					"material":2
				},
				{
					"attributes":{
						"POSITION":12,
						"NORMAL":13,
						"TEXCOORD_0":14
					},
					"indices":15,
					"material":3
				},
				{
					"attributes":{
						"POSITION":16,
						"NORMAL":17,
						"TEXCOORD_0":18
					},
					"indices":19,
					"material":4
				},
				{
					"attributes":{
						"POSITION":20,
						"NORMAL":21,
						"TEXCOORD_0":22
					},
					"indices":23,
					"material":5
				},
				{
					"attributes":{
						"POSITION":24,
						"NORMAL":25,
						"TEXCOORD_0":26
					},
					"indices":27,
					"material":6
				},
				{
					"attributes":{
						"POSITION":28,
						"NORMAL":29,
						"TEXCOORD_0":30
					},
					"indices":31,
					"material":7
				},
				{
					"attributes":{
						"POSITION":32,
						"NORMAL":33,
						"TEXCOORD_0":34
					},
					"indices":35,
					"material":8
				},
				{
					"attributes":{
						"POSITION":36,
						"NORMAL":37,
						"TEXCOORD_0":38
					},
					"indices":39,
					"material":9
				},
				{
					"attributes":{
						"POSITION":40,
						"NORMAL":41,
						"TEXCOORD_0":42
					},
					"indices":43,
					"material":10
				},
				{
					"attributes":{
						"POSITION":44,
						"NORMAL":45,
						"TEXCOORD_0":46
					},
					"indices":47,
					"material":11
				},
				{
					"attributes":{
						"POSITION":48,
						"NORMAL":49,
						"TEXCOORD_0":50
					},
					"indices":51,
					"material":12
				},
				{
					"attributes":{
						"POSITION":52,
						"NORMAL":53,
						"TEXCOORD_0":54
					},
					"indices":55,
					"material":13
				}
			]
		}
	],
	"accessors":[
		{
			"bufferView":0,
			"componentType":5126,
			"count":513,
			"max":[
				1.8852522373199463,
				0.15620458126068115,
				0.6633350253105164
			],
			"min":[
				-0.3001439869403839,
				0.07810229063034058,
				-2.1581149101257324
			],
			"type":"VEC3"
		},
		{
			"bufferView":1,
			"componentType":5126,
			"count":513,
			"type":"VEC3"
		},
		{
			"bufferView":2,
			"componentType":5126,
			"count":513,
			"type":"VEC2"
		},
		{
			"bufferView":3,
			"componentType":5123,
			"count":780,
			"type":"SCALAR"
		},
		{
			"bufferView":4,
			"componentType":5126,
			"count":20,
			"max":[
				1.5684212446212769,
				0.15620458126068115,
				0.026655718684196472
			],
			"min":[
				-0.008059490472078323,
				0.15620458126068115,
				-1.5993638038635254
			],
			"type":"VEC3"
		},
		{
			"bufferView":5,
			"componentType":5126,
			"count":20,
			"type":"VEC3"
		},
		{
			"bufferView":6,
			"componentType":5126,
			"count":20,
			"type":"VEC2"
		},
		{
			"bufferView":7,
			"componentType":5123,
			"count":36,
			"type":"SCALAR"
		},
		{
			"bufferView":8,
			"componentType":5126,
			"count":19,
			"max":[
				1.1778507232666016,
				0.15620458126068115,
				0.2699079215526581
			],
			"min":[
				-0.008059490472078323,
				0.15620458126068115,
				-2.0709712505340576
			],
			"type":"VEC3"
		},
		{
			"bufferView":9,
			"componentType":5126,
			"count":19,
			"type":"VEC3"
		},
		{
			"bufferView":10,
			"componentType":5126,
			"count":19,
			"type":"VEC2"
		},
		{
			"bufferView":11,
			"componentType":5123,
			"count":36,
			"type":"SCALAR"
		},
		{
			"bufferView":12,
			"componentType":5126,
			"count":19,
			"max":[
				1.4652836322784424,
				0.15620458126068115,
				0.0907319039106369
			],
			"min":[
				-0.24198199808597565,
				0.15620458126068115,
				-2.038503885269165
			],
			"type":"VEC3"
		},
		{
			"bufferView":13,
			"componentType":5126,
			"count":19,
			"type":"VEC3"
		},
		{
			"bufferView":14,
			"componentType":5126,
			"count":19,
			"type":"VEC2"
		},
		{
			"bufferView":15,
			"componentType":5123,
			"count":42,
			"type":"SCALAR"
		},
		{
			"bufferView":16,
			"componentType":5126,
			"count":132,
			"max":[
				1.8852522373199463,
				0.15620458126068115,
				0.6633350253105164
			],
			"min":[
				-0.3001439869403839,
				0.15620458126068115,
				-2.1581149101257324
			],
			"type":"VEC3"
		},
		{
			"bufferView":17,
			"componentType":5126,
			"count":132,
			"type":"VEC3"
		},
		{
			"bufferView":18,
			"componentType":5126,
			"count":132,
			"type":"VEC2"
		},
		{
			"bufferView":19,
			"componentType":5123,
			"count":360,
			"type":"SCALAR"
		},
		{
			"bufferView":20,
			"componentType":5126,
			"count":642,
			"max":[
				1.8852522373199463,
				0.07810229063034058,
				0.6633350253105164
			],
			"min":[
				-0.3001439869403839,
				0,
				-2.1581149101257324
			],
			"type":"VEC3"
		},
		{
			"bufferView":21,
			"componentType":5126,
			"count":642,
			"type":"VEC3"
		},
		{
			"bufferView":22,
			"componentType":5126,
			"count":642,
			"type":"VEC2"
		},
		{
			"bufferView":23,
			"componentType":5123,
			"count":1254,
			"type":"SCALAR"
		},
		{
			"bufferView":24,
			"componentType":5126,
			"count":1152,
			"max":[
				1.6973850727081299,
				0.6645415425300598,
				0.10049983859062195
			],
			"min":[
				-0.17657390236854553,
				0.18861103057861328,
				-2.085440158843994
			],
			"type":"VEC3"
		},
		{
			"bufferView":25,
			"componentType":5126,
			"count":1152,
			"type":"VEC3"
		},
		{
			"bufferView":26,
			"componentType":5126,
			"count":1152,
			"type":"VEC2"
		},
		{
			"bufferView":27,
			"componentType":5123,
			"count":1872,
			"type":"SCALAR"
		},
		{
			"bufferView":28,
			"componentType":5126,
			"count":246,
			"max":[
				1.5657484531402588,
				0.2295244187116623,
				0.03638441488146782
			],
			"min":[
				-0.16707251965999603,
				0.13404665887355804,
				-1.9532653093338013
			],
			"type":"VEC3"
		},
		{
			"bufferView":29,
			"componentType":5126,
			"count":246,
			"type":"VEC3"
		},
		{
			"bufferView":30,
			"componentType":5126,
			"count":246,
			"type":"VEC2"
		},
		{
			"bufferView":31,
			"componentType":5123,
			"count":432,
			"type":"SCALAR"
		},
		{
			"bufferView":32,
			"componentType":5126,
			"count":1068,
			"max":[
				1.6733378171920776,
				0.6645415425300598,
				0.2194681018590927
			],
			"min":[
				-0.2998717427253723,
				0.18861103057861328,
				-2.02034330368042
			],
			"type":"VEC3"
		},
		{
			"bufferView":33,
			"componentType":5126,
			"count":1068,
			"type":"VEC3"
		},
		{
			"bufferView":34,
			"componentType":5126,
			"count":1068,
			"type":"VEC2"
		},
		{
			"bufferView":35,
			"componentType":5123,
			"count":1728,
			"type":"SCALAR"
		},
		{
			"bufferView":36,
			"componentType":5126,
			"count":39,
			"max":[
				0.5609934329986572,
				0.25727108120918274,
				-1.570818543434143
			],
			"min":[
				0.3147714138031006,
				0.15202704071998596,
				-1.826471209526062
			],
			"type":"VEC3"
		},
		{
			"bufferView":37,
			"componentType":5126,
			"count":39,
			"type":"VEC3"
		},
		{
			"bufferView":38,
			"componentType":5126,
			"count":39,
			"type":"VEC2"
		},
		{
			"bufferView":39,
			"componentType":5123,
			"count":72,
			"type":"SCALAR"
		},
		{
			"bufferView":40,
			"componentType":5126,
			"count":104,
			"max":[
				0.5609934329986572,
				0.2820605933666229,
				-1.570818543434143
			],
			"min":[
				0.3147714138031006,
				0.15202704071998596,
				-1.826471209526062
			],
			"type":"VEC3"
		},
		{
			"bufferView":41,
			"componentType":5126,
			"count":104,
			"type":"VEC3"
		},
		{
			"bufferView":42,
			"componentType":5126,
			"count":104,
			"type":"VEC2"
		},
		{
			"bufferView":43,
			"componentType":5123,
			"count":156,
			"type":"SCALAR"
		},
		{
			"bufferView":44,
			"componentType":5126,
			"count":384,
			"max":[
				1.6618016958236694,
				0.23280784487724304,
				0.19464677572250366
			],
			"min":[
				-0.19888536632061005,
				0.16613662242889404,
				-1.9358528852462769
			],
			"type":"VEC3"
		},
		{
			"bufferView":45,
			"componentType":5126,
			"count":384,
			"type":"VEC3"
		},
		{
			"bufferView":46,
			"componentType":5126,
			"count":384,
			"type":"VEC2"
		},
		{
			"bufferView":47,
			"componentType":5123,
			"count":576,
			"type":"SCALAR"
		},
		{
			"bufferView":48,
			"componentType":5126,
			"count":246,
			"max":[
				1.6618016958236694,
				0.1781691312789917,
				0.19464677572250366
			],
			"min":[
				-0.19888536632061005,
				0.1478251814842224,
				-1.9358528852462769
			],
			"type":"VEC3"
		},
		{
			"bufferView":49,
			"componentType":5126,
			"count":246,
			"type":"VEC3"
		},
		{
			"bufferView":50,
			"componentType":5126,
			"count":246,
			"type":"VEC2"
		},
		{
			"bufferView":51,
			"componentType":5123,
			"count":432,
			"type":"SCALAR"
		},
		{
			"bufferView":52,
			"componentType":5126,
			"count":96,
			"max":[
				1.6376947164535522,
				0.24821141362190247,
				0.16811825335025787
			],
			"min":[
				-0.16807317733764648,
				0.21695777773857117,
				-1.9093244075775146
			],
			"type":"VEC3"
		},
		{
			"bufferView":53,
			"componentType":5126,
			"count":96,
			"type":"VEC3"
		},
		{
			"bufferView":54,
			"componentType":5126,
			"count":96,
			"type":"VEC2"
		},
		{
			"bufferView":55,
			"componentType":5123,
			"count":144,
			"type":"SCALAR"
		}
	],
	"bufferViews":[
		{
			"buffer":0,
			"byteLength":6156,
			"byteOffset":0,
			"target":34962
		},
		{
			"buffer":0,
			"byteLength":6156,
			"byteOffset":6156,
			"target":34962
		},
		{
			"buffer":0,
			"byteLength":4104,
			"byteOffset":12312,
			"target":34962
		},
		{
			"buffer":0,
			"byteLength":1560,
			"byteOffset":16416,
			"target":34963
		},
		{
			"buffer":0,
			"byteLength":240,
			"byteOffset":17976,
			"target":34962
		},
		{
			"buffer":0,
			"byteLength":240,
			"byteOffset":18216,
			"target":34962
		},
		{
			"buffer":0,
			"byteLength":160,
			"byteOffset":18456,
			"target":34962
		},
		{
			"buffer":0,
			"byteLength":72,
			"byteOffset":18616,
			"target":34963
		},
		{
			"buffer":0,
			"byteLength":228,
			"byteOffset":18688,
			"target":34962
		},
		{
			"buffer":0,
			"byteLength":228,
			"byteOffset":18916,
			"target":34962
		},
		{
			"buffer":0,
			"byteLength":152,
			"byteOffset":19144,
			"target":34962
		},
		{
			"buffer":0,
			"byteLength":72,
			"byteOffset":19296,
			"target":34963
		},
		{
			"buffer":0,
			"byteLength":228,
			"byteOffset":19368,
			"target":34962
		},
		{
			"buffer":0,
			"byteLength":228,
			"byteOffset":19596,
			"target":34962
		},
		{
			"buffer":0,
			"byteLength":152,
			"byteOffset":19824,
			"target":34962
		},
		{
			"buffer":0,
			"byteLength":84,
			"byteOffset":19976,
			"target":34963
		},
		{
			"buffer":0,
			"byteLength":1584,
			"byteOffset":20060,
			"target":34962
		},
		{
			"buffer":0,
			"byteLength":1584,
			"byteOffset":21644,
			"target":34962
		},
		{
			"buffer":0,
			"byteLength":1056,
			"byteOffset":23228,
			"target":34962
		},
		{
			"buffer":0,
			"byteLength":720,
			"byteOffset":24284,
			"target":34963
		},
		{
			"buffer":0,
			"byteLength":7704,
			"byteOffset":25004,
			"target":34962
		},
		{
			"buffer":0,
			"byteLength":7704,
			"byteOffset":32708,
			"target":34962
		},
		{
			"buffer":0,
			"byteLength":5136,
			"byteOffset":40412,
			"target":34962
		},
		{
			"buffer":0,
			"byteLength":2508,
			"byteOffset":45548,
			"target":34963
		},
		{
			"buffer":0,
			"byteLength":13824,
			"byteOffset":48056,
			"target":34962
		},
		{
			"buffer":0,
			"byteLength":13824,
			"byteOffset":61880,
			"target":34962
		},
		{
			"buffer":0,
			"byteLength":9216,
			"byteOffset":75704,
			"target":34962
		},
		{
			"buffer":0,
			"byteLength":3744,
			"byteOffset":84920,
			"target":34963
		},
		{
			"buffer":0,
			"byteLength":2952,
			"byteOffset":88664,
			"target":34962
		},
		{
			"buffer":0,
			"byteLength":2952,
			"byteOffset":91616,
			"target":34962
		},
		{
			"buffer":0,
			"byteLength":1968,
			"byteOffset":94568,
			"target":34962
		},
		{
			"buffer":0,
			"byteLength":864,
			"byteOffset":96536,
			"target":34963
		},
		{
			"buffer":0,
			"byteLength":12816,
			"byteOffset":97400,
			"target":34962
		},
		{
			"buffer":0,
			"byteLength":12816,
			"byteOffset":110216,
			"target":34962
		},
		{
			"buffer":0,
			"byteLength":8544,
			"byteOffset":123032,
			"target":34962
		},
		{
			"buffer":0,
			"byteLength":3456,
			"byteOffset":131576,
			"target":34963
		},
		{
			"buffer":0,
			"byteLength":468,
			"byteOffset":135032,
			"target":34962
		},
		{
			"buffer":0,
			"byteLength":468,
			"byteOffset":135500,
			"target":34962
		},
		{
			"buffer":0,
			"byteLength":312,
			"byteOffset":135968,
			"target":34962
		},
		{
			"buffer":0,
			"byteLength":144,
			"byteOffset":136280,
			"target":34963
		},
		{
			"buffer":0,
			"byteLength":1248,
			"byteOffset":136424,
			"target":34962
		},
		{
			"buffer":0,
			"byteLength":1248,
			"byteOffset":137672,
			"target":34962
		},
		{
			"buffer":0,
			"byteLength":832,
			"byteOffset":138920,
			"target":34962
		},
		{
			"buffer":0,
			"byteLength":312,
			"byteOffset":139752,
			"target":34963
		},
		{
			"buffer":0,
			"byteLength":4608,
			"byteOffset":140064,
			"target":34962
		},
		{
			"buffer":0,
			"byteLength":4608,
			"byteOffset":144672,
			"target":34962
		},
		{
			"buffer":0,
			"byteLength":3072,
			"byteOffset":149280,
			"target":34962
		},
		{
			"buffer":0,
			"byteLength":1152,
			"byteOffset":152352,
			"target":34963
		},
		{
			"buffer":0,
			"byteLength":2952,
			"byteOffset":153504,
			"target":34962
		},
		{
			"buffer":0,
			"byteLength":2952,
			"byteOffset":156456,
			"target":34962
		},
		{
			"buffer":0,
			"byteLength":1968,
			"byteOffset":159408,
			"target":34962
		},
		{
			"buffer":0,
			"byteLength":864,
			"byteOffset":161376,
			"target":34963
		},
		{
			"buffer":0,
			"byteLength":1152,
			"byteOffset":162240,
			"target":34962
		},
		{
			"buffer":0,
			"byteLength":1152,
			"byteOffset":163392,
			"target":34962
		},
		{
			"buffer":0,
			"byteLength":768,
			"byteOffset":164544,
			"target":34962
		},
		{
			"buffer":0,
			"byteLength":288,
			"byteOffset":165312,
			"target":34963
		}
	],
	"buffers":[
		{
			"byteLength":165600,
			"uri":"data:application/octet-stream;base64,"
		}
	]
}
