{
	"asset":{
		"generator":"Khronos glTF Blender I/O v3.6.28",
		"version":"2.0"
	},
	"scene":0,
	"scenes":[
		{
			"name":"Scene",
			"nodes":[
				0
			]
		}
	],
	"nodes":[
		{
			"mesh":0,
			"name":"\u0431\u0430\u0442\u0430\u0433\u0430\u0439\u0430\u043b\u044b\u0442\u0430"
		}
	],
	"materials":[
		{
			"doubleSided":true,
			"name":"osn",
			"pbrMetallicRoughness":{
				"baseColorFactor":[
					0.17144113779067993,
					0.2746773660182953,
					0.1247718334197998,
					1
				],
				"metallicFactor":0,
				"roughnessFactor":0.5
			}
		},
		{
			"doubleSided":true,
			"name":"lightosn",
			"pbrMetallicRoughness":{
				"baseColorFactor":[
					0.22696588933467865,
					0.34191450476646423,
					0.14412851631641388,
					1
				],
				"metallicFactor":0,
				"roughnessFactor":0.5
			}
		},
		{
			"doubleSided":true,
			"name":"onlightosn",
			"pbrMetallicRoughness":{
				"baseColorFactor":[
					0.14995980262756348,
					0.2541521489620209,
					0.12213879823684692,
					1
				],
				"metallicFactor":0,
				"roughnessFactor":0.5
			}
		},
		{
			"doubleSided":true,
			"name":"osn-2",
			"pbrMetallicRoughness":{
				"baseColorFactor":[
					0.17151030898094177,
					0.29630887508392334,
					0.1398809403181076,
					1
				],
				"metallicFactor":0,
				"roughnessFactor":0.5
			}
		},
		{
			"doubleSided":true,
			"name":"shadosn",
			"pbrMetallicRoughness":{
				"baseColorFactor":[
					0.06301002949476242,
					0.14412851631641388,
					0.10224173218011856,
					1
				],
				"metallicFactor":0,
				"roughnessFactor":0.5
			}
		},
		{
			"doubleSided":true,
			"name":"underosn",
			"pbrMetallicRoughness":{
				"baseColorFactor":[
					0.19120171666145325,
					0.11193244159221649,
					0.09758733212947845,
					1
				],
				"metallicFactor":0,
				"roughnessFactor":0.5
			}
		},
		{
			"doubleSided":true,
			"name":"normal-tree",
			"pbrMetallicRoughness":{
				"baseColorFactor":[
					0.10702310502529144,
					0.22322800755500793,
					0.10224173218011856,
					1
				],
				"metallicFactor":0,
				"roughnessFactor":0.5
			}
		},
		{
			"doubleSided":true,
			"name":"osn-tree",
			"pbrMetallicRoughness":{
				"baseColorFactor":[
					0.23455063998699188,
					0.12743771076202393,
					0.05126946046948433,
					1
				],
				"metallicFactor":0,
				"roughnessFactor":0.5
			}
		},
		{
			"doubleSided":true,
			"name":"shad-tree",
			"pbrMetallicRoughness":{
				"baseColorFactor":[
					0.09305897355079651,
					0.2195262312889099,
					0.09758733212947845,
					1
				],
				"metallicFactor":0,
				"roughnessFactor":0.5
			}
		},
		{
			"doubleSided":true,
			"name":"normal-kus",
			"pbrMetallicRoughness":{
				"baseColorFactor":[
					0.10702310502529144,
					0.18116427958011627,
					0.07818741351366043,
					1
				],
				"metallicFactor":0,
				"roughnessFactor":0.5
			}
		},
		{
			"doubleSided":true,
			"name":"shad-kus",
			"pbrMetallicRoughness":{
				"baseColorFactor":[
					0.06171619892120361,
					0.10226551443338394,
					0.04822072759270668,
					1
				],
				"metallicFactor":0,
				"roughnessFactor":0.5
			}
		},
		{
			"doubleSided":true,
			"name":"light-kus",
			"pbrMetallicRoughness":{
				"baseColorFactor":[
					0.1247718334197998,
					0.22322800755500793,
					0.09305897355079651,
					1
				],
				"metallicFactor":0,
				"roughnessFactor":0.5
			}
		}
	],
	"meshes":[
		{
			"name":"Vert.017",
			"primitives":[
				{
					"attributes":{
						"POSITION":0,
						"NORMAL":1,
						"TEXCOORD_0":2
					},
					"indices":3,
					"material":0
				},
				{
					"attributes":{
						"POSITION":4,
						"NORMAL":5,
						"TEXCOORD_0":6
					},
					"indices":7,
					"material":1
				},
				{
					"attributes":{
						"POSITION":8,
						"NORMAL":9,
						"TEXCOORD_0":10
					},
					"indices":11,
					"material":2
				},
				{
					"attributes":{
						"POSITION":12,
						"NORMAL":13,
						"TEXCOORD_0":14
					},
					"indices":15,
					"material":3
				},
				{
					"attributes":{
						"POSITION":16,
						"NORMAL":17,
						"TEXCOORD_0":18
					},
					"indices":19,
					"material":4
				},
				{
					"attributes":{
						"POSITION":20,
						"NORMAL":21,
						"TEXCOORD_0":22
					},
					"indices":23,
					"material":5
				},
				{
					"attributes":{
						"POSITION":24,
						"NORMAL":25,
						"TEXCOORD_0":26
					},
					"indices":27,
					"material":6
				},
				{
					"attributes":{
						"POSITION":28,
						"NORMAL":29,
						"TEXCOORD_0":30
					},
					"indices":31,
					"material":7
				},
				{
					"attributes":{
						"POSITION":32,
						"NORMAL":33,
						"TEXCOORD_0":34
					},
					"indices":35,
					"material":8
				},
				{
					"attributes":{
						"POSITION":36,
						"NORMAL":37,
						"TEXCOORD_0":38
					},
					"indices":39,
					"material":9
				},
				{
					"attributes":{
						"POSITION":40,
						"NORMAL":41,
						"TEXCOORD_0":42
					},
					"indices":43,
					"material":10
				},
				{
					"attributes":{
						"POSITION":44,
						"NORMAL":45,
						"TEXCOORD_0":46
					},
					"indices":47,
					"material":11
				}
			]
		}
	],
	"accessors":[
		{
			"bufferView":0,
			"componentType":5126,
			"count":188,
			"max":[
				0.20266813039779663,
				0.15620458126068115,
				-0.13265182077884674
			],
			"min":[
				-1.0686705112457275,
				0.07810229063034058,
				-1.5596113204956055
			],
			"type":"VEC3"
		},
		{
			"bufferView":1,
			"componentType":5126,
			"count":188,
			"type":"VEC3"
		},
		{
			"bufferView":2,
			"componentType":5126,
			"count":188,
			"type":"VEC2"
		},
		{
			"bufferView":3,
			"componentType":5123,
			"count":282,
			"type":"SCALAR"
		},
		{
			"bufferView":4,
			"componentType":5126,
			"count":13,
			"max":[
				-0.005392052233219147,
				0.15620458126068115,
				-0.45674559473991394
			],
			"min":[
				-1.0053701400756836,
				0.15620458126068115,
				-1.3982847929000854
			],
			"type":"VEC3"
		},
		{
			"bufferView":5,
			"componentType":5126,
			"count":13,
			"type":"VEC3"
		},
		{
			"bufferView":6,
			"componentType":5126,
			"count":13,
			"type":"VEC2"
		},
		{
			"bufferView":7,
			"componentType":5123,
			"count":24,
			"type":"SCALAR"
		},
		{
			"bufferView":8,
			"componentType":5126,
			"count":10,
			"max":[
				0.16932515799999237,
				0.15620458126068115,
				-0.29003068804740906
			],
			"min":[
				-0.6171239614486694,
				0.15620458126068115,
				-1.4251725673675537
			],
			"type":"VEC3"
		},
		{
			"bufferView":9,
			"componentType":5126,
			"count":10,
			"type":"VEC3"
		},
		{
			"bufferView":10,
			"componentType":5126,
			"count":10,
			"type":"VEC2"
		},
		{
			"bufferView":11,
			"componentType":5123,
			"count":18,
			"type":"SCALAR"
		},
		{
			"bufferView":12,
			"componentType":5126,
			"count":4,
			"max":[
				-0.005392052233219147,
				0.15620458126068115,
				-0.8381893038749695
			],
			"min":[
				-0.6327048540115356,
				0.15620458126068115,
				-1.359873652458191
			],
			"type":"VEC3"
		},
		{
			"bufferView":13,
			"componentType":5126,
			"count":4,
			"type":"VEC3"
		},
		{
			"bufferView":14,
			"componentType":5126,
			"count":4,
			"type":"VEC2"
		},
		{
			"bufferView":15,
			"componentType":5123,
			"count":6,
			"type":"SCALAR"
		},
		{
			"bufferView":16,
			"componentType":5126,
			"count":39,
			"max":[
				0.20266813039779663,
				0.15620458126068115,
				-0.13265182077884674
			],
			"min":[
				-1.0686705112457275,
				0.15620458126068115,
				-1.5596113204956055
			],
			"type":"VEC3"
		},
		{
			"bufferView":17,
			"componentType":5126,
			"count":39,
			"type":"VEC3"
		},
		{
			"bufferView":18,
			"componentType":5126,
			"count":39,
			"type":"VEC2"
		},
		{
			"bufferView":19,
			"componentType":5123,
			"count":96,
			"type":"SCALAR"
		},
		{
			"bufferView":20,
			"componentType":5126,
			"count":233,
			"max":[
				0.20266813039779663,
				0.07810229063034058,
				-0.13265182077884674
			],
			"min":[
				-1.0686705112457275,
				0,
				-1.5596113204956055
			],
			"type":"VEC3"
		},
		{
			"bufferView":21,
			"componentType":5126,
			"count":233,
			"type":"VEC3"
		},
		{
			"bufferView":22,
			"componentType":5126,
			"count":233,
			"type":"VEC2"
		},
		{
			"bufferView":23,
			"componentType":5123,
			"count":426,
			"type":"SCALAR"
		},
		{
			"bufferView":24,
			"componentType":5126,
			"count":768,
			"max":[
				0.1446298509836197,
				0.5324561595916748,
				-0.2239527553319931
			],
			"min":[
				-0.9838921427726746,
				0.1791912168264389,
				-1.482415795326233
			],
			"type":"VEC3"
		},
		{
			"bufferView":25,
			"componentType":5126,
			"count":768,
			"type":"VEC3"
		},
		{
			"bufferView":26,
			"componentType":5126,
			"count":768,
			"type":"VEC2"
		},
		{
			"bufferView":27,
			"componentType":5123,
			"count":1248,
			"type":"SCALAR"
		},
		{
			"bufferView":28,
			"componentType":5126,
			"count":164,
			"max":[
				0.011830606497824192,
				0.21646273136138916,
				-0.36394286155700684
			],
			"min":[
				-0.915168046951294,
				0.14710834622383118,
				-1.3852957487106323
			],
			"type":"VEC3"
		},
		{
			"bufferView":29,
			"componentType":5126,
			"count":164,
			"type":"VEC3"
		},
		{
			"bufferView":30,
			"componentType":5126,
			"count":164,
			"type":"VEC2"
		},
		{
			"bufferView":31,
			"componentType":5123,
			"count":288,
			"type":"SCALAR"
		},
		{
			"bufferView":32,
			"componentType":5126,
			"count":712,
			"max":[
				0.011070352047681808,
				0.5324561595916748,
				-0.2239527553319931
			],
			"min":[
				-1.0193498134613037,
				0.1791912168264389,
				-1.4894708395004272
			],
			"type":"VEC3"
		},
		{
			"bufferView":33,
			"componentType":5126,
			"count":712,
			"type":"VEC3"
		},
		{
			"bufferView":34,
			"componentType":5126,
			"count":712,
			"type":"VEC2"
		},
		{
			"bufferView":35,
			"componentType":5123,
			"count":1152,
			"type":"SCALAR"
		},
		{
			"bufferView":36,
			"componentType":5126,
			"count":256,
			"max":[
				0.015801921486854553,
				0.23280784487724304,
				-0.24116379022598267
			],
			"min":[
				-1.0446730852127075,
				0.16420918703079224,
				-1.1631754636764526
			],
			"type":"VEC3"
		},
		{
			"bufferView":37,
			"componentType":5126,
			"count":256,
			"type":"VEC3"
		},
		{
			"bufferView":38,
			"componentType":5126,
			"count":256,
			"type":"VEC2"
		},
		{
			"bufferView":39,
			"componentType":5123,
			"count":384,
			"type":"SCALAR"
		},
		{
			"bufferView":40,
			"componentType":5126,
			"count":164,
			"max":[
				0.015801921486854553,
				0.1781691312789917,
				-0.24116379022598267
			],
			"min":[
				-1.0446730852127075,
				0.1478251814842224,
				-1.1631754636764526
			],
			"type":"VEC3"
		},
		{
			"bufferView":41,
			"componentType":5126,
			"count":164,
			"type":"VEC3"
		},
		{
			"bufferView":42,
			"componentType":5126,
			"count":164,
			"type":"VEC2"
		},
		{
			"bufferView":43,
			"componentType":5123,
			"count":288,
			"type":"SCALAR"
		},
		{
			"bufferView":44,
			"componentType":5126,
			"count":64,
			"max":[
				-0.01051795482635498,
				0.24821141362190247,
				-0.26769232749938965
			],
			"min":[
				-1.01409912109375,
				0.19588324427604675,
				-1.136756181716919
			],
			"type":"VEC3"
		},
		{
			"bufferView":45,
			"componentType":5126,
			"count":64,
			"type":"VEC3"
		},
		{
			"bufferView":46,
			"componentType":5126,
			"count":64,
			"type":"VEC2"
		},
		{
			"bufferView":47,
			"componentType":5123,
			"count":96,
			"type":"SCALAR"
		}
	],
	"bufferViews":[
		{
			"buffer":0,
			"byteLength":2256,
			"byteOffset":0,
			"target":34962
		},
		{
			"buffer":0,
			"byteLength":2256,
			"byteOffset":2256,
			"target":34962
		},
		{
			"buffer":0,
			"byteLength":1504,
			"byteOffset":4512,
			"target":34962
		},
		{
			"buffer":0,
			"byteLength":564,
			"byteOffset":6016,
			"target":34963
		},
		{
			"buffer":0,
			"byteLength":156,
			"byteOffset":6580,
			"target":34962
		},
		{
			"buffer":0,
			"byteLength":156,
			"byteOffset":6736,
			"target":34962
		},
		{
			"buffer":0,
			"byteLength":104,
			"byteOffset":6892,
			"target":34962
		},
		{
			"buffer":0,
			"byteLength":48,
			"byteOffset":6996,
			"target":34963
		},
		{
			"buffer":0,
			"byteLength":120,
			"byteOffset":7044,
			"target":34962
		},
		{
			"buffer":0,
			"byteLength":120,
			"byteOffset":7164,
			"target":34962
		},
		{
			"buffer":0,
			"byteLength":80,
			"byteOffset":7284,
			"target":34962
		},
		{
			"buffer":0,
			"byteLength":36,
			"byteOffset":7364,
			"target":34963
		},
		{
			"buffer":0,
			"byteLength":48,
			"byteOffset":7400,
			"target":34962
		},
		{
			"buffer":0,
			"byteLength":48,
			"byteOffset":7448,
			"target":34962
		},
		{
			"buffer":0,
			"byteLength":32,
			"byteOffset":7496,
			"target":34962
		},
		{
			"buffer":0,
			"byteLength":12,
			"byteOffset":7528,
			"target":34963
		},
		{
			"buffer":0,
			"byteLength":468,
			"byteOffset":7540,
			"target":34962
		},
		{
			"buffer":0,
			"byteLength":468,
			"byteOffset":8008,
			"target":34962
		},
		{
			"buffer":0,
			"byteLength":312,
			"byteOffset":8476,
			"target":34962
		},
		{
			"buffer":0,
			"byteLength":192,
			"byteOffset":8788,
			"target":34963
		},
		{
			"buffer":0,
			"byteLength":2796,
			"byteOffset":8980,
			"target":34962
		},
		{
			"buffer":0,
			"byteLength":2796,
			"byteOffset":11776,
			"target":34962
		},
		{
			"buffer":0,
			"byteLength":1864,
			"byteOffset":14572,
			"target":34962
		},
		{
			"buffer":0,
			"byteLength":852,
			"byteOffset":16436,
			"target":34963
		},
		{
			"buffer":0,
			"byteLength":9216,
			"byteOffset":17288,
			"target":34962
		},
		{
			"buffer":0,
			"byteLength":9216,
			"byteOffset":26504,
			"target":34962
		},
		{
			"buffer":0,
			"byteLength":6144,
			"byteOffset":35720,
			"target":34962
		},
		{
			"buffer":0,
			"byteLength":2496,
			"byteOffset":41864,
			"target":34963
		},
		{
			"buffer":0,
			"byteLength":1968,
			"byteOffset":44360,
			"target":34962
		},
		{
			"buffer":0,
			"byteLength":1968,
			"byteOffset":46328,
			"target":34962
		},
		{
			"buffer":0,
			"byteLength":1312,
			"byteOffset":48296,
			"target":34962
		},
		{
			"buffer":0,
			"byteLength":576,
			"byteOffset":49608,
			"target":34963
		},
		{
			"buffer":0,
			"byteLength":8544,
			"byteOffset":50184,
			"target":34962
		},
		{
			"buffer":0,
			"byteLength":8544,
			"byteOffset":58728,
			"target":34962
		},
		{
			"buffer":0,
			"byteLength":5696,
			"byteOffset":67272,
			"target":34962
		},
		{
			"buffer":0,
			"byteLength":2304,
			"byteOffset":72968,
			"target":34963
		},
		{
			"buffer":0,
			"byteLength":3072,
			"byteOffset":75272,
			"target":34962
		},
		{
			"buffer":0,
			"byteLength":3072,
			"byteOffset":78344,
			"target":34962
		},
		{
			"buffer":0,
			"byteLength":2048,
			"byteOffset":81416,
			"target":34962
		},
		{
			"buffer":0,
			"byteLength":768,
			"byteOffset":83464,
			"target":34963
		},
		{
			"buffer":0,
			"byteLength":1968,
			"byteOffset":84232,
			"target":34962
		},
		{
			"buffer":0,
			"byteLength":1968,
			"byteOffset":86200,
			"target":34962
		},
		{
			"buffer":0,
			"byteLength":1312,
			"byteOffset":88168,
			"target":34962
		},
		{
			"buffer":0,
			"byteLength":576,
			"byteOffset":89480,
			"target":34963
		},
		{
			"buffer":0,
			"byteLength":768,
			"byteOffset":90056,
			"target":34962
		},
		{
			"buffer":0,
			"byteLength":768,
			"byteOffset":90824,
			"target":34962
		},
		{
			"buffer":0,
			"byteLength":512,
			"byteOffset":91592,
			"target":34962
		},
		{
			"buffer":0,
			"byteLength":192,
			"byteOffset":92104,
			"target":34963
		}
	],
	"buffers":[
		{
			"byteLength":92296,
			"uri":"data:application/octet-stream;base64,"
		}
	]
}
