{
	"asset":{
		"generator":"Khronos glTF Blender I/O v3.6.28",
		"version":"2.0"
	},
	"scene":0,
	"scenes":[
		{
			"name":"Scene",
			"nodes":[
				0
			]
		}
	],
	"nodes":[
		{
			"mesh":0,
			"name":"\u0431\u0435\u0440\u0434\u0438\u0433\u0435\u0441\u0442\u044f\u0445"
		}
	],
	"materials":[
		{
			"doubleSided":true,
			"name":"osn",
			"pbrMetallicRoughness":{
				"baseColorFactor":[
					0.17144113779067993,
					0.2746773660182953,
					0.1247718334197998,
					1
				],
				"metallicFactor":0,
				"roughnessFactor":0.5
			}
		},
		{
			"doubleSided":true,
			"name":"lightosn",
			"pbrMetallicRoughness":{
				"baseColorFactor":[
					0.22696588933467865,
					0.34191450476646423,
					0.14412851631641388,
					1
				],
				"metallicFactor":0,
				"roughnessFactor":0.5
			}
		},
		{
			"doubleSided":true,
			"name":"onlightosn",
			"pbrMetallicRoughness":{
				"baseColorFactor":[
					0.14995980262756348,
					0.2541521489620209,
					0.12213879823684692,
					1
				],
				"metallicFactor":0,
				"roughnessFactor":0.5
			}
		},
		{
			"doubleSided":true,
			"name":"shadosn",
			"pbrMetallicRoughness":{
				"baseColorFactor":[
					0.06301002949476242,
					0.14412851631641388,
					0.10224173218011856,
					1
				],
				"metallicFactor":0,
				"roughnessFactor":0.5
			}
		},
		{
			"doubleSided":true,
			"name":"underosn",
			"pbrMetallicRoughness":{
				"baseColorFactor":[
					0.19120171666145325,
					0.11193244159221649,
					0.09758733212947845,
					1
				],
				"metallicFactor":0,
				"roughnessFactor":0.5
			}
		},
		{
			"doubleSided":true,
			"name":"normal-tree",
			"pbrMetallicRoughness":{
				"baseColorFactor":[
					0.10702310502529144,
					0.22322800755500793,
					0.10224173218011856,
					1
				],
				"metallicFactor":0,
				"roughnessFactor":0.5
			}
		},
		{
			"doubleSided":true,
			"name":"osn-tree",
			"pbrMetallicRoughness":{
				"baseColorFactor":[
					0.23455063998699188,
					0.12743771076202393,
					0.05126946046948433,
					1
				],
				"metallicFactor":0,
				"roughnessFactor":0.5
			}
		},
		{
			"doubleSided":true,
			"name":"shad-tree",
			"pbrMetallicRoughness":{
				"baseColorFactor":[
					0.09305897355079651,
					0.2195262312889099,
					0.09758733212947845,
					1
				],
				"metallicFactor":0,
				"roughnessFactor":0.5
			}
		},
		{
			"doubleSided":true,
			"name":"normal-kus",
			"pbrMetallicRoughness":{
				"baseColorFactor":[
					0.10702310502529144,
					0.18116427958011627,
					0.07818741351366043,
					1
				],
				"metallicFactor":0,
				"roughnessFactor":0.5
			}
		},
		{
			"doubleSided":true,
			"name":"shad-kus",
			"pbrMetallicRoughness":{
				"baseColorFactor":[
					0.06171619892120361,
					0.10226551443338394,
					0.04822072759270668,
					1
				],
				"metallicFactor":0,
				"roughnessFactor":0.5
			}
		},
		{
			"doubleSided":true,
			"name":"light-kus",
			"pbrMetallicRoughness":{
				"baseColorFactor":[
					0.1247718334197998,
					0.22322800755500793,
					0.09305897355079651,
					1
				],
				"metallicFactor":0,
				"roughnessFactor":0.5
			}
		}
	],
	"meshes":[
		{
			"name":"Vert.013",
			"primitives":[
				{
					"attributes":{
						"POSITION":0,
						"NORMAL":1,
						"TEXCOORD_0":2
					},
					"indices":3,
					"material":0
				},
				{
					"attributes":{
						"POSITION":4,
						"NORMAL":5,
						"TEXCOORD_0":6
					},
					"indices":7,
					"material":1
				},
				{
					"attributes":{
						"POSITION":8,
						"NORMAL":9,
						"TEXCOORD_0":10
					},
					"indices":11,
					"material":2
				},
				{
					"attributes":{
						"POSITION":12,
						"NORMAL":13,
						"TEXCOORD_0":14
					},
					"indices":15,
					"material":3
				},
				{
					"attributes":{
						"POSITION":16,
						"NORMAL":17,
						"TEXCOORD_0":18
					},
					"indices":19,
					"material":4
				},
				{
					"attributes":{
						"POSITION":20,
						"NORMAL":21,
						"TEXCOORD_0":22
					},
					"indices":23,
					"material":5
				},
				{
					"attributes":{
						"POSITION":24,
						"NORMAL":25,
						"TEXCOORD_0":26
					},
					"indices":27,
					"material":6
				},
				{
					"attributes":{
						"POSITION":28,
						"NORMAL":29,
						"TEXCOORD_0":30
					},
					"indices":31,
					"material":7
				},
				{
					"attributes":{
						"POSITION":32,
						"NORMAL":33,
						"TEXCOORD_0":34
					},
					"indices":35,
					"material":8
				},
				{
					"attributes":{
						"POSITION":36,
						"NORMAL":37,
						"TEXCOORD_0":38
					},
					"indices":39,
					"material":9
				},
				{
					"attributes":{
						"POSITION":40,
						"NORMAL":41,
						"TEXCOORD_0":42
					},
					"indices":43,
					"material":10
				}
			]
		}
	],
	"accessors":[
		{
			"bufferView":0,
			"componentType":5126,
			"count":188,
			"max":[
				-0.21981550753116608,
				0.15620458126068115,
				2.6939616203308105
			],
			"min":[
				-1.7966243028640747,
				0.07810229063034058,
				1.5047025680541992
			],
			"type":"VEC3"
		},
		{
			"bufferView":1,
			"componentType":5126,
			"count":188,
			"type":"VEC3"
		},
		{
			"bufferView":2,
			"componentType":5126,
			"count":188,
			"type":"VEC2"
		},
		{
			"bufferView":3,
			"componentType":5123,
			"count":288,
			"type":"SCALAR"
		},
		{
			"bufferView":4,
			"componentType":5126,
			"count":10,
			"max":[
				-0.5096350908279419,
				0.15620458126068115,
				2.517183780670166
			],
			"min":[
				-1.618705153465271,
				0.15620458126068115,
				1.649765968322754
			],
			"type":"VEC3"
		},
		{
			"bufferView":5,
			"componentType":5126,
			"count":10,
			"type":"VEC3"
		},
		{
			"bufferView":6,
			"componentType":5126,
			"count":10,
			"type":"VEC2"
		},
		{
			"bufferView":7,
			"componentType":5123,
			"count":18,
			"type":"SCALAR"
		},
		{
			"bufferView":8,
			"componentType":5126,
			"count":17,
			"max":[
				-0.40020114183425903,
				0.15620458126068115,
				2.6230101585388184
			],
			"min":[
				-1.646285891532898,
				0.15620458126068115,
				1.649765968322754
			],
			"type":"VEC3"
		},
		{
			"bufferView":9,
			"componentType":5126,
			"count":17,
			"type":"VEC3"
		},
		{
			"bufferView":10,
			"componentType":5126,
			"count":17,
			"type":"VEC2"
		},
		{
			"bufferView":11,
			"componentType":5123,
			"count":36,
			"type":"SCALAR"
		},
		{
			"bufferView":12,
			"componentType":5126,
			"count":42,
			"max":[
				-0.21981550753116608,
				0.15620458126068115,
				2.6939616203308105
			],
			"min":[
				-1.7966243028640747,
				0.15620458126068115,
				1.5047025680541992
			],
			"type":"VEC3"
		},
		{
			"bufferView":13,
			"componentType":5126,
			"count":42,
			"type":"VEC3"
		},
		{
			"bufferView":14,
			"componentType":5126,
			"count":42,
			"type":"VEC2"
		},
		{
			"bufferView":15,
			"componentType":5123,
			"count":96,
			"type":"SCALAR"
		},
		{
			"bufferView":16,
			"componentType":5126,
			"count":233,
			"max":[
				-0.21981550753116608,
				0.07810229063034058,
				2.6939616203308105
			],
			"min":[
				-1.7966243028640747,
				0,
				1.5047025680541992
			],
			"type":"VEC3"
		},
		{
			"bufferView":17,
			"componentType":5126,
			"count":233,
			"type":"VEC3"
		},
		{
			"bufferView":18,
			"componentType":5126,
			"count":233,
			"type":"VEC2"
		},
		{
			"bufferView":19,
			"componentType":5123,
			"count":438,
			"type":"SCALAR"
		},
		{
			"bufferView":20,
			"componentType":5126,
			"count":576,
			"max":[
				-0.416239857673645,
				0.5324561595916748,
				2.4886560440063477
			],
			"min":[
				-1.6148746013641357,
				0.179049551486969,
				1.60919189453125
			],
			"type":"VEC3"
		},
		{
			"bufferView":21,
			"componentType":5126,
			"count":576,
			"type":"VEC3"
		},
		{
			"bufferView":22,
			"componentType":5126,
			"count":576,
			"type":"VEC2"
		},
		{
			"bufferView":23,
			"componentType":5123,
			"count":936,
			"type":"SCALAR"
		},
		{
			"bufferView":24,
			"componentType":5126,
			"count":123,
			"max":[
				-0.5490390658378601,
				0.21646273136138916,
				2.387695550918579
			],
			"min":[
				-1.6053731441497803,
				0.14710834622383118,
				1.7491819858551025
			],
			"type":"VEC3"
		},
		{
			"bufferView":25,
			"componentType":5126,
			"count":123,
			"type":"VEC3"
		},
		{
			"bufferView":26,
			"componentType":5126,
			"count":123,
			"type":"VEC2"
		},
		{
			"bufferView":27,
			"componentType":5123,
			"count":216,
			"type":"SCALAR"
		},
		{
			"bufferView":28,
			"componentType":5126,
			"count":534,
			"max":[
				-0.5497993230819702,
				0.5324561595916748,
				2.4610962867736816
			],
			"min":[
				-1.7381724119186401,
				0.179049551486969,
				1.60919189453125
			],
			"type":"VEC3"
		},
		{
			"bufferView":29,
			"componentType":5126,
			"count":534,
			"type":"VEC3"
		},
		{
			"bufferView":30,
			"componentType":5126,
			"count":534,
			"type":"VEC2"
		},
		{
			"bufferView":31,
			"componentType":5123,
			"count":864,
			"type":"SCALAR"
		},
		{
			"bufferView":32,
			"componentType":5126,
			"count":192,
			"max":[
				-0.4384859800338745,
				0.23280784487724304,
				2.61043381690979
			],
			"min":[
				-1.453873634338379,
				0.16613662242889404,
				1.9054633378982544
			],
			"type":"VEC3"
		},
		{
			"bufferView":33,
			"componentType":5126,
			"count":192,
			"type":"VEC3"
		},
		{
			"bufferView":34,
			"componentType":5126,
			"count":192,
			"type":"VEC2"
		},
		{
			"bufferView":35,
			"componentType":5123,
			"count":288,
			"type":"SCALAR"
		},
		{
			"bufferView":36,
			"componentType":5126,
			"count":123,
			"max":[
				-0.4384859800338745,
				0.1781691312789917,
				2.61043381690979
			],
			"min":[
				-1.453873634338379,
				0.1478251814842224,
				1.9054633378982544
			],
			"type":"VEC3"
		},
		{
			"bufferView":37,
			"componentType":5126,
			"count":123,
			"type":"VEC3"
		},
		{
			"bufferView":38,
			"componentType":5126,
			"count":123,
			"type":"VEC2"
		},
		{
			"bufferView":39,
			"componentType":5123,
			"count":216,
			"type":"SCALAR"
		},
		{
			"bufferView":40,
			"componentType":5126,
			"count":48,
			"max":[
				-0.4686686098575592,
				0.24821141362190247,
				2.5884342193603516
			],
			"min":[
				-1.4297666549682617,
				0.2081129550933838,
				1.93384850025177
			],
			"type":"VEC3"
		},
		{
			"bufferView":41,
			"componentType":5126,
			"count":48,
			"type":"VEC3"
		},
		{
			"bufferView":42,
			"componentType":5126,
			"count":48,
			"type":"VEC2"
		},
		{
			"bufferView":43,
			"componentType":5123,
			"count":72,
			"type":"SCALAR"
		}
	],
	"bufferViews":[
		{
			"buffer":0,
			"byteLength":2256,
			"byteOffset":0,
			"target":34962
		},
		{
			"buffer":0,
			"byteLength":2256,
			"byteOffset":2256,
			"target":34962
		},
		{
			"buffer":0,
			"byteLength":1504,
			"byteOffset":4512,
			"target":34962
		},
		{
			"buffer":0,
			"byteLength":576,
			"byteOffset":6016,
			"target":34963
		},
		{
			"buffer":0,
			"byteLength":120,
			"byteOffset":6592,
			"target":34962
		},
		{
			"buffer":0,
			"byteLength":120,
			"byteOffset":6712,
			"target":34962
		},
		{
			"buffer":0,
			"byteLength":80,
			"byteOffset":6832,
			"target":34962
		},
		{
			"buffer":0,
			"byteLength":36,
			"byteOffset":6912,
			"target":34963
		},
		{
			"buffer":0,
			"byteLength":204,
			"byteOffset":6948,
			"target":34962
		},
		{
			"buffer":0,
			"byteLength":204,
			"byteOffset":7152,
			"target":34962
		},
		{
			"buffer":0,
			"byteLength":136,
			"byteOffset":7356,
			"target":34962
		},
		{
			"buffer":0,
			"byteLength":72,
			"byteOffset":7492,
			"target":34963
		},
		{
			"buffer":0,
			"byteLength":504,
			"byteOffset":7564,
			"target":34962
		},
		{
			"buffer":0,
			"byteLength":504,
			"byteOffset":8068,
			"target":34962
		},
		{
			"buffer":0,
			"byteLength":336,
			"byteOffset":8572,
			"target":34962
		},
		{
			"buffer":0,
			"byteLength":192,
			"byteOffset":8908,
			"target":34963
		},
		{
			"buffer":0,
			"byteLength":2796,
			"byteOffset":9100,
			"target":34962
		},
		{
			"buffer":0,
			"byteLength":2796,
			"byteOffset":11896,
			"target":34962
		},
		{
			"buffer":0,
			"byteLength":1864,
			"byteOffset":14692,
			"target":34962
		},
		{
			"buffer":0,
			"byteLength":876,
			"byteOffset":16556,
			"target":34963
		},
		{
			"buffer":0,
			"byteLength":6912,
			"byteOffset":17432,
			"target":34962
		},
		{
			"buffer":0,
			"byteLength":6912,
			"byteOffset":24344,
			"target":34962
		},
		{
			"buffer":0,
			"byteLength":4608,
			"byteOffset":31256,
			"target":34962
		},
		{
			"buffer":0,
			"byteLength":1872,
			"byteOffset":35864,
			"target":34963
		},
		{
			"buffer":0,
			"byteLength":1476,
			"byteOffset":37736,
			"target":34962
		},
		{
			"buffer":0,
			"byteLength":1476,
			"byteOffset":39212,
			"target":34962
		},
		{
			"buffer":0,
			"byteLength":984,
			"byteOffset":40688,
			"target":34962
		},
		{
			"buffer":0,
			"byteLength":432,
			"byteOffset":41672,
			"target":34963
		},
		{
			"buffer":0,
			"byteLength":6408,
			"byteOffset":42104,
			"target":34962
		},
		{
			"buffer":0,
			"byteLength":6408,
			"byteOffset":48512,
			"target":34962
		},
		{
			"buffer":0,
			"byteLength":4272,
			"byteOffset":54920,
			"target":34962
		},
		{
			"buffer":0,
			"byteLength":1728,
			"byteOffset":59192,
			"target":34963
		},
		{
			"buffer":0,
			"byteLength":2304,
			"byteOffset":60920,
			"target":34962
		},
		{
			"buffer":0,
			"byteLength":2304,
			"byteOffset":63224,
			"target":34962
		},
		{
			"buffer":0,
			"byteLength":1536,
			"byteOffset":65528,
			"target":34962
		},
		{
			"buffer":0,
			"byteLength":576,
			"byteOffset":67064,
			"target":34963
		},
		{
			"buffer":0,
			"byteLength":1476,
			"byteOffset":67640,
			"target":34962
		},
		{
			"buffer":0,
			"byteLength":1476,
			"byteOffset":69116,
			"target":34962
		},
		{
			"buffer":0,
			"byteLength":984,
			"byteOffset":70592,
			"target":34962
		},
		{
			"buffer":0,
			"byteLength":432,
			"byteOffset":71576,
			"target":34963
		},
		{
			"buffer":0,
			"byteLength":576,
			"byteOffset":72008,
			"target":34962
		},
		{
			"buffer":0,
			"byteLength":576,
			"byteOffset":72584,
			"target":34962
		},
		{
			"buffer":0,
			"byteLength":384,
			"byteOffset":73160,
			"target":34962
		},
		{
			"buffer":0,
			"byteLength":144,
			"byteOffset":73544,
			"target":34963
		}
	],
	"buffers":[
		{
			"byteLength":73688,
			"uri":"data:application/octet-stream;base64,"
		}
	]
}
