{
	"asset":{
		"generator":"Khronos glTF Blender I/O v3.6.28",
		"version":"2.0"
	},
	"scene":0,
	"scenes":[
		{
			"name":"Scene",
			"nodes":[
				0
			]
		}
	],
	"nodes":[
		{
			"mesh":0,
			"name":"\u0431\u043e\u0440\u043e\u0433\u043e\u043d\u0446\u044b"
		}
	],
	"materials":[
		{
			"doubleSided":true,
			"name":"osn",
			"pbrMetallicRoughness":{
				"baseColorFactor":[
					0.17144113779067993,
					0.2746773660182953,
					0.1247718334197998,
					1
				],
				"metallicFactor":0,
				"roughnessFactor":0.5
			}
		},
		{
			"doubleSided":true,
			"name":"lightosn",
			"pbrMetallicRoughness":{
				"baseColorFactor":[
					0.22696588933467865,
					0.34191450476646423,
					0.14412851631641388,
					1
				],
				"metallicFactor":0,
				"roughnessFactor":0.5
			}
		},
		{
			"doubleSided":true,
			"name":"onlightosn",
			"pbrMetallicRoughness":{
				"baseColorFactor":[
					0.14995980262756348,
					0.2541521489620209,
					0.12213879823684692,
					1
				],
				"metallicFactor":0,
				"roughnessFactor":0.5
			}
		},
		{
			"doubleSided":true,
			"name":"osn-2",
			"pbrMetallicRoughness":{
				"baseColorFactor":[
					0.17151030898094177,
					0.29630887508392334,
					0.1398809403181076,
					1
				],
				"metallicFactor":0,
				"roughnessFactor":0.5
			}
		},
		{
			"doubleSided":true,
			"name":"shadosn",
			"pbrMetallicRoughness":{
				"baseColorFactor":[
					0.06301002949476242,
					0.14412851631641388,
					0.10224173218011856,
					1
				],
				"metallicFactor":0,
				"roughnessFactor":0.5
			}
		},
		{
			"doubleSided":true,
			"name":"underosn",
			"pbrMetallicRoughness":{
				"baseColorFactor":[
					0.19120171666145325,
					0.11193244159221649,
					0.09758733212947845,
					1
				],
				"metallicFactor":0,
				"roughnessFactor":0.5
			}
		},
		{
			"doubleSided":true,
			"name":"normal-tree",
			"pbrMetallicRoughness":{
				"baseColorFactor":[
					0.10702310502529144,
					0.22322800755500793,
					0.10224173218011856,
					1
				],
				"metallicFactor":0,
				"roughnessFactor":0.5
			}
		},
		{
			"doubleSided":true,
			"name":"osn-tree",
			"pbrMetallicRoughness":{
				"baseColorFactor":[
					0.23455063998699188,
					0.12743771076202393,
					0.05126946046948433,
					1
				],
				"metallicFactor":0,
				"roughnessFactor":0.5
			}
		},
		{
			"doubleSided":true,
			"name":"shad-tree",
			"pbrMetallicRoughness":{
				"baseColorFactor":[
					0.09305897355079651,
					0.2195262312889099,
					0.09758733212947845,
					1
				],
				"metallicFactor":0,
				"roughnessFactor":0.5
			}
		},
		{
			"doubleSided":true,
			"name":"rock",
			"pbrMetallicRoughness":{
				"baseColorFactor":[
					0.3813260495662689,
					0.34670406579971313,
					0.26225075125694275,
					1
				],
				"metallicFactor":0,
				"roughnessFactor":0.5
			}
		},
		{
			"doubleSided":true,
			"name":"rock-sh",
			"pbrMetallicRoughness":{
				"baseColorFactor":[
					0.2195262312889099,
					0.19120171666145325,
					0.1384316384792328,
					1
				],
				"metallicFactor":0,
				"roughnessFactor":0.5
			}
		},
		{
			"doubleSided":true,
			"name":"normal-kus",
			"pbrMetallicRoughness":{
				"baseColorFactor":[
					0.10702310502529144,
					0.18116427958011627,
					0.07818741351366043,
					1
				],
				"metallicFactor":0,
				"roughnessFactor":0.5
			}
		},
		{
			"doubleSided":true,
			"name":"shad-kus",
			"pbrMetallicRoughness":{
				"baseColorFactor":[
					0.06171619892120361,
					0.10226551443338394,
					0.04822072759270668,
					1
				],
				"metallicFactor":0,
				"roughnessFactor":0.5
			}
		},
		{
			"doubleSided":true,
			"name":"light-kus",
			"pbrMetallicRoughness":{
				"baseColorFactor":[
					0.1247718334197998,
					0.22322800755500793,
					0.09305897355079651,
					1
				],
				"metallicFactor":0,
				"roughnessFactor":0.5
			}
		}
	],
	"meshes":[
		{
			"name":"Vert.027",
			"primitives":[
				{
					"attributes":{
						"POSITION":0,
						"NORMAL":1,
						"TEXCOORD_0":2
					},
					"indices":3,
					"material":0
				},
				{
					"attributes":{
						"POSITION":4,
						"NORMAL":5,
						"TEXCOORD_0":6
					},
					"indices":7,
					"material":1
				},
				{
					"attributes":{
						"POSITION":8,
						"NORMAL":9,
						"TEXCOORD_0":10
					},
					"indices":11,
					"material":2
				},
				{
					"attributes":{
						"POSITION":12,
						"NORMAL":13,
						"TEXCOORD_0":14
					},
					"indices":15,
					"material":3
				},
				{
					"attributes":{
						"POSITION":16,
						"NORMAL":17,
						"TEXCOORD_0":18
					},
					"indices":19,
					"material":4
				},
				{
					"attributes":{
						"POSITION":20,
						"NORMAL":21,
						"TEXCOORD_0":22
					},
					"indices":23,
					"material":5
				},
				{
					"attributes":{
						"POSITION":24,
						"NORMAL":25,
						"TEXCOORD_0":26
					},
					"indices":27,
					"material":6
				},
				{
					"attributes":{
						"POSITION":28,
						"NORMAL":29,
						"TEXCOORD_0":30
					},
					"indices":31,
					"material":7
				},
				{
					"attributes":{
						"POSITION":32,
						"NORMAL":33,
						"TEXCOORD_0":34
					},
					"indices":35,
					"material":8
				},
				{
					"attributes":{
						"POSITION":36,
						"NORMAL":37,
						"TEXCOORD_0":38
					},
					"indices":39,
					"material":9
				},
				{
					"attributes":{
						"POSITION":40,
						"NORMAL":41,
						"TEXCOORD_0":42
					},
					"indices":43,
					"material":10
				},
				{
					"attributes":{
						"POSITION":44,
						"NORMAL":45,
						"TEXCOORD_0":46
					},
					"indices":47,
					"material":11
				},
				{
					"attributes":{
						"POSITION":48,
						"NORMAL":49,
						"TEXCOORD_0":50
					},
					"indices":51,
					"material":12
				},
				{
					"attributes":{
						"POSITION":52,
						"NORMAL":53,
						"TEXCOORD_0":54
					},
					"indices":55,
					"material":13
				}
			]
		}
	],
	"accessors":[
		{
			"bufferView":0,
			"componentType":5126,
			"count":168,
			"max":[
				0.6164230704307556,
				0.15620458126068115,
				1.969531536102295
			],
			"min":[
				-0.026851244270801544,
				0.07810229063034058,
				1.193475604057312
			],
			"type":"VEC3"
		},
		{
			"bufferView":1,
			"componentType":5126,
			"count":168,
			"type":"VEC3"
		},
		{
			"bufferView":2,
			"componentType":5126,
			"count":168,
			"type":"VEC2"
		},
		{
			"bufferView":3,
			"componentType":5123,
			"count":252,
			"type":"SCALAR"
		},
		{
			"bufferView":4,
			"componentType":5126,
			"count":4,
			"max":[
				0.5925013422966003,
				0.15620458126068115,
				1.772780418395996
			],
			"min":[
				-0.026851244270801544,
				0.15620458126068115,
				1.3028321266174316
			],
			"type":"VEC3"
		},
		{
			"bufferView":5,
			"componentType":5126,
			"count":4,
			"type":"VEC3"
		},
		{
			"bufferView":6,
			"componentType":5126,
			"count":4,
			"type":"VEC2"
		},
		{
			"bufferView":7,
			"componentType":5123,
			"count":6,
			"type":"SCALAR"
		},
		{
			"bufferView":8,
			"componentType":5126,
			"count":13,
			"max":[
				0.5942100286483765,
				0.15620458126068115,
				1.8048471212387085
			],
			"min":[
				-0.026851244270801544,
				0.15620458126068115,
				1.2225234508514404
			],
			"type":"VEC3"
		},
		{
			"bufferView":9,
			"componentType":5126,
			"count":13,
			"type":"VEC3"
		},
		{
			"bufferView":10,
			"componentType":5126,
			"count":13,
			"type":"VEC2"
		},
		{
			"bufferView":11,
			"componentType":5123,
			"count":30,
			"type":"SCALAR"
		},
		{
			"bufferView":12,
			"componentType":5126,
			"count":6,
			"max":[
				0.19930323958396912,
				0.15620458126068115,
				1.7601374387741089
			],
			"min":[
				0.01017046719789505,
				0.15620458126068115,
				1.6406358480453491
			],
			"type":"VEC3"
		},
		{
			"bufferView":13,
			"componentType":5126,
			"count":6,
			"type":"VEC3"
		},
		{
			"bufferView":14,
			"componentType":5126,
			"count":6,
			"type":"VEC2"
		},
		{
			"bufferView":15,
			"componentType":5123,
			"count":12,
			"type":"SCALAR"
		},
		{
			"bufferView":16,
			"componentType":5126,
			"count":40,
			"max":[
				0.6164230704307556,
				0.15620458126068115,
				1.969531536102295
			],
			"min":[
				-0.026851244270801544,
				0.15620458126068115,
				1.193475604057312
			],
			"type":"VEC3"
		},
		{
			"bufferView":17,
			"componentType":5126,
			"count":40,
			"type":"VEC3"
		},
		{
			"bufferView":18,
			"componentType":5126,
			"count":40,
			"type":"VEC2"
		},
		{
			"bufferView":19,
			"componentType":5123,
			"count":108,
			"type":"SCALAR"
		},
		{
			"bufferView":20,
			"componentType":5126,
			"count":209,
			"max":[
				0.6164230704307556,
				0.07810229063034058,
				1.969531536102295
			],
			"min":[
				-0.026851244270801544,
				0,
				1.193475604057312
			],
			"type":"VEC3"
		},
		{
			"bufferView":21,
			"componentType":5126,
			"count":209,
			"type":"VEC3"
		},
		{
			"bufferView":22,
			"componentType":5126,
			"count":209,
			"type":"VEC2"
		},
		{
			"bufferView":23,
			"componentType":5123,
			"count":408,
			"type":"SCALAR"
		},
		{
			"bufferView":24,
			"componentType":5126,
			"count":384,
			"max":[
				0.577095091342926,
				0.5324561595916748,
				1.8693501949310303
			],
			"min":[
				0.18283703923225403,
				0.1790885180234909,
				1.2335560321807861
			],
			"type":"VEC3"
		},
		{
			"bufferView":25,
			"componentType":5126,
			"count":384,
			"type":"VEC3"
		},
		{
			"bufferView":26,
			"componentType":5126,
			"count":384,
			"type":"VEC2"
		},
		{
			"bufferView":27,
			"componentType":5123,
			"count":624,
			"type":"SCALAR"
		},
		{
			"bufferView":28,
			"componentType":5126,
			"count":82,
			"max":[
				0.5065862536430359,
				0.21646273136138916,
				1.7293601036071777
			],
			"min":[
				0.19233842194080353,
				0.14710834622383118,
				1.3078827857971191
			],
			"type":"VEC3"
		},
		{
			"bufferView":29,
			"componentType":5126,
			"count":82,
			"type":"VEC3"
		},
		{
			"bufferView":30,
			"componentType":5126,
			"count":82,
			"type":"VEC2"
		},
		{
			"bufferView":31,
			"componentType":5123,
			"count":144,
			"type":"SCALAR"
		},
		{
			"bufferView":32,
			"componentType":5126,
			"count":356,
			"max":[
				0.5061826109886169,
				0.5324561595916748,
				1.8693501949310303
			],
			"min":[
				0.05953918397426605,
				0.1790885180234909,
				1.2335560321807861
			],
			"type":"VEC3"
		},
		{
			"bufferView":33,
			"componentType":5126,
			"count":356,
			"type":"VEC3"
		},
		{
			"bufferView":34,
			"componentType":5126,
			"count":356,
			"type":"VEC2"
		},
		{
			"bufferView":35,
			"componentType":5123,
			"count":576,
			"type":"SCALAR"
		},
		{
			"bufferView":36,
			"componentType":5126,
			"count":39,
			"max":[
				0.23287510871887207,
				0.25727108120918274,
				1.5906665325164795
			],
			"min":[
				-0.009491123259067535,
				0.15202704071998596,
				1.356471061706543
			],
			"type":"VEC3"
		},
		{
			"bufferView":37,
			"componentType":5126,
			"count":39,
			"type":"VEC3"
		},
		{
			"bufferView":38,
			"componentType":5126,
			"count":39,
			"type":"VEC2"
		},
		{
			"bufferView":39,
			"componentType":5123,
			"count":72,
			"type":"SCALAR"
		},
		{
			"bufferView":40,
			"componentType":5126,
			"count":104,
			"max":[
				0.23287510871887207,
				0.2820605933666229,
				1.5906665325164795
			],
			"min":[
				-0.009491123259067535,
				0.15202704071998596,
				1.3545043468475342
			],
			"type":"VEC3"
		},
		{
			"bufferView":41,
			"componentType":5126,
			"count":104,
			"type":"VEC3"
		},
		{
			"bufferView":42,
			"componentType":5126,
			"count":104,
			"type":"VEC2"
		},
		{
			"bufferView":43,
			"componentType":5123,
			"count":156,
			"type":"SCALAR"
		},
		{
			"bufferView":44,
			"componentType":5126,
			"count":64,
			"max":[
				0.5125644207000732,
				0.23280784487724304,
				1.8431802988052368
			],
			"min":[
				0.35229799151420593,
				0.16613662242889404,
				1.6957663297653198
			],
			"type":"VEC3"
		},
		{
			"bufferView":45,
			"componentType":5126,
			"count":64,
			"type":"VEC3"
		},
		{
			"bufferView":46,
			"componentType":5126,
			"count":64,
			"type":"VEC2"
		},
		{
			"bufferView":47,
			"componentType":5123,
			"count":96,
			"type":"SCALAR"
		},
		{
			"bufferView":48,
			"componentType":5126,
			"count":41,
			"max":[
				0.5125644207000732,
				0.1781691312789917,
				1.8431802988052368
			],
			"min":[
				0.35229799151420593,
				0.1478251814842224,
				1.6957663297653198
			],
			"type":"VEC3"
		},
		{
			"bufferView":49,
			"componentType":5126,
			"count":41,
			"type":"VEC3"
		},
		{
			"bufferView":50,
			"componentType":5126,
			"count":41,
			"type":"VEC2"
		},
		{
			"bufferView":51,
			"componentType":5123,
			"count":72,
			"type":"SCALAR"
		},
		{
			"bufferView":52,
			"componentType":5126,
			"count":16,
			"max":[
				0.48845744132995605,
				0.24821141362190247,
				1.8166518211364746
			],
			"min":[
				0.3764050006866455,
				0.21695777773857117,
				1.722294807434082
			],
			"type":"VEC3"
		},
		{
			"bufferView":53,
			"componentType":5126,
			"count":16,
			"type":"VEC3"
		},
		{
			"bufferView":54,
			"componentType":5126,
			"count":16,
			"type":"VEC2"
		},
		{
			"bufferView":55,
			"componentType":5123,
			"count":24,
			"type":"SCALAR"
		}
	],
	"bufferViews":[
		{
			"buffer":0,
			"byteLength":2016,
			"byteOffset":0,
			"target":34962
		},
		{
			"buffer":0,
			"byteLength":2016,
			"byteOffset":2016,
			"target":34962
		},
		{
			"buffer":0,
			"byteLength":1344,
			"byteOffset":4032,
			"target":34962
		},
		{
			"buffer":0,
			"byteLength":504,
			"byteOffset":5376,
			"target":34963
		},
		{
			"buffer":0,
			"byteLength":48,
			"byteOffset":5880,
			"target":34962
		},
		{
			"buffer":0,
			"byteLength":48,
			"byteOffset":5928,
			"target":34962
		},
		{
			"buffer":0,
			"byteLength":32,
			"byteOffset":5976,
			"target":34962
		},
		{
			"buffer":0,
			"byteLength":12,
			"byteOffset":6008,
			"target":34963
		},
		{
			"buffer":0,
			"byteLength":156,
			"byteOffset":6020,
			"target":34962
		},
		{
			"buffer":0,
			"byteLength":156,
			"byteOffset":6176,
			"target":34962
		},
		{
			"buffer":0,
			"byteLength":104,
			"byteOffset":6332,
			"target":34962
		},
		{
			"buffer":0,
			"byteLength":60,
			"byteOffset":6436,
			"target":34963
		},
		{
			"buffer":0,
			"byteLength":72,
			"byteOffset":6496,
			"target":34962
		},
		{
			"buffer":0,
			"byteLength":72,
			"byteOffset":6568,
			"target":34962
		},
		{
			"buffer":0,
			"byteLength":48,
			"byteOffset":6640,
			"target":34962
		},
		{
			"buffer":0,
			"byteLength":24,
			"byteOffset":6688,
			"target":34963
		},
		{
			"buffer":0,
			"byteLength":480,
			"byteOffset":6712,
			"target":34962
		},
		{
			"buffer":0,
			"byteLength":480,
			"byteOffset":7192,
			"target":34962
		},
		{
			"buffer":0,
			"byteLength":320,
			"byteOffset":7672,
			"target":34962
		},
		{
			"buffer":0,
			"byteLength":216,
			"byteOffset":7992,
			"target":34963
		},
		{
			"buffer":0,
			"byteLength":2508,
			"byteOffset":8208,
			"target":34962
		},
		{
			"buffer":0,
			"byteLength":2508,
			"byteOffset":10716,
			"target":34962
		},
		{
			"buffer":0,
			"byteLength":1672,
			"byteOffset":13224,
			"target":34962
		},
		{
			"buffer":0,
			"byteLength":816,
			"byteOffset":14896,
			"target":34963
		},
		{
			"buffer":0,
			"byteLength":4608,
			"byteOffset":15712,
			"target":34962
		},
		{
			"buffer":0,
			"byteLength":4608,
			"byteOffset":20320,
			"target":34962
		},
		{
			"buffer":0,
			"byteLength":3072,
			"byteOffset":24928,
			"target":34962
		},
		{
			"buffer":0,
			"byteLength":1248,
			"byteOffset":28000,
			"target":34963
		},
		{
			"buffer":0,
			"byteLength":984,
			"byteOffset":29248,
			"target":34962
		},
		{
			"buffer":0,
			"byteLength":984,
			"byteOffset":30232,
			"target":34962
		},
		{
			"buffer":0,
			"byteLength":656,
			"byteOffset":31216,
			"target":34962
		},
		{
			"buffer":0,
			"byteLength":288,
			"byteOffset":31872,
			"target":34963
		},
		{
			"buffer":0,
			"byteLength":4272,
			"byteOffset":32160,
			"target":34962
		},
		{
			"buffer":0,
			"byteLength":4272,
			"byteOffset":36432,
			"target":34962
		},
		{
			"buffer":0,
			"byteLength":2848,
			"byteOffset":40704,
			"target":34962
		},
		{
			"buffer":0,
			"byteLength":1152,
			"byteOffset":43552,
			"target":34963
		},
		{
			"buffer":0,
			"byteLength":468,
			"byteOffset":44704,
			"target":34962
		},
		{
			"buffer":0,
			"byteLength":468,
			"byteOffset":45172,
			"target":34962
		},
		{
			"buffer":0,
			"byteLength":312,
			"byteOffset":45640,
			"target":34962
		},
		{
			"buffer":0,
			"byteLength":144,
			"byteOffset":45952,
			"target":34963
		},
		{
			"buffer":0,
			"byteLength":1248,
			"byteOffset":46096,
			"target":34962
		},
		{
			"buffer":0,
			"byteLength":1248,
			"byteOffset":47344,
			"target":34962
		},
		{
			"buffer":0,
			"byteLength":832,
			"byteOffset":48592,
			"target":34962
		},
		{
			"buffer":0,
			"byteLength":312,
			"byteOffset":49424,
			"target":34963
		},
		{
			"buffer":0,
			"byteLength":768,
			"byteOffset":49736,
			"target":34962
		},
		{
			"buffer":0,
			"byteLength":768,
			"byteOffset":50504,
			"target":34962
		},
		{
			"buffer":0,
			"byteLength":512,
			"byteOffset":51272,
			"target":34962
		},
		{
			"buffer":0,
			"byteLength":192,
			"byteOffset":51784,
			"target":34963
		},
		{
			"buffer":0,
			"byteLength":492,
			"byteOffset":51976,
			"target":34962
		},
		{
			"buffer":0,
			"byteLength":492,
			"byteOffset":52468,
			"target":34962
		},
		{
			"buffer":0,
			"byteLength":328,
			"byteOffset":52960,
			"target":34962
		},
		{
			"buffer":0,
			"byteLength":144,
			"byteOffset":53288,
			"target":34963
		},
		{
			"buffer":0,
			"byteLength":192,
			"byteOffset":53432,
			"target":34962
		},
		{
			"buffer":0,
			"byteLength":192,
			"byteOffset":53624,
			"target":34962
		},
		{
			"buffer":0,
			"byteLength":128,
			"byteOffset":53816,
			"target":34962
		},
		{
			"buffer":0,
			"byteLength":48,
			"byteOffset":53944,
			"target":34963
		}
	],
	"buffers":[
		{
			"byteLength":53992,
			"uri":"data:application/octet-stream;base64,"
		}
	]
}
