{
	"asset":{
		"generator":"Khronos glTF Blender I/O v3.6.28",
		"version":"2.0"
	},
	"scene":0,
	"scenes":[
		{
			"name":"Scene",
			"nodes":[
				0
			]
		}
	],
	"nodes":[
		{
			"mesh":0,
			"name":"\u0447\u0435\u0440\u0441\u043a\u0438\u0439"
		}
	],
	"materials":[
		{
			"doubleSided":true,
			"name":"osn",
			"pbrMetallicRoughness":{
				"baseColorFactor":[
					0.17144113779067993,
					0.2746773660182953,
					0.1247718334197998,
					1
				],
				"metallicFactor":0,
				"roughnessFactor":0.5
			}
		},
		{
			"doubleSided":true,
			"name":"lightosn",
			"pbrMetallicRoughness":{
				"baseColorFactor":[
					0.22696588933467865,
					0.34191450476646423,
					0.14412851631641388,
					1
				],
				"metallicFactor":0,
				"roughnessFactor":0.5
			}
		},
		{
			"doubleSided":true,
			"name":"onlightosn",
			"pbrMetallicRoughness":{
				"baseColorFactor":[
					0.14995980262756348,
					0.2541521489620209,
					0.12213879823684692,
					1
				],
				"metallicFactor":0,
				"roughnessFactor":0.5
			}
		},
		{
			"doubleSided":true,
			"name":"osn-2",
			"pbrMetallicRoughness":{
				"baseColorFactor":[
					0.17151030898094177,
					0.29630887508392334,
					0.1398809403181076,
					1
				],
				"metallicFactor":0,
				"roughnessFactor":0.5
			}
		},
		{
			"doubleSided":true,
			"name":"shadosn",
			"pbrMetallicRoughness":{
				"baseColorFactor":[
					0.06301002949476242,
					0.14412851631641388,
					0.10224173218011856,
					1
				],
				"metallicFactor":0,
				"roughnessFactor":0.5
			}
		},
		{
			"doubleSided":true,
			"name":"underosn",
			"pbrMetallicRoughness":{
				"baseColorFactor":[
					0.19120171666145325,
					0.11193244159221649,
					0.09758733212947845,
					1
				],
				"metallicFactor":0,
				"roughnessFactor":0.5
			}
		},
		{
			"doubleSided":true,
			"name":"normal-tree",
			"pbrMetallicRoughness":{
				"baseColorFactor":[
					0.10702310502529144,
					0.22322800755500793,
					0.10224173218011856,
					1
				],
				"metallicFactor":0,
				"roughnessFactor":0.5
			}
		},
		{
			"doubleSided":true,
			"name":"osn-tree",
			"pbrMetallicRoughness":{
				"baseColorFactor":[
					0.23455063998699188,
					0.12743771076202393,
					0.05126946046948433,
					1
				],
				"metallicFactor":0,
				"roughnessFactor":0.5
			}
		},
		{
			"doubleSided":true,
			"name":"shad-tree",
			"pbrMetallicRoughness":{
				"baseColorFactor":[
					0.09305897355079651,
					0.2195262312889099,
					0.09758733212947845,
					1
				],
				"metallicFactor":0,
				"roughnessFactor":0.5
			}
		},
		{
			"doubleSided":true,
			"name":"normal-kus",
			"pbrMetallicRoughness":{
				"baseColorFactor":[
					0.10702310502529144,
					0.18116427958011627,
					0.07818741351366043,
					1
				],
				"metallicFactor":0,
				"roughnessFactor":0.5
			}
		},
		{
			"doubleSided":true,
			"name":"shad-kus",
			"pbrMetallicRoughness":{
				"baseColorFactor":[
					0.06171619892120361,
					0.10226551443338394,
					0.04822072759270668,
					1
				],
				"metallicFactor":0,
				"roughnessFactor":0.5
			}
		},
		{
			"doubleSided":true,
			"name":"light-kus",
			"pbrMetallicRoughness":{
				"baseColorFactor":[
					0.1247718334197998,
					0.22322800755500793,
					0.09305897355079651,
					1
				],
				"metallicFactor":0,
				"roughnessFactor":0.5
			}
		}
	],
	"meshes":[
		{
			"name":"Vert.030",
			"primitives":[
				{
					"attributes":{
						"POSITION":0,
						"NORMAL":1,
						"TEXCOORD_0":2
					},
					"indices":3,
					"material":0
				},
				{
					"attributes":{
						"POSITION":4,
						"NORMAL":5,
						"TEXCOORD_0":6
					},
					"indices":7,
					"material":1
				},
				{
					"attributes":{
						"POSITION":8,
						"NORMAL":9,
						"TEXCOORD_0":10
					},
					"indices":11,
					"material":2
				},
				{
					"attributes":{
						"POSITION":12,
						"NORMAL":13,
						"TEXCOORD_0":14
					},
					"indices":15,
					"material":3
				},
				{
					"attributes":{
						"POSITION":16,
						"NORMAL":17,
						"TEXCOORD_0":18
					},
					"indices":19,
					"material":4
				},
				{
					"attributes":{
						"POSITION":20,
						"NORMAL":21,
						"TEXCOORD_0":22
					},
					"indices":23,
					"material":5
				},
				{
					"attributes":{
						"POSITION":24,
						"NORMAL":25,
						"TEXCOORD_0":26
					},
					"indices":27,
					"material":6
				},
				{
					"attributes":{
						"POSITION":28,
						"NORMAL":29,
						"TEXCOORD_0":30
					},
					"indices":31,
					"material":7
				},
				{
					"attributes":{
						"POSITION":32,
						"NORMAL":33,
						"TEXCOORD_0":34
					},
					"indices":35,
					"material":8
				},
				{
					"attributes":{
						"POSITION":36,
						"NORMAL":37,
						"TEXCOORD_0":38
					},
					"indices":39,
					"material":9
				},
				{
					"attributes":{
						"POSITION":40,
						"NORMAL":41,
						"TEXCOORD_0":42
					},
					"indices":43,
					"material":10
				},
				{
					"attributes":{
						"POSITION":44,
						"NORMAL":45,
						"TEXCOORD_0":46
					},
					"indices":47,
					"material":11
				}
			]
		}
	],
	"accessors":[
		{
			"bufferView":0,
			"componentType":5126,
			"count":496,
			"max":[
				5.38696813583374,
				0.15620458126068115,
				-3.01824951171875
			],
			"min":[
				3.1234400272369385,
				0.07810229063034058,
				-4.239262580871582
			],
			"type":"VEC3"
		},
		{
			"bufferView":1,
			"componentType":5126,
			"count":496,
			"type":"VEC3"
		},
		{
			"bufferView":2,
			"componentType":5126,
			"count":496,
			"type":"VEC2"
		},
		{
			"bufferView":3,
			"componentType":5123,
			"count":750,
			"type":"SCALAR"
		},
		{
			"bufferView":4,
			"componentType":5126,
			"count":36,
			"max":[
				5.168633460998535,
				0.15620458126068115,
				-3.070934772491455
			],
			"min":[
				3.458739995956421,
				0.15620458126068115,
				-4.239262580871582
			],
			"type":"VEC3"
		},
		{
			"bufferView":5,
			"componentType":5126,
			"count":36,
			"type":"VEC3"
		},
		{
			"bufferView":6,
			"componentType":5126,
			"count":36,
			"type":"VEC2"
		},
		{
			"bufferView":7,
			"componentType":5123,
			"count":72,
			"type":"SCALAR"
		},
		{
			"bufferView":8,
			"componentType":5126,
			"count":22,
			"max":[
				5.22084379196167,
				0.15620458126068115,
				-3.1506738662719727
			],
			"min":[
				3.346012830734253,
				0.15620458126068115,
				-3.9948225021362305
			],
			"type":"VEC3"
		},
		{
			"bufferView":9,
			"componentType":5126,
			"count":22,
			"type":"VEC3"
		},
		{
			"bufferView":10,
			"componentType":5126,
			"count":22,
			"type":"VEC2"
		},
		{
			"bufferView":11,
			"componentType":5123,
			"count":48,
			"type":"SCALAR"
		},
		{
			"bufferView":12,
			"componentType":5126,
			"count":19,
			"max":[
				5.025054454803467,
				0.15620458126068115,
				-3.070934772491455
			],
			"min":[
				3.621304512023926,
				0.15620458126068115,
				-4.119415760040283
			],
			"type":"VEC3"
		},
		{
			"bufferView":13,
			"componentType":5126,
			"count":19,
			"type":"VEC3"
		},
		{
			"bufferView":14,
			"componentType":5126,
			"count":19,
			"type":"VEC2"
		},
		{
			"bufferView":15,
			"componentType":5123,
			"count":36,
			"type":"SCALAR"
		},
		{
			"bufferView":16,
			"componentType":5126,
			"count":108,
			"max":[
				5.38696813583374,
				0.15620458126068115,
				-3.01824951171875
			],
			"min":[
				3.1234400272369385,
				0.15620458126068115,
				-4.239262580871582
			],
			"type":"VEC3"
		},
		{
			"bufferView":17,
			"componentType":5126,
			"count":108,
			"type":"VEC3"
		},
		{
			"bufferView":18,
			"componentType":5126,
			"count":108,
			"type":"VEC2"
		},
		{
			"bufferView":19,
			"componentType":5123,
			"count":282,
			"type":"SCALAR"
		},
		{
			"bufferView":20,
			"componentType":5126,
			"count":619,
			"max":[
				5.38696813583374,
				0.07810229063034058,
				-3.01824951171875
			],
			"min":[
				3.1234400272369385,
				0,
				-4.239262580871582
			],
			"type":"VEC3"
		},
		{
			"bufferView":21,
			"componentType":5126,
			"count":619,
			"type":"VEC3"
		},
		{
			"bufferView":22,
			"componentType":5126,
			"count":619,
			"type":"VEC2"
		},
		{
			"bufferView":23,
			"componentType":5123,
			"count":1188,
			"type":"SCALAR"
		},
		{
			"bufferView":24,
			"componentType":5126,
			"count":1728,
			"max":[
				5.354671001434326,
				0.5324561595916748,
				-3.0697555541992188
			],
			"min":[
				3.2652528285980225,
				0.1704220026731491,
				-4.279972553253174
			],
			"type":"VEC3"
		},
		{
			"bufferView":25,
			"componentType":5126,
			"count":1728,
			"type":"VEC3"
		},
		{
			"bufferView":26,
			"componentType":5126,
			"count":1728,
			"type":"VEC2"
		},
		{
			"bufferView":27,
			"componentType":5123,
			"count":2808,
			"type":"SCALAR"
		},
		{
			"bufferView":28,
			"componentType":5126,
			"count":369,
			"max":[
				5.255672454833984,
				0.21646273136138916,
				-3.17411470413208
			],
			"min":[
				3.270207405090332,
				0.14079754054546356,
				-4.1756134033203125
			],
			"type":"VEC3"
		},
		{
			"bufferView":29,
			"componentType":5126,
			"count":369,
			"type":"VEC3"
		},
		{
			"bufferView":30,
			"componentType":5126,
			"count":369,
			"type":"VEC2"
		},
		{
			"bufferView":31,
			"componentType":5123,
			"count":648,
			"type":"SCALAR"
		},
		{
			"bufferView":32,
			"componentType":5126,
			"count":1602,
			"max":[
				5.255105972290039,
				0.5324561595916748,
				-3.0697555541992188
			],
			"min":[
				3.2009592056274414,
				0.1704220026731491,
				-4.279972553253174
			],
			"type":"VEC3"
		},
		{
			"bufferView":33,
			"componentType":5126,
			"count":1602,
			"type":"VEC3"
		},
		{
			"bufferView":34,
			"componentType":5126,
			"count":1602,
			"type":"VEC2"
		},
		{
			"bufferView":35,
			"componentType":5123,
			"count":2592,
			"type":"SCALAR"
		},
		{
			"bufferView":36,
			"componentType":5126,
			"count":320,
			"max":[
				5.133296012878418,
				0.23280784487724304,
				-3.0828731060028076
			],
			"min":[
				3.2339773178100586,
				0.16613662242889404,
				-4.096646785736084
			],
			"type":"VEC3"
		},
		{
			"bufferView":37,
			"componentType":5126,
			"count":320,
			"type":"VEC3"
		},
		{
			"bufferView":38,
			"componentType":5126,
			"count":320,
			"type":"VEC2"
		},
		{
			"bufferView":39,
			"componentType":5123,
			"count":480,
			"type":"SCALAR"
		},
		{
			"bufferView":40,
			"componentType":5126,
			"count":205,
			"max":[
				5.133296012878418,
				0.1781691312789917,
				-3.0828731060028076
			],
			"min":[
				3.2339773178100586,
				0.1478251814842224,
				-4.096646785736084
			],
			"type":"VEC3"
		},
		{
			"bufferView":41,
			"componentType":5126,
			"count":205,
			"type":"VEC3"
		},
		{
			"bufferView":42,
			"componentType":5126,
			"count":205,
			"type":"VEC2"
		},
		{
			"bufferView":43,
			"componentType":5123,
			"count":360,
			"type":"SCALAR"
		},
		{
			"bufferView":44,
			"componentType":5126,
			"count":80,
			"max":[
				5.109283447265625,
				0.24821141362190247,
				-3.108563184738159
			],
			"min":[
				3.2652392387390137,
				0.21695777773857117,
				-4.070957183837891
			],
			"type":"VEC3"
		},
		{
			"bufferView":45,
			"componentType":5126,
			"count":80,
			"type":"VEC3"
		},
		{
			"bufferView":46,
			"componentType":5126,
			"count":80,
			"type":"VEC2"
		},
		{
			"bufferView":47,
			"componentType":5123,
			"count":120,
			"type":"SCALAR"
		}
	],
	"bufferViews":[
		{
			"buffer":0,
			"byteLength":5952,
			"byteOffset":0,
			"target":34962
		},
		{
			"buffer":0,
			"byteLength":5952,
			"byteOffset":5952,
			"target":34962
		},
		{
			"buffer":0,
			"byteLength":3968,
			"byteOffset":11904,
			"target":34962
		},
		{
			"buffer":0,
			"byteLength":1500,
			"byteOffset":15872,
			"target":34963
		},
		{
			"buffer":0,
			"byteLength":432,
			"byteOffset":17372,
			"target":34962
		},
		{
			"buffer":0,
			"byteLength":432,
			"byteOffset":17804,
			"target":34962
		},
		{
			"buffer":0,
			"byteLength":288,
			"byteOffset":18236,
			"target":34962
		},
		{
			"buffer":0,
			"byteLength":144,
			"byteOffset":18524,
			"target":34963
		},
		{
			"buffer":0,
			"byteLength":264,
			"byteOffset":18668,
			"target":34962
		},
		{
			"buffer":0,
			"byteLength":264,
			"byteOffset":18932,
			"target":34962
		},
		{
			"buffer":0,
			"byteLength":176,
			"byteOffset":19196,
			"target":34962
		},
		{
			"buffer":0,
			"byteLength":96,
			"byteOffset":19372,
			"target":34963
		},
		{
			"buffer":0,
			"byteLength":228,
			"byteOffset":19468,
			"target":34962
		},
		{
			"buffer":0,
			"byteLength":228,
			"byteOffset":19696,
			"target":34962
		},
		{
			"buffer":0,
			"byteLength":152,
			"byteOffset":19924,
			"target":34962
		},
		{
			"buffer":0,
			"byteLength":72,
			"byteOffset":20076,
			"target":34963
		},
		{
			"buffer":0,
			"byteLength":1296,
			"byteOffset":20148,
			"target":34962
		},
		{
			"buffer":0,
			"byteLength":1296,
			"byteOffset":21444,
			"target":34962
		},
		{
			"buffer":0,
			"byteLength":864,
			"byteOffset":22740,
			"target":34962
		},
		{
			"buffer":0,
			"byteLength":564,
			"byteOffset":23604,
			"target":34963
		},
		{
			"buffer":0,
			"byteLength":7428,
			"byteOffset":24168,
			"target":34962
		},
		{
			"buffer":0,
			"byteLength":7428,
			"byteOffset":31596,
			"target":34962
		},
		{
			"buffer":0,
			"byteLength":4952,
			"byteOffset":39024,
			"target":34962
		},
		{
			"buffer":0,
			"byteLength":2376,
			"byteOffset":43976,
			"target":34963
		},
		{
			"buffer":0,
			"byteLength":20736,
			"byteOffset":46352,
			"target":34962
		},
		{
			"buffer":0,
			"byteLength":20736,
			"byteOffset":67088,
			"target":34962
		},
		{
			"buffer":0,
			"byteLength":13824,
			"byteOffset":87824,
			"target":34962
		},
		{
			"buffer":0,
			"byteLength":5616,
			"byteOffset":101648,
			"target":34963
		},
		{
			"buffer":0,
			"byteLength":4428,
			"byteOffset":107264,
			"target":34962
		},
		{
			"buffer":0,
			"byteLength":4428,
			"byteOffset":111692,
			"target":34962
		},
		{
			"buffer":0,
			"byteLength":2952,
			"byteOffset":116120,
			"target":34962
		},
		{
			"buffer":0,
			"byteLength":1296,
			"byteOffset":119072,
			"target":34963
		},
		{
			"buffer":0,
			"byteLength":19224,
			"byteOffset":120368,
			"target":34962
		},
		{
			"buffer":0,
			"byteLength":19224,
			"byteOffset":139592,
			"target":34962
		},
		{
			"buffer":0,
			"byteLength":12816,
			"byteOffset":158816,
			"target":34962
		},
		{
			"buffer":0,
			"byteLength":5184,
			"byteOffset":171632,
			"target":34963
		},
		{
			"buffer":0,
			"byteLength":3840,
			"byteOffset":176816,
			"target":34962
		},
		{
			"buffer":0,
			"byteLength":3840,
			"byteOffset":180656,
			"target":34962
		},
		{
			"buffer":0,
			"byteLength":2560,
			"byteOffset":184496,
			"target":34962
		},
		{
			"buffer":0,
			"byteLength":960,
			"byteOffset":187056,
			"target":34963
		},
		{
			"buffer":0,
			"byteLength":2460,
			"byteOffset":188016,
			"target":34962
		},
		{
			"buffer":0,
			"byteLength":2460,
			"byteOffset":190476,
			"target":34962
		},
		{
			"buffer":0,
			"byteLength":1640,
			"byteOffset":192936,
			"target":34962
		},
		{
			"buffer":0,
			"byteLength":720,
			"byteOffset":194576,
			"target":34963
		},
		{
			"buffer":0,
			"byteLength":960,
			"byteOffset":195296,
			"target":34962
		},
		{
			"buffer":0,
			"byteLength":960,
			"byteOffset":196256,
			"target":34962
		},
		{
			"buffer":0,
			"byteLength":640,
			"byteOffset":197216,
			"target":34962
		},
		{
			"buffer":0,
			"byteLength":240,
			"byteOffset":197856,
			"target":34963
		}
	],
	"buffers":[
		{
			"byteLength":198096,
			"uri":"data:application/octet-stream;base64,"
		}
	]
}
