{
	"asset":{
		"generator":"Khronos glTF Blender I/O v3.6.28",
		"version":"2.0"
	},
	"scene":0,
	"scenes":[
		{
			"name":"Scene",
			"nodes":[
				0
			]
		}
	],
	"nodes":[
		{
			"mesh":0,
			"name":"\u0447\u043e\u043a\u0443\u0440\u0434\u0430\u0445"
		}
	],
	"materials":[
		{
			"doubleSided":true,
			"name":"osn",
			"pbrMetallicRoughness":{
				"baseColorFactor":[
					0.17144113779067993,
					0.2746773660182953,
					0.1247718334197998,
					1
				],
				"metallicFactor":0,
				"roughnessFactor":0.5
			}
		},
		{
			"doubleSided":true,
			"name":"lightosn",
			"pbrMetallicRoughness":{
				"baseColorFactor":[
					0.22696588933467865,
					0.34191450476646423,
					0.14412851631641388,
					1
				],
				"metallicFactor":0,
				"roughnessFactor":0.5
			}
		},
		{
			"doubleSided":true,
			"name":"onlightosn",
			"pbrMetallicRoughness":{
				"baseColorFactor":[
					0.14995980262756348,
					0.2541521489620209,
					0.12213879823684692,
					1
				],
				"metallicFactor":0,
				"roughnessFactor":0.5
			}
		},
		{
			"doubleSided":true,
			"name":"osn-2",
			"pbrMetallicRoughness":{
				"baseColorFactor":[
					0.17151030898094177,
					0.29630887508392334,
					0.1398809403181076,
					1
				],
				"metallicFactor":0,
				"roughnessFactor":0.5
			}
		},
		{
			"doubleSided":true,
			"name":"shadosn",
			"pbrMetallicRoughness":{
				"baseColorFactor":[
					0.06301002949476242,
					0.14412851631641388,
					0.10224173218011856,
					1
				],
				"metallicFactor":0,
				"roughnessFactor":0.5
			}
		},
		{
			"doubleSided":true,
			"name":"underosn",
			"pbrMetallicRoughness":{
				"baseColorFactor":[
					0.19120171666145325,
					0.11193244159221649,
					0.09758733212947845,
					1
				],
				"metallicFactor":0,
				"roughnessFactor":0.5
			}
		},
		{
			"doubleSided":true,
			"name":"normal-tree",
			"pbrMetallicRoughness":{
				"baseColorFactor":[
					0.10702310502529144,
					0.22322800755500793,
					0.10224173218011856,
					1
				],
				"metallicFactor":0,
				"roughnessFactor":0.5
			}
		},
		{
			"doubleSided":true,
			"name":"osn-tree",
			"pbrMetallicRoughness":{
				"baseColorFactor":[
					0.23455063998699188,
					0.12743771076202393,
					0.05126946046948433,
					1
				],
				"metallicFactor":0,
				"roughnessFactor":0.5
			}
		},
		{
			"doubleSided":true,
			"name":"shad-tree",
			"pbrMetallicRoughness":{
				"baseColorFactor":[
					0.09305897355079651,
					0.2195262312889099,
					0.09758733212947845,
					1
				],
				"metallicFactor":0,
				"roughnessFactor":0.5
			}
		},
		{
			"doubleSided":true,
			"name":"normal-kus",
			"pbrMetallicRoughness":{
				"baseColorFactor":[
					0.10702310502529144,
					0.18116427958011627,
					0.07818741351366043,
					1
				],
				"metallicFactor":0,
				"roughnessFactor":0.5
			}
		},
		{
			"doubleSided":true,
			"name":"shad-kus",
			"pbrMetallicRoughness":{
				"baseColorFactor":[
					0.06171619892120361,
					0.10226551443338394,
					0.04822072759270668,
					1
				],
				"metallicFactor":0,
				"roughnessFactor":0.5
			}
		},
		{
			"doubleSided":true,
			"name":"light-kus",
			"pbrMetallicRoughness":{
				"baseColorFactor":[
					0.1247718334197998,
					0.22322800755500793,
					0.09305897355079651,
					1
				],
				"metallicFactor":0,
				"roughnessFactor":0.5
			}
		}
	],
	"meshes":[
		{
			"name":"Vert.028",
			"primitives":[
				{
					"attributes":{
						"POSITION":0,
						"NORMAL":1,
						"TEXCOORD_0":2
					},
					"indices":3,
					"material":0
				},
				{
					"attributes":{
						"POSITION":4,
						"NORMAL":5,
						"TEXCOORD_0":6
					},
					"indices":7,
					"material":1
				},
				{
					"attributes":{
						"POSITION":8,
						"NORMAL":9,
						"TEXCOORD_0":10
					},
					"indices":11,
					"material":2
				},
				{
					"attributes":{
						"POSITION":12,
						"NORMAL":13,
						"TEXCOORD_0":14
					},
					"indices":15,
					"material":3
				},
				{
					"attributes":{
						"POSITION":16,
						"NORMAL":17,
						"TEXCOORD_0":18
					},
					"indices":19,
					"material":4
				},
				{
					"attributes":{
						"POSITION":20,
						"NORMAL":21,
						"TEXCOORD_0":22
					},
					"indices":23,
					"material":5
				},
				{
					"attributes":{
						"POSITION":24,
						"NORMAL":25,
						"TEXCOORD_0":26
					},
					"indices":27,
					"material":6
				},
				{
					"attributes":{
						"POSITION":28,
						"NORMAL":29,
						"TEXCOORD_0":30
					},
					"indices":31,
					"material":7
				},
				{
					"attributes":{
						"POSITION":32,
						"NORMAL":33,
						"TEXCOORD_0":34
					},
					"indices":35,
					"material":8
				},
				{
					"attributes":{
						"POSITION":36,
						"NORMAL":37,
						"TEXCOORD_0":38
					},
					"indices":39,
					"material":9
				},
				{
					"attributes":{
						"POSITION":40,
						"NORMAL":41,
						"TEXCOORD_0":42
					},
					"indices":43,
					"material":10
				},
				{
					"attributes":{
						"POSITION":44,
						"NORMAL":45,
						"TEXCOORD_0":46
					},
					"indices":47,
					"material":11
				}
			]
		}
	],
	"accessors":[
		{
			"bufferView":0,
			"componentType":5126,
			"count":324,
			"max":[
				3.2954635620117188,
				0.15620458126068115,
				-2.3189549446105957
			],
			"min":[
				1.356085181236267,
				0.07810229063034058,
				-4.012857913970947
			],
			"type":"VEC3"
		},
		{
			"bufferView":1,
			"componentType":5126,
			"count":324,
			"type":"VEC3"
		},
		{
			"bufferView":2,
			"componentType":5126,
			"count":324,
			"type":"VEC2"
		},
		{
			"bufferView":3,
			"componentType":5123,
			"count":486,
			"type":"SCALAR"
		},
		{
			"bufferView":4,
			"componentType":5126,
			"count":16,
			"max":[
				3.103515625,
				0.15620458126068115,
				-2.6219725608825684
			],
			"min":[
				1.7972506284713745,
				0.15620458126068115,
				-3.816356897354126
			],
			"type":"VEC3"
		},
		{
			"bufferView":5,
			"componentType":5126,
			"count":16,
			"type":"VEC3"
		},
		{
			"bufferView":6,
			"componentType":5126,
			"count":16,
			"type":"VEC2"
		},
		{
			"bufferView":7,
			"componentType":5123,
			"count":36,
			"type":"SCALAR"
		},
		{
			"bufferView":8,
			"componentType":5126,
			"count":8,
			"max":[
				3.1075024604797363,
				0.15620458126068115,
				-2.726487398147583
			],
			"min":[
				1.4735583066940308,
				0.15620458126068115,
				-3.816356897354126
			],
			"type":"VEC3"
		},
		{
			"bufferView":9,
			"componentType":5126,
			"count":8,
			"type":"VEC3"
		},
		{
			"bufferView":10,
			"componentType":5126,
			"count":8,
			"type":"VEC2"
		},
		{
			"bufferView":11,
			"componentType":5123,
			"count":12,
			"type":"SCALAR"
		},
		{
			"bufferView":12,
			"componentType":5126,
			"count":20,
			"max":[
				3.09753680229187,
				0.15620458126068115,
				-2.498088836669922
			],
			"min":[
				1.4327402114868164,
				0.15620458126068115,
				-3.816356897354126
			],
			"type":"VEC3"
		},
		{
			"bufferView":13,
			"componentType":5126,
			"count":20,
			"type":"VEC3"
		},
		{
			"bufferView":14,
			"componentType":5126,
			"count":20,
			"type":"VEC2"
		},
		{
			"bufferView":15,
			"componentType":5123,
			"count":48,
			"type":"SCALAR"
		},
		{
			"bufferView":16,
			"componentType":5126,
			"count":101,
			"max":[
				3.2954635620117188,
				0.15620458126068115,
				-2.3189549446105957
			],
			"min":[
				1.356085181236267,
				0.15620458126068115,
				-4.012857913970947
			],
			"type":"VEC3"
		},
		{
			"bufferView":17,
			"componentType":5126,
			"count":101,
			"type":"VEC3"
		},
		{
			"bufferView":18,
			"componentType":5126,
			"count":101,
			"type":"VEC2"
		},
		{
			"bufferView":19,
			"componentType":5123,
			"count":306,
			"type":"SCALAR"
		},
		{
			"bufferView":20,
			"componentType":5126,
			"count":429,
			"max":[
				3.2954635620117188,
				0.07810229063034058,
				-2.3189549446105957
			],
			"min":[
				1.356085181236267,
				0,
				-4.012857913970947
			],
			"type":"VEC3"
		},
		{
			"bufferView":21,
			"componentType":5126,
			"count":429,
			"type":"VEC3"
		},
		{
			"bufferView":22,
			"componentType":5126,
			"count":429,
			"type":"VEC2"
		},
		{
			"bufferView":23,
			"componentType":5123,
			"count":888,
			"type":"SCALAR"
		},
		{
			"bufferView":24,
			"componentType":5126,
			"count":1536,
			"max":[
				3.2536253929138184,
				0.5324561595916748,
				-2.462157964706421
			],
			"min":[
				1.5387544631958008,
				0.18299147486686707,
				-3.814269542694092
			],
			"type":"VEC3"
		},
		{
			"bufferView":25,
			"componentType":5126,
			"count":1536,
			"type":"VEC3"
		},
		{
			"bufferView":26,
			"componentType":5126,
			"count":1536,
			"type":"VEC2"
		},
		{
			"bufferView":27,
			"componentType":5123,
			"count":2496,
			"type":"SCALAR"
		},
		{
			"bufferView":28,
			"componentType":5126,
			"count":328,
			"max":[
				3.115044116973877,
				0.21646273136138916,
				-2.5528128147125244
			],
			"min":[
				1.5482559204101562,
				0.14710834622383118,
				-3.8030660152435303
			],
			"type":"VEC3"
		},
		{
			"bufferView":29,
			"componentType":5126,
			"count":328,
			"type":"VEC3"
		},
		{
			"bufferView":30,
			"componentType":5126,
			"count":328,
			"type":"VEC2"
		},
		{
			"bufferView":31,
			"componentType":5123,
			"count":576,
			"type":"SCALAR"
		},
		{
			"bufferView":32,
			"componentType":5126,
			"count":1424,
			"max":[
				3.2536253929138184,
				0.5324561595916748,
				-2.51060152053833
			],
			"min":[
				1.4154566526412964,
				0.18299147486686707,
				-3.9345288276672363
			],
			"type":"VEC3"
		},
		{
			"bufferView":33,
			"componentType":5126,
			"count":1424,
			"type":"VEC3"
		},
		{
			"bufferView":34,
			"componentType":5126,
			"count":1424,
			"type":"VEC2"
		},
		{
			"bufferView":35,
			"componentType":5123,
			"count":2304,
			"type":"SCALAR"
		},
		{
			"bufferView":36,
			"componentType":5126,
			"count":384,
			"max":[
				2.961387872695923,
				0.23280784487724304,
				-2.576388120651245
			],
			"min":[
				1.4361095428466797,
				0.1617424339056015,
				-3.948356866836548
			],
			"type":"VEC3"
		},
		{
			"bufferView":37,
			"componentType":5126,
			"count":384,
			"type":"VEC3"
		},
		{
			"bufferView":38,
			"componentType":5126,
			"count":384,
			"type":"VEC2"
		},
		{
			"bufferView":39,
			"componentType":5123,
			"count":576,
			"type":"SCALAR"
		},
		{
			"bufferView":40,
			"componentType":5126,
			"count":246,
			"max":[
				2.961387872695923,
				0.1781691312789917,
				-2.576388120651245
			],
			"min":[
				1.4361095428466797,
				0.1478251814842224,
				-3.948356866836548
			],
			"type":"VEC3"
		},
		{
			"bufferView":41,
			"componentType":5126,
			"count":246,
			"type":"VEC3"
		},
		{
			"bufferView":42,
			"componentType":5126,
			"count":246,
			"type":"VEC2"
		},
		{
			"bufferView":43,
			"componentType":5123,
			"count":432,
			"type":"SCALAR"
		},
		{
			"bufferView":44,
			"componentType":5126,
			"count":96,
			"max":[
				2.942711591720581,
				0.24821141362190247,
				-2.607645273208618
			],
			"min":[
				1.4649025201797485,
				0.1951906681060791,
				-3.9173049926757812
			],
			"type":"VEC3"
		},
		{
			"bufferView":45,
			"componentType":5126,
			"count":96,
			"type":"VEC3"
		},
		{
			"bufferView":46,
			"componentType":5126,
			"count":96,
			"type":"VEC2"
		},
		{
			"bufferView":47,
			"componentType":5123,
			"count":144,
			"type":"SCALAR"
		}
	],
	"bufferViews":[
		{
			"buffer":0,
			"byteLength":3888,
			"byteOffset":0,
			"target":34962
		},
		{
			"buffer":0,
			"byteLength":3888,
			"byteOffset":3888,
			"target":34962
		},
		{
			"buffer":0,
			"byteLength":2592,
			"byteOffset":7776,
			"target":34962
		},
		{
			"buffer":0,
			"byteLength":972,
			"byteOffset":10368,
			"target":34963
		},
		{
			"buffer":0,
			"byteLength":192,
			"byteOffset":11340,
			"target":34962
		},
		{
			"buffer":0,
			"byteLength":192,
			"byteOffset":11532,
			"target":34962
		},
		{
			"buffer":0,
			"byteLength":128,
			"byteOffset":11724,
			"target":34962
		},
		{
			"buffer":0,
			"byteLength":72,
			"byteOffset":11852,
			"target":34963
		},
		{
			"buffer":0,
			"byteLength":96,
			"byteOffset":11924,
			"target":34962
		},
		{
			"buffer":0,
			"byteLength":96,
			"byteOffset":12020,
			"target":34962
		},
		{
			"buffer":0,
			"byteLength":64,
			"byteOffset":12116,
			"target":34962
		},
		{
			"buffer":0,
			"byteLength":24,
			"byteOffset":12180,
			"target":34963
		},
		{
			"buffer":0,
			"byteLength":240,
			"byteOffset":12204,
			"target":34962
		},
		{
			"buffer":0,
			"byteLength":240,
			"byteOffset":12444,
			"target":34962
		},
		{
			"buffer":0,
			"byteLength":160,
			"byteOffset":12684,
			"target":34962
		},
		{
			"buffer":0,
			"byteLength":96,
			"byteOffset":12844,
			"target":34963
		},
		{
			"buffer":0,
			"byteLength":1212,
			"byteOffset":12940,
			"target":34962
		},
		{
			"buffer":0,
			"byteLength":1212,
			"byteOffset":14152,
			"target":34962
		},
		{
			"buffer":0,
			"byteLength":808,
			"byteOffset":15364,
			"target":34962
		},
		{
			"buffer":0,
			"byteLength":612,
			"byteOffset":16172,
			"target":34963
		},
		{
			"buffer":0,
			"byteLength":5148,
			"byteOffset":16784,
			"target":34962
		},
		{
			"buffer":0,
			"byteLength":5148,
			"byteOffset":21932,
			"target":34962
		},
		{
			"buffer":0,
			"byteLength":3432,
			"byteOffset":27080,
			"target":34962
		},
		{
			"buffer":0,
			"byteLength":1776,
			"byteOffset":30512,
			"target":34963
		},
		{
			"buffer":0,
			"byteLength":18432,
			"byteOffset":32288,
			"target":34962
		},
		{
			"buffer":0,
			"byteLength":18432,
			"byteOffset":50720,
			"target":34962
		},
		{
			"buffer":0,
			"byteLength":12288,
			"byteOffset":69152,
			"target":34962
		},
		{
			"buffer":0,
			"byteLength":4992,
			"byteOffset":81440,
			"target":34963
		},
		{
			"buffer":0,
			"byteLength":3936,
			"byteOffset":86432,
			"target":34962
		},
		{
			"buffer":0,
			"byteLength":3936,
			"byteOffset":90368,
			"target":34962
		},
		{
			"buffer":0,
			"byteLength":2624,
			"byteOffset":94304,
			"target":34962
		},
		{
			"buffer":0,
			"byteLength":1152,
			"byteOffset":96928,
			"target":34963
		},
		{
			"buffer":0,
			"byteLength":17088,
			"byteOffset":98080,
			"target":34962
		},
		{
			"buffer":0,
			"byteLength":17088,
			"byteOffset":115168,
			"target":34962
		},
		{
			"buffer":0,
			"byteLength":11392,
			"byteOffset":132256,
			"target":34962
		},
		{
			"buffer":0,
			"byteLength":4608,
			"byteOffset":143648,
			"target":34963
		},
		{
			"buffer":0,
			"byteLength":4608,
			"byteOffset":148256,
			"target":34962
		},
		{
			"buffer":0,
			"byteLength":4608,
			"byteOffset":152864,
			"target":34962
		},
		{
			"buffer":0,
			"byteLength":3072,
			"byteOffset":157472,
			"target":34962
		},
		{
			"buffer":0,
			"byteLength":1152,
			"byteOffset":160544,
			"target":34963
		},
		{
			"buffer":0,
			"byteLength":2952,
			"byteOffset":161696,
			"target":34962
		},
		{
			"buffer":0,
			"byteLength":2952,
			"byteOffset":164648,
			"target":34962
		},
		{
			"buffer":0,
			"byteLength":1968,
			"byteOffset":167600,
			"target":34962
		},
		{
			"buffer":0,
			"byteLength":864,
			"byteOffset":169568,
			"target":34963
		},
		{
			"buffer":0,
			"byteLength":1152,
			"byteOffset":170432,
			"target":34962
		},
		{
			"buffer":0,
			"byteLength":1152,
			"byteOffset":171584,
			"target":34962
		},
		{
			"buffer":0,
			"byteLength":768,
			"byteOffset":172736,
			"target":34962
		},
		{
			"buffer":0,
			"byteLength":288,
			"byteOffset":173504,
			"target":34963
		}
	],
	"buffers":[
		{
			"byteLength":173792,
			"uri":"data:application/octet-stream;base64,"
		}
	]
}
