{
	"asset":{
		"generator":"Khronos glTF Blender I/O v3.6.28",
		"version":"2.0"
	},
	"scene":0,
	"scenes":[
		{
			"name":"Scene",
			"nodes":[
				0
			]
		}
	],
	"nodes":[
		{
			"mesh":0,
			"name":"\u0447\u0443\u0440\u0430\u043f\u0447\u0430"
		}
	],
	"materials":[
		{
			"doubleSided":true,
			"name":"osn",
			"pbrMetallicRoughness":{
				"baseColorFactor":[
					0.17144113779067993,
					0.2746773660182953,
					0.1247718334197998,
					1
				],
				"metallicFactor":0,
				"roughnessFactor":0.5
			}
		},
		{
			"doubleSided":true,
			"name":"lightosn",
			"pbrMetallicRoughness":{
				"baseColorFactor":[
					0.22696588933467865,
					0.34191450476646423,
					0.14412851631641388,
					1
				],
				"metallicFactor":0,
				"roughnessFactor":0.5
			}
		},
		{
			"doubleSided":true,
			"name":"onlightosn",
			"pbrMetallicRoughness":{
				"baseColorFactor":[
					0.14995980262756348,
					0.2541521489620209,
					0.12213879823684692,
					1
				],
				"metallicFactor":0,
				"roughnessFactor":0.5
			}
		},
		{
			"doubleSided":true,
			"name":"osn-2",
			"pbrMetallicRoughness":{
				"baseColorFactor":[
					0.17151030898094177,
					0.29630887508392334,
					0.1398809403181076,
					1
				],
				"metallicFactor":0,
				"roughnessFactor":0.5
			}
		},
		{
			"doubleSided":true,
			"name":"shadosn",
			"pbrMetallicRoughness":{
				"baseColorFactor":[
					0.06301002949476242,
					0.14412851631641388,
					0.10224173218011856,
					1
				],
				"metallicFactor":0,
				"roughnessFactor":0.5
			}
		},
		{
			"doubleSided":true,
			"name":"underosn",
			"pbrMetallicRoughness":{
				"baseColorFactor":[
					0.19120171666145325,
					0.11193244159221649,
					0.09758733212947845,
					1
				],
				"metallicFactor":0,
				"roughnessFactor":0.5
			}
		},
		{
			"doubleSided":true,
			"name":"normal-tree",
			"pbrMetallicRoughness":{
				"baseColorFactor":[
					0.10702310502529144,
					0.22322800755500793,
					0.10224173218011856,
					1
				],
				"metallicFactor":0,
				"roughnessFactor":0.5
			}
		},
		{
			"doubleSided":true,
			"name":"osn-tree",
			"pbrMetallicRoughness":{
				"baseColorFactor":[
					0.23455063998699188,
					0.12743771076202393,
					0.05126946046948433,
					1
				],
				"metallicFactor":0,
				"roughnessFactor":0.5
			}
		},
		{
			"doubleSided":true,
			"name":"shad-tree",
			"pbrMetallicRoughness":{
				"baseColorFactor":[
					0.09305897355079651,
					0.2195262312889099,
					0.09758733212947845,
					1
				],
				"metallicFactor":0,
				"roughnessFactor":0.5
			}
		},
		{
			"doubleSided":true,
			"name":"normal-kus",
			"pbrMetallicRoughness":{
				"baseColorFactor":[
					0.10702310502529144,
					0.18116427958011627,
					0.07818741351366043,
					1
				],
				"metallicFactor":0,
				"roughnessFactor":0.5
			}
		},
		{
			"doubleSided":true,
			"name":"shad-kus",
			"pbrMetallicRoughness":{
				"baseColorFactor":[
					0.06171619892120361,
					0.10226551443338394,
					0.04822072759270668,
					1
				],
				"metallicFactor":0,
				"roughnessFactor":0.5
			}
		},
		{
			"doubleSided":true,
			"name":"light-kus",
			"pbrMetallicRoughness":{
				"baseColorFactor":[
					0.1247718334197998,
					0.22322800755500793,
					0.09305897355079651,
					1
				],
				"metallicFactor":0,
				"roughnessFactor":0.5
			}
		}
	],
	"meshes":[
		{
			"name":"Vert.031",
			"primitives":[
				{
					"attributes":{
						"POSITION":0,
						"NORMAL":1,
						"TEXCOORD_0":2
					},
					"indices":3,
					"material":0
				},
				{
					"attributes":{
						"POSITION":4,
						"NORMAL":5,
						"TEXCOORD_0":6
					},
					"indices":7,
					"material":1
				},
				{
					"attributes":{
						"POSITION":8,
						"NORMAL":9,
						"TEXCOORD_0":10
					},
					"indices":11,
					"material":2
				},
				{
					"attributes":{
						"POSITION":12,
						"NORMAL":13,
						"TEXCOORD_0":14
					},
					"indices":15,
					"material":3
				},
				{
					"attributes":{
						"POSITION":16,
						"NORMAL":17,
						"TEXCOORD_0":18
					},
					"indices":19,
					"material":4
				},
				{
					"attributes":{
						"POSITION":20,
						"NORMAL":21,
						"TEXCOORD_0":22
					},
					"indices":23,
					"material":5
				},
				{
					"attributes":{
						"POSITION":24,
						"NORMAL":25,
						"TEXCOORD_0":26
					},
					"indices":27,
					"material":6
				},
				{
					"attributes":{
						"POSITION":28,
						"NORMAL":29,
						"TEXCOORD_0":30
					},
					"indices":31,
					"material":7
				},
				{
					"attributes":{
						"POSITION":32,
						"NORMAL":33,
						"TEXCOORD_0":34
					},
					"indices":35,
					"material":8
				},
				{
					"attributes":{
						"POSITION":36,
						"NORMAL":37,
						"TEXCOORD_0":38
					},
					"indices":39,
					"material":9
				},
				{
					"attributes":{
						"POSITION":40,
						"NORMAL":41,
						"TEXCOORD_0":42
					},
					"indices":43,
					"material":10
				},
				{
					"attributes":{
						"POSITION":44,
						"NORMAL":45,
						"TEXCOORD_0":46
					},
					"indices":47,
					"material":11
				}
			]
		}
	],
	"accessors":[
		{
			"bufferView":0,
			"componentType":5126,
			"count":98,
			"max":[
				0.830009937286377,
				0.15620458126068115,
				2.29133939743042
			],
			"min":[
				0.37820112705230713,
				0.07810229063034058,
				1.7881014347076416
			],
			"type":"VEC3"
		},
		{
			"bufferView":1,
			"componentType":5126,
			"count":98,
			"type":"VEC3"
		},
		{
			"bufferView":2,
			"componentType":5126,
			"count":98,
			"type":"VEC2"
		},
		{
			"bufferView":3,
			"componentType":5123,
			"count":150,
			"type":"SCALAR"
		},
		{
			"bufferView":4,
			"componentType":5126,
			"count":4,
			"max":[
				0.7350804209709167,
				0.15620458126068115,
				2.2500689029693604
			],
			"min":[
				0.5136173963546753,
				0.15620458126068115,
				1.917772889137268
			],
			"type":"VEC3"
		},
		{
			"bufferView":5,
			"componentType":5126,
			"count":4,
			"type":"VEC3"
		},
		{
			"bufferView":6,
			"componentType":5126,
			"count":4,
			"type":"VEC2"
		},
		{
			"bufferView":7,
			"componentType":5123,
			"count":6,
			"type":"SCALAR"
		},
		{
			"bufferView":8,
			"componentType":5126,
			"count":8,
			"max":[
				0.768307089805603,
				0.15620458126068115,
				2.269117832183838
			],
			"min":[
				0.5136173963546753,
				0.15620458126068115,
				1.8142064809799194
			],
			"type":"VEC3"
		},
		{
			"bufferView":9,
			"componentType":5126,
			"count":8,
			"type":"VEC3"
		},
		{
			"bufferView":10,
			"componentType":5126,
			"count":8,
			"type":"VEC2"
		},
		{
			"bufferView":11,
			"componentType":5123,
			"count":12,
			"type":"SCALAR"
		},
		{
			"bufferView":12,
			"componentType":5126,
			"count":6,
			"max":[
				0.7742400765419006,
				0.15620458126068115,
				2.102548837661743
			],
			"min":[
				0.5136173963546753,
				0.15620458126068115,
				1.917772889137268
			],
			"type":"VEC3"
		},
		{
			"bufferView":13,
			"componentType":5126,
			"count":6,
			"type":"VEC3"
		},
		{
			"bufferView":14,
			"componentType":5126,
			"count":6,
			"type":"VEC2"
		},
		{
			"bufferView":15,
			"componentType":5123,
			"count":12,
			"type":"SCALAR"
		},
		{
			"bufferView":16,
			"componentType":5126,
			"count":22,
			"max":[
				0.830009937286377,
				0.15620458126068115,
				2.29133939743042
			],
			"min":[
				0.37820112705230713,
				0.15620458126068115,
				1.7881014347076416
			],
			"type":"VEC3"
		},
		{
			"bufferView":17,
			"componentType":5126,
			"count":22,
			"type":"VEC3"
		},
		{
			"bufferView":18,
			"componentType":5126,
			"count":22,
			"type":"VEC2"
		},
		{
			"bufferView":19,
			"componentType":5123,
			"count":48,
			"type":"SCALAR"
		},
		{
			"bufferView":20,
			"componentType":5126,
			"count":121,
			"max":[
				0.830009937286377,
				0.07810229063034058,
				2.29133939743042
			],
			"min":[
				0.37820112705230713,
				0,
				1.7881014347076416
			],
			"type":"VEC3"
		},
		{
			"bufferView":21,
			"componentType":5126,
			"count":121,
			"type":"VEC3"
		},
		{
			"bufferView":22,
			"componentType":5126,
			"count":121,
			"type":"VEC2"
		},
		{
			"bufferView":23,
			"componentType":5123,
			"count":228,
			"type":"SCALAR"
		},
		{
			"bufferView":24,
			"componentType":5126,
			"count":192,
			"max":[
				0.7553502321243286,
				0.5324561595916748,
				2.2637739181518555
			],
			"min":[
				0.5818167328834534,
				0.1890220195055008,
				1.9508695602416992
			],
			"type":"VEC3"
		},
		{
			"bufferView":25,
			"componentType":5126,
			"count":192,
			"type":"VEC3"
		},
		{
			"bufferView":26,
			"componentType":5126,
			"count":192,
			"type":"VEC2"
		},
		{
			"bufferView":27,
			"componentType":5123,
			"count":312,
			"type":"SCALAR"
		},
		{
			"bufferView":28,
			"componentType":5126,
			"count":41,
			"max":[
				0.6225510239601135,
				0.21646273136138916,
				2.123783826828003
			],
			"min":[
				0.5913180708885193,
				0.14710834622383118,
				2.0908596515655518
			],
			"type":"VEC3"
		},
		{
			"bufferView":29,
			"componentType":5126,
			"count":41,
			"type":"VEC3"
		},
		{
			"bufferView":30,
			"componentType":5126,
			"count":41,
			"type":"VEC2"
		},
		{
			"bufferView":31,
			"componentType":5123,
			"count":72,
			"type":"SCALAR"
		},
		{
			"bufferView":32,
			"componentType":5126,
			"count":178,
			"max":[
				0.6217907667160034,
				0.5324561595916748,
				2.2637739181518555
			],
			"min":[
				0.4585188627243042,
				0.1890220195055008,
				1.9508695602416992
			],
			"type":"VEC3"
		},
		{
			"bufferView":33,
			"componentType":5126,
			"count":178,
			"type":"VEC3"
		},
		{
			"bufferView":34,
			"componentType":5126,
			"count":178,
			"type":"VEC2"
		},
		{
			"bufferView":35,
			"componentType":5123,
			"count":288,
			"type":"SCALAR"
		},
		{
			"bufferView":36,
			"componentType":5126,
			"count":64,
			"max":[
				0.6428902745246887,
				0.2025846242904663,
				1.8676501512527466
			],
			"min":[
				0.5511882901191711,
				0.16443635523319244,
				1.7833019495010376
			],
			"type":"VEC3"
		},
		{
			"bufferView":37,
			"componentType":5126,
			"count":64,
			"type":"VEC3"
		},
		{
			"bufferView":38,
			"componentType":5126,
			"count":64,
			"type":"VEC2"
		},
		{
			"bufferView":39,
			"componentType":5123,
			"count":96,
			"type":"SCALAR"
		},
		{
			"bufferView":40,
			"componentType":5126,
			"count":41,
			"max":[
				0.6428902745246887,
				0.17132116854190826,
				1.8676501512527466
			],
			"min":[
				0.5511882901191711,
				0.15395882725715637,
				1.7833019495010376
			],
			"type":"VEC3"
		},
		{
			"bufferView":41,
			"componentType":5126,
			"count":41,
			"type":"VEC3"
		},
		{
			"bufferView":42,
			"componentType":5126,
			"count":41,
			"type":"VEC2"
		},
		{
			"bufferView":43,
			"componentType":5123,
			"count":72,
			"type":"SCALAR"
		},
		{
			"bufferView":44,
			"componentType":5126,
			"count":16,
			"max":[
				0.6290966272354126,
				0.21139830350875854,
				1.852470874786377
			],
			"min":[
				0.5649819374084473,
				0.19351544976234436,
				1.7984812259674072
			],
			"type":"VEC3"
		},
		{
			"bufferView":45,
			"componentType":5126,
			"count":16,
			"type":"VEC3"
		},
		{
			"bufferView":46,
			"componentType":5126,
			"count":16,
			"type":"VEC2"
		},
		{
			"bufferView":47,
			"componentType":5123,
			"count":24,
			"type":"SCALAR"
		}
	],
	"bufferViews":[
		{
			"buffer":0,
			"byteLength":1176,
			"byteOffset":0,
			"target":34962
		},
		{
			"buffer":0,
			"byteLength":1176,
			"byteOffset":1176,
			"target":34962
		},
		{
			"buffer":0,
			"byteLength":784,
			"byteOffset":2352,
			"target":34962
		},
		{
			"buffer":0,
			"byteLength":300,
			"byteOffset":3136,
			"target":34963
		},
		{
			"buffer":0,
			"byteLength":48,
			"byteOffset":3436,
			"target":34962
		},
		{
			"buffer":0,
			"byteLength":48,
			"byteOffset":3484,
			"target":34962
		},
		{
			"buffer":0,
			"byteLength":32,
			"byteOffset":3532,
			"target":34962
		},
		{
			"buffer":0,
			"byteLength":12,
			"byteOffset":3564,
			"target":34963
		},
		{
			"buffer":0,
			"byteLength":96,
			"byteOffset":3576,
			"target":34962
		},
		{
			"buffer":0,
			"byteLength":96,
			"byteOffset":3672,
			"target":34962
		},
		{
			"buffer":0,
			"byteLength":64,
			"byteOffset":3768,
			"target":34962
		},
		{
			"buffer":0,
			"byteLength":24,
			"byteOffset":3832,
			"target":34963
		},
		{
			"buffer":0,
			"byteLength":72,
			"byteOffset":3856,
			"target":34962
		},
		{
			"buffer":0,
			"byteLength":72,
			"byteOffset":3928,
			"target":34962
		},
		{
			"buffer":0,
			"byteLength":48,
			"byteOffset":4000,
			"target":34962
		},
		{
			"buffer":0,
			"byteLength":24,
			"byteOffset":4048,
			"target":34963
		},
		{
			"buffer":0,
			"byteLength":264,
			"byteOffset":4072,
			"target":34962
		},
		{
			"buffer":0,
			"byteLength":264,
			"byteOffset":4336,
			"target":34962
		},
		{
			"buffer":0,
			"byteLength":176,
			"byteOffset":4600,
			"target":34962
		},
		{
			"buffer":0,
			"byteLength":96,
			"byteOffset":4776,
			"target":34963
		},
		{
			"buffer":0,
			"byteLength":1452,
			"byteOffset":4872,
			"target":34962
		},
		{
			"buffer":0,
			"byteLength":1452,
			"byteOffset":6324,
			"target":34962
		},
		{
			"buffer":0,
			"byteLength":968,
			"byteOffset":7776,
			"target":34962
		},
		{
			"buffer":0,
			"byteLength":456,
			"byteOffset":8744,
			"target":34963
		},
		{
			"buffer":0,
			"byteLength":2304,
			"byteOffset":9200,
			"target":34962
		},
		{
			"buffer":0,
			"byteLength":2304,
			"byteOffset":11504,
			"target":34962
		},
		{
			"buffer":0,
			"byteLength":1536,
			"byteOffset":13808,
			"target":34962
		},
		{
			"buffer":0,
			"byteLength":624,
			"byteOffset":15344,
			"target":34963
		},
		{
			"buffer":0,
			"byteLength":492,
			"byteOffset":15968,
			"target":34962
		},
		{
			"buffer":0,
			"byteLength":492,
			"byteOffset":16460,
			"target":34962
		},
		{
			"buffer":0,
			"byteLength":328,
			"byteOffset":16952,
			"target":34962
		},
		{
			"buffer":0,
			"byteLength":144,
			"byteOffset":17280,
			"target":34963
		},
		{
			"buffer":0,
			"byteLength":2136,
			"byteOffset":17424,
			"target":34962
		},
		{
			"buffer":0,
			"byteLength":2136,
			"byteOffset":19560,
			"target":34962
		},
		{
			"buffer":0,
			"byteLength":1424,
			"byteOffset":21696,
			"target":34962
		},
		{
			"buffer":0,
			"byteLength":576,
			"byteOffset":23120,
			"target":34963
		},
		{
			"buffer":0,
			"byteLength":768,
			"byteOffset":23696,
			"target":34962
		},
		{
			"buffer":0,
			"byteLength":768,
			"byteOffset":24464,
			"target":34962
		},
		{
			"buffer":0,
			"byteLength":512,
			"byteOffset":25232,
			"target":34962
		},
		{
			"buffer":0,
			"byteLength":192,
			"byteOffset":25744,
			"target":34963
		},
		{
			"buffer":0,
			"byteLength":492,
			"byteOffset":25936,
			"target":34962
		},
		{
			"buffer":0,
			"byteLength":492,
			"byteOffset":26428,
			"target":34962
		},
		{
			"buffer":0,
			"byteLength":328,
			"byteOffset":26920,
			"target":34962
		},
		{
			"buffer":0,
			"byteLength":144,
			"byteOffset":27248,
			"target":34963
		},
		{
			"buffer":0,
			"byteLength":192,
			"byteOffset":27392,
			"target":34962
		},
		{
			"buffer":0,
			"byteLength":192,
			"byteOffset":27584,
			"target":34962
		},
		{
			"buffer":0,
			"byteLength":128,
			"byteOffset":27776,
			"target":34962
		},
		{
			"buffer":0,
			"byteLength":48,
			"byteOffset":27904,
			"target":34963
		}
	],
	"buffers":[
		{
			"byteLength":27952,
			"uri":"data:application/octet-stream;base64,"
		}
	]
}
