{
	"asset":{
		"generator":"Khronos glTF Blender I/O v3.6.28",
		"version":"2.0"
	},
	"scene":0,
	"scenes":[
		{
			"name":"Scene",
			"nodes":[
				0
			]
		}
	],
	"nodes":[
		{
			"mesh":0,
			"name":"\u0434\u0435\u043f\u0443\u0442\u0430\u0442\u0441\u043a\u0438\u0439"
		}
	],
	"materials":[
		{
			"doubleSided":true,
			"name":"osn",
			"pbrMetallicRoughness":{
				"baseColorFactor":[
					0.17144113779067993,
					0.2746773660182953,
					0.1247718334197998,
					1
				],
				"metallicFactor":0,
				"roughnessFactor":0.5
			}
		},
		{
			"doubleSided":true,
			"name":"lightosn",
			"pbrMetallicRoughness":{
				"baseColorFactor":[
					0.22696588933467865,
					0.34191450476646423,
					0.14412851631641388,
					1
				],
				"metallicFactor":0,
				"roughnessFactor":0.5
			}
		},
		{
			"doubleSided":true,
			"name":"onlightosn",
			"pbrMetallicRoughness":{
				"baseColorFactor":[
					0.14995980262756348,
					0.2541521489620209,
					0.12213879823684692,
					1
				],
				"metallicFactor":0,
				"roughnessFactor":0.5
			}
		},
		{
			"doubleSided":true,
			"name":"osn-2",
			"pbrMetallicRoughness":{
				"baseColorFactor":[
					0.17151030898094177,
					0.29630887508392334,
					0.1398809403181076,
					1
				],
				"metallicFactor":0,
				"roughnessFactor":0.5
			}
		},
		{
			"doubleSided":true,
			"name":"shadosn",
			"pbrMetallicRoughness":{
				"baseColorFactor":[
					0.06301002949476242,
					0.14412851631641388,
					0.10224173218011856,
					1
				],
				"metallicFactor":0,
				"roughnessFactor":0.5
			}
		},
		{
			"doubleSided":true,
			"name":"underosn",
			"pbrMetallicRoughness":{
				"baseColorFactor":[
					0.19120171666145325,
					0.11193244159221649,
					0.09758733212947845,
					1
				],
				"metallicFactor":0,
				"roughnessFactor":0.5
			}
		},
		{
			"doubleSided":true,
			"name":"normal-tree",
			"pbrMetallicRoughness":{
				"baseColorFactor":[
					0.10702310502529144,
					0.22322800755500793,
					0.10224173218011856,
					1
				],
				"metallicFactor":0,
				"roughnessFactor":0.5
			}
		},
		{
			"doubleSided":true,
			"name":"osn-tree",
			"pbrMetallicRoughness":{
				"baseColorFactor":[
					0.23455063998699188,
					0.12743771076202393,
					0.05126946046948433,
					1
				],
				"metallicFactor":0,
				"roughnessFactor":0.5
			}
		},
		{
			"doubleSided":true,
			"name":"shad-tree",
			"pbrMetallicRoughness":{
				"baseColorFactor":[
					0.09305897355079651,
					0.2195262312889099,
					0.09758733212947845,
					1
				],
				"metallicFactor":0,
				"roughnessFactor":0.5
			}
		},
		{
			"doubleSided":true,
			"name":"normal-kus",
			"pbrMetallicRoughness":{
				"baseColorFactor":[
					0.10702310502529144,
					0.18116427958011627,
					0.07818741351366043,
					1
				],
				"metallicFactor":0,
				"roughnessFactor":0.5
			}
		},
		{
			"doubleSided":true,
			"name":"shad-kus",
			"pbrMetallicRoughness":{
				"baseColorFactor":[
					0.06171619892120361,
					0.10226551443338394,
					0.04822072759270668,
					1
				],
				"metallicFactor":0,
				"roughnessFactor":0.5
			}
		},
		{
			"doubleSided":true,
			"name":"light-kus",
			"pbrMetallicRoughness":{
				"baseColorFactor":[
					0.1247718334197998,
					0.22322800755500793,
					0.09305897355079651,
					1
				],
				"metallicFactor":0,
				"roughnessFactor":0.5
			}
		}
	],
	"meshes":[
		{
			"name":"Vert.048",
			"primitives":[
				{
					"attributes":{
						"POSITION":0,
						"NORMAL":1,
						"TEXCOORD_0":2
					},
					"indices":3,
					"material":0
				},
				{
					"attributes":{
						"POSITION":4,
						"NORMAL":5,
						"TEXCOORD_0":6
					},
					"indices":7,
					"material":1
				},
				{
					"attributes":{
						"POSITION":8,
						"NORMAL":9,
						"TEXCOORD_0":10
					},
					"indices":11,
					"material":2
				},
				{
					"attributes":{
						"POSITION":12,
						"NORMAL":13,
						"TEXCOORD_0":14
					},
					"indices":15,
					"material":3
				},
				{
					"attributes":{
						"POSITION":16,
						"NORMAL":17,
						"TEXCOORD_0":18
					},
					"indices":19,
					"material":4
				},
				{
					"attributes":{
						"POSITION":20,
						"NORMAL":21,
						"TEXCOORD_0":22
					},
					"indices":23,
					"material":5
				},
				{
					"attributes":{
						"POSITION":24,
						"NORMAL":25,
						"TEXCOORD_0":26
					},
					"indices":27,
					"material":6
				},
				{
					"attributes":{
						"POSITION":28,
						"NORMAL":29,
						"TEXCOORD_0":30
					},
					"indices":31,
					"material":7
				},
				{
					"attributes":{
						"POSITION":32,
						"NORMAL":33,
						"TEXCOORD_0":34
					},
					"indices":35,
					"material":8
				},
				{
					"attributes":{
						"POSITION":36,
						"NORMAL":37,
						"TEXCOORD_0":38
					},
					"indices":39,
					"material":9
				},
				{
					"attributes":{
						"POSITION":40,
						"NORMAL":41,
						"TEXCOORD_0":42
					},
					"indices":43,
					"material":10
				},
				{
					"attributes":{
						"POSITION":44,
						"NORMAL":45,
						"TEXCOORD_0":46
					},
					"indices":47,
					"material":11
				}
			]
		}
	],
	"accessors":[
		{
			"bufferView":0,
			"componentType":5126,
			"count":777,
			"max":[
				1.8081786632537842,
				0.15620458126068115,
				-1.128792405128479
			],
			"min":[
				-0.3158303201198578,
				0.07810229063034058,
				-3.932727336883545
			],
			"type":"VEC3"
		},
		{
			"bufferView":1,
			"componentType":5126,
			"count":777,
			"type":"VEC3"
		},
		{
			"bufferView":2,
			"componentType":5126,
			"count":777,
			"type":"VEC2"
		},
		{
			"bufferView":3,
			"componentType":5123,
			"count":1170,
			"type":"SCALAR"
		},
		{
			"bufferView":4,
			"componentType":5126,
			"count":35,
			"max":[
				1.6384950876235962,
				0.15620458126068115,
				-1.633543848991394
			],
			"min":[
				0.5200015902519226,
				0.15620458126068115,
				-3.055633783340454
			],
			"type":"VEC3"
		},
		{
			"bufferView":5,
			"componentType":5126,
			"count":35,
			"type":"VEC3"
		},
		{
			"bufferView":6,
			"componentType":5126,
			"count":35,
			"type":"VEC2"
		},
		{
			"bufferView":7,
			"componentType":5123,
			"count":66,
			"type":"SCALAR"
		},
		{
			"bufferView":8,
			"componentType":5126,
			"count":46,
			"max":[
				1.7266167402267456,
				0.15620458126068115,
				-1.2222925424575806
			],
			"min":[
				-0.037333354353904724,
				0.15620458126068115,
				-3.740100622177124
			],
			"type":"VEC3"
		},
		{
			"bufferView":9,
			"componentType":5126,
			"count":46,
			"type":"VEC3"
		},
		{
			"bufferView":10,
			"componentType":5126,
			"count":46,
			"type":"VEC2"
		},
		{
			"bufferView":11,
			"componentType":5123,
			"count":102,
			"type":"SCALAR"
		},
		{
			"bufferView":12,
			"componentType":5126,
			"count":32,
			"max":[
				1.7215569019317627,
				0.15620458126068115,
				-1.3397430181503296
			],
			"min":[
				0.18610037863254547,
				0.15620458126068115,
				-3.375422716140747
			],
			"type":"VEC3"
		},
		{
			"bufferView":13,
			"componentType":5126,
			"count":32,
			"type":"VEC3"
		},
		{
			"bufferView":14,
			"componentType":5126,
			"count":32,
			"type":"VEC2"
		},
		{
			"bufferView":15,
			"componentType":5123,
			"count":66,
			"type":"SCALAR"
		},
		{
			"bufferView":16,
			"componentType":5126,
			"count":151,
			"max":[
				1.8081786632537842,
				0.15620458126068115,
				-1.128792405128479
			],
			"min":[
				-0.3158303201198578,
				0.15620458126068115,
				-3.932727336883545
			],
			"type":"VEC3"
		},
		{
			"bufferView":17,
			"componentType":5126,
			"count":151,
			"type":"VEC3"
		},
		{
			"bufferView":18,
			"componentType":5126,
			"count":151,
			"type":"VEC2"
		},
		{
			"bufferView":19,
			"componentType":5123,
			"count":396,
			"type":"SCALAR"
		},
		{
			"bufferView":20,
			"componentType":5126,
			"count":957,
			"max":[
				1.8081786632537842,
				0.07810229063034058,
				-1.128792405128479
			],
			"min":[
				-0.3158303201198578,
				0,
				-3.932727336883545
			],
			"type":"VEC3"
		},
		{
			"bufferView":21,
			"componentType":5126,
			"count":957,
			"type":"VEC3"
		},
		{
			"bufferView":22,
			"componentType":5126,
			"count":957,
			"type":"VEC2"
		},
		{
			"bufferView":23,
			"componentType":5123,
			"count":1800,
			"type":"SCALAR"
		},
		{
			"bufferView":24,
			"componentType":5126,
			"count":1728,
			"max":[
				1.6868741512298584,
				0.5324561595916748,
				-1.21428382396698
			],
			"min":[
				-0.26173827052116394,
				0.17747880518436432,
				-3.8151750564575195
			],
			"type":"VEC3"
		},
		{
			"bufferView":25,
			"componentType":5126,
			"count":1728,
			"type":"VEC3"
		},
		{
			"bufferView":26,
			"componentType":5126,
			"count":1728,
			"type":"VEC2"
		},
		{
			"bufferView":27,
			"componentType":5123,
			"count":2808,
			"type":"SCALAR"
		},
		{
			"bufferView":28,
			"componentType":5126,
			"count":369,
			"max":[
				1.5540748834609985,
				0.21646273136138916,
				-1.3542739152908325
			],
			"min":[
				-0.19099608063697815,
				0.14710834622383118,
				-3.7216997146606445
			],
			"type":"VEC3"
		},
		{
			"bufferView":29,
			"componentType":5126,
			"count":369,
			"type":"VEC3"
		},
		{
			"bufferView":30,
			"componentType":5126,
			"count":369,
			"type":"VEC2"
		},
		{
			"bufferView":31,
			"componentType":5123,
			"count":648,
			"type":"SCALAR"
		},
		{
			"bufferView":32,
			"componentType":5126,
			"count":1602,
			"max":[
				1.6013325452804565,
				0.5324561595916748,
				-1.21428382396698
			],
			"min":[
				-0.2842341363430023,
				0.17747880518436432,
				-3.774578809738159
			],
			"type":"VEC3"
		},
		{
			"bufferView":33,
			"componentType":5126,
			"count":1602,
			"type":"VEC3"
		},
		{
			"bufferView":34,
			"componentType":5126,
			"count":1602,
			"type":"VEC2"
		},
		{
			"bufferView":35,
			"componentType":5123,
			"count":2592,
			"type":"SCALAR"
		},
		{
			"bufferView":36,
			"componentType":5126,
			"count":320,
			"max":[
				1.4518041610717773,
				0.23280784487724304,
				-1.4115345478057861
			],
			"min":[
				-0.05851258337497711,
				0.16613662242889404,
				-3.3323206901550293
			],
			"type":"VEC3"
		},
		{
			"bufferView":37,
			"componentType":5126,
			"count":320,
			"type":"VEC3"
		},
		{
			"bufferView":38,
			"componentType":5126,
			"count":320,
			"type":"VEC2"
		},
		{
			"bufferView":39,
			"componentType":5123,
			"count":480,
			"type":"SCALAR"
		},
		{
			"bufferView":40,
			"componentType":5126,
			"count":205,
			"max":[
				1.4518041610717773,
				0.1781691312789917,
				-1.4115345478057861
			],
			"min":[
				-0.05851258337497711,
				0.1478251814842224,
				-3.3323206901550293
			],
			"type":"VEC3"
		},
		{
			"bufferView":41,
			"componentType":5126,
			"count":205,
			"type":"VEC3"
		},
		{
			"bufferView":42,
			"componentType":5126,
			"count":205,
			"type":"VEC2"
		},
		{
			"bufferView":43,
			"componentType":5123,
			"count":360,
			"type":"SCALAR"
		},
		{
			"bufferView":44,
			"componentType":5126,
			"count":80,
			"max":[
				1.4280622005462646,
				0.24821141362190247,
				-1.4420084953308105
			],
			"min":[
				-0.027294330298900604,
				0.21695777773857117,
				-3.301846742630005
			],
			"type":"VEC3"
		},
		{
			"bufferView":45,
			"componentType":5126,
			"count":80,
			"type":"VEC3"
		},
		{
			"bufferView":46,
			"componentType":5126,
			"count":80,
			"type":"VEC2"
		},
		{
			"bufferView":47,
			"componentType":5123,
			"count":120,
			"type":"SCALAR"
		}
	],
	"bufferViews":[
		{
			"buffer":0,
			"byteLength":9324,
			"byteOffset":0,
			"target":34962
		},
		{
			"buffer":0,
			"byteLength":9324,
			"byteOffset":9324,
			"target":34962
		},
		{
			"buffer":0,
			"byteLength":6216,
			"byteOffset":18648,
			"target":34962
		},
		{
			"buffer":0,
			"byteLength":2340,
			"byteOffset":24864,
			"target":34963
		},
		{
			"buffer":0,
			"byteLength":420,
			"byteOffset":27204,
			"target":34962
		},
		{
			"buffer":0,
			"byteLength":420,
			"byteOffset":27624,
			"target":34962
		},
		{
			"buffer":0,
			"byteLength":280,
			"byteOffset":28044,
			"target":34962
		},
		{
			"buffer":0,
			"byteLength":132,
			"byteOffset":28324,
			"target":34963
		},
		{
			"buffer":0,
			"byteLength":552,
			"byteOffset":28456,
			"target":34962
		},
		{
			"buffer":0,
			"byteLength":552,
			"byteOffset":29008,
			"target":34962
		},
		{
			"buffer":0,
			"byteLength":368,
			"byteOffset":29560,
			"target":34962
		},
		{
			"buffer":0,
			"byteLength":204,
			"byteOffset":29928,
			"target":34963
		},
		{
			"buffer":0,
			"byteLength":384,
			"byteOffset":30132,
			"target":34962
		},
		{
			"buffer":0,
			"byteLength":384,
			"byteOffset":30516,
			"target":34962
		},
		{
			"buffer":0,
			"byteLength":256,
			"byteOffset":30900,
			"target":34962
		},
		{
			"buffer":0,
			"byteLength":132,
			"byteOffset":31156,
			"target":34963
		},
		{
			"buffer":0,
			"byteLength":1812,
			"byteOffset":31288,
			"target":34962
		},
		{
			"buffer":0,
			"byteLength":1812,
			"byteOffset":33100,
			"target":34962
		},
		{
			"buffer":0,
			"byteLength":1208,
			"byteOffset":34912,
			"target":34962
		},
		{
			"buffer":0,
			"byteLength":792,
			"byteOffset":36120,
			"target":34963
		},
		{
			"buffer":0,
			"byteLength":11484,
			"byteOffset":36912,
			"target":34962
		},
		{
			"buffer":0,
			"byteLength":11484,
			"byteOffset":48396,
			"target":34962
		},
		{
			"buffer":0,
			"byteLength":7656,
			"byteOffset":59880,
			"target":34962
		},
		{
			"buffer":0,
			"byteLength":3600,
			"byteOffset":67536,
			"target":34963
		},
		{
			"buffer":0,
			"byteLength":20736,
			"byteOffset":71136,
			"target":34962
		},
		{
			"buffer":0,
			"byteLength":20736,
			"byteOffset":91872,
			"target":34962
		},
		{
			"buffer":0,
			"byteLength":13824,
			"byteOffset":112608,
			"target":34962
		},
		{
			"buffer":0,
			"byteLength":5616,
			"byteOffset":126432,
			"target":34963
		},
		{
			"buffer":0,
			"byteLength":4428,
			"byteOffset":132048,
			"target":34962
		},
		{
			"buffer":0,
			"byteLength":4428,
			"byteOffset":136476,
			"target":34962
		},
		{
			"buffer":0,
			"byteLength":2952,
			"byteOffset":140904,
			"target":34962
		},
		{
			"buffer":0,
			"byteLength":1296,
			"byteOffset":143856,
			"target":34963
		},
		{
			"buffer":0,
			"byteLength":19224,
			"byteOffset":145152,
			"target":34962
		},
		{
			"buffer":0,
			"byteLength":19224,
			"byteOffset":164376,
			"target":34962
		},
		{
			"buffer":0,
			"byteLength":12816,
			"byteOffset":183600,
			"target":34962
		},
		{
			"buffer":0,
			"byteLength":5184,
			"byteOffset":196416,
			"target":34963
		},
		{
			"buffer":0,
			"byteLength":3840,
			"byteOffset":201600,
			"target":34962
		},
		{
			"buffer":0,
			"byteLength":3840,
			"byteOffset":205440,
			"target":34962
		},
		{
			"buffer":0,
			"byteLength":2560,
			"byteOffset":209280,
			"target":34962
		},
		{
			"buffer":0,
			"byteLength":960,
			"byteOffset":211840,
			"target":34963
		},
		{
			"buffer":0,
			"byteLength":2460,
			"byteOffset":212800,
			"target":34962
		},
		{
			"buffer":0,
			"byteLength":2460,
			"byteOffset":215260,
			"target":34962
		},
		{
			"buffer":0,
			"byteLength":1640,
			"byteOffset":217720,
			"target":34962
		},
		{
			"buffer":0,
			"byteLength":720,
			"byteOffset":219360,
			"target":34963
		},
		{
			"buffer":0,
			"byteLength":960,
			"byteOffset":220080,
			"target":34962
		},
		{
			"buffer":0,
			"byteLength":960,
			"byteOffset":221040,
			"target":34962
		},
		{
			"buffer":0,
			"byteLength":640,
			"byteOffset":222000,
			"target":34962
		},
		{
			"buffer":0,
			"byteLength":240,
			"byteOffset":222640,
			"target":34963
		}
	],
	"buffers":[
		{
			"byteLength":222880,
			"uri":"data:application/octet-stream;base64,"
		}
	]
}
