{
	"asset":{
		"generator":"Khronos glTF Blender I/O v3.6.28",
		"version":"2.0"
	},
	"scene":0,
	"scenes":[
		{
			"name":"Scene",
			"nodes":[
				0
			]
		}
	],
	"nodes":[
		{
			"mesh":0,
			"name":"\u0445\u0430\u043d\u0434\u044b\u0433\u0430"
		}
	],
	"materials":[
		{
			"doubleSided":true,
			"name":"osn",
			"pbrMetallicRoughness":{
				"baseColorFactor":[
					0.17144113779067993,
					0.2746773660182953,
					0.1247718334197998,
					1
				],
				"metallicFactor":0,
				"roughnessFactor":0.5
			}
		},
		{
			"doubleSided":true,
			"name":"lightosn",
			"pbrMetallicRoughness":{
				"baseColorFactor":[
					0.22696588933467865,
					0.34191450476646423,
					0.14412851631641388,
					1
				],
				"metallicFactor":0,
				"roughnessFactor":0.5
			}
		},
		{
			"doubleSided":true,
			"name":"onlightosn",
			"pbrMetallicRoughness":{
				"baseColorFactor":[
					0.14995980262756348,
					0.2541521489620209,
					0.12213879823684692,
					1
				],
				"metallicFactor":0,
				"roughnessFactor":0.5
			}
		},
		{
			"doubleSided":true,
			"name":"osn-2",
			"pbrMetallicRoughness":{
				"baseColorFactor":[
					0.17151030898094177,
					0.29630887508392334,
					0.1398809403181076,
					1
				],
				"metallicFactor":0,
				"roughnessFactor":0.5
			}
		},
		{
			"doubleSided":true,
			"name":"shadosn",
			"pbrMetallicRoughness":{
				"baseColorFactor":[
					0.06301002949476242,
					0.14412851631641388,
					0.10224173218011856,
					1
				],
				"metallicFactor":0,
				"roughnessFactor":0.5
			}
		},
		{
			"doubleSided":true,
			"name":"underosn",
			"pbrMetallicRoughness":{
				"baseColorFactor":[
					0.19120171666145325,
					0.11193244159221649,
					0.09758733212947845,
					1
				],
				"metallicFactor":0,
				"roughnessFactor":0.5
			}
		},
		{
			"doubleSided":true,
			"name":"normal-tree",
			"pbrMetallicRoughness":{
				"baseColorFactor":[
					0.10702310502529144,
					0.22322800755500793,
					0.10224173218011856,
					1
				],
				"metallicFactor":0,
				"roughnessFactor":0.5
			}
		},
		{
			"doubleSided":true,
			"name":"osn-tree",
			"pbrMetallicRoughness":{
				"baseColorFactor":[
					0.23455063998699188,
					0.12743771076202393,
					0.05126946046948433,
					1
				],
				"metallicFactor":0,
				"roughnessFactor":0.5
			}
		},
		{
			"doubleSided":true,
			"name":"shad-tree",
			"pbrMetallicRoughness":{
				"baseColorFactor":[
					0.09305897355079651,
					0.2195262312889099,
					0.09758733212947845,
					1
				],
				"metallicFactor":0,
				"roughnessFactor":0.5
			}
		},
		{
			"doubleSided":true,
			"name":"normal-kus",
			"pbrMetallicRoughness":{
				"baseColorFactor":[
					0.10702310502529144,
					0.18116427958011627,
					0.07818741351366043,
					1
				],
				"metallicFactor":0,
				"roughnessFactor":0.5
			}
		},
		{
			"doubleSided":true,
			"name":"shad-kus",
			"pbrMetallicRoughness":{
				"baseColorFactor":[
					0.06171619892120361,
					0.10226551443338394,
					0.04822072759270668,
					1
				],
				"metallicFactor":0,
				"roughnessFactor":0.5
			}
		},
		{
			"doubleSided":true,
			"name":"light-kus",
			"pbrMetallicRoughness":{
				"baseColorFactor":[
					0.1247718334197998,
					0.22322800755500793,
					0.09305897355079651,
					1
				],
				"metallicFactor":0,
				"roughnessFactor":0.5
			}
		}
	],
	"meshes":[
		{
			"name":"Vert.040",
			"primitives":[
				{
					"attributes":{
						"POSITION":0,
						"NORMAL":1,
						"TEXCOORD_0":2
					},
					"indices":3,
					"material":0
				},
				{
					"attributes":{
						"POSITION":4,
						"NORMAL":5,
						"TEXCOORD_0":6
					},
					"indices":7,
					"material":1
				},
				{
					"attributes":{
						"POSITION":8,
						"NORMAL":9,
						"TEXCOORD_0":10
					},
					"indices":11,
					"material":2
				},
				{
					"attributes":{
						"POSITION":12,
						"NORMAL":13,
						"TEXCOORD_0":14
					},
					"indices":15,
					"material":3
				},
				{
					"attributes":{
						"POSITION":16,
						"NORMAL":17,
						"TEXCOORD_0":18
					},
					"indices":19,
					"material":4
				},
				{
					"attributes":{
						"POSITION":20,
						"NORMAL":21,
						"TEXCOORD_0":22
					},
					"indices":23,
					"material":5
				},
				{
					"attributes":{
						"POSITION":24,
						"NORMAL":25,
						"TEXCOORD_0":26
					},
					"indices":27,
					"material":6
				},
				{
					"attributes":{
						"POSITION":28,
						"NORMAL":29,
						"TEXCOORD_0":30
					},
					"indices":31,
					"material":7
				},
				{
					"attributes":{
						"POSITION":32,
						"NORMAL":33,
						"TEXCOORD_0":34
					},
					"indices":35,
					"material":8
				},
				{
					"attributes":{
						"POSITION":36,
						"NORMAL":37,
						"TEXCOORD_0":38
					},
					"indices":39,
					"material":9
				},
				{
					"attributes":{
						"POSITION":40,
						"NORMAL":41,
						"TEXCOORD_0":42
					},
					"indices":43,
					"material":10
				},
				{
					"attributes":{
						"POSITION":44,
						"NORMAL":45,
						"TEXCOORD_0":46
					},
					"indices":47,
					"material":11
				}
			]
		}
	],
	"accessors":[
		{
			"bufferView":0,
			"componentType":5126,
			"count":558,
			"max":[
				2.3684394359588623,
				0.15620458126068115,
				2.1620078086853027
			],
			"min":[
				0.3344883918762207,
				0.07810229063034058,
				-0.36848074197769165
			],
			"type":"VEC3"
		},
		{
			"bufferView":1,
			"componentType":5126,
			"count":558,
			"type":"VEC3"
		},
		{
			"bufferView":2,
			"componentType":5126,
			"count":558,
			"type":"VEC2"
		},
		{
			"bufferView":3,
			"componentType":5123,
			"count":846,
			"type":"SCALAR"
		},
		{
			"bufferView":4,
			"componentType":5126,
			"count":18,
			"max":[
				2.192260980606079,
				0.15620458126068115,
				0.9835665225982666
			],
			"min":[
				0.5586771965026855,
				0.15620458126068115,
				0.08361233025789261
			],
			"type":"VEC3"
		},
		{
			"bufferView":5,
			"componentType":5126,
			"count":18,
			"type":"VEC3"
		},
		{
			"bufferView":6,
			"componentType":5126,
			"count":18,
			"type":"VEC2"
		},
		{
			"bufferView":7,
			"componentType":5123,
			"count":30,
			"type":"SCALAR"
		},
		{
			"bufferView":8,
			"componentType":5126,
			"count":23,
			"max":[
				2.2213354110717773,
				0.15620458126068115,
				1.8145556449890137
			],
			"min":[
				0.5856677293777466,
				0.15620458126068115,
				-0.1548934429883957
			],
			"type":"VEC3"
		},
		{
			"bufferView":9,
			"componentType":5126,
			"count":23,
			"type":"VEC3"
		},
		{
			"bufferView":10,
			"componentType":5126,
			"count":23,
			"type":"VEC2"
		},
		{
			"bufferView":11,
			"componentType":5123,
			"count":54,
			"type":"SCALAR"
		},
		{
			"bufferView":12,
			"componentType":5126,
			"count":20,
			"max":[
				2.192260980606079,
				0.15620458126068115,
				1.6043858528137207
			],
			"min":[
				0.5586771965026855,
				0.15620458126068115,
				0.00885682925581932
			],
			"type":"VEC3"
		},
		{
			"bufferView":13,
			"componentType":5126,
			"count":20,
			"type":"VEC3"
		},
		{
			"bufferView":14,
			"componentType":5126,
			"count":20,
			"type":"VEC2"
		},
		{
			"bufferView":15,
			"componentType":5123,
			"count":36,
			"type":"SCALAR"
		},
		{
			"bufferView":16,
			"componentType":5126,
			"count":145,
			"max":[
				2.3684394359588623,
				0.15620458126068115,
				2.1620078086853027
			],
			"min":[
				0.3344883918762207,
				0.15620458126068115,
				-0.36848074197769165
			],
			"type":"VEC3"
		},
		{
			"bufferView":17,
			"componentType":5126,
			"count":145,
			"type":"VEC3"
		},
		{
			"bufferView":18,
			"componentType":5126,
			"count":145,
			"type":"VEC2"
		},
		{
			"bufferView":19,
			"componentType":5123,
			"count":426,
			"type":"SCALAR"
		},
		{
			"bufferView":20,
			"componentType":5126,
			"count":710,
			"max":[
				2.3684394359588623,
				0.07810229063034058,
				2.1620078086853027
			],
			"min":[
				0.3344883918762207,
				0,
				-0.36848074197769165
			],
			"type":"VEC3"
		},
		{
			"bufferView":21,
			"componentType":5126,
			"count":710,
			"type":"VEC3"
		},
		{
			"bufferView":22,
			"componentType":5126,
			"count":710,
			"type":"VEC2"
		},
		{
			"bufferView":23,
			"componentType":5123,
			"count":1392,
			"type":"SCALAR"
		},
		{
			"bufferView":24,
			"componentType":5126,
			"count":1152,
			"max":[
				2.3051607608795166,
				0.6850266456604004,
				1.9463813304901123
			],
			"min":[
				0.6238136887550354,
				0.17882320284843445,
				-0.335992693901062
			],
			"type":"VEC3"
		},
		{
			"bufferView":25,
			"componentType":5126,
			"count":1152,
			"type":"VEC3"
		},
		{
			"bufferView":26,
			"componentType":5126,
			"count":1152,
			"type":"VEC2"
		},
		{
			"bufferView":27,
			"componentType":5123,
			"count":1872,
			"type":"SCALAR"
		},
		{
			"bufferView":28,
			"componentType":5126,
			"count":246,
			"max":[
				2.172361373901367,
				0.2315501570701599,
				1.7609442472457886
			],
			"min":[
				0.6306564211845398,
				0.13202092051506042,
				-0.19600257277488708
			],
			"type":"VEC3"
		},
		{
			"bufferView":29,
			"componentType":5126,
			"count":246,
			"type":"VEC3"
		},
		{
			"bufferView":30,
			"componentType":5126,
			"count":246,
			"type":"VEC2"
		},
		{
			"bufferView":31,
			"componentType":5123,
			"count":432,
			"type":"SCALAR"
		},
		{
			"bufferView":32,
			"componentType":5126,
			"count":1068,
			"max":[
				2.1716010570526123,
				0.6850266456604004,
				1.8142019510269165
			],
			"min":[
				0.5350165963172913,
				0.17882320284843445,
				-0.335992693901062
			],
			"type":"VEC3"
		},
		{
			"bufferView":33,
			"componentType":5126,
			"count":1068,
			"type":"VEC3"
		},
		{
			"bufferView":34,
			"componentType":5126,
			"count":1068,
			"type":"VEC2"
		},
		{
			"bufferView":35,
			"componentType":5123,
			"count":1728,
			"type":"SCALAR"
		},
		{
			"bufferView":36,
			"componentType":5126,
			"count":384,
			"max":[
				2.162076711654663,
				0.23280784487724304,
				1.690937876701355
			],
			"min":[
				0.4769464135169983,
				0.1660381257534027,
				-0.29062432050704956
			],
			"type":"VEC3"
		},
		{
			"bufferView":37,
			"componentType":5126,
			"count":384,
			"type":"VEC3"
		},
		{
			"bufferView":38,
			"componentType":5126,
			"count":384,
			"type":"VEC2"
		},
		{
			"bufferView":39,
			"componentType":5123,
			"count":576,
			"type":"SCALAR"
		},
		{
			"bufferView":40,
			"componentType":5126,
			"count":246,
			"max":[
				2.162076711654663,
				0.1781691312789917,
				1.690937876701355
			],
			"min":[
				0.4769464135169983,
				0.1478251814842224,
				-0.29062432050704956
			],
			"type":"VEC3"
		},
		{
			"bufferView":41,
			"componentType":5126,
			"count":246,
			"type":"VEC3"
		},
		{
			"bufferView":42,
			"componentType":5126,
			"count":246,
			"type":"VEC2"
		},
		{
			"bufferView":43,
			"componentType":5123,
			"count":432,
			"type":"SCALAR"
		},
		{
			"bufferView":44,
			"componentType":5126,
			"count":96,
			"max":[
				2.131107807159424,
				0.24821141362190247,
				1.660061001777649
			],
			"min":[
				0.5034490823745728,
				0.20911264419555664,
				-0.2640957832336426
			],
			"type":"VEC3"
		},
		{
			"bufferView":45,
			"componentType":5126,
			"count":96,
			"type":"VEC3"
		},
		{
			"bufferView":46,
			"componentType":5126,
			"count":96,
			"type":"VEC2"
		},
		{
			"bufferView":47,
			"componentType":5123,
			"count":144,
			"type":"SCALAR"
		}
	],
	"bufferViews":[
		{
			"buffer":0,
			"byteLength":6696,
			"byteOffset":0,
			"target":34962
		},
		{
			"buffer":0,
			"byteLength":6696,
			"byteOffset":6696,
			"target":34962
		},
		{
			"buffer":0,
			"byteLength":4464,
			"byteOffset":13392,
			"target":34962
		},
		{
			"buffer":0,
			"byteLength":1692,
			"byteOffset":17856,
			"target":34963
		},
		{
			"buffer":0,
			"byteLength":216,
			"byteOffset":19548,
			"target":34962
		},
		{
			"buffer":0,
			"byteLength":216,
			"byteOffset":19764,
			"target":34962
		},
		{
			"buffer":0,
			"byteLength":144,
			"byteOffset":19980,
			"target":34962
		},
		{
			"buffer":0,
			"byteLength":60,
			"byteOffset":20124,
			"target":34963
		},
		{
			"buffer":0,
			"byteLength":276,
			"byteOffset":20184,
			"target":34962
		},
		{
			"buffer":0,
			"byteLength":276,
			"byteOffset":20460,
			"target":34962
		},
		{
			"buffer":0,
			"byteLength":184,
			"byteOffset":20736,
			"target":34962
		},
		{
			"buffer":0,
			"byteLength":108,
			"byteOffset":20920,
			"target":34963
		},
		{
			"buffer":0,
			"byteLength":240,
			"byteOffset":21028,
			"target":34962
		},
		{
			"buffer":0,
			"byteLength":240,
			"byteOffset":21268,
			"target":34962
		},
		{
			"buffer":0,
			"byteLength":160,
			"byteOffset":21508,
			"target":34962
		},
		{
			"buffer":0,
			"byteLength":72,
			"byteOffset":21668,
			"target":34963
		},
		{
			"buffer":0,
			"byteLength":1740,
			"byteOffset":21740,
			"target":34962
		},
		{
			"buffer":0,
			"byteLength":1740,
			"byteOffset":23480,
			"target":34962
		},
		{
			"buffer":0,
			"byteLength":1160,
			"byteOffset":25220,
			"target":34962
		},
		{
			"buffer":0,
			"byteLength":852,
			"byteOffset":26380,
			"target":34963
		},
		{
			"buffer":0,
			"byteLength":8520,
			"byteOffset":27232,
			"target":34962
		},
		{
			"buffer":0,
			"byteLength":8520,
			"byteOffset":35752,
			"target":34962
		},
		{
			"buffer":0,
			"byteLength":5680,
			"byteOffset":44272,
			"target":34962
		},
		{
			"buffer":0,
			"byteLength":2784,
			"byteOffset":49952,
			"target":34963
		},
		{
			"buffer":0,
			"byteLength":13824,
			"byteOffset":52736,
			"target":34962
		},
		{
			"buffer":0,
			"byteLength":13824,
			"byteOffset":66560,
			"target":34962
		},
		{
			"buffer":0,
			"byteLength":9216,
			"byteOffset":80384,
			"target":34962
		},
		{
			"buffer":0,
			"byteLength":3744,
			"byteOffset":89600,
			"target":34963
		},
		{
			"buffer":0,
			"byteLength":2952,
			"byteOffset":93344,
			"target":34962
		},
		{
			"buffer":0,
			"byteLength":2952,
			"byteOffset":96296,
			"target":34962
		},
		{
			"buffer":0,
			"byteLength":1968,
			"byteOffset":99248,
			"target":34962
		},
		{
			"buffer":0,
			"byteLength":864,
			"byteOffset":101216,
			"target":34963
		},
		{
			"buffer":0,
			"byteLength":12816,
			"byteOffset":102080,
			"target":34962
		},
		{
			"buffer":0,
			"byteLength":12816,
			"byteOffset":114896,
			"target":34962
		},
		{
			"buffer":0,
			"byteLength":8544,
			"byteOffset":127712,
			"target":34962
		},
		{
			"buffer":0,
			"byteLength":3456,
			"byteOffset":136256,
			"target":34963
		},
		{
			"buffer":0,
			"byteLength":4608,
			"byteOffset":139712,
			"target":34962
		},
		{
			"buffer":0,
			"byteLength":4608,
			"byteOffset":144320,
			"target":34962
		},
		{
			"buffer":0,
			"byteLength":3072,
			"byteOffset":148928,
			"target":34962
		},
		{
			"buffer":0,
			"byteLength":1152,
			"byteOffset":152000,
			"target":34963
		},
		{
			"buffer":0,
			"byteLength":2952,
			"byteOffset":153152,
			"target":34962
		},
		{
			"buffer":0,
			"byteLength":2952,
			"byteOffset":156104,
			"target":34962
		},
		{
			"buffer":0,
			"byteLength":1968,
			"byteOffset":159056,
			"target":34962
		},
		{
			"buffer":0,
			"byteLength":864,
			"byteOffset":161024,
			"target":34963
		},
		{
			"buffer":0,
			"byteLength":1152,
			"byteOffset":161888,
			"target":34962
		},
		{
			"buffer":0,
			"byteLength":1152,
			"byteOffset":163040,
			"target":34962
		},
		{
			"buffer":0,
			"byteLength":768,
			"byteOffset":164192,
			"target":34962
		},
		{
			"buffer":0,
			"byteLength":288,
			"byteOffset":164960,
			"target":34963
		}
	],
	"buffers":[
		{
			"byteLength":165248,
			"uri":"data:application/octet-stream;base64,"
		}
	]
}
