{
	"asset":{
		"generator":"Khronos glTF Blender I/O v3.6.28",
		"version":"2.0"
	},
	"scene":0,
	"scenes":[
		{
			"name":"Scene",
			"nodes":[
				0
			]
		}
	],
	"nodes":[
		{
			"mesh":0,
			"name":"\u0445\u043e\u043d\u0443\u0443"
		}
	],
	"materials":[
		{
			"doubleSided":true,
			"name":"osn",
			"pbrMetallicRoughness":{
				"baseColorFactor":[
					0.17144113779067993,
					0.2746773660182953,
					0.1247718334197998,
					1
				],
				"metallicFactor":0,
				"roughnessFactor":0.5
			}
		},
		{
			"doubleSided":true,
			"name":"lightosn",
			"pbrMetallicRoughness":{
				"baseColorFactor":[
					0.22696588933467865,
					0.34191450476646423,
					0.14412851631641388,
					1
				],
				"metallicFactor":0,
				"roughnessFactor":0.5
			}
		},
		{
			"doubleSided":true,
			"name":"onlightosn",
			"pbrMetallicRoughness":{
				"baseColorFactor":[
					0.14995980262756348,
					0.2541521489620209,
					0.12213879823684692,
					1
				],
				"metallicFactor":0,
				"roughnessFactor":0.5
			}
		},
		{
			"doubleSided":true,
			"name":"osn-2",
			"pbrMetallicRoughness":{
				"baseColorFactor":[
					0.17151030898094177,
					0.29630887508392334,
					0.1398809403181076,
					1
				],
				"metallicFactor":0,
				"roughnessFactor":0.5
			}
		},
		{
			"doubleSided":true,
			"name":"shadosn",
			"pbrMetallicRoughness":{
				"baseColorFactor":[
					0.06301002949476242,
					0.14412851631641388,
					0.10224173218011856,
					1
				],
				"metallicFactor":0,
				"roughnessFactor":0.5
			}
		},
		{
			"doubleSided":true,
			"name":"underosn",
			"pbrMetallicRoughness":{
				"baseColorFactor":[
					0.19120171666145325,
					0.11193244159221649,
					0.09758733212947845,
					1
				],
				"metallicFactor":0,
				"roughnessFactor":0.5
			}
		},
		{
			"doubleSided":true,
			"name":"normal-tree",
			"pbrMetallicRoughness":{
				"baseColorFactor":[
					0.10702310502529144,
					0.22322800755500793,
					0.10224173218011856,
					1
				],
				"metallicFactor":0,
				"roughnessFactor":0.5
			}
		},
		{
			"doubleSided":true,
			"name":"osn-tree",
			"pbrMetallicRoughness":{
				"baseColorFactor":[
					0.23455063998699188,
					0.12743771076202393,
					0.05126946046948433,
					1
				],
				"metallicFactor":0,
				"roughnessFactor":0.5
			}
		},
		{
			"doubleSided":true,
			"name":"shad-tree",
			"pbrMetallicRoughness":{
				"baseColorFactor":[
					0.09305897355079651,
					0.2195262312889099,
					0.09758733212947845,
					1
				],
				"metallicFactor":0,
				"roughnessFactor":0.5
			}
		},
		{
			"doubleSided":true,
			"name":"normal-kus",
			"pbrMetallicRoughness":{
				"baseColorFactor":[
					0.10702310502529144,
					0.18116427958011627,
					0.07818741351366043,
					1
				],
				"metallicFactor":0,
				"roughnessFactor":0.5
			}
		},
		{
			"doubleSided":true,
			"name":"shad-kus",
			"pbrMetallicRoughness":{
				"baseColorFactor":[
					0.06171619892120361,
					0.10226551443338394,
					0.04822072759270668,
					1
				],
				"metallicFactor":0,
				"roughnessFactor":0.5
			}
		},
		{
			"doubleSided":true,
			"name":"light-kus",
			"pbrMetallicRoughness":{
				"baseColorFactor":[
					0.1247718334197998,
					0.22322800755500793,
					0.09305897355079651,
					1
				],
				"metallicFactor":0,
				"roughnessFactor":0.5
			}
		}
	],
	"meshes":[
		{
			"name":"Vert.010",
			"primitives":[
				{
					"attributes":{
						"POSITION":0,
						"NORMAL":1,
						"TEXCOORD_0":2
					},
					"indices":3,
					"material":0
				},
				{
					"attributes":{
						"POSITION":4,
						"NORMAL":5,
						"TEXCOORD_0":6
					},
					"indices":7,
					"material":1
				},
				{
					"attributes":{
						"POSITION":8,
						"NORMAL":9,
						"TEXCOORD_0":10
					},
					"indices":11,
					"material":2
				},
				{
					"attributes":{
						"POSITION":12,
						"NORMAL":13,
						"TEXCOORD_0":14
					},
					"indices":15,
					"material":3
				},
				{
					"attributes":{
						"POSITION":16,
						"NORMAL":17,
						"TEXCOORD_0":18
					},
					"indices":19,
					"material":4
				},
				{
					"attributes":{
						"POSITION":20,
						"NORMAL":21,
						"TEXCOORD_0":22
					},
					"indices":23,
					"material":5
				},
				{
					"attributes":{
						"POSITION":24,
						"NORMAL":25,
						"TEXCOORD_0":26
					},
					"indices":27,
					"material":6
				},
				{
					"attributes":{
						"POSITION":28,
						"NORMAL":29,
						"TEXCOORD_0":30
					},
					"indices":31,
					"material":7
				},
				{
					"attributes":{
						"POSITION":32,
						"NORMAL":33,
						"TEXCOORD_0":34
					},
					"indices":35,
					"material":8
				},
				{
					"attributes":{
						"POSITION":36,
						"NORMAL":37,
						"TEXCOORD_0":38
					},
					"indices":39,
					"material":9
				},
				{
					"attributes":{
						"POSITION":40,
						"NORMAL":41,
						"TEXCOORD_0":42
					},
					"indices":43,
					"material":10
				},
				{
					"attributes":{
						"POSITION":44,
						"NORMAL":45,
						"TEXCOORD_0":46
					},
					"indices":47,
					"material":11
				}
			]
		}
	],
	"accessors":[
		{
			"bufferView":0,
			"componentType":5126,
			"count":546,
			"max":[
				3.903714895248413,
				0.15620458126068115,
				0.010755801573395729
			],
			"min":[
				1.3230900764465332,
				0.07810229063034058,
				-1.6710736751556396
			],
			"type":"VEC3"
		},
		{
			"bufferView":1,
			"componentType":5126,
			"count":546,
			"type":"VEC3"
		},
		{
			"bufferView":2,
			"componentType":5126,
			"count":546,
			"type":"VEC2"
		},
		{
			"bufferView":3,
			"componentType":5123,
			"count":822,
			"type":"SCALAR"
		},
		{
			"bufferView":4,
			"componentType":5126,
			"count":12,
			"max":[
				3.35408091545105,
				0.15620458126068115,
				-0.15014691650867462
			],
			"min":[
				1.866456389427185,
				0.15620458126068115,
				-1.2296583652496338
			],
			"type":"VEC3"
		},
		{
			"bufferView":5,
			"componentType":5126,
			"count":12,
			"type":"VEC3"
		},
		{
			"bufferView":6,
			"componentType":5126,
			"count":12,
			"type":"VEC2"
		},
		{
			"bufferView":7,
			"componentType":5123,
			"count":24,
			"type":"SCALAR"
		},
		{
			"bufferView":8,
			"componentType":5126,
			"count":27,
			"max":[
				3.7447092533111572,
				0.15620458126068115,
				-0.060440897941589355
			],
			"min":[
				1.6946299076080322,
				0.15620458126068115,
				-1.4432463645935059
			],
			"type":"VEC3"
		},
		{
			"bufferView":9,
			"componentType":5126,
			"count":27,
			"type":"VEC3"
		},
		{
			"bufferView":10,
			"componentType":5126,
			"count":27,
			"type":"VEC2"
		},
		{
			"bufferView":11,
			"componentType":5123,
			"count":60,
			"type":"SCALAR"
		},
		{
			"bufferView":12,
			"componentType":5126,
			"count":16,
			"max":[
				3.383983850479126,
				0.15620458126068115,
				-0.060440897941589355
			],
			"min":[
				2.2816147804260254,
				0.15620458126068115,
				-1.3411988019943237
			],
			"type":"VEC3"
		},
		{
			"bufferView":13,
			"componentType":5126,
			"count":16,
			"type":"VEC3"
		},
		{
			"bufferView":14,
			"componentType":5126,
			"count":16,
			"type":"VEC2"
		},
		{
			"bufferView":15,
			"componentType":5123,
			"count":36,
			"type":"SCALAR"
		},
		{
			"bufferView":16,
			"componentType":5126,
			"count":132,
			"max":[
				3.903714895248413,
				0.15620458126068115,
				0.010755801573395729
			],
			"min":[
				1.3230900764465332,
				0.15620458126068115,
				-1.6710736751556396
			],
			"type":"VEC3"
		},
		{
			"bufferView":17,
			"componentType":5126,
			"count":132,
			"type":"VEC3"
		},
		{
			"bufferView":18,
			"componentType":5126,
			"count":132,
			"type":"VEC2"
		},
		{
			"bufferView":19,
			"componentType":5123,
			"count":378,
			"type":"SCALAR"
		},
		{
			"bufferView":20,
			"componentType":5126,
			"count":688,
			"max":[
				3.903714895248413,
				0.07810229063034058,
				0.010755801573395729
			],
			"min":[
				1.3230900764465332,
				0,
				-1.6710736751556396
			],
			"type":"VEC3"
		},
		{
			"bufferView":21,
			"componentType":5126,
			"count":688,
			"type":"VEC3"
		},
		{
			"bufferView":22,
			"componentType":5126,
			"count":688,
			"type":"VEC2"
		},
		{
			"bufferView":23,
			"componentType":5123,
			"count":1320,
			"type":"SCALAR"
		},
		{
			"bufferView":24,
			"componentType":5126,
			"count":1536,
			"max":[
				3.7862114906311035,
				0.5324561595916748,
				-0.0309133380651474
			],
			"min":[
				1.7058618068695068,
				0.17990322411060333,
				-1.5217260122299194
			],
			"type":"VEC3"
		},
		{
			"bufferView":25,
			"componentType":5126,
			"count":1536,
			"type":"VEC3"
		},
		{
			"bufferView":26,
			"componentType":5126,
			"count":1536,
			"type":"VEC2"
		},
		{
			"bufferView":27,
			"componentType":5123,
			"count":2496,
			"type":"SCALAR"
		},
		{
			"bufferView":28,
			"componentType":5126,
			"count":328,
			"max":[
				3.674753189086914,
				0.21646273136138916,
				-0.12533363699913025
			],
			"min":[
				1.7153632640838623,
				0.14710834622383118,
				-1.381735920906067
			],
			"type":"VEC3"
		},
		{
			"bufferView":29,
			"componentType":5126,
			"count":328,
			"type":"VEC3"
		},
		{
			"bufferView":30,
			"componentType":5126,
			"count":328,
			"type":"VEC2"
		},
		{
			"bufferView":31,
			"componentType":5123,
			"count":576,
			"type":"SCALAR"
		},
		{
			"bufferView":32,
			"componentType":5126,
			"count":1424,
			"max":[
				3.67832088470459,
				0.5324561595916748,
				-0.08140406757593155
			],
			"min":[
				1.5825639963150024,
				0.17990322411060333,
				-1.5217260122299194
			],
			"type":"VEC3"
		},
		{
			"bufferView":33,
			"componentType":5126,
			"count":1424,
			"type":"VEC3"
		},
		{
			"bufferView":34,
			"componentType":5126,
			"count":1424,
			"type":"VEC2"
		},
		{
			"bufferView":35,
			"componentType":5123,
			"count":2304,
			"type":"SCALAR"
		},
		{
			"bufferView":36,
			"componentType":5126,
			"count":256,
			"max":[
				3.7017409801483154,
				0.23280784487724304,
				-0.07670672982931137
			],
			"min":[
				1.7778682708740234,
				0.16257531940937042,
				-1.2174081802368164
			],
			"type":"VEC3"
		},
		{
			"bufferView":37,
			"componentType":5126,
			"count":256,
			"type":"VEC3"
		},
		{
			"bufferView":38,
			"componentType":5126,
			"count":256,
			"type":"VEC2"
		},
		{
			"bufferView":39,
			"componentType":5123,
			"count":384,
			"type":"SCALAR"
		},
		{
			"bufferView":40,
			"componentType":5126,
			"count":164,
			"max":[
				3.7017409801483154,
				0.1781691312789917,
				-0.07670672982931137
			],
			"min":[
				1.7778682708740234,
				0.1478251814842224,
				-1.2174081802368164
			],
			"type":"VEC3"
		},
		{
			"bufferView":41,
			"componentType":5126,
			"count":164,
			"type":"VEC3"
		},
		{
			"bufferView":42,
			"componentType":5126,
			"count":164,
			"type":"VEC2"
		},
		{
			"bufferView":43,
			"componentType":5123,
			"count":288,
			"type":"SCALAR"
		},
		{
			"bufferView":44,
			"componentType":5126,
			"count":64,
			"max":[
				3.6842782497406006,
				0.24821141362190247,
				-0.09346623718738556
			],
			"min":[
				1.8091343641281128,
				0.19304373860359192,
				-1.2006486654281616
			],
			"type":"VEC3"
		},
		{
			"bufferView":45,
			"componentType":5126,
			"count":64,
			"type":"VEC3"
		},
		{
			"bufferView":46,
			"componentType":5126,
			"count":64,
			"type":"VEC2"
		},
		{
			"bufferView":47,
			"componentType":5123,
			"count":96,
			"type":"SCALAR"
		}
	],
	"bufferViews":[
		{
			"buffer":0,
			"byteLength":6552,
			"byteOffset":0,
			"target":34962
		},
		{
			"buffer":0,
			"byteLength":6552,
			"byteOffset":6552,
			"target":34962
		},
		{
			"buffer":0,
			"byteLength":4368,
			"byteOffset":13104,
			"target":34962
		},
		{
			"buffer":0,
			"byteLength":1644,
			"byteOffset":17472,
			"target":34963
		},
		{
			"buffer":0,
			"byteLength":144,
			"byteOffset":19116,
			"target":34962
		},
		{
			"buffer":0,
			"byteLength":144,
			"byteOffset":19260,
			"target":34962
		},
		{
			"buffer":0,
			"byteLength":96,
			"byteOffset":19404,
			"target":34962
		},
		{
			"buffer":0,
			"byteLength":48,
			"byteOffset":19500,
			"target":34963
		},
		{
			"buffer":0,
			"byteLength":324,
			"byteOffset":19548,
			"target":34962
		},
		{
			"buffer":0,
			"byteLength":324,
			"byteOffset":19872,
			"target":34962
		},
		{
			"buffer":0,
			"byteLength":216,
			"byteOffset":20196,
			"target":34962
		},
		{
			"buffer":0,
			"byteLength":120,
			"byteOffset":20412,
			"target":34963
		},
		{
			"buffer":0,
			"byteLength":192,
			"byteOffset":20532,
			"target":34962
		},
		{
			"buffer":0,
			"byteLength":192,
			"byteOffset":20724,
			"target":34962
		},
		{
			"buffer":0,
			"byteLength":128,
			"byteOffset":20916,
			"target":34962
		},
		{
			"buffer":0,
			"byteLength":72,
			"byteOffset":21044,
			"target":34963
		},
		{
			"buffer":0,
			"byteLength":1584,
			"byteOffset":21116,
			"target":34962
		},
		{
			"buffer":0,
			"byteLength":1584,
			"byteOffset":22700,
			"target":34962
		},
		{
			"buffer":0,
			"byteLength":1056,
			"byteOffset":24284,
			"target":34962
		},
		{
			"buffer":0,
			"byteLength":756,
			"byteOffset":25340,
			"target":34963
		},
		{
			"buffer":0,
			"byteLength":8256,
			"byteOffset":26096,
			"target":34962
		},
		{
			"buffer":0,
			"byteLength":8256,
			"byteOffset":34352,
			"target":34962
		},
		{
			"buffer":0,
			"byteLength":5504,
			"byteOffset":42608,
			"target":34962
		},
		{
			"buffer":0,
			"byteLength":2640,
			"byteOffset":48112,
			"target":34963
		},
		{
			"buffer":0,
			"byteLength":18432,
			"byteOffset":50752,
			"target":34962
		},
		{
			"buffer":0,
			"byteLength":18432,
			"byteOffset":69184,
			"target":34962
		},
		{
			"buffer":0,
			"byteLength":12288,
			"byteOffset":87616,
			"target":34962
		},
		{
			"buffer":0,
			"byteLength":4992,
			"byteOffset":99904,
			"target":34963
		},
		{
			"buffer":0,
			"byteLength":3936,
			"byteOffset":104896,
			"target":34962
		},
		{
			"buffer":0,
			"byteLength":3936,
			"byteOffset":108832,
			"target":34962
		},
		{
			"buffer":0,
			"byteLength":2624,
			"byteOffset":112768,
			"target":34962
		},
		{
			"buffer":0,
			"byteLength":1152,
			"byteOffset":115392,
			"target":34963
		},
		{
			"buffer":0,
			"byteLength":17088,
			"byteOffset":116544,
			"target":34962
		},
		{
			"buffer":0,
			"byteLength":17088,
			"byteOffset":133632,
			"target":34962
		},
		{
			"buffer":0,
			"byteLength":11392,
			"byteOffset":150720,
			"target":34962
		},
		{
			"buffer":0,
			"byteLength":4608,
			"byteOffset":162112,
			"target":34963
		},
		{
			"buffer":0,
			"byteLength":3072,
			"byteOffset":166720,
			"target":34962
		},
		{
			"buffer":0,
			"byteLength":3072,
			"byteOffset":169792,
			"target":34962
		},
		{
			"buffer":0,
			"byteLength":2048,
			"byteOffset":172864,
			"target":34962
		},
		{
			"buffer":0,
			"byteLength":768,
			"byteOffset":174912,
			"target":34963
		},
		{
			"buffer":0,
			"byteLength":1968,
			"byteOffset":175680,
			"target":34962
		},
		{
			"buffer":0,
			"byteLength":1968,
			"byteOffset":177648,
			"target":34962
		},
		{
			"buffer":0,
			"byteLength":1312,
			"byteOffset":179616,
			"target":34962
		},
		{
			"buffer":0,
			"byteLength":576,
			"byteOffset":180928,
			"target":34963
		},
		{
			"buffer":0,
			"byteLength":768,
			"byteOffset":181504,
			"target":34962
		},
		{
			"buffer":0,
			"byteLength":768,
			"byteOffset":182272,
			"target":34962
		},
		{
			"buffer":0,
			"byteLength":512,
			"byteOffset":183040,
			"target":34962
		},
		{
			"buffer":0,
			"byteLength":192,
			"byteOffset":183552,
			"target":34963
		}
	],
	"buffers":[
		{
			"byteLength":183744,
			"uri":"data:application/octet-stream;base64,"
		}
	]
}
