{
	"asset":{
		"generator":"Khronos glTF Blender I/O v3.6.28",
		"version":"2.0"
	},
	"scene":0,
	"scenes":[
		{
			"name":"Scene",
			"nodes":[
				0
			]
		}
	],
	"nodes":[
		{
			"mesh":0,
			"name":"\u044b\u0442\u044b\u043a-\u043a\u044e\u044d\u043b\u044c"
		}
	],
	"materials":[
		{
			"doubleSided":true,
			"name":"osn",
			"pbrMetallicRoughness":{
				"baseColorFactor":[
					0.17144113779067993,
					0.2746773660182953,
					0.1247718334197998,
					1
				],
				"metallicFactor":0,
				"roughnessFactor":0.5
			}
		},
		{
			"doubleSided":true,
			"name":"lightosn",
			"pbrMetallicRoughness":{
				"baseColorFactor":[
					0.22696588933467865,
					0.34191450476646423,
					0.14412851631641388,
					1
				],
				"metallicFactor":0,
				"roughnessFactor":0.5
			}
		},
		{
			"doubleSided":true,
			"name":"onlightosn",
			"pbrMetallicRoughness":{
				"baseColorFactor":[
					0.14995980262756348,
					0.2541521489620209,
					0.12213879823684692,
					1
				],
				"metallicFactor":0,
				"roughnessFactor":0.5
			}
		},
		{
			"doubleSided":true,
			"name":"osn-2",
			"pbrMetallicRoughness":{
				"baseColorFactor":[
					0.17151030898094177,
					0.29630887508392334,
					0.1398809403181076,
					1
				],
				"metallicFactor":0,
				"roughnessFactor":0.5
			}
		},
		{
			"doubleSided":true,
			"name":"shadosn",
			"pbrMetallicRoughness":{
				"baseColorFactor":[
					0.06301002949476242,
					0.14412851631641388,
					0.10224173218011856,
					1
				],
				"metallicFactor":0,
				"roughnessFactor":0.5
			}
		},
		{
			"doubleSided":true,
			"name":"underosn",
			"pbrMetallicRoughness":{
				"baseColorFactor":[
					0.19120171666145325,
					0.11193244159221649,
					0.09758733212947845,
					1
				],
				"metallicFactor":0,
				"roughnessFactor":0.5
			}
		},
		{
			"doubleSided":true,
			"name":"normal-tree",
			"pbrMetallicRoughness":{
				"baseColorFactor":[
					0.10702310502529144,
					0.22322800755500793,
					0.10224173218011856,
					1
				],
				"metallicFactor":0,
				"roughnessFactor":0.5
			}
		},
		{
			"doubleSided":true,
			"name":"osn-tree",
			"pbrMetallicRoughness":{
				"baseColorFactor":[
					0.23455063998699188,
					0.12743771076202393,
					0.05126946046948433,
					1
				],
				"metallicFactor":0,
				"roughnessFactor":0.5
			}
		},
		{
			"doubleSided":true,
			"name":"shad-tree",
			"pbrMetallicRoughness":{
				"baseColorFactor":[
					0.09305897355079651,
					0.2195262312889099,
					0.09758733212947845,
					1
				],
				"metallicFactor":0,
				"roughnessFactor":0.5
			}
		},
		{
			"doubleSided":true,
			"name":"normal-kus",
			"pbrMetallicRoughness":{
				"baseColorFactor":[
					0.10702310502529144,
					0.18116427958011627,
					0.07818741351366043,
					1
				],
				"metallicFactor":0,
				"roughnessFactor":0.5
			}
		},
		{
			"doubleSided":true,
			"name":"shad-kus",
			"pbrMetallicRoughness":{
				"baseColorFactor":[
					0.06171619892120361,
					0.10226551443338394,
					0.04822072759270668,
					1
				],
				"metallicFactor":0,
				"roughnessFactor":0.5
			}
		},
		{
			"doubleSided":true,
			"name":"light-kus",
			"pbrMetallicRoughness":{
				"baseColorFactor":[
					0.1247718334197998,
					0.22322800755500793,
					0.09305897355079651,
					1
				],
				"metallicFactor":0,
				"roughnessFactor":0.5
			}
		}
	],
	"meshes":[
		{
			"name":"Vert.034",
			"primitives":[
				{
					"attributes":{
						"POSITION":0,
						"NORMAL":1,
						"TEXCOORD_0":2
					},
					"indices":3,
					"material":0
				},
				{
					"attributes":{
						"POSITION":4,
						"NORMAL":5,
						"TEXCOORD_0":6
					},
					"indices":7,
					"material":1
				},
				{
					"attributes":{
						"POSITION":8,
						"NORMAL":9,
						"TEXCOORD_0":10
					},
					"indices":11,
					"material":2
				},
				{
					"attributes":{
						"POSITION":12,
						"NORMAL":13,
						"TEXCOORD_0":14
					},
					"indices":15,
					"material":3
				},
				{
					"attributes":{
						"POSITION":16,
						"NORMAL":17,
						"TEXCOORD_0":18
					},
					"indices":19,
					"material":4
				},
				{
					"attributes":{
						"POSITION":20,
						"NORMAL":21,
						"TEXCOORD_0":22
					},
					"indices":23,
					"material":5
				},
				{
					"attributes":{
						"POSITION":24,
						"NORMAL":25,
						"TEXCOORD_0":26
					},
					"indices":27,
					"material":6
				},
				{
					"attributes":{
						"POSITION":28,
						"NORMAL":29,
						"TEXCOORD_0":30
					},
					"indices":31,
					"material":7
				},
				{
					"attributes":{
						"POSITION":32,
						"NORMAL":33,
						"TEXCOORD_0":34
					},
					"indices":35,
					"material":8
				},
				{
					"attributes":{
						"POSITION":36,
						"NORMAL":37,
						"TEXCOORD_0":38
					},
					"indices":39,
					"material":9
				},
				{
					"attributes":{
						"POSITION":40,
						"NORMAL":41,
						"TEXCOORD_0":42
					},
					"indices":43,
					"material":10
				},
				{
					"attributes":{
						"POSITION":44,
						"NORMAL":45,
						"TEXCOORD_0":46
					},
					"indices":47,
					"material":11
				}
			]
		}
	],
	"accessors":[
		{
			"bufferView":0,
			"componentType":5126,
			"count":152,
			"max":[
				1.2737396955490112,
				0.15620458126068115,
				2.416888475418091
			],
			"min":[
				0.5942100286483765,
				0.07810229063034058,
				1.2905718088150024
			],
			"type":"VEC3"
		},
		{
			"bufferView":1,
			"componentType":5126,
			"count":152,
			"type":"VEC3"
		},
		{
			"bufferView":2,
			"componentType":5126,
			"count":152,
			"type":"VEC2"
		},
		{
			"bufferView":3,
			"componentType":5123,
			"count":228,
			"type":"SCALAR"
		},
		{
			"bufferView":4,
			"componentType":5126,
			"count":8,
			"max":[
				1.175318717956543,
				0.15620458126068115,
				2.0076212882995605
			],
			"min":[
				0.6852455139160156,
				0.15620458126068115,
				1.706810712814331
			],
			"type":"VEC3"
		},
		{
			"bufferView":5,
			"componentType":5126,
			"count":8,
			"type":"VEC3"
		},
		{
			"bufferView":6,
			"componentType":5126,
			"count":8,
			"type":"VEC2"
		},
		{
			"bufferView":7,
			"componentType":5123,
			"count":12,
			"type":"SCALAR"
		},
		{
			"bufferView":8,
			"componentType":5126,
			"count":8,
			"max":[
				1.2737396955490112,
				0.15620458126068115,
				2.2431795597076416
			],
			"min":[
				0.6813551187515259,
				0.15620458126068115,
				1.3336312770843506
			],
			"type":"VEC3"
		},
		{
			"bufferView":9,
			"componentType":5126,
			"count":8,
			"type":"VEC3"
		},
		{
			"bufferView":10,
			"componentType":5126,
			"count":8,
			"type":"VEC2"
		},
		{
			"bufferView":11,
			"componentType":5123,
			"count":12,
			"type":"SCALAR"
		},
		{
			"bufferView":12,
			"componentType":5126,
			"count":15,
			"max":[
				1.2019743919372559,
				0.15620458126068115,
				2.1061086654663086
			],
			"min":[
				0.6130056977272034,
				0.15620458126068115,
				1.3233789205551147
			],
			"type":"VEC3"
		},
		{
			"bufferView":13,
			"componentType":5126,
			"count":15,
			"type":"VEC3"
		},
		{
			"bufferView":14,
			"componentType":5126,
			"count":15,
			"type":"VEC2"
		},
		{
			"bufferView":15,
			"componentType":5123,
			"count":24,
			"type":"SCALAR"
		},
		{
			"bufferView":16,
			"componentType":5126,
			"count":36,
			"max":[
				1.2737396955490112,
				0.15620458126068115,
				2.416888475418091
			],
			"min":[
				0.5942100286483765,
				0.15620458126068115,
				1.2905718088150024
			],
			"type":"VEC3"
		},
		{
			"bufferView":17,
			"componentType":5126,
			"count":36,
			"type":"VEC3"
		},
		{
			"bufferView":18,
			"componentType":5126,
			"count":36,
			"type":"VEC2"
		},
		{
			"bufferView":19,
			"componentType":5123,
			"count":96,
			"type":"SCALAR"
		},
		{
			"bufferView":20,
			"componentType":5126,
			"count":196,
			"max":[
				1.2737396955490112,
				0.07810229063034058,
				2.416888475418091
			],
			"min":[
				0.5942100286483765,
				0,
				1.2905718088150024
			],
			"type":"VEC3"
		},
		{
			"bufferView":21,
			"componentType":5126,
			"count":196,
			"type":"VEC3"
		},
		{
			"bufferView":22,
			"componentType":5126,
			"count":196,
			"type":"VEC2"
		},
		{
			"bufferView":23,
			"componentType":5123,
			"count":372,
			"type":"SCALAR"
		},
		{
			"bufferView":24,
			"componentType":5126,
			"count":384,
			"max":[
				1.1180089712142944,
				0.5324561595916748,
				2.348083734512329
			],
			"min":[
				0.8360139727592468,
				0.16706404089927673,
				1.3364167213439941
			],
			"type":"VEC3"
		},
		{
			"bufferView":25,
			"componentType":5126,
			"count":384,
			"type":"VEC3"
		},
		{
			"bufferView":26,
			"componentType":5126,
			"count":384,
			"type":"VEC2"
		},
		{
			"bufferView":27,
			"componentType":5123,
			"count":624,
			"type":"SCALAR"
		},
		{
			"bufferView":28,
			"componentType":5126,
			"count":82,
			"max":[
				0.9852097630500793,
				0.21646273136138916,
				2.2080936431884766
			],
			"min":[
				0.8405344486236572,
				0.14710834622383118,
				1.4030200242996216
			],
			"type":"VEC3"
		},
		{
			"bufferView":29,
			"componentType":5126,
			"count":82,
			"type":"VEC3"
		},
		{
			"bufferView":30,
			"componentType":5126,
			"count":82,
			"type":"VEC2"
		},
		{
			"bufferView":31,
			"componentType":5123,
			"count":144,
			"type":"SCALAR"
		},
		{
			"bufferView":32,
			"componentType":5126,
			"count":356,
			"max":[
				0.9844495058059692,
				0.5324561595916748,
				2.348083734512329
			],
			"min":[
				0.7773523330688477,
				0.16706404089927673,
				1.3364167213439941
			],
			"type":"VEC3"
		},
		{
			"bufferView":33,
			"componentType":5126,
			"count":356,
			"type":"VEC3"
		},
		{
			"bufferView":34,
			"componentType":5126,
			"count":356,
			"type":"VEC2"
		},
		{
			"bufferView":35,
			"componentType":5123,
			"count":576,
			"type":"SCALAR"
		},
		{
			"bufferView":36,
			"componentType":5126,
			"count":256,
			"max":[
				1.238232970237732,
				0.23280784487724304,
				2.255673408508301
			],
			"min":[
				0.624521017074585,
				0.16613662242889404,
				1.3287765979766846
			],
			"type":"VEC3"
		},
		{
			"bufferView":37,
			"componentType":5126,
			"count":256,
			"type":"VEC3"
		},
		{
			"bufferView":38,
			"componentType":5126,
			"count":256,
			"type":"VEC2"
		},
		{
			"bufferView":39,
			"componentType":5123,
			"count":384,
			"type":"SCALAR"
		},
		{
			"bufferView":40,
			"componentType":5126,
			"count":164,
			"max":[
				1.238232970237732,
				0.1781691312789917,
				2.255673408508301
			],
			"min":[
				0.624521017074585,
				0.1478251814842224,
				1.3287765979766846
			],
			"type":"VEC3"
		},
		{
			"bufferView":41,
			"componentType":5126,
			"count":164,
			"type":"VEC3"
		},
		{
			"bufferView":42,
			"componentType":5126,
			"count":164,
			"type":"VEC2"
		},
		{
			"bufferView":43,
			"componentType":5123,
			"count":288,
			"type":"SCALAR"
		},
		{
			"bufferView":44,
			"componentType":5126,
			"count":64,
			"max":[
				1.2069941759109497,
				0.24821141362190247,
				2.2246408462524414
			],
			"min":[
				0.6432989835739136,
				0.19895854592323303,
				1.3475100994110107
			],
			"type":"VEC3"
		},
		{
			"bufferView":45,
			"componentType":5126,
			"count":64,
			"type":"VEC3"
		},
		{
			"bufferView":46,
			"componentType":5126,
			"count":64,
			"type":"VEC2"
		},
		{
			"bufferView":47,
			"componentType":5123,
			"count":96,
			"type":"SCALAR"
		}
	],
	"bufferViews":[
		{
			"buffer":0,
			"byteLength":1824,
			"byteOffset":0,
			"target":34962
		},
		{
			"buffer":0,
			"byteLength":1824,
			"byteOffset":1824,
			"target":34962
		},
		{
			"buffer":0,
			"byteLength":1216,
			"byteOffset":3648,
			"target":34962
		},
		{
			"buffer":0,
			"byteLength":456,
			"byteOffset":4864,
			"target":34963
		},
		{
			"buffer":0,
			"byteLength":96,
			"byteOffset":5320,
			"target":34962
		},
		{
			"buffer":0,
			"byteLength":96,
			"byteOffset":5416,
			"target":34962
		},
		{
			"buffer":0,
			"byteLength":64,
			"byteOffset":5512,
			"target":34962
		},
		{
			"buffer":0,
			"byteLength":24,
			"byteOffset":5576,
			"target":34963
		},
		{
			"buffer":0,
			"byteLength":96,
			"byteOffset":5600,
			"target":34962
		},
		{
			"buffer":0,
			"byteLength":96,
			"byteOffset":5696,
			"target":34962
		},
		{
			"buffer":0,
			"byteLength":64,
			"byteOffset":5792,
			"target":34962
		},
		{
			"buffer":0,
			"byteLength":24,
			"byteOffset":5856,
			"target":34963
		},
		{
			"buffer":0,
			"byteLength":180,
			"byteOffset":5880,
			"target":34962
		},
		{
			"buffer":0,
			"byteLength":180,
			"byteOffset":6060,
			"target":34962
		},
		{
			"buffer":0,
			"byteLength":120,
			"byteOffset":6240,
			"target":34962
		},
		{
			"buffer":0,
			"byteLength":48,
			"byteOffset":6360,
			"target":34963
		},
		{
			"buffer":0,
			"byteLength":432,
			"byteOffset":6408,
			"target":34962
		},
		{
			"buffer":0,
			"byteLength":432,
			"byteOffset":6840,
			"target":34962
		},
		{
			"buffer":0,
			"byteLength":288,
			"byteOffset":7272,
			"target":34962
		},
		{
			"buffer":0,
			"byteLength":192,
			"byteOffset":7560,
			"target":34963
		},
		{
			"buffer":0,
			"byteLength":2352,
			"byteOffset":7752,
			"target":34962
		},
		{
			"buffer":0,
			"byteLength":2352,
			"byteOffset":10104,
			"target":34962
		},
		{
			"buffer":0,
			"byteLength":1568,
			"byteOffset":12456,
			"target":34962
		},
		{
			"buffer":0,
			"byteLength":744,
			"byteOffset":14024,
			"target":34963
		},
		{
			"buffer":0,
			"byteLength":4608,
			"byteOffset":14768,
			"target":34962
		},
		{
			"buffer":0,
			"byteLength":4608,
			"byteOffset":19376,
			"target":34962
		},
		{
			"buffer":0,
			"byteLength":3072,
			"byteOffset":23984,
			"target":34962
		},
		{
			"buffer":0,
			"byteLength":1248,
			"byteOffset":27056,
			"target":34963
		},
		{
			"buffer":0,
			"byteLength":984,
			"byteOffset":28304,
			"target":34962
		},
		{
			"buffer":0,
			"byteLength":984,
			"byteOffset":29288,
			"target":34962
		},
		{
			"buffer":0,
			"byteLength":656,
			"byteOffset":30272,
			"target":34962
		},
		{
			"buffer":0,
			"byteLength":288,
			"byteOffset":30928,
			"target":34963
		},
		{
			"buffer":0,
			"byteLength":4272,
			"byteOffset":31216,
			"target":34962
		},
		{
			"buffer":0,
			"byteLength":4272,
			"byteOffset":35488,
			"target":34962
		},
		{
			"buffer":0,
			"byteLength":2848,
			"byteOffset":39760,
			"target":34962
		},
		{
			"buffer":0,
			"byteLength":1152,
			"byteOffset":42608,
			"target":34963
		},
		{
			"buffer":0,
			"byteLength":3072,
			"byteOffset":43760,
			"target":34962
		},
		{
			"buffer":0,
			"byteLength":3072,
			"byteOffset":46832,
			"target":34962
		},
		{
			"buffer":0,
			"byteLength":2048,
			"byteOffset":49904,
			"target":34962
		},
		{
			"buffer":0,
			"byteLength":768,
			"byteOffset":51952,
			"target":34963
		},
		{
			"buffer":0,
			"byteLength":1968,
			"byteOffset":52720,
			"target":34962
		},
		{
			"buffer":0,
			"byteLength":1968,
			"byteOffset":54688,
			"target":34962
		},
		{
			"buffer":0,
			"byteLength":1312,
			"byteOffset":56656,
			"target":34962
		},
		{
			"buffer":0,
			"byteLength":576,
			"byteOffset":57968,
			"target":34963
		},
		{
			"buffer":0,
			"byteLength":768,
			"byteOffset":58544,
			"target":34962
		},
		{
			"buffer":0,
			"byteLength":768,
			"byteOffset":59312,
			"target":34962
		},
		{
			"buffer":0,
			"byteLength":512,
			"byteOffset":60080,
			"target":34962
		},
		{
			"buffer":0,
			"byteLength":192,
			"byteOffset":60592,
			"target":34963
		}
	],
	"buffers":[
		{
			"byteLength":60784,
			"uri":"data:application/octet-stream;base64,"
		}
	]
}
