{
	"asset":{
		"generator":"Khronos glTF Blender I/O v3.6.28",
		"version":"2.0"
	},
	"scene":0,
	"scenes":[
		{
			"name":"Scene",
			"nodes":[
				0
			]
		}
	],
	"nodes":[
		{
			"mesh":0,
			"name":"\u043b\u0435\u043d\u0441\u043a",
			"translation":[
				0,
				0.005248610861599445,
				0
			]
		}
	],
	"materials":[
		{
			"doubleSided":true,
			"name":"osn",
			"pbrMetallicRoughness":{
				"baseColorFactor":[
					0.17144113779067993,
					0.2746773660182953,
					0.1247718334197998,
					1
				],
				"metallicFactor":0,
				"roughnessFactor":0.5
			}
		},
		{
			"doubleSided":true,
			"name":"underosn",
			"pbrMetallicRoughness":{
				"baseColorFactor":[
					0.19120171666145325,
					0.11193244159221649,
					0.09758733212947845,
					1
				],
				"metallicFactor":0,
				"roughnessFactor":0.5
			}
		},
		{
			"doubleSided":true,
			"name":"lightosn",
			"pbrMetallicRoughness":{
				"baseColorFactor":[
					0.22696588933467865,
					0.34191450476646423,
					0.14412851631641388,
					1
				],
				"metallicFactor":0,
				"roughnessFactor":0.5
			}
		},
		{
			"doubleSided":true,
			"name":"osn-2",
			"pbrMetallicRoughness":{
				"baseColorFactor":[
					0.17151030898094177,
					0.29630887508392334,
					0.1398809403181076,
					1
				],
				"metallicFactor":0,
				"roughnessFactor":0.5
			}
		},
		{
			"doubleSided":true,
			"name":"shadosn",
			"pbrMetallicRoughness":{
				"baseColorFactor":[
					0.06301002949476242,
					0.14412851631641388,
					0.10224173218011856,
					1
				],
				"metallicFactor":0,
				"roughnessFactor":0.5
			}
		},
		{
			"doubleSided":true,
			"name":"onlightosn",
			"pbrMetallicRoughness":{
				"baseColorFactor":[
					0.14995980262756348,
					0.2541521489620209,
					0.12213879823684692,
					1
				],
				"metallicFactor":0,
				"roughnessFactor":0.5
			}
		},
		{
			"doubleSided":true,
			"name":"normal-tree",
			"pbrMetallicRoughness":{
				"baseColorFactor":[
					0.10702310502529144,
					0.22322800755500793,
					0.10224173218011856,
					1
				],
				"metallicFactor":0,
				"roughnessFactor":0.5
			}
		},
		{
			"doubleSided":true,
			"name":"osn-tree",
			"pbrMetallicRoughness":{
				"baseColorFactor":[
					0.23455063998699188,
					0.12743771076202393,
					0.05126946046948433,
					1
				],
				"metallicFactor":0,
				"roughnessFactor":0.5
			}
		},
		{
			"doubleSided":true,
			"name":"shad-tree",
			"pbrMetallicRoughness":{
				"baseColorFactor":[
					0.09305897355079651,
					0.2195262312889099,
					0.09758733212947845,
					1
				],
				"metallicFactor":0,
				"roughnessFactor":0.5
			}
		},
		{
			"doubleSided":true,
			"name":"rock",
			"pbrMetallicRoughness":{
				"baseColorFactor":[
					0.3813260495662689,
					0.34670406579971313,
					0.26225075125694275,
					1
				],
				"metallicFactor":0,
				"roughnessFactor":0.5
			}
		},
		{
			"doubleSided":true,
			"name":"rock-sh",
			"pbrMetallicRoughness":{
				"baseColorFactor":[
					0.2195262312889099,
					0.19120171666145325,
					0.1384316384792328,
					1
				],
				"metallicFactor":0,
				"roughnessFactor":0.5
			}
		},
		{
			"doubleSided":true,
			"name":"normal-kus",
			"pbrMetallicRoughness":{
				"baseColorFactor":[
					0.10702310502529144,
					0.18116427958011627,
					0.07818741351366043,
					1
				],
				"metallicFactor":0,
				"roughnessFactor":0.5
			}
		},
		{
			"doubleSided":true,
			"name":"shad-kus",
			"pbrMetallicRoughness":{
				"baseColorFactor":[
					0.06171619892120361,
					0.10226551443338394,
					0.04822072759270668,
					1
				],
				"metallicFactor":0,
				"roughnessFactor":0.5
			}
		},
		{
			"doubleSided":true,
			"name":"light-kus",
			"pbrMetallicRoughness":{
				"baseColorFactor":[
					0.1247718334197998,
					0.22322800755500793,
					0.09305897355079651,
					1
				],
				"metallicFactor":0,
				"roughnessFactor":0.5
			}
		}
	],
	"meshes":[
		{
			"name":"Vert.025",
			"primitives":[
				{
					"attributes":{
						"POSITION":0,
						"NORMAL":1,
						"TEXCOORD_0":2
					},
					"indices":3,
					"material":0
				},
				{
					"attributes":{
						"POSITION":4,
						"NORMAL":5,
						"TEXCOORD_0":6
					},
					"indices":7,
					"material":1
				},
				{
					"attributes":{
						"POSITION":8,
						"NORMAL":9,
						"TEXCOORD_0":10
					},
					"indices":11,
					"material":2
				},
				{
					"attributes":{
						"POSITION":12,
						"NORMAL":13,
						"TEXCOORD_0":14
					},
					"indices":15,
					"material":3
				},
				{
					"attributes":{
						"POSITION":16,
						"NORMAL":17,
						"TEXCOORD_0":18
					},
					"indices":19,
					"material":4
				},
				{
					"attributes":{
						"POSITION":20,
						"NORMAL":21,
						"TEXCOORD_0":22
					},
					"indices":23,
					"material":5
				},
				{
					"attributes":{
						"POSITION":24,
						"NORMAL":25,
						"TEXCOORD_0":26
					},
					"indices":27,
					"material":6
				},
				{
					"attributes":{
						"POSITION":28,
						"NORMAL":29,
						"TEXCOORD_0":30
					},
					"indices":31,
					"material":7
				},
				{
					"attributes":{
						"POSITION":32,
						"NORMAL":33,
						"TEXCOORD_0":34
					},
					"indices":35,
					"material":8
				},
				{
					"attributes":{
						"POSITION":36,
						"NORMAL":37,
						"TEXCOORD_0":38
					},
					"indices":39,
					"material":9
				},
				{
					"attributes":{
						"POSITION":40,
						"NORMAL":41,
						"TEXCOORD_0":42
					},
					"indices":43,
					"material":10
				},
				{
					"attributes":{
						"POSITION":44,
						"NORMAL":45,
						"TEXCOORD_0":46
					},
					"indices":47,
					"material":11
				},
				{
					"attributes":{
						"POSITION":48,
						"NORMAL":49,
						"TEXCOORD_0":50
					},
					"indices":51,
					"material":12
				},
				{
					"attributes":{
						"POSITION":52,
						"NORMAL":53,
						"TEXCOORD_0":54
					},
					"indices":55,
					"material":13
				}
			]
		}
	],
	"accessors":[
		{
			"bufferView":0,
			"componentType":5126,
			"count":339,
			"max":[
				-3.0011146068573,
				0.15095612406730652,
				3.855189085006714
			],
			"min":[
				-5.190893650054932,
				0.07285383343696594,
				2.35408091545105
			],
			"type":"VEC3"
		},
		{
			"bufferView":1,
			"componentType":5126,
			"count":339,
			"type":"VEC3"
		},
		{
			"bufferView":2,
			"componentType":5126,
			"count":339,
			"type":"VEC2"
		},
		{
			"bufferView":3,
			"componentType":5123,
			"count":528,
			"type":"SCALAR"
		},
		{
			"bufferView":4,
			"componentType":5126,
			"count":417,
			"max":[
				-3.0011146068573,
				0.07285384088754654,
				3.855189085006714
			],
			"min":[
				-5.190893650054932,
				-0.005248452536761761,
				2.35408091545105
			],
			"type":"VEC3"
		},
		{
			"bufferView":5,
			"componentType":5126,
			"count":417,
			"type":"VEC3"
		},
		{
			"bufferView":6,
			"componentType":5126,
			"count":417,
			"type":"VEC2"
		},
		{
			"bufferView":7,
			"componentType":5123,
			"count":816,
			"type":"SCALAR"
		},
		{
			"bufferView":8,
			"componentType":5126,
			"count":20,
			"max":[
				-3.6065657138824463,
				0.15095612406730652,
				3.52270245552063
			],
			"min":[
				-4.9236602783203125,
				0.15095612406730652,
				2.611392021179199
			],
			"type":"VEC3"
		},
		{
			"bufferView":9,
			"componentType":5126,
			"count":20,
			"type":"VEC3"
		},
		{
			"bufferView":10,
			"componentType":5126,
			"count":20,
			"type":"VEC2"
		},
		{
			"bufferView":11,
			"componentType":5123,
			"count":48,
			"type":"SCALAR"
		},
		{
			"bufferView":12,
			"componentType":5126,
			"count":22,
			"max":[
				-3.053806781768799,
				0.15095612406730652,
				3.61311674118042
			],
			"min":[
				-5.158155918121338,
				0.15095612406730652,
				2.454639196395874
			],
			"type":"VEC3"
		},
		{
			"bufferView":13,
			"componentType":5126,
			"count":22,
			"type":"VEC3"
		},
		{
			"bufferView":14,
			"componentType":5126,
			"count":22,
			"type":"VEC2"
		},
		{
			"bufferView":15,
			"componentType":5123,
			"count":42,
			"type":"SCALAR"
		},
		{
			"bufferView":16,
			"componentType":5126,
			"count":67,
			"max":[
				-3.0011146068573,
				0.15095612406730652,
				3.855189085006714
			],
			"min":[
				-5.190893650054932,
				0.15095612406730652,
				2.35408091545105
			],
			"type":"VEC3"
		},
		{
			"bufferView":17,
			"componentType":5126,
			"count":67,
			"type":"VEC3"
		},
		{
			"bufferView":18,
			"componentType":5126,
			"count":67,
			"type":"VEC2"
		},
		{
			"bufferView":19,
			"componentType":5123,
			"count":162,
			"type":"SCALAR"
		},
		{
			"bufferView":20,
			"componentType":5126,
			"count":18,
			"max":[
				-3.053806781768799,
				0.15095612406730652,
				3.5891997814178467
			],
			"min":[
				-4.979306697845459,
				0.15095612406730652,
				2.484516143798828
			],
			"type":"VEC3"
		},
		{
			"bufferView":21,
			"componentType":5126,
			"count":18,
			"type":"VEC3"
		},
		{
			"bufferView":22,
			"componentType":5126,
			"count":18,
			"type":"VEC2"
		},
		{
			"bufferView":23,
			"componentType":5123,
			"count":36,
			"type":"SCALAR"
		},
		{
			"bufferView":24,
			"componentType":5126,
			"count":960,
			"max":[
				-2.9985599517822266,
				0.6187466979026794,
				3.6672122478485107
			],
			"min":[
				-5.0074687004089355,
				0.1686526983976364,
				2.432262420654297
			],
			"type":"VEC3"
		},
		{
			"bufferView":25,
			"componentType":5126,
			"count":960,
			"type":"VEC3"
		},
		{
			"bufferView":26,
			"componentType":5126,
			"count":960,
			"type":"VEC2"
		},
		{
			"bufferView":27,
			"componentType":5123,
			"count":1560,
			"type":"SCALAR"
		},
		{
			"bufferView":28,
			"componentType":5126,
			"count":205,
			"max":[
				-3.166025161743164,
				0.22026626765727997,
				3.527222156524658
			],
			"min":[
				-4.99796724319458,
				0.13280759751796722,
				2.5722525119781494
			],
			"type":"VEC3"
		},
		{
			"bufferView":29,
			"componentType":5126,
			"count":205,
			"type":"VEC3"
		},
		{
			"bufferView":30,
			"componentType":5126,
			"count":205,
			"type":"VEC2"
		},
		{
			"bufferView":31,
			"componentType":5123,
			"count":360,
			"type":"SCALAR"
		},
		{
			"bufferView":32,
			"componentType":5126,
			"count":890,
			"max":[
				-3.1669838428497314,
				0.6187466979026794,
				3.6672122478485107
			],
			"min":[
				-5.13076639175415,
				0.1686526983976364,
				2.432262420654297
			],
			"type":"VEC3"
		},
		{
			"bufferView":33,
			"componentType":5126,
			"count":890,
			"type":"VEC3"
		},
		{
			"bufferView":34,
			"componentType":5126,
			"count":890,
			"type":"VEC2"
		},
		{
			"bufferView":35,
			"componentType":5123,
			"count":1440,
			"type":"SCALAR"
		},
		{
			"bufferView":36,
			"componentType":5126,
			"count":39,
			"max":[
				-4.754945278167725,
				0.22708815336227417,
				3.372070550918579
			],
			"min":[
				-5.017894744873047,
				0.12184412777423859,
				3.124662399291992
			],
			"type":"VEC3"
		},
		{
			"bufferView":37,
			"componentType":5126,
			"count":39,
			"type":"VEC3"
		},
		{
			"bufferView":38,
			"componentType":5126,
			"count":39,
			"type":"VEC2"
		},
		{
			"bufferView":39,
			"componentType":5123,
			"count":72,
			"type":"SCALAR"
		},
		{
			"bufferView":40,
			"componentType":5126,
			"count":104,
			"max":[
				-4.754945278167725,
				0.25187766551971436,
				3.372070550918579
			],
			"min":[
				-5.017894744873047,
				0.12184412777423859,
				3.124662399291992
			],
			"type":"VEC3"
		},
		{
			"bufferView":41,
			"componentType":5126,
			"count":104,
			"type":"VEC3"
		},
		{
			"bufferView":42,
			"componentType":5126,
			"count":104,
			"type":"VEC2"
		},
		{
			"bufferView":43,
			"componentType":5123,
			"count":156,
			"type":"SCALAR"
		},
		{
			"bufferView":44,
			"componentType":5126,
			"count":320,
			"max":[
				-3.210660457611084,
				0.22755923867225647,
				3.7088162899017334
			],
			"min":[
				-4.98354434967041,
				0.15496234595775604,
				2.4549853801727295
			],
			"type":"VEC3"
		},
		{
			"bufferView":45,
			"componentType":5126,
			"count":320,
			"type":"VEC3"
		},
		{
			"bufferView":46,
			"componentType":5126,
			"count":320,
			"type":"VEC2"
		},
		{
			"bufferView":47,
			"componentType":5123,
			"count":480,
			"type":"SCALAR"
		},
		{
			"bufferView":48,
			"componentType":5126,
			"count":205,
			"max":[
				-3.210660457611084,
				0.17292052507400513,
				3.7088162899017334
			],
			"min":[
				-4.98354434967041,
				0.14257657527923584,
				2.4549853801727295
			],
			"type":"VEC3"
		},
		{
			"bufferView":49,
			"componentType":5126,
			"count":205,
			"type":"VEC3"
		},
		{
			"bufferView":50,
			"componentType":5126,
			"count":205,
			"type":"VEC2"
		},
		{
			"bufferView":51,
			"componentType":5123,
			"count":360,
			"type":"SCALAR"
		},
		{
			"bufferView":52,
			"componentType":5126,
			"count":80,
			"max":[
				-3.234767436981201,
				0.2429628074169159,
				3.6822876930236816
			],
			"min":[
				-4.967677593231201,
				0.18841198086738586,
				2.4815139770507812
			],
			"type":"VEC3"
		},
		{
			"bufferView":53,
			"componentType":5126,
			"count":80,
			"type":"VEC3"
		},
		{
			"bufferView":54,
			"componentType":5126,
			"count":80,
			"type":"VEC2"
		},
		{
			"bufferView":55,
			"componentType":5123,
			"count":120,
			"type":"SCALAR"
		}
	],
	"bufferViews":[
		{
			"buffer":0,
			"byteLength":4068,
			"byteOffset":0,
			"target":34962
		},
		{
			"buffer":0,
			"byteLength":4068,
			"byteOffset":4068,
			"target":34962
		},
		{
			"buffer":0,
			"byteLength":2712,
			"byteOffset":8136,
			"target":34962
		},
		{
			"buffer":0,
			"byteLength":1056,
			"byteOffset":10848,
			"target":34963
		},
		{
			"buffer":0,
			"byteLength":5004,
			"byteOffset":11904,
			"target":34962
		},
		{
			"buffer":0,
			"byteLength":5004,
			"byteOffset":16908,
			"target":34962
		},
		{
			"buffer":0,
			"byteLength":3336,
			"byteOffset":21912,
			"target":34962
		},
		{
			"buffer":0,
			"byteLength":1632,
			"byteOffset":25248,
			"target":34963
		},
		{
			"buffer":0,
			"byteLength":240,
			"byteOffset":26880,
			"target":34962
		},
		{
			"buffer":0,
			"byteLength":240,
			"byteOffset":27120,
			"target":34962
		},
		{
			"buffer":0,
			"byteLength":160,
			"byteOffset":27360,
			"target":34962
		},
		{
			"buffer":0,
			"byteLength":96,
			"byteOffset":27520,
			"target":34963
		},
		{
			"buffer":0,
			"byteLength":264,
			"byteOffset":27616,
			"target":34962
		},
		{
			"buffer":0,
			"byteLength":264,
			"byteOffset":27880,
			"target":34962
		},
		{
			"buffer":0,
			"byteLength":176,
			"byteOffset":28144,
			"target":34962
		},
		{
			"buffer":0,
			"byteLength":84,
			"byteOffset":28320,
			"target":34963
		},
		{
			"buffer":0,
			"byteLength":804,
			"byteOffset":28404,
			"target":34962
		},
		{
			"buffer":0,
			"byteLength":804,
			"byteOffset":29208,
			"target":34962
		},
		{
			"buffer":0,
			"byteLength":536,
			"byteOffset":30012,
			"target":34962
		},
		{
			"buffer":0,
			"byteLength":324,
			"byteOffset":30548,
			"target":34963
		},
		{
			"buffer":0,
			"byteLength":216,
			"byteOffset":30872,
			"target":34962
		},
		{
			"buffer":0,
			"byteLength":216,
			"byteOffset":31088,
			"target":34962
		},
		{
			"buffer":0,
			"byteLength":144,
			"byteOffset":31304,
			"target":34962
		},
		{
			"buffer":0,
			"byteLength":72,
			"byteOffset":31448,
			"target":34963
		},
		{
			"buffer":0,
			"byteLength":11520,
			"byteOffset":31520,
			"target":34962
		},
		{
			"buffer":0,
			"byteLength":11520,
			"byteOffset":43040,
			"target":34962
		},
		{
			"buffer":0,
			"byteLength":7680,
			"byteOffset":54560,
			"target":34962
		},
		{
			"buffer":0,
			"byteLength":3120,
			"byteOffset":62240,
			"target":34963
		},
		{
			"buffer":0,
			"byteLength":2460,
			"byteOffset":65360,
			"target":34962
		},
		{
			"buffer":0,
			"byteLength":2460,
			"byteOffset":67820,
			"target":34962
		},
		{
			"buffer":0,
			"byteLength":1640,
			"byteOffset":70280,
			"target":34962
		},
		{
			"buffer":0,
			"byteLength":720,
			"byteOffset":71920,
			"target":34963
		},
		{
			"buffer":0,
			"byteLength":10680,
			"byteOffset":72640,
			"target":34962
		},
		{
			"buffer":0,
			"byteLength":10680,
			"byteOffset":83320,
			"target":34962
		},
		{
			"buffer":0,
			"byteLength":7120,
			"byteOffset":94000,
			"target":34962
		},
		{
			"buffer":0,
			"byteLength":2880,
			"byteOffset":101120,
			"target":34963
		},
		{
			"buffer":0,
			"byteLength":468,
			"byteOffset":104000,
			"target":34962
		},
		{
			"buffer":0,
			"byteLength":468,
			"byteOffset":104468,
			"target":34962
		},
		{
			"buffer":0,
			"byteLength":312,
			"byteOffset":104936,
			"target":34962
		},
		{
			"buffer":0,
			"byteLength":144,
			"byteOffset":105248,
			"target":34963
		},
		{
			"buffer":0,
			"byteLength":1248,
			"byteOffset":105392,
			"target":34962
		},
		{
			"buffer":0,
			"byteLength":1248,
			"byteOffset":106640,
			"target":34962
		},
		{
			"buffer":0,
			"byteLength":832,
			"byteOffset":107888,
			"target":34962
		},
		{
			"buffer":0,
			"byteLength":312,
			"byteOffset":108720,
			"target":34963
		},
		{
			"buffer":0,
			"byteLength":3840,
			"byteOffset":109032,
			"target":34962
		},
		{
			"buffer":0,
			"byteLength":3840,
			"byteOffset":112872,
			"target":34962
		},
		{
			"buffer":0,
			"byteLength":2560,
			"byteOffset":116712,
			"target":34962
		},
		{
			"buffer":0,
			"byteLength":960,
			"byteOffset":119272,
			"target":34963
		},
		{
			"buffer":0,
			"byteLength":2460,
			"byteOffset":120232,
			"target":34962
		},
		{
			"buffer":0,
			"byteLength":2460,
			"byteOffset":122692,
			"target":34962
		},
		{
			"buffer":0,
			"byteLength":1640,
			"byteOffset":125152,
			"target":34962
		},
		{
			"buffer":0,
			"byteLength":720,
			"byteOffset":126792,
			"target":34963
		},
		{
			"buffer":0,
			"byteLength":960,
			"byteOffset":127512,
			"target":34962
		},
		{
			"buffer":0,
			"byteLength":960,
			"byteOffset":128472,
			"target":34962
		},
		{
			"buffer":0,
			"byteLength":640,
			"byteOffset":129432,
			"target":34962
		},
		{
			"buffer":0,
			"byteLength":240,
			"byteOffset":130072,
			"target":34963
		}
	],
	"buffers":[
		{
			"byteLength":130312,
			"uri":"data:application/octet-stream;base64,"
		}
	]
}
