{
	"asset":{
		"generator":"Khronos glTF Blender I/O v3.6.28",
		"version":"2.0"
	},
	"scene":0,
	"scenes":[
		{
			"name":"Scene",
			"nodes":[
				0
			]
		}
	],
	"nodes":[
		{
			"mesh":0,
			"name":"\u043c\u0430\u0439\u044f"
		}
	],
	"materials":[
		{
			"doubleSided":true,
			"name":"osn",
			"pbrMetallicRoughness":{
				"baseColorFactor":[
					0.17144113779067993,
					0.2746773660182953,
					0.1247718334197998,
					1
				],
				"metallicFactor":0,
				"roughnessFactor":0.5
			}
		},
		{
			"doubleSided":true,
			"name":"lightosn",
			"pbrMetallicRoughness":{
				"baseColorFactor":[
					0.22696588933467865,
					0.34191450476646423,
					0.14412851631641388,
					1
				],
				"metallicFactor":0,
				"roughnessFactor":0.5
			}
		},
		{
			"doubleSided":true,
			"name":"onlightosn",
			"pbrMetallicRoughness":{
				"baseColorFactor":[
					0.14995980262756348,
					0.2541521489620209,
					0.12213879823684692,
					1
				],
				"metallicFactor":0,
				"roughnessFactor":0.5
			}
		},
		{
			"doubleSided":true,
			"name":"osn-2",
			"pbrMetallicRoughness":{
				"baseColorFactor":[
					0.17151030898094177,
					0.29630887508392334,
					0.1398809403181076,
					1
				],
				"metallicFactor":0,
				"roughnessFactor":0.5
			}
		},
		{
			"doubleSided":true,
			"name":"shadosn",
			"pbrMetallicRoughness":{
				"baseColorFactor":[
					0.06301002949476242,
					0.14412851631641388,
					0.10224173218011856,
					1
				],
				"metallicFactor":0,
				"roughnessFactor":0.5
			}
		},
		{
			"doubleSided":true,
			"name":"underosn",
			"pbrMetallicRoughness":{
				"baseColorFactor":[
					0.19120171666145325,
					0.11193244159221649,
					0.09758733212947845,
					1
				],
				"metallicFactor":0,
				"roughnessFactor":0.5
			}
		},
		{
			"doubleSided":true,
			"name":"rock",
			"pbrMetallicRoughness":{
				"baseColorFactor":[
					0.3813260495662689,
					0.34670406579971313,
					0.26225075125694275,
					1
				],
				"metallicFactor":0,
				"roughnessFactor":0.5
			}
		},
		{
			"doubleSided":true,
			"name":"rock-sh",
			"pbrMetallicRoughness":{
				"baseColorFactor":[
					0.2195262312889099,
					0.19120171666145325,
					0.1384316384792328,
					1
				],
				"metallicFactor":0,
				"roughnessFactor":0.5
			}
		},
		{
			"doubleSided":true,
			"name":"normal-tree",
			"pbrMetallicRoughness":{
				"baseColorFactor":[
					0.10702310502529144,
					0.22322800755500793,
					0.10224173218011856,
					1
				],
				"metallicFactor":0,
				"roughnessFactor":0.5
			}
		},
		{
			"doubleSided":true,
			"name":"osn-tree",
			"pbrMetallicRoughness":{
				"baseColorFactor":[
					0.23455063998699188,
					0.12743771076202393,
					0.05126946046948433,
					1
				],
				"metallicFactor":0,
				"roughnessFactor":0.5
			}
		},
		{
			"doubleSided":true,
			"name":"shad-tree",
			"pbrMetallicRoughness":{
				"baseColorFactor":[
					0.09305897355079651,
					0.2195262312889099,
					0.09758733212947845,
					1
				],
				"metallicFactor":0,
				"roughnessFactor":0.5
			}
		},
		{
			"doubleSided":true,
			"name":"normal-kus",
			"pbrMetallicRoughness":{
				"baseColorFactor":[
					0.10702310502529144,
					0.18116427958011627,
					0.07818741351366043,
					1
				],
				"metallicFactor":0,
				"roughnessFactor":0.5
			}
		},
		{
			"doubleSided":true,
			"name":"shad-kus",
			"pbrMetallicRoughness":{
				"baseColorFactor":[
					0.06171619892120361,
					0.10226551443338394,
					0.04822072759270668,
					1
				],
				"metallicFactor":0,
				"roughnessFactor":0.5
			}
		},
		{
			"doubleSided":true,
			"name":"light-kus",
			"pbrMetallicRoughness":{
				"baseColorFactor":[
					0.1247718334197998,
					0.22322800755500793,
					0.09305897355079651,
					1
				],
				"metallicFactor":0,
				"roughnessFactor":0.5
			}
		}
	],
	"meshes":[
		{
			"name":"Vert.008",
			"primitives":[
				{
					"attributes":{
						"POSITION":0,
						"NORMAL":1,
						"TEXCOORD_0":2
					},
					"indices":3,
					"material":0
				},
				{
					"attributes":{
						"POSITION":4,
						"NORMAL":5,
						"TEXCOORD_0":6
					},
					"indices":7,
					"material":1
				},
				{
					"attributes":{
						"POSITION":8,
						"NORMAL":9,
						"TEXCOORD_0":10
					},
					"indices":11,
					"material":2
				},
				{
					"attributes":{
						"POSITION":12,
						"NORMAL":13,
						"TEXCOORD_0":14
					},
					"indices":15,
					"material":3
				},
				{
					"attributes":{
						"POSITION":16,
						"NORMAL":17,
						"TEXCOORD_0":18
					},
					"indices":19,
					"material":4
				},
				{
					"attributes":{
						"POSITION":20,
						"NORMAL":21,
						"TEXCOORD_0":22
					},
					"indices":23,
					"material":5
				},
				{
					"attributes":{
						"POSITION":24,
						"NORMAL":25,
						"TEXCOORD_0":26
					},
					"indices":27,
					"material":6
				},
				{
					"attributes":{
						"POSITION":28,
						"NORMAL":29,
						"TEXCOORD_0":30
					},
					"indices":31,
					"material":7
				},
				{
					"attributes":{
						"POSITION":32,
						"NORMAL":33,
						"TEXCOORD_0":34
					},
					"indices":35,
					"material":8
				},
				{
					"attributes":{
						"POSITION":36,
						"NORMAL":37,
						"TEXCOORD_0":38
					},
					"indices":39,
					"material":9
				},
				{
					"attributes":{
						"POSITION":40,
						"NORMAL":41,
						"TEXCOORD_0":42
					},
					"indices":43,
					"material":10
				},
				{
					"attributes":{
						"POSITION":44,
						"NORMAL":45,
						"TEXCOORD_0":46
					},
					"indices":47,
					"material":11
				},
				{
					"attributes":{
						"POSITION":48,
						"NORMAL":49,
						"TEXCOORD_0":50
					},
					"indices":51,
					"material":12
				},
				{
					"attributes":{
						"POSITION":52,
						"NORMAL":53,
						"TEXCOORD_0":54
					},
					"indices":55,
					"material":13
				}
			]
		}
	],
	"accessors":[
		{
			"bufferView":0,
			"componentType":5126,
			"count":180,
			"max":[
				0.5940866470336914,
				0.15620458126068115,
				2.747356653213501
			],
			"min":[
				0.008192259818315506,
				0.07810229063034058,
				1.8760191202163696
			],
			"type":"VEC3"
		},
		{
			"bufferView":1,
			"componentType":5126,
			"count":180,
			"type":"VEC3"
		},
		{
			"bufferView":2,
			"componentType":5126,
			"count":180,
			"type":"VEC2"
		},
		{
			"bufferView":3,
			"componentType":5123,
			"count":270,
			"type":"SCALAR"
		},
		{
			"bufferView":4,
			"componentType":5126,
			"count":12,
			"max":[
				0.5167379975318909,
				0.15620458126068115,
				2.4471945762634277
			],
			"min":[
				0.07168809324502945,
				0.15620458126068115,
				2.1132636070251465
			],
			"type":"VEC3"
		},
		{
			"bufferView":5,
			"componentType":5126,
			"count":12,
			"type":"VEC3"
		},
		{
			"bufferView":6,
			"componentType":5126,
			"count":12,
			"type":"VEC2"
		},
		{
			"bufferView":7,
			"componentType":5123,
			"count":18,
			"type":"SCALAR"
		},
		{
			"bufferView":8,
			"componentType":5126,
			"count":8,
			"max":[
				0.447469562292099,
				0.15620458126068115,
				2.5005879402160645
			],
			"min":[
				0.07168809324502945,
				0.15620458126068115,
				1.9370226860046387
			],
			"type":"VEC3"
		},
		{
			"bufferView":9,
			"componentType":5126,
			"count":8,
			"type":"VEC3"
		},
		{
			"bufferView":10,
			"componentType":5126,
			"count":8,
			"type":"VEC2"
		},
		{
			"bufferView":11,
			"componentType":5123,
			"count":12,
			"type":"SCALAR"
		},
		{
			"bufferView":12,
			"componentType":5126,
			"count":8,
			"max":[
				0.447469562292099,
				0.15620458126068115,
				2.4471945762634277
			],
			"min":[
				0.07168809324502945,
				0.15620458126068115,
				1.9383606910705566
			],
			"type":"VEC3"
		},
		{
			"bufferView":13,
			"componentType":5126,
			"count":8,
			"type":"VEC3"
		},
		{
			"bufferView":14,
			"componentType":5126,
			"count":8,
			"type":"VEC2"
		},
		{
			"bufferView":15,
			"componentType":5123,
			"count":12,
			"type":"SCALAR"
		},
		{
			"bufferView":16,
			"componentType":5126,
			"count":38,
			"max":[
				0.5940866470336914,
				0.15620458126068115,
				2.747356653213501
			],
			"min":[
				0.008192259818315506,
				0.15620458126068115,
				1.8760191202163696
			],
			"type":"VEC3"
		},
		{
			"bufferView":17,
			"componentType":5126,
			"count":38,
			"type":"VEC3"
		},
		{
			"bufferView":18,
			"componentType":5126,
			"count":38,
			"type":"VEC2"
		},
		{
			"bufferView":19,
			"componentType":5123,
			"count":90,
			"type":"SCALAR"
		},
		{
			"bufferView":20,
			"componentType":5126,
			"count":223,
			"max":[
				0.5940866470336914,
				0.07810229063034058,
				2.747356653213501
			],
			"min":[
				0.008192259818315506,
				0,
				1.8760191202163696
			],
			"type":"VEC3"
		},
		{
			"bufferView":21,
			"componentType":5126,
			"count":223,
			"type":"VEC3"
		},
		{
			"bufferView":22,
			"componentType":5126,
			"count":223,
			"type":"VEC2"
		},
		{
			"bufferView":23,
			"componentType":5123,
			"count":402,
			"type":"SCALAR"
		},
		{
			"bufferView":24,
			"componentType":5126,
			"count":39,
			"max":[
				0.4369494616985321,
				0.21600653231143951,
				2.116499185562134
			],
			"min":[
				0.2438666671514511,
				0.1484677791595459,
				1.936964511871338
			],
			"type":"VEC3"
		},
		{
			"bufferView":25,
			"componentType":5126,
			"count":39,
			"type":"VEC3"
		},
		{
			"bufferView":26,
			"componentType":5126,
			"count":39,
			"type":"VEC2"
		},
		{
			"bufferView":27,
			"componentType":5123,
			"count":72,
			"type":"SCALAR"
		},
		{
			"bufferView":28,
			"componentType":5126,
			"count":104,
			"max":[
				0.4369494616985321,
				0.23191481828689575,
				2.116499185562134
			],
			"min":[
				0.2438666671514511,
				0.1484677791595459,
				1.936964511871338
			],
			"type":"VEC3"
		},
		{
			"bufferView":29,
			"componentType":5126,
			"count":104,
			"type":"VEC3"
		},
		{
			"bufferView":30,
			"componentType":5126,
			"count":104,
			"type":"VEC2"
		},
		{
			"bufferView":31,
			"componentType":5123,
			"count":156,
			"type":"SCALAR"
		},
		{
			"bufferView":32,
			"componentType":5126,
			"count":192,
			"max":[
				0.2976396381855011,
				0.42668914794921875,
				2.4573974609375
			],
			"min":[
				0.17254474759101868,
				0.17911823093891144,
				2.2318344116210938
			],
			"type":"VEC3"
		},
		{
			"bufferView":33,
			"componentType":5126,
			"count":192,
			"type":"VEC3"
		},
		{
			"bufferView":34,
			"componentType":5126,
			"count":192,
			"type":"VEC2"
		},
		{
			"bufferView":35,
			"componentType":5123,
			"count":312,
			"type":"SCALAR"
		},
		{
			"bufferView":36,
			"componentType":5126,
			"count":41,
			"max":[
				0.20190882682800293,
				0.19889937341213226,
				2.356482982635498
			],
			"min":[
				0.17939400672912598,
				0.1489039808511734,
				2.3327488899230957
			],
			"type":"VEC3"
		},
		{
			"bufferView":37,
			"componentType":5126,
			"count":41,
			"type":"VEC3"
		},
		{
			"bufferView":38,
			"componentType":5126,
			"count":41,
			"type":"VEC2"
		},
		{
			"bufferView":39,
			"componentType":5123,
			"count":72,
			"type":"SCALAR"
		},
		{
			"bufferView":40,
			"componentType":5126,
			"count":178,
			"max":[
				0.2013607919216156,
				0.42668914794921875,
				2.4573974609375
			],
			"min":[
				0.08366318792104721,
				0.17911823093891144,
				2.2318344116210938
			],
			"type":"VEC3"
		},
		{
			"bufferView":41,
			"componentType":5126,
			"count":178,
			"type":"VEC3"
		},
		{
			"bufferView":42,
			"componentType":5126,
			"count":178,
			"type":"VEC2"
		},
		{
			"bufferView":43,
			"componentType":5123,
			"count":288,
			"type":"SCALAR"
		},
		{
			"bufferView":44,
			"componentType":5126,
			"count":64,
			"max":[
				0.4342925250530243,
				0.22279275953769684,
				2.36246919631958
			],
			"min":[
				0.3016989529132843,
				0.1718357503414154,
				2.2330169677734375
			],
			"type":"VEC3"
		},
		{
			"bufferView":45,
			"componentType":5126,
			"count":64,
			"type":"VEC3"
		},
		{
			"bufferView":46,
			"componentType":5126,
			"count":64,
			"type":"VEC2"
		},
		{
			"bufferView":47,
			"componentType":5123,
			"count":96,
			"type":"SCALAR"
		},
		{
			"bufferView":48,
			"componentType":5126,
			"count":41,
			"max":[
				0.4342925250530243,
				0.1810322254896164,
				2.36246919631958
			],
			"min":[
				0.3016989529132843,
				0.15784026682376862,
				2.2330169677734375
			],
			"type":"VEC3"
		},
		{
			"bufferView":49,
			"componentType":5126,
			"count":41,
			"type":"VEC3"
		},
		{
			"bufferView":50,
			"componentType":5126,
			"count":41,
			"type":"VEC2"
		},
		{
			"bufferView":51,
			"componentType":5123,
			"count":72,
			"type":"SCALAR"
		},
		{
			"bufferView":52,
			"componentType":5126,
			"count":16,
			"max":[
				0.4104310870170593,
				0.23456574976444244,
				2.3391730785369873
			],
			"min":[
				0.32556039094924927,
				0.21067851781845093,
				2.2563130855560303
			],
			"type":"VEC3"
		},
		{
			"bufferView":53,
			"componentType":5126,
			"count":16,
			"type":"VEC3"
		},
		{
			"bufferView":54,
			"componentType":5126,
			"count":16,
			"type":"VEC2"
		},
		{
			"bufferView":55,
			"componentType":5123,
			"count":24,
			"type":"SCALAR"
		}
	],
	"bufferViews":[
		{
			"buffer":0,
			"byteLength":2160,
			"byteOffset":0,
			"target":34962
		},
		{
			"buffer":0,
			"byteLength":2160,
			"byteOffset":2160,
			"target":34962
		},
		{
			"buffer":0,
			"byteLength":1440,
			"byteOffset":4320,
			"target":34962
		},
		{
			"buffer":0,
			"byteLength":540,
			"byteOffset":5760,
			"target":34963
		},
		{
			"buffer":0,
			"byteLength":144,
			"byteOffset":6300,
			"target":34962
		},
		{
			"buffer":0,
			"byteLength":144,
			"byteOffset":6444,
			"target":34962
		},
		{
			"buffer":0,
			"byteLength":96,
			"byteOffset":6588,
			"target":34962
		},
		{
			"buffer":0,
			"byteLength":36,
			"byteOffset":6684,
			"target":34963
		},
		{
			"buffer":0,
			"byteLength":96,
			"byteOffset":6720,
			"target":34962
		},
		{
			"buffer":0,
			"byteLength":96,
			"byteOffset":6816,
			"target":34962
		},
		{
			"buffer":0,
			"byteLength":64,
			"byteOffset":6912,
			"target":34962
		},
		{
			"buffer":0,
			"byteLength":24,
			"byteOffset":6976,
			"target":34963
		},
		{
			"buffer":0,
			"byteLength":96,
			"byteOffset":7000,
			"target":34962
		},
		{
			"buffer":0,
			"byteLength":96,
			"byteOffset":7096,
			"target":34962
		},
		{
			"buffer":0,
			"byteLength":64,
			"byteOffset":7192,
			"target":34962
		},
		{
			"buffer":0,
			"byteLength":24,
			"byteOffset":7256,
			"target":34963
		},
		{
			"buffer":0,
			"byteLength":456,
			"byteOffset":7280,
			"target":34962
		},
		{
			"buffer":0,
			"byteLength":456,
			"byteOffset":7736,
			"target":34962
		},
		{
			"buffer":0,
			"byteLength":304,
			"byteOffset":8192,
			"target":34962
		},
		{
			"buffer":0,
			"byteLength":180,
			"byteOffset":8496,
			"target":34963
		},
		{
			"buffer":0,
			"byteLength":2676,
			"byteOffset":8676,
			"target":34962
		},
		{
			"buffer":0,
			"byteLength":2676,
			"byteOffset":11352,
			"target":34962
		},
		{
			"buffer":0,
			"byteLength":1784,
			"byteOffset":14028,
			"target":34962
		},
		{
			"buffer":0,
			"byteLength":804,
			"byteOffset":15812,
			"target":34963
		},
		{
			"buffer":0,
			"byteLength":468,
			"byteOffset":16616,
			"target":34962
		},
		{
			"buffer":0,
			"byteLength":468,
			"byteOffset":17084,
			"target":34962
		},
		{
			"buffer":0,
			"byteLength":312,
			"byteOffset":17552,
			"target":34962
		},
		{
			"buffer":0,
			"byteLength":144,
			"byteOffset":17864,
			"target":34963
		},
		{
			"buffer":0,
			"byteLength":1248,
			"byteOffset":18008,
			"target":34962
		},
		{
			"buffer":0,
			"byteLength":1248,
			"byteOffset":19256,
			"target":34962
		},
		{
			"buffer":0,
			"byteLength":832,
			"byteOffset":20504,
			"target":34962
		},
		{
			"buffer":0,
			"byteLength":312,
			"byteOffset":21336,
			"target":34963
		},
		{
			"buffer":0,
			"byteLength":2304,
			"byteOffset":21648,
			"target":34962
		},
		{
			"buffer":0,
			"byteLength":2304,
			"byteOffset":23952,
			"target":34962
		},
		{
			"buffer":0,
			"byteLength":1536,
			"byteOffset":26256,
			"target":34962
		},
		{
			"buffer":0,
			"byteLength":624,
			"byteOffset":27792,
			"target":34963
		},
		{
			"buffer":0,
			"byteLength":492,
			"byteOffset":28416,
			"target":34962
		},
		{
			"buffer":0,
			"byteLength":492,
			"byteOffset":28908,
			"target":34962
		},
		{
			"buffer":0,
			"byteLength":328,
			"byteOffset":29400,
			"target":34962
		},
		{
			"buffer":0,
			"byteLength":144,
			"byteOffset":29728,
			"target":34963
		},
		{
			"buffer":0,
			"byteLength":2136,
			"byteOffset":29872,
			"target":34962
		},
		{
			"buffer":0,
			"byteLength":2136,
			"byteOffset":32008,
			"target":34962
		},
		{
			"buffer":0,
			"byteLength":1424,
			"byteOffset":34144,
			"target":34962
		},
		{
			"buffer":0,
			"byteLength":576,
			"byteOffset":35568,
			"target":34963
		},
		{
			"buffer":0,
			"byteLength":768,
			"byteOffset":36144,
			"target":34962
		},
		{
			"buffer":0,
			"byteLength":768,
			"byteOffset":36912,
			"target":34962
		},
		{
			"buffer":0,
			"byteLength":512,
			"byteOffset":37680,
			"target":34962
		},
		{
			"buffer":0,
			"byteLength":192,
			"byteOffset":38192,
			"target":34963
		},
		{
			"buffer":0,
			"byteLength":492,
			"byteOffset":38384,
			"target":34962
		},
		{
			"buffer":0,
			"byteLength":492,
			"byteOffset":38876,
			"target":34962
		},
		{
			"buffer":0,
			"byteLength":328,
			"byteOffset":39368,
			"target":34962
		},
		{
			"buffer":0,
			"byteLength":144,
			"byteOffset":39696,
			"target":34963
		},
		{
			"buffer":0,
			"byteLength":192,
			"byteOffset":39840,
			"target":34962
		},
		{
			"buffer":0,
			"byteLength":192,
			"byteOffset":40032,
			"target":34962
		},
		{
			"buffer":0,
			"byteLength":128,
			"byteOffset":40224,
			"target":34962
		},
		{
			"buffer":0,
			"byteLength":48,
			"byteOffset":40352,
			"target":34963
		}
	],
	"buffers":[
		{
			"byteLength":40400,
			"uri":"data:application/octet-stream;base64,"
		}
	]
}
