{
	"asset":{
		"generator":"Khronos glTF Blender I/O v3.6.28",
		"version":"2.0"
	},
	"scene":0,
	"scenes":[
		{
			"name":"Scene",
			"nodes":[
				0
			]
		}
	],
	"nodes":[
		{
			"mesh":0,
			"name":"\u043c\u0438\u0440\u043d\u044b\u0439",
			"translation":[
				0,
				-0.004666948225349188,
				0
			]
		}
	],
	"materials":[
		{
			"doubleSided":true,
			"name":"osn",
			"pbrMetallicRoughness":{
				"baseColorFactor":[
					0.17144113779067993,
					0.2746773660182953,
					0.1247718334197998,
					1
				],
				"metallicFactor":0,
				"roughnessFactor":0.5
			}
		},
		{
			"doubleSided":true,
			"name":"underosn",
			"pbrMetallicRoughness":{
				"baseColorFactor":[
					0.19120171666145325,
					0.11193244159221649,
					0.09758733212947845,
					1
				],
				"metallicFactor":0,
				"roughnessFactor":0.5
			}
		},
		{
			"doubleSided":true,
			"name":"osn-2",
			"pbrMetallicRoughness":{
				"baseColorFactor":[
					0.17151030898094177,
					0.29630887508392334,
					0.1398809403181076,
					1
				],
				"metallicFactor":0,
				"roughnessFactor":0.5
			}
		},
		{
			"doubleSided":true,
			"name":"lightosn",
			"pbrMetallicRoughness":{
				"baseColorFactor":[
					0.22696588933467865,
					0.34191450476646423,
					0.14412851631641388,
					1
				],
				"metallicFactor":0,
				"roughnessFactor":0.5
			}
		},
		{
			"doubleSided":true,
			"name":"onlightosn",
			"pbrMetallicRoughness":{
				"baseColorFactor":[
					0.14995980262756348,
					0.2541521489620209,
					0.12213879823684692,
					1
				],
				"metallicFactor":0,
				"roughnessFactor":0.5
			}
		},
		{
			"doubleSided":true,
			"name":"shadosn",
			"pbrMetallicRoughness":{
				"baseColorFactor":[
					0.06301002949476242,
					0.14412851631641388,
					0.10224173218011856,
					1
				],
				"metallicFactor":0,
				"roughnessFactor":0.5
			}
		},
		{
			"doubleSided":true,
			"name":"normal-tree",
			"pbrMetallicRoughness":{
				"baseColorFactor":[
					0.10702310502529144,
					0.22322800755500793,
					0.10224173218011856,
					1
				],
				"metallicFactor":0,
				"roughnessFactor":0.5
			}
		},
		{
			"doubleSided":true,
			"name":"osn-tree",
			"pbrMetallicRoughness":{
				"baseColorFactor":[
					0.23455063998699188,
					0.12743771076202393,
					0.05126946046948433,
					1
				],
				"metallicFactor":0,
				"roughnessFactor":0.5
			}
		},
		{
			"doubleSided":true,
			"name":"shad-tree",
			"pbrMetallicRoughness":{
				"baseColorFactor":[
					0.09305897355079651,
					0.2195262312889099,
					0.09758733212947845,
					1
				],
				"metallicFactor":0,
				"roughnessFactor":0.5
			}
		},
		{
			"doubleSided":true,
			"name":"rock",
			"pbrMetallicRoughness":{
				"baseColorFactor":[
					0.3813260495662689,
					0.34670406579971313,
					0.26225075125694275,
					1
				],
				"metallicFactor":0,
				"roughnessFactor":0.5
			}
		},
		{
			"doubleSided":true,
			"name":"rock-sh",
			"pbrMetallicRoughness":{
				"baseColorFactor":[
					0.2195262312889099,
					0.19120171666145325,
					0.1384316384792328,
					1
				],
				"metallicFactor":0,
				"roughnessFactor":0.5
			}
		},
		{
			"doubleSided":true,
			"name":"normal-kus",
			"pbrMetallicRoughness":{
				"baseColorFactor":[
					0.10702310502529144,
					0.18116427958011627,
					0.07818741351366043,
					1
				],
				"metallicFactor":0,
				"roughnessFactor":0.5
			}
		},
		{
			"doubleSided":true,
			"name":"shad-kus",
			"pbrMetallicRoughness":{
				"baseColorFactor":[
					0.06171619892120361,
					0.10226551443338394,
					0.04822072759270668,
					1
				],
				"metallicFactor":0,
				"roughnessFactor":0.5
			}
		},
		{
			"doubleSided":true,
			"name":"light-kus",
			"pbrMetallicRoughness":{
				"baseColorFactor":[
					0.1247718334197998,
					0.22322800755500793,
					0.09305897355079651,
					1
				],
				"metallicFactor":0,
				"roughnessFactor":0.5
			}
		}
	],
	"meshes":[
		{
			"name":"Vert.022",
			"primitives":[
				{
					"attributes":{
						"POSITION":0,
						"NORMAL":1,
						"TEXCOORD_0":2
					},
					"indices":3,
					"material":0
				},
				{
					"attributes":{
						"POSITION":4,
						"NORMAL":5,
						"TEXCOORD_0":6
					},
					"indices":7,
					"material":1
				},
				{
					"attributes":{
						"POSITION":8,
						"NORMAL":9,
						"TEXCOORD_0":10
					},
					"indices":11,
					"material":2
				},
				{
					"attributes":{
						"POSITION":12,
						"NORMAL":13,
						"TEXCOORD_0":14
					},
					"indices":15,
					"material":3
				},
				{
					"attributes":{
						"POSITION":16,
						"NORMAL":17,
						"TEXCOORD_0":18
					},
					"indices":19,
					"material":4
				},
				{
					"attributes":{
						"POSITION":20,
						"NORMAL":21,
						"TEXCOORD_0":22
					},
					"indices":23,
					"material":5
				},
				{
					"attributes":{
						"POSITION":24,
						"NORMAL":25,
						"TEXCOORD_0":26
					},
					"indices":27,
					"material":6
				},
				{
					"attributes":{
						"POSITION":28,
						"NORMAL":29,
						"TEXCOORD_0":30
					},
					"indices":31,
					"material":7
				},
				{
					"attributes":{
						"POSITION":32,
						"NORMAL":33,
						"TEXCOORD_0":34
					},
					"indices":35,
					"material":8
				},
				{
					"attributes":{
						"POSITION":36,
						"NORMAL":37,
						"TEXCOORD_0":38
					},
					"indices":39,
					"material":9
				},
				{
					"attributes":{
						"POSITION":40,
						"NORMAL":41,
						"TEXCOORD_0":42
					},
					"indices":43,
					"material":10
				},
				{
					"attributes":{
						"POSITION":44,
						"NORMAL":45,
						"TEXCOORD_0":46
					},
					"indices":47,
					"material":11
				},
				{
					"attributes":{
						"POSITION":48,
						"NORMAL":49,
						"TEXCOORD_0":50
					},
					"indices":51,
					"material":12
				},
				{
					"attributes":{
						"POSITION":52,
						"NORMAL":53,
						"TEXCOORD_0":54
					},
					"indices":55,
					"material":13
				}
			]
		}
	],
	"accessors":[
		{
			"bufferView":0,
			"componentType":5126,
			"count":731,
			"max":[
				-3.6535892486572266,
				0.16087189316749573,
				2.7582857608795166
			],
			"min":[
				-5.537134647369385,
				0.08276960253715515,
				-0.38301515579223633
			],
			"type":"VEC3"
		},
		{
			"bufferView":1,
			"componentType":5126,
			"count":731,
			"type":"VEC3"
		},
		{
			"bufferView":2,
			"componentType":5126,
			"count":731,
			"type":"VEC2"
		},
		{
			"bufferView":3,
			"componentType":5123,
			"count":1128,
			"type":"SCALAR"
		},
		{
			"bufferView":4,
			"componentType":5126,
			"count":968,
			"max":[
				-3.6535892486572266,
				0.08276960253715515,
				2.7582857608795166
			],
			"min":[
				-5.537134647369385,
				0.004667308181524277,
				-0.38301515579223633
			],
			"type":"VEC3"
		},
		{
			"bufferView":5,
			"componentType":5126,
			"count":968,
			"type":"VEC3"
		},
		{
			"bufferView":6,
			"componentType":5126,
			"count":968,
			"type":"VEC2"
		},
		{
			"bufferView":7,
			"componentType":5123,
			"count":2076,
			"type":"SCALAR"
		},
		{
			"bufferView":8,
			"componentType":5126,
			"count":34,
			"max":[
				-3.722490072250366,
				0.16087189316749573,
				2.231276512145996
			],
			"min":[
				-5.3479743003845215,
				0.16087189316749573,
				-0.08747774362564087
			],
			"type":"VEC3"
		},
		{
			"bufferView":9,
			"componentType":5126,
			"count":34,
			"type":"VEC3"
		},
		{
			"bufferView":10,
			"componentType":5126,
			"count":34,
			"type":"VEC2"
		},
		{
			"bufferView":11,
			"componentType":5123,
			"count":90,
			"type":"SCALAR"
		},
		{
			"bufferView":12,
			"componentType":5126,
			"count":30,
			"max":[
				-3.8018791675567627,
				0.16087189316749573,
				2.5784950256347656
			],
			"min":[
				-5.42331075668335,
				0.16087189316749573,
				0.26178959012031555
			],
			"type":"VEC3"
		},
		{
			"bufferView":13,
			"componentType":5126,
			"count":30,
			"type":"VEC3"
		},
		{
			"bufferView":14,
			"componentType":5126,
			"count":30,
			"type":"VEC2"
		},
		{
			"bufferView":15,
			"componentType":5123,
			"count":84,
			"type":"SCALAR"
		},
		{
			"bufferView":16,
			"componentType":5126,
			"count":48,
			"max":[
				-3.7539308071136475,
				0.16087189316749573,
				2.625917434692383
			],
			"min":[
				-5.3964152336120605,
				0.16087189316749573,
				-0.16490013897418976
			],
			"type":"VEC3"
		},
		{
			"bufferView":17,
			"componentType":5126,
			"count":48,
			"type":"VEC3"
		},
		{
			"bufferView":18,
			"componentType":5126,
			"count":48,
			"type":"VEC2"
		},
		{
			"bufferView":19,
			"componentType":5123,
			"count":120,
			"type":"SCALAR"
		},
		{
			"bufferView":20,
			"componentType":5126,
			"count":222,
			"max":[
				-3.6535892486572266,
				0.16087189316749573,
				2.7582857608795166
			],
			"min":[
				-5.537134647369385,
				0.16087189316749573,
				-0.38301515579223633
			],
			"type":"VEC3"
		},
		{
			"bufferView":21,
			"componentType":5126,
			"count":222,
			"type":"VEC3"
		},
		{
			"bufferView":22,
			"componentType":5126,
			"count":222,
			"type":"VEC2"
		},
		{
			"bufferView":23,
			"componentType":5123,
			"count":654,
			"type":"SCALAR"
		},
		{
			"bufferView":24,
			"componentType":5126,
			"count":1344,
			"max":[
				-3.7112088203430176,
				0.5371230840682983,
				2.662452220916748
			],
			"min":[
				-5.332897186279297,
				0.18404023349285126,
				-0.24574144184589386
			],
			"type":"VEC3"
		},
		{
			"bufferView":25,
			"componentType":5126,
			"count":1344,
			"type":"VEC3"
		},
		{
			"bufferView":26,
			"componentType":5126,
			"count":1344,
			"type":"VEC2"
		},
		{
			"bufferView":27,
			"componentType":5123,
			"count":2184,
			"type":"SCALAR"
		},
		{
			"bufferView":28,
			"componentType":5126,
			"count":287,
			"max":[
				-3.844008207321167,
				0.22112968564033508,
				2.5224621295928955
			],
			"min":[
				-5.323395729064941,
				0.1517753005027771,
				-0.10575133562088013
			],
			"type":"VEC3"
		},
		{
			"bufferView":29,
			"componentType":5126,
			"count":287,
			"type":"VEC3"
		},
		{
			"bufferView":30,
			"componentType":5126,
			"count":287,
			"type":"VEC2"
		},
		{
			"bufferView":31,
			"componentType":5123,
			"count":504,
			"type":"SCALAR"
		},
		{
			"bufferView":32,
			"componentType":5126,
			"count":1246,
			"max":[
				-3.844768524169922,
				0.5371230840682983,
				2.662452220916748
			],
			"min":[
				-5.456194877624512,
				0.18404023349285126,
				-0.24574144184589386
			],
			"type":"VEC3"
		},
		{
			"bufferView":33,
			"componentType":5126,
			"count":1246,
			"type":"VEC3"
		},
		{
			"bufferView":34,
			"componentType":5126,
			"count":1246,
			"type":"VEC2"
		},
		{
			"bufferView":35,
			"componentType":5123,
			"count":2016,
			"type":"SCALAR"
		},
		{
			"bufferView":36,
			"componentType":5126,
			"count":39,
			"max":[
				-4.389878273010254,
				0.26193803548812866,
				2.4368209838867188
			],
			"min":[
				-4.632244110107422,
				0.15669399499893188,
				2.2026255130767822
			],
			"type":"VEC3"
		},
		{
			"bufferView":37,
			"componentType":5126,
			"count":39,
			"type":"VEC3"
		},
		{
			"bufferView":38,
			"componentType":5126,
			"count":39,
			"type":"VEC2"
		},
		{
			"bufferView":39,
			"componentType":5123,
			"count":72,
			"type":"SCALAR"
		},
		{
			"bufferView":40,
			"componentType":5126,
			"count":104,
			"max":[
				-4.389878273010254,
				0.28672754764556885,
				2.4368209838867188
			],
			"min":[
				-4.632244110107422,
				0.15669399499893188,
				2.2006587982177734
			],
			"type":"VEC3"
		},
		{
			"bufferView":41,
			"componentType":5126,
			"count":104,
			"type":"VEC3"
		},
		{
			"bufferView":42,
			"componentType":5126,
			"count":104,
			"type":"VEC2"
		},
		{
			"bufferView":43,
			"componentType":5123,
			"count":156,
			"type":"SCALAR"
		},
		{
			"bufferView":44,
			"componentType":5126,
			"count":384,
			"max":[
				-3.9268405437469482,
				0.23747479915618896,
				2.5753278732299805
			],
			"min":[
				-5.202648162841797,
				0.16164769232273102,
				-0.10985185950994492
			],
			"type":"VEC3"
		},
		{
			"bufferView":45,
			"componentType":5126,
			"count":384,
			"type":"VEC3"
		},
		{
			"bufferView":46,
			"componentType":5126,
			"count":384,
			"type":"VEC2"
		},
		{
			"bufferView":47,
			"componentType":5123,
			"count":576,
			"type":"SCALAR"
		},
		{
			"bufferView":48,
			"componentType":5126,
			"count":246,
			"max":[
				-3.9268405437469482,
				0.18283608555793762,
				2.5753278732299805
			],
			"min":[
				-5.202648162841797,
				0.14878268539905548,
				-0.10985185950994492
			],
			"type":"VEC3"
		},
		{
			"bufferView":49,
			"componentType":5126,
			"count":246,
			"type":"VEC3"
		},
		{
			"bufferView":50,
			"componentType":5126,
			"count":246,
			"type":"VEC2"
		},
		{
			"bufferView":51,
			"componentType":5123,
			"count":432,
			"type":"SCALAR"
		},
		{
			"bufferView":52,
			"componentType":5126,
			"count":96,
			"max":[
				-3.943777322769165,
				0.2528783679008484,
				2.551020622253418
			],
			"min":[
				-5.1785407066345215,
				0.19735296070575714,
				-0.08332334458827972
			],
			"type":"VEC3"
		},
		{
			"bufferView":53,
			"componentType":5126,
			"count":96,
			"type":"VEC3"
		},
		{
			"bufferView":54,
			"componentType":5126,
			"count":96,
			"type":"VEC2"
		},
		{
			"bufferView":55,
			"componentType":5123,
			"count":144,
			"type":"SCALAR"
		}
	],
	"bufferViews":[
		{
			"buffer":0,
			"byteLength":8772,
			"byteOffset":0,
			"target":34962
		},
		{
			"buffer":0,
			"byteLength":8772,
			"byteOffset":8772,
			"target":34962
		},
		{
			"buffer":0,
			"byteLength":5848,
			"byteOffset":17544,
			"target":34962
		},
		{
			"buffer":0,
			"byteLength":2256,
			"byteOffset":23392,
			"target":34963
		},
		{
			"buffer":0,
			"byteLength":11616,
			"byteOffset":25648,
			"target":34962
		},
		{
			"buffer":0,
			"byteLength":11616,
			"byteOffset":37264,
			"target":34962
		},
		{
			"buffer":0,
			"byteLength":7744,
			"byteOffset":48880,
			"target":34962
		},
		{
			"buffer":0,
			"byteLength":4152,
			"byteOffset":56624,
			"target":34963
		},
		{
			"buffer":0,
			"byteLength":408,
			"byteOffset":60776,
			"target":34962
		},
		{
			"buffer":0,
			"byteLength":408,
			"byteOffset":61184,
			"target":34962
		},
		{
			"buffer":0,
			"byteLength":272,
			"byteOffset":61592,
			"target":34962
		},
		{
			"buffer":0,
			"byteLength":180,
			"byteOffset":61864,
			"target":34963
		},
		{
			"buffer":0,
			"byteLength":360,
			"byteOffset":62044,
			"target":34962
		},
		{
			"buffer":0,
			"byteLength":360,
			"byteOffset":62404,
			"target":34962
		},
		{
			"buffer":0,
			"byteLength":240,
			"byteOffset":62764,
			"target":34962
		},
		{
			"buffer":0,
			"byteLength":168,
			"byteOffset":63004,
			"target":34963
		},
		{
			"buffer":0,
			"byteLength":576,
			"byteOffset":63172,
			"target":34962
		},
		{
			"buffer":0,
			"byteLength":576,
			"byteOffset":63748,
			"target":34962
		},
		{
			"buffer":0,
			"byteLength":384,
			"byteOffset":64324,
			"target":34962
		},
		{
			"buffer":0,
			"byteLength":240,
			"byteOffset":64708,
			"target":34963
		},
		{
			"buffer":0,
			"byteLength":2664,
			"byteOffset":64948,
			"target":34962
		},
		{
			"buffer":0,
			"byteLength":2664,
			"byteOffset":67612,
			"target":34962
		},
		{
			"buffer":0,
			"byteLength":1776,
			"byteOffset":70276,
			"target":34962
		},
		{
			"buffer":0,
			"byteLength":1308,
			"byteOffset":72052,
			"target":34963
		},
		{
			"buffer":0,
			"byteLength":16128,
			"byteOffset":73360,
			"target":34962
		},
		{
			"buffer":0,
			"byteLength":16128,
			"byteOffset":89488,
			"target":34962
		},
		{
			"buffer":0,
			"byteLength":10752,
			"byteOffset":105616,
			"target":34962
		},
		{
			"buffer":0,
			"byteLength":4368,
			"byteOffset":116368,
			"target":34963
		},
		{
			"buffer":0,
			"byteLength":3444,
			"byteOffset":120736,
			"target":34962
		},
		{
			"buffer":0,
			"byteLength":3444,
			"byteOffset":124180,
			"target":34962
		},
		{
			"buffer":0,
			"byteLength":2296,
			"byteOffset":127624,
			"target":34962
		},
		{
			"buffer":0,
			"byteLength":1008,
			"byteOffset":129920,
			"target":34963
		},
		{
			"buffer":0,
			"byteLength":14952,
			"byteOffset":130928,
			"target":34962
		},
		{
			"buffer":0,
			"byteLength":14952,
			"byteOffset":145880,
			"target":34962
		},
		{
			"buffer":0,
			"byteLength":9968,
			"byteOffset":160832,
			"target":34962
		},
		{
			"buffer":0,
			"byteLength":4032,
			"byteOffset":170800,
			"target":34963
		},
		{
			"buffer":0,
			"byteLength":468,
			"byteOffset":174832,
			"target":34962
		},
		{
			"buffer":0,
			"byteLength":468,
			"byteOffset":175300,
			"target":34962
		},
		{
			"buffer":0,
			"byteLength":312,
			"byteOffset":175768,
			"target":34962
		},
		{
			"buffer":0,
			"byteLength":144,
			"byteOffset":176080,
			"target":34963
		},
		{
			"buffer":0,
			"byteLength":1248,
			"byteOffset":176224,
			"target":34962
		},
		{
			"buffer":0,
			"byteLength":1248,
			"byteOffset":177472,
			"target":34962
		},
		{
			"buffer":0,
			"byteLength":832,
			"byteOffset":178720,
			"target":34962
		},
		{
			"buffer":0,
			"byteLength":312,
			"byteOffset":179552,
			"target":34963
		},
		{
			"buffer":0,
			"byteLength":4608,
			"byteOffset":179864,
			"target":34962
		},
		{
			"buffer":0,
			"byteLength":4608,
			"byteOffset":184472,
			"target":34962
		},
		{
			"buffer":0,
			"byteLength":3072,
			"byteOffset":189080,
			"target":34962
		},
		{
			"buffer":0,
			"byteLength":1152,
			"byteOffset":192152,
			"target":34963
		},
		{
			"buffer":0,
			"byteLength":2952,
			"byteOffset":193304,
			"target":34962
		},
		{
			"buffer":0,
			"byteLength":2952,
			"byteOffset":196256,
			"target":34962
		},
		{
			"buffer":0,
			"byteLength":1968,
			"byteOffset":199208,
			"target":34962
		},
		{
			"buffer":0,
			"byteLength":864,
			"byteOffset":201176,
			"target":34963
		},
		{
			"buffer":0,
			"byteLength":1152,
			"byteOffset":202040,
			"target":34962
		},
		{
			"buffer":0,
			"byteLength":1152,
			"byteOffset":203192,
			"target":34962
		},
		{
			"buffer":0,
			"byteLength":768,
			"byteOffset":204344,
			"target":34962
		},
		{
			"buffer":0,
			"byteLength":288,
			"byteOffset":205112,
			"target":34963
		}
	],
	"buffers":[
		{
			"byteLength":205400,
			"uri":"data:application/octet-stream;base64,"
		}
	]
}
