{
	"asset":{
		"generator":"Khronos glTF Blender I/O v3.6.28",
		"version":"2.0"
	},
	"scene":0,
	"scenes":[
		{
			"name":"Scene",
			"nodes":[
				0
			]
		}
	],
	"nodes":[
		{
			"mesh":0,
			"name":"\u043d\u0430\u043c\u0446\u044b"
		}
	],
	"materials":[
		{
			"doubleSided":true,
			"name":"osn",
			"pbrMetallicRoughness":{
				"baseColorFactor":[
					0.17144113779067993,
					0.2746773660182953,
					0.1247718334197998,
					1
				],
				"metallicFactor":0,
				"roughnessFactor":0.5
			}
		},
		{
			"doubleSided":true,
			"name":"lightosn",
			"pbrMetallicRoughness":{
				"baseColorFactor":[
					0.22696588933467865,
					0.34191450476646423,
					0.14412851631641388,
					1
				],
				"metallicFactor":0,
				"roughnessFactor":0.5
			}
		},
		{
			"doubleSided":true,
			"name":"onlightosn",
			"pbrMetallicRoughness":{
				"baseColorFactor":[
					0.14995980262756348,
					0.2541521489620209,
					0.12213879823684692,
					1
				],
				"metallicFactor":0,
				"roughnessFactor":0.5
			}
		},
		{
			"doubleSided":true,
			"name":"osn-2",
			"pbrMetallicRoughness":{
				"baseColorFactor":[
					0.17151030898094177,
					0.29630887508392334,
					0.1398809403181076,
					1
				],
				"metallicFactor":0,
				"roughnessFactor":0.5
			}
		},
		{
			"doubleSided":true,
			"name":"shadosn",
			"pbrMetallicRoughness":{
				"baseColorFactor":[
					0.06301002949476242,
					0.14412851631641388,
					0.10224173218011856,
					1
				],
				"metallicFactor":0,
				"roughnessFactor":0.5
			}
		},
		{
			"doubleSided":true,
			"name":"underosn",
			"pbrMetallicRoughness":{
				"baseColorFactor":[
					0.19120171666145325,
					0.11193244159221649,
					0.09758733212947845,
					1
				],
				"metallicFactor":0,
				"roughnessFactor":0.5
			}
		},
		{
			"doubleSided":true,
			"name":"normal-tree",
			"pbrMetallicRoughness":{
				"baseColorFactor":[
					0.10702310502529144,
					0.22322800755500793,
					0.10224173218011856,
					1
				],
				"metallicFactor":0,
				"roughnessFactor":0.5
			}
		},
		{
			"doubleSided":true,
			"name":"osn-tree",
			"pbrMetallicRoughness":{
				"baseColorFactor":[
					0.23455063998699188,
					0.12743771076202393,
					0.05126946046948433,
					1
				],
				"metallicFactor":0,
				"roughnessFactor":0.5
			}
		},
		{
			"doubleSided":true,
			"name":"shad-tree",
			"pbrMetallicRoughness":{
				"baseColorFactor":[
					0.09305897355079651,
					0.2195262312889099,
					0.09758733212947845,
					1
				],
				"metallicFactor":0,
				"roughnessFactor":0.5
			}
		},
		{
			"doubleSided":true,
			"name":"normal-kus",
			"pbrMetallicRoughness":{
				"baseColorFactor":[
					0.10702310502529144,
					0.18116427958011627,
					0.07818741351366043,
					1
				],
				"metallicFactor":0,
				"roughnessFactor":0.5
			}
		},
		{
			"doubleSided":true,
			"name":"shad-kus",
			"pbrMetallicRoughness":{
				"baseColorFactor":[
					0.06171619892120361,
					0.10226551443338394,
					0.04822072759270668,
					1
				],
				"metallicFactor":0,
				"roughnessFactor":0.5
			}
		},
		{
			"doubleSided":true,
			"name":"light-kus",
			"pbrMetallicRoughness":{
				"baseColorFactor":[
					0.1247718334197998,
					0.22322800755500793,
					0.09305897355079651,
					1
				],
				"metallicFactor":0,
				"roughnessFactor":0.5
			}
		}
	],
	"meshes":[
		{
			"name":"Vert.023",
			"primitives":[
				{
					"attributes":{
						"POSITION":0,
						"NORMAL":1,
						"TEXCOORD_0":2
					},
					"indices":3,
					"material":0
				},
				{
					"attributes":{
						"POSITION":4,
						"NORMAL":5,
						"TEXCOORD_0":6
					},
					"indices":7,
					"material":1
				},
				{
					"attributes":{
						"POSITION":8,
						"NORMAL":9,
						"TEXCOORD_0":10
					},
					"indices":11,
					"material":2
				},
				{
					"attributes":{
						"POSITION":12,
						"NORMAL":13,
						"TEXCOORD_0":14
					},
					"indices":15,
					"material":3
				},
				{
					"attributes":{
						"POSITION":16,
						"NORMAL":17,
						"TEXCOORD_0":18
					},
					"indices":19,
					"material":4
				},
				{
					"attributes":{
						"POSITION":20,
						"NORMAL":21,
						"TEXCOORD_0":22
					},
					"indices":23,
					"material":5
				},
				{
					"attributes":{
						"POSITION":24,
						"NORMAL":25,
						"TEXCOORD_0":26
					},
					"indices":27,
					"material":6
				},
				{
					"attributes":{
						"POSITION":28,
						"NORMAL":29,
						"TEXCOORD_0":30
					},
					"indices":31,
					"material":7
				},
				{
					"attributes":{
						"POSITION":32,
						"NORMAL":33,
						"TEXCOORD_0":34
					},
					"indices":35,
					"material":8
				},
				{
					"attributes":{
						"POSITION":36,
						"NORMAL":37,
						"TEXCOORD_0":38
					},
					"indices":39,
					"material":9
				},
				{
					"attributes":{
						"POSITION":40,
						"NORMAL":41,
						"TEXCOORD_0":42
					},
					"indices":43,
					"material":10
				},
				{
					"attributes":{
						"POSITION":44,
						"NORMAL":45,
						"TEXCOORD_0":46
					},
					"indices":47,
					"material":11
				}
			]
		}
	],
	"accessors":[
		{
			"bufferView":0,
			"componentType":5126,
			"count":134,
			"max":[
				0.10984430462121964,
				0.15620458126068115,
				2.028668165206909
			],
			"min":[
				-0.46204131841659546,
				0,
				1.3596391677856445
			],
			"type":"VEC3"
		},
		{
			"bufferView":1,
			"componentType":5126,
			"count":134,
			"type":"VEC3"
		},
		{
			"bufferView":2,
			"componentType":5126,
			"count":134,
			"type":"VEC2"
		},
		{
			"bufferView":3,
			"componentType":5123,
			"count":204,
			"type":"SCALAR"
		},
		{
			"bufferView":4,
			"componentType":5126,
			"count":4,
			"max":[
				-0.012612124904990196,
				0.15620458126068115,
				1.8665772676467896
			],
			"min":[
				-0.3778007924556732,
				0.15620458126068115,
				1.4071143865585327
			],
			"type":"VEC3"
		},
		{
			"bufferView":5,
			"componentType":5126,
			"count":4,
			"type":"VEC3"
		},
		{
			"bufferView":6,
			"componentType":5126,
			"count":4,
			"type":"VEC2"
		},
		{
			"bufferView":7,
			"componentType":5123,
			"count":6,
			"type":"SCALAR"
		},
		{
			"bufferView":8,
			"componentType":5126,
			"count":8,
			"max":[
				0.08706171810626984,
				0.15620458126068115,
				1.9645922183990479
			],
			"min":[
				-0.1870298981666565,
				0.15620458126068115,
				1.6833531856536865
			],
			"type":"VEC3"
		},
		{
			"bufferView":9,
			"componentType":5126,
			"count":8,
			"type":"VEC3"
		},
		{
			"bufferView":10,
			"componentType":5126,
			"count":8,
			"type":"VEC2"
		},
		{
			"bufferView":11,
			"componentType":5123,
			"count":18,
			"type":"SCALAR"
		},
		{
			"bufferView":12,
			"componentType":5126,
			"count":7,
			"max":[
				-0.026851244270801544,
				0.15620458126068115,
				1.9634056091308594
			],
			"min":[
				-0.38555335998535156,
				0.15620458126068115,
				1.4071143865585327
			],
			"type":"VEC3"
		},
		{
			"bufferView":13,
			"componentType":5126,
			"count":7,
			"type":"VEC3"
		},
		{
			"bufferView":14,
			"componentType":5126,
			"count":7,
			"type":"VEC2"
		},
		{
			"bufferView":15,
			"componentType":5123,
			"count":12,
			"type":"SCALAR"
		},
		{
			"bufferView":16,
			"componentType":5126,
			"count":25,
			"max":[
				0.10842039436101913,
				0.15620458126068115,
				2.028668165206909
			],
			"min":[
				-0.46204131841659546,
				0.15620458126068115,
				1.3596391677856445
			],
			"type":"VEC3"
		},
		{
			"bufferView":17,
			"componentType":5126,
			"count":25,
			"type":"VEC3"
		},
		{
			"bufferView":18,
			"componentType":5126,
			"count":25,
			"type":"VEC2"
		},
		{
			"bufferView":19,
			"componentType":5123,
			"count":54,
			"type":"SCALAR"
		},
		{
			"bufferView":20,
			"componentType":5126,
			"count":145,
			"max":[
				0.10984430462121964,
				0.07810229063034058,
				2.028668165206909
			],
			"min":[
				-0.46204131841659546,
				0,
				1.3596391677856445
			],
			"type":"VEC3"
		},
		{
			"bufferView":21,
			"componentType":5126,
			"count":145,
			"type":"VEC3"
		},
		{
			"bufferView":22,
			"componentType":5126,
			"count":145,
			"type":"VEC2"
		},
		{
			"bufferView":23,
			"componentType":5123,
			"count":270,
			"type":"SCALAR"
		},
		{
			"bufferView":24,
			"componentType":5126,
			"count":192,
			"max":[
				-0.10053668916225433,
				0.5324561595916748,
				1.951359510421753
			],
			"min":[
				-0.27407023310661316,
				0.1890220195055008,
				1.6384551525115967
			],
			"type":"VEC3"
		},
		{
			"bufferView":25,
			"componentType":5126,
			"count":192,
			"type":"VEC3"
		},
		{
			"bufferView":26,
			"componentType":5126,
			"count":192,
			"type":"VEC2"
		},
		{
			"bufferView":27,
			"componentType":5123,
			"count":312,
			"type":"SCALAR"
		},
		{
			"bufferView":28,
			"componentType":5126,
			"count":41,
			"max":[
				-0.2333359271287918,
				0.21646273136138916,
				1.8113694190979004
			],
			"min":[
				-0.26456883549690247,
				0.14710834622383118,
				1.7784452438354492
			],
			"type":"VEC3"
		},
		{
			"bufferView":29,
			"componentType":5126,
			"count":41,
			"type":"VEC3"
		},
		{
			"bufferView":30,
			"componentType":5126,
			"count":41,
			"type":"VEC2"
		},
		{
			"bufferView":31,
			"componentType":5123,
			"count":72,
			"type":"SCALAR"
		},
		{
			"bufferView":32,
			"componentType":5126,
			"count":178,
			"max":[
				-0.23409618437290192,
				0.5324561595916748,
				1.951359510421753
			],
			"min":[
				-0.39736807346343994,
				0.1890220195055008,
				1.6384551525115967
			],
			"type":"VEC3"
		},
		{
			"bufferView":33,
			"componentType":5126,
			"count":178,
			"type":"VEC3"
		},
		{
			"bufferView":34,
			"componentType":5126,
			"count":178,
			"type":"VEC2"
		},
		{
			"bufferView":35,
			"componentType":5123,
			"count":288,
			"type":"SCALAR"
		},
		{
			"bufferView":36,
			"componentType":5126,
			"count":128,
			"max":[
				0.09920467436313629,
				0.23280784487724304,
				1.9756555557250977
			],
			"min":[
				-0.32134655117988586,
				0.16613662242889404,
				1.495625615119934
			],
			"type":"VEC3"
		},
		{
			"bufferView":37,
			"componentType":5126,
			"count":128,
			"type":"VEC3"
		},
		{
			"bufferView":38,
			"componentType":5126,
			"count":128,
			"type":"VEC2"
		},
		{
			"bufferView":39,
			"componentType":5123,
			"count":192,
			"type":"SCALAR"
		},
		{
			"bufferView":40,
			"componentType":5126,
			"count":82,
			"max":[
				0.09920467436313629,
				0.1781691312789917,
				1.9756555557250977
			],
			"min":[
				-0.32134655117988586,
				0.1478251814842224,
				1.495625615119934
			],
			"type":"VEC3"
		},
		{
			"bufferView":41,
			"componentType":5126,
			"count":82,
			"type":"VEC3"
		},
		{
			"bufferView":42,
			"componentType":5126,
			"count":82,
			"type":"VEC2"
		},
		{
			"bufferView":43,
			"componentType":5123,
			"count":144,
			"type":"SCALAR"
		},
		{
			"bufferView":44,
			"componentType":5126,
			"count":32,
			"max":[
				0.06804254651069641,
				0.24821141362190247,
				1.945370078086853
			],
			"min":[
				-0.2972395420074463,
				0.21695777773857117,
				1.5221540927886963
			],
			"type":"VEC3"
		},
		{
			"bufferView":45,
			"componentType":5126,
			"count":32,
			"type":"VEC3"
		},
		{
			"bufferView":46,
			"componentType":5126,
			"count":32,
			"type":"VEC2"
		},
		{
			"bufferView":47,
			"componentType":5123,
			"count":48,
			"type":"SCALAR"
		}
	],
	"bufferViews":[
		{
			"buffer":0,
			"byteLength":1608,
			"byteOffset":0,
			"target":34962
		},
		{
			"buffer":0,
			"byteLength":1608,
			"byteOffset":1608,
			"target":34962
		},
		{
			"buffer":0,
			"byteLength":1072,
			"byteOffset":3216,
			"target":34962
		},
		{
			"buffer":0,
			"byteLength":408,
			"byteOffset":4288,
			"target":34963
		},
		{
			"buffer":0,
			"byteLength":48,
			"byteOffset":4696,
			"target":34962
		},
		{
			"buffer":0,
			"byteLength":48,
			"byteOffset":4744,
			"target":34962
		},
		{
			"buffer":0,
			"byteLength":32,
			"byteOffset":4792,
			"target":34962
		},
		{
			"buffer":0,
			"byteLength":12,
			"byteOffset":4824,
			"target":34963
		},
		{
			"buffer":0,
			"byteLength":96,
			"byteOffset":4836,
			"target":34962
		},
		{
			"buffer":0,
			"byteLength":96,
			"byteOffset":4932,
			"target":34962
		},
		{
			"buffer":0,
			"byteLength":64,
			"byteOffset":5028,
			"target":34962
		},
		{
			"buffer":0,
			"byteLength":36,
			"byteOffset":5092,
			"target":34963
		},
		{
			"buffer":0,
			"byteLength":84,
			"byteOffset":5128,
			"target":34962
		},
		{
			"buffer":0,
			"byteLength":84,
			"byteOffset":5212,
			"target":34962
		},
		{
			"buffer":0,
			"byteLength":56,
			"byteOffset":5296,
			"target":34962
		},
		{
			"buffer":0,
			"byteLength":24,
			"byteOffset":5352,
			"target":34963
		},
		{
			"buffer":0,
			"byteLength":300,
			"byteOffset":5376,
			"target":34962
		},
		{
			"buffer":0,
			"byteLength":300,
			"byteOffset":5676,
			"target":34962
		},
		{
			"buffer":0,
			"byteLength":200,
			"byteOffset":5976,
			"target":34962
		},
		{
			"buffer":0,
			"byteLength":108,
			"byteOffset":6176,
			"target":34963
		},
		{
			"buffer":0,
			"byteLength":1740,
			"byteOffset":6284,
			"target":34962
		},
		{
			"buffer":0,
			"byteLength":1740,
			"byteOffset":8024,
			"target":34962
		},
		{
			"buffer":0,
			"byteLength":1160,
			"byteOffset":9764,
			"target":34962
		},
		{
			"buffer":0,
			"byteLength":540,
			"byteOffset":10924,
			"target":34963
		},
		{
			"buffer":0,
			"byteLength":2304,
			"byteOffset":11464,
			"target":34962
		},
		{
			"buffer":0,
			"byteLength":2304,
			"byteOffset":13768,
			"target":34962
		},
		{
			"buffer":0,
			"byteLength":1536,
			"byteOffset":16072,
			"target":34962
		},
		{
			"buffer":0,
			"byteLength":624,
			"byteOffset":17608,
			"target":34963
		},
		{
			"buffer":0,
			"byteLength":492,
			"byteOffset":18232,
			"target":34962
		},
		{
			"buffer":0,
			"byteLength":492,
			"byteOffset":18724,
			"target":34962
		},
		{
			"buffer":0,
			"byteLength":328,
			"byteOffset":19216,
			"target":34962
		},
		{
			"buffer":0,
			"byteLength":144,
			"byteOffset":19544,
			"target":34963
		},
		{
			"buffer":0,
			"byteLength":2136,
			"byteOffset":19688,
			"target":34962
		},
		{
			"buffer":0,
			"byteLength":2136,
			"byteOffset":21824,
			"target":34962
		},
		{
			"buffer":0,
			"byteLength":1424,
			"byteOffset":23960,
			"target":34962
		},
		{
			"buffer":0,
			"byteLength":576,
			"byteOffset":25384,
			"target":34963
		},
		{
			"buffer":0,
			"byteLength":1536,
			"byteOffset":25960,
			"target":34962
		},
		{
			"buffer":0,
			"byteLength":1536,
			"byteOffset":27496,
			"target":34962
		},
		{
			"buffer":0,
			"byteLength":1024,
			"byteOffset":29032,
			"target":34962
		},
		{
			"buffer":0,
			"byteLength":384,
			"byteOffset":30056,
			"target":34963
		},
		{
			"buffer":0,
			"byteLength":984,
			"byteOffset":30440,
			"target":34962
		},
		{
			"buffer":0,
			"byteLength":984,
			"byteOffset":31424,
			"target":34962
		},
		{
			"buffer":0,
			"byteLength":656,
			"byteOffset":32408,
			"target":34962
		},
		{
			"buffer":0,
			"byteLength":288,
			"byteOffset":33064,
			"target":34963
		},
		{
			"buffer":0,
			"byteLength":384,
			"byteOffset":33352,
			"target":34962
		},
		{
			"buffer":0,
			"byteLength":384,
			"byteOffset":33736,
			"target":34962
		},
		{
			"buffer":0,
			"byteLength":256,
			"byteOffset":34120,
			"target":34962
		},
		{
			"buffer":0,
			"byteLength":96,
			"byteOffset":34376,
			"target":34963
		}
	],
	"buffers":[
		{
			"byteLength":34472,
			"uri":"data:application/octet-stream;base64,"
		}
	]
}
