{
	"asset":{
		"generator":"Khronos glTF Blender I/O v3.6.28",
		"version":"2.0"
	},
	"scene":0,
	"scenes":[
		{
			"name":"Scene",
			"nodes":[
				0
			]
		}
	],
	"nodes":[
		{
			"mesh":0,
			"name":"\u043d\u0435\u0440\u044e\u043d\u0433\u0440\u0438",
			"translation":[
				0,
				0.006161533296108246,
				0
			]
		}
	],
	"materials":[
		{
			"doubleSided":true,
			"name":"osn",
			"pbrMetallicRoughness":{
				"baseColorFactor":[
					0.17144113779067993,
					0.2746773660182953,
					0.1247718334197998,
					1
				],
				"metallicFactor":0,
				"roughnessFactor":0.5
			}
		},
		{
			"doubleSided":true,
			"name":"underosn",
			"pbrMetallicRoughness":{
				"baseColorFactor":[
					0.19120171666145325,
					0.11193244159221649,
					0.09758733212947845,
					1
				],
				"metallicFactor":0,
				"roughnessFactor":0.5
			}
		},
		{
			"doubleSided":true,
			"name":"shadosn",
			"pbrMetallicRoughness":{
				"baseColorFactor":[
					0.06301002949476242,
					0.14412851631641388,
					0.10224173218011856,
					1
				],
				"metallicFactor":0,
				"roughnessFactor":0.5
			}
		},
		{
			"doubleSided":true,
			"name":"lightosn",
			"pbrMetallicRoughness":{
				"baseColorFactor":[
					0.22696588933467865,
					0.34191450476646423,
					0.14412851631641388,
					1
				],
				"metallicFactor":0,
				"roughnessFactor":0.5
			}
		},
		{
			"doubleSided":true,
			"name":"onlightosn",
			"pbrMetallicRoughness":{
				"baseColorFactor":[
					0.14995980262756348,
					0.2541521489620209,
					0.12213879823684692,
					1
				],
				"metallicFactor":0,
				"roughnessFactor":0.5
			}
		},
		{
			"doubleSided":true,
			"name":"rock",
			"pbrMetallicRoughness":{
				"baseColorFactor":[
					0.3813260495662689,
					0.34670406579971313,
					0.26225075125694275,
					1
				],
				"metallicFactor":0,
				"roughnessFactor":0.5
			}
		},
		{
			"doubleSided":true,
			"name":"rock-sh",
			"pbrMetallicRoughness":{
				"baseColorFactor":[
					0.2195262312889099,
					0.19120171666145325,
					0.1384316384792328,
					1
				],
				"metallicFactor":0,
				"roughnessFactor":0.5
			}
		},
		{
			"doubleSided":true,
			"name":"normal-tree",
			"pbrMetallicRoughness":{
				"baseColorFactor":[
					0.10702310502529144,
					0.22322800755500793,
					0.10224173218011856,
					1
				],
				"metallicFactor":0,
				"roughnessFactor":0.5
			}
		},
		{
			"doubleSided":true,
			"name":"osn-tree",
			"pbrMetallicRoughness":{
				"baseColorFactor":[
					0.23455063998699188,
					0.12743771076202393,
					0.05126946046948433,
					1
				],
				"metallicFactor":0,
				"roughnessFactor":0.5
			}
		},
		{
			"doubleSided":true,
			"name":"shad-tree",
			"pbrMetallicRoughness":{
				"baseColorFactor":[
					0.09305897355079651,
					0.2195262312889099,
					0.09758733212947845,
					1
				],
				"metallicFactor":0,
				"roughnessFactor":0.5
			}
		},
		{
			"doubleSided":true,
			"name":"normal-kus",
			"pbrMetallicRoughness":{
				"baseColorFactor":[
					0.10702310502529144,
					0.18116427958011627,
					0.07818741351366043,
					1
				],
				"metallicFactor":0,
				"roughnessFactor":0.5
			}
		},
		{
			"doubleSided":true,
			"name":"shad-kus",
			"pbrMetallicRoughness":{
				"baseColorFactor":[
					0.06171619892120361,
					0.10226551443338394,
					0.04822072759270668,
					1
				],
				"metallicFactor":0,
				"roughnessFactor":0.5
			}
		},
		{
			"doubleSided":true,
			"name":"light-kus",
			"pbrMetallicRoughness":{
				"baseColorFactor":[
					0.1247718334197998,
					0.22322800755500793,
					0.09305897355079651,
					1
				],
				"metallicFactor":0,
				"roughnessFactor":0.5
			}
		}
	],
	"meshes":[
		{
			"name":"Vert.021",
			"primitives":[
				{
					"attributes":{
						"POSITION":0,
						"NORMAL":1,
						"TEXCOORD_0":2
					},
					"indices":3,
					"material":0
				},
				{
					"attributes":{
						"POSITION":4,
						"NORMAL":5,
						"TEXCOORD_0":6
					},
					"indices":7,
					"material":1
				},
				{
					"attributes":{
						"POSITION":8,
						"NORMAL":9,
						"TEXCOORD_0":10
					},
					"indices":11,
					"material":2
				},
				{
					"attributes":{
						"POSITION":12,
						"NORMAL":13,
						"TEXCOORD_0":14
					},
					"indices":15,
					"material":3
				},
				{
					"attributes":{
						"POSITION":16,
						"NORMAL":17,
						"TEXCOORD_0":18
					},
					"indices":19,
					"material":4
				},
				{
					"attributes":{
						"POSITION":20,
						"NORMAL":21,
						"TEXCOORD_0":22
					},
					"indices":23,
					"material":5
				},
				{
					"attributes":{
						"POSITION":24,
						"NORMAL":25,
						"TEXCOORD_0":26
					},
					"indices":27,
					"material":6
				},
				{
					"attributes":{
						"POSITION":28,
						"NORMAL":29,
						"TEXCOORD_0":30
					},
					"indices":31,
					"material":7
				},
				{
					"attributes":{
						"POSITION":32,
						"NORMAL":33,
						"TEXCOORD_0":34
					},
					"indices":35,
					"material":8
				},
				{
					"attributes":{
						"POSITION":36,
						"NORMAL":37,
						"TEXCOORD_0":38
					},
					"indices":39,
					"material":9
				},
				{
					"attributes":{
						"POSITION":40,
						"NORMAL":41,
						"TEXCOORD_0":42
					},
					"indices":43,
					"material":10
				},
				{
					"attributes":{
						"POSITION":44,
						"NORMAL":45,
						"TEXCOORD_0":46
					},
					"indices":47,
					"material":11
				},
				{
					"attributes":{
						"POSITION":48,
						"NORMAL":49,
						"TEXCOORD_0":50
					},
					"indices":51,
					"material":12
				}
			]
		}
	],
	"accessors":[
		{
			"bufferView":0,
			"componentType":5126,
			"count":676,
			"max":[
				1.0156373977661133,
				0.1500428318977356,
				5.606568336486816
			],
			"min":[
				-2.4848389625549316,
				0.07194054126739502,
				4.0922770500183105
			],
			"type":"VEC3"
		},
		{
			"bufferView":1,
			"componentType":5126,
			"count":676,
			"type":"VEC3"
		},
		{
			"bufferView":2,
			"componentType":5126,
			"count":676,
			"type":"VEC2"
		},
		{
			"bufferView":3,
			"componentType":5123,
			"count":1044,
			"type":"SCALAR"
		},
		{
			"bufferView":4,
			"componentType":5126,
			"count":842,
			"max":[
				1.0156373977661133,
				0.07194054871797562,
				5.606568336486816
			],
			"min":[
				-2.4848389625549316,
				-0.006161745171993971,
				4.0922770500183105
			],
			"type":"VEC3"
		},
		{
			"bufferView":5,
			"componentType":5126,
			"count":842,
			"type":"VEC3"
		},
		{
			"bufferView":6,
			"componentType":5126,
			"count":842,
			"type":"VEC2"
		},
		{
			"bufferView":7,
			"componentType":5123,
			"count":1686,
			"type":"SCALAR"
		},
		{
			"bufferView":8,
			"componentType":5126,
			"count":167,
			"max":[
				1.0156373977661133,
				0.1500428318977356,
				5.606568336486816
			],
			"min":[
				-2.4848389625549316,
				0.1500428318977356,
				4.0922770500183105
			],
			"type":"VEC3"
		},
		{
			"bufferView":9,
			"componentType":5126,
			"count":167,
			"type":"VEC3"
		},
		{
			"bufferView":10,
			"componentType":5126,
			"count":167,
			"type":"VEC2"
		},
		{
			"bufferView":11,
			"componentType":5123,
			"count":444,
			"type":"SCALAR"
		},
		{
			"bufferView":12,
			"componentType":5126,
			"count":41,
			"max":[
				0.8218725323677063,
				0.1500428318977356,
				5.535914421081543
			],
			"min":[
				-1.3010270595550537,
				0.1500428318977356,
				4.495139122009277
			],
			"type":"VEC3"
		},
		{
			"bufferView":13,
			"componentType":5126,
			"count":41,
			"type":"VEC3"
		},
		{
			"bufferView":14,
			"componentType":5126,
			"count":41,
			"type":"VEC2"
		},
		{
			"bufferView":15,
			"componentType":5123,
			"count":102,
			"type":"SCALAR"
		},
		{
			"bufferView":16,
			"componentType":5126,
			"count":43,
			"max":[
				0.8528567552566528,
				0.1500428318977356,
				5.486041069030762
			],
			"min":[
				-2.0629961490631104,
				0.1500428318977356,
				4.332890510559082
			],
			"type":"VEC3"
		},
		{
			"bufferView":17,
			"componentType":5126,
			"count":43,
			"type":"VEC3"
		},
		{
			"bufferView":18,
			"componentType":5126,
			"count":43,
			"type":"VEC2"
		},
		{
			"bufferView":19,
			"componentType":5123,
			"count":96,
			"type":"SCALAR"
		},
		{
			"bufferView":20,
			"componentType":5126,
			"count":39,
			"max":[
				0.5547470450401306,
				0.2511095404624939,
				5.170417785644531
			],
			"min":[
				0.3123808205127716,
				0.14586549997329712,
				4.936222553253174
			],
			"type":"VEC3"
		},
		{
			"bufferView":21,
			"componentType":5126,
			"count":39,
			"type":"VEC3"
		},
		{
			"bufferView":22,
			"componentType":5126,
			"count":39,
			"type":"VEC2"
		},
		{
			"bufferView":23,
			"componentType":5123,
			"count":72,
			"type":"SCALAR"
		},
		{
			"bufferView":24,
			"componentType":5126,
			"count":104,
			"max":[
				0.5547470450401306,
				0.2758990526199341,
				5.170417785644531
			],
			"min":[
				0.3123808205127716,
				0.14586549997329712,
				4.934255599975586
			],
			"type":"VEC3"
		},
		{
			"bufferView":25,
			"componentType":5126,
			"count":104,
			"type":"VEC3"
		},
		{
			"bufferView":26,
			"componentType":5126,
			"count":104,
			"type":"VEC2"
		},
		{
			"bufferView":27,
			"componentType":5123,
			"count":156,
			"type":"SCALAR"
		},
		{
			"bufferView":28,
			"componentType":5126,
			"count":1536,
			"max":[
				0.9255951642990112,
				0.4682164192199707,
				5.125847339630127
			],
			"min":[
				-2.383375883102417,
				0.16123738884925842,
				4.715437889099121
			],
			"type":"VEC3"
		},
		{
			"bufferView":29,
			"componentType":5126,
			"count":1536,
			"type":"VEC3"
		},
		{
			"bufferView":30,
			"componentType":5126,
			"count":1536,
			"type":"VEC2"
		},
		{
			"bufferView":31,
			"componentType":5123,
			"count":2496,
			"type":"SCALAR"
		},
		{
			"bufferView":32,
			"componentType":5126,
			"count":328,
			"max":[
				0.824315071105957,
				0.20455795526504517,
				5.030470371246338
			],
			"min":[
				-2.295687198638916,
				0.14229051768779755,
				4.779911518096924
			],
			"type":"VEC3"
		},
		{
			"bufferView":33,
			"componentType":5126,
			"count":328,
			"type":"VEC3"
		},
		{
			"bufferView":34,
			"componentType":5126,
			"count":328,
			"type":"VEC2"
		},
		{
			"bufferView":35,
			"componentType":5123,
			"count":576,
			"type":"SCALAR"
		},
		{
			"bufferView":36,
			"componentType":5126,
			"count":1424,
			"max":[
				0.8994563817977905,
				0.4682164192199707,
				5.061513423919678
			],
			"min":[
				-2.413879632949829,
				0.16123738884925842,
				4.665980815887451
			],
			"type":"VEC3"
		},
		{
			"bufferView":37,
			"componentType":5126,
			"count":1424,
			"type":"VEC3"
		},
		{
			"bufferView":38,
			"componentType":5126,
			"count":1424,
			"type":"VEC2"
		},
		{
			"bufferView":39,
			"componentType":5123,
			"count":2304,
			"type":"SCALAR"
		},
		{
			"bufferView":40,
			"componentType":5126,
			"count":256,
			"max":[
				0.19369706511497498,
				0.2266463190317154,
				5.3822526931762695
			],
			"min":[
				-1.5446572303771973,
				0.15872465074062347,
				4.584524154663086
			],
			"type":"VEC3"
		},
		{
			"bufferView":41,
			"componentType":5126,
			"count":256,
			"type":"VEC3"
		},
		{
			"bufferView":42,
			"componentType":5126,
			"count":256,
			"type":"VEC2"
		},
		{
			"bufferView":43,
			"componentType":5123,
			"count":384,
			"type":"SCALAR"
		},
		{
			"bufferView":44,
			"componentType":5126,
			"count":164,
			"max":[
				0.19369706511497498,
				0.17372281849384308,
				5.3822526931762695
			],
			"min":[
				-1.5446572303771973,
				0.14166365563869476,
				4.584524154663086
			],
			"type":"VEC3"
		},
		{
			"bufferView":45,
			"componentType":5126,
			"count":164,
			"type":"VEC3"
		},
		{
			"bufferView":46,
			"componentType":5126,
			"count":164,
			"type":"VEC2"
		},
		{
			"bufferView":47,
			"componentType":5123,
			"count":288,
			"type":"SCALAR"
		},
		{
			"bufferView":48,
			"componentType":5126,
			"count":64,
			"max":[
				0.1729939579963684,
				0.24204987287521362,
				5.355724334716797
			],
			"min":[
				-1.5239540338516235,
				0.18831315636634827,
				4.607306957244873
			],
			"type":"VEC3"
		},
		{
			"bufferView":49,
			"componentType":5126,
			"count":64,
			"type":"VEC3"
		},
		{
			"bufferView":50,
			"componentType":5126,
			"count":64,
			"type":"VEC2"
		},
		{
			"bufferView":51,
			"componentType":5123,
			"count":96,
			"type":"SCALAR"
		}
	],
	"bufferViews":[
		{
			"buffer":0,
			"byteLength":8112,
			"byteOffset":0,
			"target":34962
		},
		{
			"buffer":0,
			"byteLength":8112,
			"byteOffset":8112,
			"target":34962
		},
		{
			"buffer":0,
			"byteLength":5408,
			"byteOffset":16224,
			"target":34962
		},
		{
			"buffer":0,
			"byteLength":2088,
			"byteOffset":21632,
			"target":34963
		},
		{
			"buffer":0,
			"byteLength":10104,
			"byteOffset":23720,
			"target":34962
		},
		{
			"buffer":0,
			"byteLength":10104,
			"byteOffset":33824,
			"target":34962
		},
		{
			"buffer":0,
			"byteLength":6736,
			"byteOffset":43928,
			"target":34962
		},
		{
			"buffer":0,
			"byteLength":3372,
			"byteOffset":50664,
			"target":34963
		},
		{
			"buffer":0,
			"byteLength":2004,
			"byteOffset":54036,
			"target":34962
		},
		{
			"buffer":0,
			"byteLength":2004,
			"byteOffset":56040,
			"target":34962
		},
		{
			"buffer":0,
			"byteLength":1336,
			"byteOffset":58044,
			"target":34962
		},
		{
			"buffer":0,
			"byteLength":888,
			"byteOffset":59380,
			"target":34963
		},
		{
			"buffer":0,
			"byteLength":492,
			"byteOffset":60268,
			"target":34962
		},
		{
			"buffer":0,
			"byteLength":492,
			"byteOffset":60760,
			"target":34962
		},
		{
			"buffer":0,
			"byteLength":328,
			"byteOffset":61252,
			"target":34962
		},
		{
			"buffer":0,
			"byteLength":204,
			"byteOffset":61580,
			"target":34963
		},
		{
			"buffer":0,
			"byteLength":516,
			"byteOffset":61784,
			"target":34962
		},
		{
			"buffer":0,
			"byteLength":516,
			"byteOffset":62300,
			"target":34962
		},
		{
			"buffer":0,
			"byteLength":344,
			"byteOffset":62816,
			"target":34962
		},
		{
			"buffer":0,
			"byteLength":192,
			"byteOffset":63160,
			"target":34963
		},
		{
			"buffer":0,
			"byteLength":468,
			"byteOffset":63352,
			"target":34962
		},
		{
			"buffer":0,
			"byteLength":468,
			"byteOffset":63820,
			"target":34962
		},
		{
			"buffer":0,
			"byteLength":312,
			"byteOffset":64288,
			"target":34962
		},
		{
			"buffer":0,
			"byteLength":144,
			"byteOffset":64600,
			"target":34963
		},
		{
			"buffer":0,
			"byteLength":1248,
			"byteOffset":64744,
			"target":34962
		},
		{
			"buffer":0,
			"byteLength":1248,
			"byteOffset":65992,
			"target":34962
		},
		{
			"buffer":0,
			"byteLength":832,
			"byteOffset":67240,
			"target":34962
		},
		{
			"buffer":0,
			"byteLength":312,
			"byteOffset":68072,
			"target":34963
		},
		{
			"buffer":0,
			"byteLength":18432,
			"byteOffset":68384,
			"target":34962
		},
		{
			"buffer":0,
			"byteLength":18432,
			"byteOffset":86816,
			"target":34962
		},
		{
			"buffer":0,
			"byteLength":12288,
			"byteOffset":105248,
			"target":34962
		},
		{
			"buffer":0,
			"byteLength":4992,
			"byteOffset":117536,
			"target":34963
		},
		{
			"buffer":0,
			"byteLength":3936,
			"byteOffset":122528,
			"target":34962
		},
		{
			"buffer":0,
			"byteLength":3936,
			"byteOffset":126464,
			"target":34962
		},
		{
			"buffer":0,
			"byteLength":2624,
			"byteOffset":130400,
			"target":34962
		},
		{
			"buffer":0,
			"byteLength":1152,
			"byteOffset":133024,
			"target":34963
		},
		{
			"buffer":0,
			"byteLength":17088,
			"byteOffset":134176,
			"target":34962
		},
		{
			"buffer":0,
			"byteLength":17088,
			"byteOffset":151264,
			"target":34962
		},
		{
			"buffer":0,
			"byteLength":11392,
			"byteOffset":168352,
			"target":34962
		},
		{
			"buffer":0,
			"byteLength":4608,
			"byteOffset":179744,
			"target":34963
		},
		{
			"buffer":0,
			"byteLength":3072,
			"byteOffset":184352,
			"target":34962
		},
		{
			"buffer":0,
			"byteLength":3072,
			"byteOffset":187424,
			"target":34962
		},
		{
			"buffer":0,
			"byteLength":2048,
			"byteOffset":190496,
			"target":34962
		},
		{
			"buffer":0,
			"byteLength":768,
			"byteOffset":192544,
			"target":34963
		},
		{
			"buffer":0,
			"byteLength":1968,
			"byteOffset":193312,
			"target":34962
		},
		{
			"buffer":0,
			"byteLength":1968,
			"byteOffset":195280,
			"target":34962
		},
		{
			"buffer":0,
			"byteLength":1312,
			"byteOffset":197248,
			"target":34962
		},
		{
			"buffer":0,
			"byteLength":576,
			"byteOffset":198560,
			"target":34963
		},
		{
			"buffer":0,
			"byteLength":768,
			"byteOffset":199136,
			"target":34962
		},
		{
			"buffer":0,
			"byteLength":768,
			"byteOffset":199904,
			"target":34962
		},
		{
			"buffer":0,
			"byteLength":512,
			"byteOffset":200672,
			"target":34962
		},
		{
			"buffer":0,
			"byteLength":192,
			"byteOffset":201184,
			"target":34963
		}
	],
	"buffers":[
		{
			"byteLength":201376,
			"uri":"data:application/octet-stream;base64,"
		}
	]
}
