{
	"asset":{
		"generator":"Khronos glTF Blender I/O v3.6.28",
		"version":"2.0"
	},
	"scene":0,
	"scenes":[
		{
			"name":"Scene",
			"nodes":[
				0
			]
		}
	],
	"nodes":[
		{
			"mesh":0,
			"name":"\u043d\u044e\u0440\u0431\u0430"
		}
	],
	"materials":[
		{
			"doubleSided":true,
			"name":"osn",
			"pbrMetallicRoughness":{
				"baseColorFactor":[
					0.17144113779067993,
					0.2746773660182953,
					0.1247718334197998,
					1
				],
				"metallicFactor":0,
				"roughnessFactor":0.5
			}
		},
		{
			"doubleSided":true,
			"name":"lightosn",
			"pbrMetallicRoughness":{
				"baseColorFactor":[
					0.22696588933467865,
					0.34191450476646423,
					0.14412851631641388,
					1
				],
				"metallicFactor":0,
				"roughnessFactor":0.5
			}
		},
		{
			"doubleSided":true,
			"name":"onlightosn",
			"pbrMetallicRoughness":{
				"baseColorFactor":[
					0.14995980262756348,
					0.2541521489620209,
					0.12213879823684692,
					1
				],
				"metallicFactor":0,
				"roughnessFactor":0.5
			}
		},
		{
			"doubleSided":true,
			"name":"osn-2",
			"pbrMetallicRoughness":{
				"baseColorFactor":[
					0.17151030898094177,
					0.29630887508392334,
					0.1398809403181076,
					1
				],
				"metallicFactor":0,
				"roughnessFactor":0.5
			}
		},
		{
			"doubleSided":true,
			"name":"shadosn",
			"pbrMetallicRoughness":{
				"baseColorFactor":[
					0.06301002949476242,
					0.14412851631641388,
					0.10224173218011856,
					1
				],
				"metallicFactor":0,
				"roughnessFactor":0.5
			}
		},
		{
			"doubleSided":true,
			"name":"underosn",
			"pbrMetallicRoughness":{
				"baseColorFactor":[
					0.19120171666145325,
					0.11193244159221649,
					0.09758733212947845,
					1
				],
				"metallicFactor":0,
				"roughnessFactor":0.5
			}
		},
		{
			"doubleSided":true,
			"name":"normal-tree",
			"pbrMetallicRoughness":{
				"baseColorFactor":[
					0.10702310502529144,
					0.22322800755500793,
					0.10224173218011856,
					1
				],
				"metallicFactor":0,
				"roughnessFactor":0.5
			}
		},
		{
			"doubleSided":true,
			"name":"osn-tree",
			"pbrMetallicRoughness":{
				"baseColorFactor":[
					0.23455063998699188,
					0.12743771076202393,
					0.05126946046948433,
					1
				],
				"metallicFactor":0,
				"roughnessFactor":0.5
			}
		},
		{
			"doubleSided":true,
			"name":"shad-tree",
			"pbrMetallicRoughness":{
				"baseColorFactor":[
					0.09305897355079651,
					0.2195262312889099,
					0.09758733212947845,
					1
				],
				"metallicFactor":0,
				"roughnessFactor":0.5
			}
		},
		{
			"doubleSided":true,
			"name":"rock",
			"pbrMetallicRoughness":{
				"baseColorFactor":[
					0.3813260495662689,
					0.34670406579971313,
					0.26225075125694275,
					1
				],
				"metallicFactor":0,
				"roughnessFactor":0.5
			}
		},
		{
			"doubleSided":true,
			"name":"rock-sh",
			"pbrMetallicRoughness":{
				"baseColorFactor":[
					0.2195262312889099,
					0.19120171666145325,
					0.1384316384792328,
					1
				],
				"metallicFactor":0,
				"roughnessFactor":0.5
			}
		},
		{
			"doubleSided":true,
			"name":"normal-kus",
			"pbrMetallicRoughness":{
				"baseColorFactor":[
					0.10702310502529144,
					0.18116427958011627,
					0.07818741351366043,
					1
				],
				"metallicFactor":0,
				"roughnessFactor":0.5
			}
		},
		{
			"doubleSided":true,
			"name":"shad-kus",
			"pbrMetallicRoughness":{
				"baseColorFactor":[
					0.06171619892120361,
					0.10226551443338394,
					0.04822072759270668,
					1
				],
				"metallicFactor":0,
				"roughnessFactor":0.5
			}
		},
		{
			"doubleSided":true,
			"name":"light-kus",
			"pbrMetallicRoughness":{
				"baseColorFactor":[
					0.1247718334197998,
					0.22322800755500793,
					0.09305897355079651,
					1
				],
				"metallicFactor":0,
				"roughnessFactor":0.5
			}
		}
	],
	"meshes":[
		{
			"name":"Vert.005",
			"primitives":[
				{
					"attributes":{
						"POSITION":0,
						"NORMAL":1,
						"TEXCOORD_0":2
					},
					"indices":3,
					"material":0
				},
				{
					"attributes":{
						"POSITION":4,
						"NORMAL":5,
						"TEXCOORD_0":6
					},
					"indices":7,
					"material":1
				},
				{
					"attributes":{
						"POSITION":8,
						"NORMAL":9,
						"TEXCOORD_0":10
					},
					"indices":11,
					"material":2
				},
				{
					"attributes":{
						"POSITION":12,
						"NORMAL":13,
						"TEXCOORD_0":14
					},
					"indices":15,
					"material":3
				},
				{
					"attributes":{
						"POSITION":16,
						"NORMAL":17,
						"TEXCOORD_0":18
					},
					"indices":19,
					"material":4
				},
				{
					"attributes":{
						"POSITION":20,
						"NORMAL":21,
						"TEXCOORD_0":22
					},
					"indices":23,
					"material":5
				},
				{
					"attributes":{
						"POSITION":24,
						"NORMAL":25,
						"TEXCOORD_0":26
					},
					"indices":27,
					"material":6
				},
				{
					"attributes":{
						"POSITION":28,
						"NORMAL":29,
						"TEXCOORD_0":30
					},
					"indices":31,
					"material":7
				},
				{
					"attributes":{
						"POSITION":32,
						"NORMAL":33,
						"TEXCOORD_0":34
					},
					"indices":35,
					"material":8
				},
				{
					"attributes":{
						"POSITION":36,
						"NORMAL":37,
						"TEXCOORD_0":38
					},
					"indices":39,
					"material":9
				},
				{
					"attributes":{
						"POSITION":40,
						"NORMAL":41,
						"TEXCOORD_0":42
					},
					"indices":43,
					"material":10
				},
				{
					"attributes":{
						"POSITION":44,
						"NORMAL":45,
						"TEXCOORD_0":46
					},
					"indices":47,
					"material":11
				},
				{
					"attributes":{
						"POSITION":48,
						"NORMAL":49,
						"TEXCOORD_0":50
					},
					"indices":51,
					"material":12
				},
				{
					"attributes":{
						"POSITION":52,
						"NORMAL":53,
						"TEXCOORD_0":54
					},
					"indices":55,
					"material":13
				}
			]
		}
	],
	"accessors":[
		{
			"bufferView":0,
			"componentType":5126,
			"count":150,
			"max":[
				-2.4428160190582275,
				0.15620458126068115,
				1.9319806098937988
			],
			"min":[
				-3.6982741355895996,
				0.07810229063034058,
				0.28880754113197327
			],
			"type":"VEC3"
		},
		{
			"bufferView":1,
			"componentType":5126,
			"count":150,
			"type":"VEC3"
		},
		{
			"bufferView":2,
			"componentType":5126,
			"count":150,
			"type":"VEC2"
		},
		{
			"bufferView":3,
			"componentType":5123,
			"count":228,
			"type":"SCALAR"
		},
		{
			"bufferView":4,
			"componentType":5126,
			"count":11,
			"max":[
				-2.4902913570404053,
				0.15620458126068115,
				1.7341667413711548
			],
			"min":[
				-3.3316593170166016,
				0.15620458126068115,
				0.6844348907470703
			],
			"type":"VEC3"
		},
		{
			"bufferView":5,
			"componentType":5126,
			"count":11,
			"type":"VEC3"
		},
		{
			"bufferView":6,
			"componentType":5126,
			"count":11,
			"type":"VEC2"
		},
		{
			"bufferView":7,
			"componentType":5123,
			"count":24,
			"type":"SCALAR"
		},
		{
			"bufferView":8,
			"componentType":5126,
			"count":18,
			"max":[
				-2.4428160190582275,
				0.15620458126068115,
				1.7368042469024658
			],
			"min":[
				-3.529473066329956,
				0.15620458126068115,
				0.5842092037200928
			],
			"type":"VEC3"
		},
		{
			"bufferView":9,
			"componentType":5126,
			"count":18,
			"type":"VEC3"
		},
		{
			"bufferView":10,
			"componentType":5126,
			"count":18,
			"type":"VEC2"
		},
		{
			"bufferView":11,
			"componentType":5123,
			"count":36,
			"type":"SCALAR"
		},
		{
			"bufferView":12,
			"componentType":5126,
			"count":4,
			"max":[
				-2.548316717147827,
				0.15620458126068115,
				1.5337154865264893
			],
			"min":[
				-3.3316593170166016,
				0.15620458126068115,
				0.8954364061355591
			],
			"type":"VEC3"
		},
		{
			"bufferView":13,
			"componentType":5126,
			"count":4,
			"type":"VEC3"
		},
		{
			"bufferView":14,
			"componentType":5126,
			"count":4,
			"type":"VEC2"
		},
		{
			"bufferView":15,
			"componentType":5123,
			"count":6,
			"type":"SCALAR"
		},
		{
			"bufferView":16,
			"componentType":5126,
			"count":28,
			"max":[
				-2.4986274242401123,
				0.15620458126068115,
				1.9319806098937988
			],
			"min":[
				-3.6982741355895996,
				0.15620458126068115,
				0.28880754113197327
			],
			"type":"VEC3"
		},
		{
			"bufferView":17,
			"componentType":5126,
			"count":28,
			"type":"VEC3"
		},
		{
			"bufferView":18,
			"componentType":5126,
			"count":28,
			"type":"VEC2"
		},
		{
			"bufferView":19,
			"componentType":5123,
			"count":66,
			"type":"SCALAR"
		},
		{
			"bufferView":20,
			"componentType":5126,
			"count":192,
			"max":[
				-2.4428160190582275,
				0.07810229063034058,
				1.9319806098937988
			],
			"min":[
				-3.6982741355895996,
				0,
				0.28880754113197327
			],
			"type":"VEC3"
		},
		{
			"bufferView":21,
			"componentType":5126,
			"count":192,
			"type":"VEC3"
		},
		{
			"bufferView":22,
			"componentType":5126,
			"count":192,
			"type":"VEC2"
		},
		{
			"bufferView":23,
			"componentType":5123,
			"count":360,
			"type":"SCALAR"
		},
		{
			"bufferView":24,
			"componentType":5126,
			"count":576,
			"max":[
				-2.683591842651367,
				0.5324561595916748,
				1.253001093864441
			],
			"min":[
				-3.529344081878662,
				0.17873550951480865,
				0.4086187481880188
			],
			"type":"VEC3"
		},
		{
			"bufferView":25,
			"componentType":5126,
			"count":576,
			"type":"VEC3"
		},
		{
			"bufferView":26,
			"componentType":5126,
			"count":576,
			"type":"VEC2"
		},
		{
			"bufferView":27,
			"componentType":5123,
			"count":936,
			"type":"SCALAR"
		},
		{
			"bufferView":28,
			"componentType":5126,
			"count":123,
			"max":[
				-2.778390884399414,
				0.21646273136138916,
				1.168117880821228
			],
			"min":[
				-3.4261364936828613,
				0.14710834622383118,
				0.5035803914070129
			],
			"type":"VEC3"
		},
		{
			"bufferView":29,
			"componentType":5126,
			"count":123,
			"type":"VEC3"
		},
		{
			"bufferView":30,
			"componentType":5126,
			"count":123,
			"type":"VEC2"
		},
		{
			"bufferView":31,
			"componentType":5123,
			"count":216,
			"type":"SCALAR"
		},
		{
			"bufferView":32,
			"componentType":5126,
			"count":534,
			"max":[
				-2.709451198577881,
				0.5324561595916748,
				1.3102824687957764
			],
			"min":[
				-3.5680577754974365,
				0.17873550951480865,
				0.4468809962272644
			],
			"type":"VEC3"
		},
		{
			"bufferView":33,
			"componentType":5126,
			"count":534,
			"type":"VEC3"
		},
		{
			"bufferView":34,
			"componentType":5126,
			"count":534,
			"type":"VEC2"
		},
		{
			"bufferView":35,
			"componentType":5123,
			"count":864,
			"type":"SCALAR"
		},
		{
			"bufferView":36,
			"componentType":5126,
			"count":39,
			"max":[
				-3.3921146392822266,
				0.25727108120918274,
				1.093447208404541
			],
			"min":[
				-3.6344809532165527,
				0.15202704071998596,
				0.8592517375946045
			],
			"type":"VEC3"
		},
		{
			"bufferView":37,
			"componentType":5126,
			"count":39,
			"type":"VEC3"
		},
		{
			"bufferView":38,
			"componentType":5126,
			"count":39,
			"type":"VEC2"
		},
		{
			"bufferView":39,
			"componentType":5123,
			"count":72,
			"type":"SCALAR"
		},
		{
			"bufferView":40,
			"componentType":5126,
			"count":104,
			"max":[
				-3.3921146392822266,
				0.2820605933666229,
				1.093447208404541
			],
			"min":[
				-3.6344809532165527,
				0.15202704071998596,
				0.8572850227355957
			],
			"type":"VEC3"
		},
		{
			"bufferView":41,
			"componentType":5126,
			"count":104,
			"type":"VEC3"
		},
		{
			"bufferView":42,
			"componentType":5126,
			"count":104,
			"type":"VEC2"
		},
		{
			"bufferView":43,
			"componentType":5123,
			"count":156,
			"type":"SCALAR"
		},
		{
			"bufferView":44,
			"componentType":5126,
			"count":192,
			"max":[
				-2.5627822875976562,
				0.23280784487724304,
				1.8269442319869995
			],
			"min":[
				-3.388561487197876,
				0.16613662242889404,
				0.5456461310386658
			],
			"type":"VEC3"
		},
		{
			"bufferView":45,
			"componentType":5126,
			"count":192,
			"type":"VEC3"
		},
		{
			"bufferView":46,
			"componentType":5126,
			"count":192,
			"type":"VEC2"
		},
		{
			"bufferView":47,
			"componentType":5123,
			"count":288,
			"type":"SCALAR"
		},
		{
			"bufferView":48,
			"componentType":5126,
			"count":123,
			"max":[
				-2.5627822875976562,
				0.1781691312789917,
				1.8269442319869995
			],
			"min":[
				-3.388561487197876,
				0.1478251814842224,
				0.5456461310386658
			],
			"type":"VEC3"
		},
		{
			"bufferView":49,
			"componentType":5126,
			"count":123,
			"type":"VEC3"
		},
		{
			"bufferView":50,
			"componentType":5126,
			"count":123,
			"type":"VEC2"
		},
		{
			"bufferView":51,
			"componentType":5123,
			"count":216,
			"type":"SCALAR"
		},
		{
			"bufferView":52,
			"componentType":5126,
			"count":48,
			"max":[
				-2.5868892669677734,
				0.24821141362190247,
				1.8004157543182373
			],
			"min":[
				-3.3574278354644775,
				0.21695777773857117,
				0.5721746683120728
			],
			"type":"VEC3"
		},
		{
			"bufferView":53,
			"componentType":5126,
			"count":48,
			"type":"VEC3"
		},
		{
			"bufferView":54,
			"componentType":5126,
			"count":48,
			"type":"VEC2"
		},
		{
			"bufferView":55,
			"componentType":5123,
			"count":72,
			"type":"SCALAR"
		}
	],
	"bufferViews":[
		{
			"buffer":0,
			"byteLength":1800,
			"byteOffset":0,
			"target":34962
		},
		{
			"buffer":0,
			"byteLength":1800,
			"byteOffset":1800,
			"target":34962
		},
		{
			"buffer":0,
			"byteLength":1200,
			"byteOffset":3600,
			"target":34962
		},
		{
			"buffer":0,
			"byteLength":456,
			"byteOffset":4800,
			"target":34963
		},
		{
			"buffer":0,
			"byteLength":132,
			"byteOffset":5256,
			"target":34962
		},
		{
			"buffer":0,
			"byteLength":132,
			"byteOffset":5388,
			"target":34962
		},
		{
			"buffer":0,
			"byteLength":88,
			"byteOffset":5520,
			"target":34962
		},
		{
			"buffer":0,
			"byteLength":48,
			"byteOffset":5608,
			"target":34963
		},
		{
			"buffer":0,
			"byteLength":216,
			"byteOffset":5656,
			"target":34962
		},
		{
			"buffer":0,
			"byteLength":216,
			"byteOffset":5872,
			"target":34962
		},
		{
			"buffer":0,
			"byteLength":144,
			"byteOffset":6088,
			"target":34962
		},
		{
			"buffer":0,
			"byteLength":72,
			"byteOffset":6232,
			"target":34963
		},
		{
			"buffer":0,
			"byteLength":48,
			"byteOffset":6304,
			"target":34962
		},
		{
			"buffer":0,
			"byteLength":48,
			"byteOffset":6352,
			"target":34962
		},
		{
			"buffer":0,
			"byteLength":32,
			"byteOffset":6400,
			"target":34962
		},
		{
			"buffer":0,
			"byteLength":12,
			"byteOffset":6432,
			"target":34963
		},
		{
			"buffer":0,
			"byteLength":336,
			"byteOffset":6444,
			"target":34962
		},
		{
			"buffer":0,
			"byteLength":336,
			"byteOffset":6780,
			"target":34962
		},
		{
			"buffer":0,
			"byteLength":224,
			"byteOffset":7116,
			"target":34962
		},
		{
			"buffer":0,
			"byteLength":132,
			"byteOffset":7340,
			"target":34963
		},
		{
			"buffer":0,
			"byteLength":2304,
			"byteOffset":7472,
			"target":34962
		},
		{
			"buffer":0,
			"byteLength":2304,
			"byteOffset":9776,
			"target":34962
		},
		{
			"buffer":0,
			"byteLength":1536,
			"byteOffset":12080,
			"target":34962
		},
		{
			"buffer":0,
			"byteLength":720,
			"byteOffset":13616,
			"target":34963
		},
		{
			"buffer":0,
			"byteLength":6912,
			"byteOffset":14336,
			"target":34962
		},
		{
			"buffer":0,
			"byteLength":6912,
			"byteOffset":21248,
			"target":34962
		},
		{
			"buffer":0,
			"byteLength":4608,
			"byteOffset":28160,
			"target":34962
		},
		{
			"buffer":0,
			"byteLength":1872,
			"byteOffset":32768,
			"target":34963
		},
		{
			"buffer":0,
			"byteLength":1476,
			"byteOffset":34640,
			"target":34962
		},
		{
			"buffer":0,
			"byteLength":1476,
			"byteOffset":36116,
			"target":34962
		},
		{
			"buffer":0,
			"byteLength":984,
			"byteOffset":37592,
			"target":34962
		},
		{
			"buffer":0,
			"byteLength":432,
			"byteOffset":38576,
			"target":34963
		},
		{
			"buffer":0,
			"byteLength":6408,
			"byteOffset":39008,
			"target":34962
		},
		{
			"buffer":0,
			"byteLength":6408,
			"byteOffset":45416,
			"target":34962
		},
		{
			"buffer":0,
			"byteLength":4272,
			"byteOffset":51824,
			"target":34962
		},
		{
			"buffer":0,
			"byteLength":1728,
			"byteOffset":56096,
			"target":34963
		},
		{
			"buffer":0,
			"byteLength":468,
			"byteOffset":57824,
			"target":34962
		},
		{
			"buffer":0,
			"byteLength":468,
			"byteOffset":58292,
			"target":34962
		},
		{
			"buffer":0,
			"byteLength":312,
			"byteOffset":58760,
			"target":34962
		},
		{
			"buffer":0,
			"byteLength":144,
			"byteOffset":59072,
			"target":34963
		},
		{
			"buffer":0,
			"byteLength":1248,
			"byteOffset":59216,
			"target":34962
		},
		{
			"buffer":0,
			"byteLength":1248,
			"byteOffset":60464,
			"target":34962
		},
		{
			"buffer":0,
			"byteLength":832,
			"byteOffset":61712,
			"target":34962
		},
		{
			"buffer":0,
			"byteLength":312,
			"byteOffset":62544,
			"target":34963
		},
		{
			"buffer":0,
			"byteLength":2304,
			"byteOffset":62856,
			"target":34962
		},
		{
			"buffer":0,
			"byteLength":2304,
			"byteOffset":65160,
			"target":34962
		},
		{
			"buffer":0,
			"byteLength":1536,
			"byteOffset":67464,
			"target":34962
		},
		{
			"buffer":0,
			"byteLength":576,
			"byteOffset":69000,
			"target":34963
		},
		{
			"buffer":0,
			"byteLength":1476,
			"byteOffset":69576,
			"target":34962
		},
		{
			"buffer":0,
			"byteLength":1476,
			"byteOffset":71052,
			"target":34962
		},
		{
			"buffer":0,
			"byteLength":984,
			"byteOffset":72528,
			"target":34962
		},
		{
			"buffer":0,
			"byteLength":432,
			"byteOffset":73512,
			"target":34963
		},
		{
			"buffer":0,
			"byteLength":576,
			"byteOffset":73944,
			"target":34962
		},
		{
			"buffer":0,
			"byteLength":576,
			"byteOffset":74520,
			"target":34962
		},
		{
			"buffer":0,
			"byteLength":384,
			"byteOffset":75096,
			"target":34962
		},
		{
			"buffer":0,
			"byteLength":144,
			"byteOffset":75480,
			"target":34963
		}
	],
	"buffers":[
		{
			"byteLength":75624,
			"uri":"data:application/octet-stream;base64,"
		}
	]
}
