{
	"asset":{
		"generator":"Khronos glTF Blender I/O v3.6.28",
		"version":"2.0"
	},
	"scene":0,
	"scenes":[
		{
			"name":"Scene",
			"nodes":[
				0
			]
		}
	],
	"nodes":[
		{
			"mesh":0,
			"name":"\u043e\u043b\u0435\u043a\u043c\u0438\u043d\u0441\u043a",
			"translation":[
				0,
				0.004977120552212,
				0
			]
		}
	],
	"materials":[
		{
			"doubleSided":true,
			"name":"osn",
			"pbrMetallicRoughness":{
				"baseColorFactor":[
					0.17144113779067993,
					0.2746773660182953,
					0.1247718334197998,
					1
				],
				"metallicFactor":0,
				"roughnessFactor":0.5
			}
		},
		{
			"doubleSided":true,
			"name":"underosn",
			"pbrMetallicRoughness":{
				"baseColorFactor":[
					0.19120171666145325,
					0.11193244159221649,
					0.09758733212947845,
					1
				],
				"metallicFactor":0,
				"roughnessFactor":0.5
			}
		},
		{
			"doubleSided":true,
			"name":"onlightosn",
			"pbrMetallicRoughness":{
				"baseColorFactor":[
					0.14995980262756348,
					0.2541521489620209,
					0.12213879823684692,
					1
				],
				"metallicFactor":0,
				"roughnessFactor":0.5
			}
		},
		{
			"doubleSided":true,
			"name":"shadosn",
			"pbrMetallicRoughness":{
				"baseColorFactor":[
					0.06301002949476242,
					0.14412851631641388,
					0.10224173218011856,
					1
				],
				"metallicFactor":0,
				"roughnessFactor":0.5
			}
		},
		{
			"doubleSided":true,
			"name":"lightosn",
			"pbrMetallicRoughness":{
				"baseColorFactor":[
					0.22696588933467865,
					0.34191450476646423,
					0.14412851631641388,
					1
				],
				"metallicFactor":0,
				"roughnessFactor":0.5
			}
		},
		{
			"doubleSided":true,
			"name":"osn-2",
			"pbrMetallicRoughness":{
				"baseColorFactor":[
					0.17151030898094177,
					0.29630887508392334,
					0.1398809403181076,
					1
				],
				"metallicFactor":0,
				"roughnessFactor":0.5
			}
		},
		{
			"doubleSided":true,
			"name":"Material",
			"pbrMetallicRoughness":{
				"baseColorFactor":[
					0.15292617678642273,
					0.25818291306495667,
					0.1247718334197998,
					1
				],
				"metallicFactor":0,
				"roughnessFactor":0.5
			}
		},
		{
			"doubleSided":true,
			"name":"normal-tree",
			"pbrMetallicRoughness":{
				"baseColorFactor":[
					0.10702310502529144,
					0.22322800755500793,
					0.10224173218011856,
					1
				],
				"metallicFactor":0,
				"roughnessFactor":0.5
			}
		},
		{
			"doubleSided":true,
			"name":"osn-tree",
			"pbrMetallicRoughness":{
				"baseColorFactor":[
					0.23455063998699188,
					0.12743771076202393,
					0.05126946046948433,
					1
				],
				"metallicFactor":0,
				"roughnessFactor":0.5
			}
		},
		{
			"doubleSided":true,
			"name":"shad-tree",
			"pbrMetallicRoughness":{
				"baseColorFactor":[
					0.09305897355079651,
					0.2195262312889099,
					0.09758733212947845,
					1
				],
				"metallicFactor":0,
				"roughnessFactor":0.5
			}
		},
		{
			"doubleSided":true,
			"name":"rock",
			"pbrMetallicRoughness":{
				"baseColorFactor":[
					0.3813260495662689,
					0.34670406579971313,
					0.26225075125694275,
					1
				],
				"metallicFactor":0,
				"roughnessFactor":0.5
			}
		},
		{
			"doubleSided":true,
			"name":"rock-sh",
			"pbrMetallicRoughness":{
				"baseColorFactor":[
					0.2195262312889099,
					0.19120171666145325,
					0.1384316384792328,
					1
				],
				"metallicFactor":0,
				"roughnessFactor":0.5
			}
		},
		{
			"doubleSided":true,
			"name":"normal-kus",
			"pbrMetallicRoughness":{
				"baseColorFactor":[
					0.10702310502529144,
					0.18116427958011627,
					0.07818741351366043,
					1
				],
				"metallicFactor":0,
				"roughnessFactor":0.5
			}
		},
		{
			"doubleSided":true,
			"name":"shad-kus",
			"pbrMetallicRoughness":{
				"baseColorFactor":[
					0.06171619892120361,
					0.10226551443338394,
					0.04822072759270668,
					1
				],
				"metallicFactor":0,
				"roughnessFactor":0.5
			}
		},
		{
			"doubleSided":true,
			"name":"light-kus",
			"pbrMetallicRoughness":{
				"baseColorFactor":[
					0.1247718334197998,
					0.22322800755500793,
					0.09305897355079651,
					1
				],
				"metallicFactor":0,
				"roughnessFactor":0.5
			}
		}
	],
	"meshes":[
		{
			"name":"Vert.007",
			"primitives":[
				{
					"attributes":{
						"POSITION":0,
						"NORMAL":1,
						"TEXCOORD_0":2
					},
					"indices":3,
					"material":0
				},
				{
					"attributes":{
						"POSITION":4,
						"NORMAL":5,
						"TEXCOORD_0":6
					},
					"indices":7,
					"material":1
				},
				{
					"attributes":{
						"POSITION":8,
						"NORMAL":9,
						"TEXCOORD_0":10
					},
					"indices":11,
					"material":2
				},
				{
					"attributes":{
						"POSITION":12,
						"NORMAL":13,
						"TEXCOORD_0":14
					},
					"indices":15,
					"material":3
				},
				{
					"attributes":{
						"POSITION":16,
						"NORMAL":17,
						"TEXCOORD_0":18
					},
					"indices":19,
					"material":4
				},
				{
					"attributes":{
						"POSITION":20,
						"NORMAL":21,
						"TEXCOORD_0":22
					},
					"indices":23,
					"material":5
				},
				{
					"attributes":{
						"POSITION":24,
						"NORMAL":25,
						"TEXCOORD_0":26
					},
					"indices":27,
					"material":6
				},
				{
					"attributes":{
						"POSITION":28,
						"NORMAL":29,
						"TEXCOORD_0":30
					},
					"indices":31,
					"material":7
				},
				{
					"attributes":{
						"POSITION":32,
						"NORMAL":33,
						"TEXCOORD_0":34
					},
					"indices":35,
					"material":8
				},
				{
					"attributes":{
						"POSITION":36,
						"NORMAL":37,
						"TEXCOORD_0":38
					},
					"indices":39,
					"material":9
				},
				{
					"attributes":{
						"POSITION":40,
						"NORMAL":41,
						"TEXCOORD_0":42
					},
					"indices":43,
					"material":10
				},
				{
					"attributes":{
						"POSITION":44,
						"NORMAL":45,
						"TEXCOORD_0":46
					},
					"indices":47,
					"material":11
				},
				{
					"attributes":{
						"POSITION":48,
						"NORMAL":49,
						"TEXCOORD_0":50
					},
					"indices":51,
					"material":12
				},
				{
					"attributes":{
						"POSITION":52,
						"NORMAL":53,
						"TEXCOORD_0":54
					},
					"indices":55,
					"material":13
				},
				{
					"attributes":{
						"POSITION":56,
						"NORMAL":57,
						"TEXCOORD_0":58
					},
					"indices":59,
					"material":14
				}
			]
		}
	],
	"accessors":[
		{
			"bufferView":0,
			"componentType":5126,
			"count":453,
			"max":[
				-0.31737756729125977,
				0.15122756361961365,
				4.95821475982666
			],
			"min":[
				-3.184723377227783,
				0.07312526553869247,
				2.4146463871002197
			],
			"type":"VEC3"
		},
		{
			"bufferView":1,
			"componentType":5126,
			"count":453,
			"type":"VEC3"
		},
		{
			"bufferView":2,
			"componentType":5126,
			"count":453,
			"type":"VEC2"
		},
		{
			"bufferView":3,
			"componentType":5123,
			"count":696,
			"type":"SCALAR"
		},
		{
			"bufferView":4,
			"componentType":5126,
			"count":582,
			"max":[
				-0.31737756729125977,
				0.07312527298927307,
				4.95821475982666
			],
			"min":[
				-3.184723377227783,
				-0.004977022763341665,
				2.4146463871002197
			],
			"type":"VEC3"
		},
		{
			"bufferView":5,
			"componentType":5126,
			"count":582,
			"type":"VEC3"
		},
		{
			"bufferView":6,
			"componentType":5126,
			"count":582,
			"type":"VEC2"
		},
		{
			"bufferView":7,
			"componentType":5123,
			"count":1200,
			"type":"SCALAR"
		},
		{
			"bufferView":8,
			"componentType":5126,
			"count":24,
			"max":[
				-1.1943745613098145,
				0.15122756361961365,
				4.228821754455566
			],
			"min":[
				-2.6308398246765137,
				0.15122756361961365,
				2.4146463871002197
			],
			"type":"VEC3"
		},
		{
			"bufferView":9,
			"componentType":5126,
			"count":24,
			"type":"VEC3"
		},
		{
			"bufferView":10,
			"componentType":5126,
			"count":24,
			"type":"VEC2"
		},
		{
			"bufferView":11,
			"componentType":5123,
			"count":54,
			"type":"SCALAR"
		},
		{
			"bufferView":12,
			"componentType":5126,
			"count":104,
			"max":[
				-0.31737756729125977,
				0.15122756361961365,
				4.95821475982666
			],
			"min":[
				-3.184723377227783,
				0.15122756361961365,
				2.433908224105835
			],
			"type":"VEC3"
		},
		{
			"bufferView":13,
			"componentType":5126,
			"count":104,
			"type":"VEC3"
		},
		{
			"bufferView":14,
			"componentType":5126,
			"count":104,
			"type":"VEC2"
		},
		{
			"bufferView":15,
			"componentType":5123,
			"count":300,
			"type":"SCALAR"
		},
		{
			"bufferView":16,
			"componentType":5126,
			"count":27,
			"max":[
				-1.4208811521530151,
				0.15122756361961365,
				4.695862770080566
			],
			"min":[
				-2.69596791267395,
				0.15122756361961365,
				2.482671022415161
			],
			"type":"VEC3"
		},
		{
			"bufferView":17,
			"componentType":5126,
			"count":27,
			"type":"VEC3"
		},
		{
			"bufferView":18,
			"componentType":5126,
			"count":27,
			"type":"VEC2"
		},
		{
			"bufferView":19,
			"componentType":5123,
			"count":60,
			"type":"SCALAR"
		},
		{
			"bufferView":20,
			"componentType":5126,
			"count":8,
			"max":[
				-1.8656036853790283,
				0.15122756361961365,
				3.9845564365386963
			],
			"min":[
				-2.7933194637298584,
				0.15122756361961365,
				2.6325228214263916
			],
			"type":"VEC3"
		},
		{
			"bufferView":21,
			"componentType":5126,
			"count":8,
			"type":"VEC3"
		},
		{
			"bufferView":22,
			"componentType":5126,
			"count":8,
			"type":"VEC2"
		},
		{
			"bufferView":23,
			"componentType":5123,
			"count":18,
			"type":"SCALAR"
		},
		{
			"bufferView":24,
			"componentType":5126,
			"count":32,
			"max":[
				-0.9824142456054688,
				0.15122756361961365,
				4.695862770080566
			],
			"min":[
				-3.0799899101257324,
				0.15122756361961365,
				2.432391881942749
			],
			"type":"VEC3"
		},
		{
			"bufferView":25,
			"componentType":5126,
			"count":32,
			"type":"VEC3"
		},
		{
			"bufferView":26,
			"componentType":5126,
			"count":32,
			"type":"VEC2"
		},
		{
			"bufferView":27,
			"componentType":5123,
			"count":72,
			"type":"SCALAR"
		},
		{
			"bufferView":28,
			"componentType":5126,
			"count":1152,
			"max":[
				-0.564028799533844,
				0.5274790525436401,
				4.73439359664917
			],
			"min":[
				-2.9842641353607178,
				0.17597943544387817,
				2.555985450744629
			],
			"type":"VEC3"
		},
		{
			"bufferView":29,
			"componentType":5126,
			"count":1152,
			"type":"VEC3"
		},
		{
			"bufferView":30,
			"componentType":5126,
			"count":1152,
			"type":"VEC2"
		},
		{
			"bufferView":31,
			"componentType":5123,
			"count":1872,
			"type":"SCALAR"
		},
		{
			"bufferView":32,
			"componentType":5126,
			"count":246,
			"max":[
				-0.6690192222595215,
				0.2114856094121933,
				4.671364784240723
			],
			"min":[
				-2.9771664142608643,
				0.14213122427463531,
				2.638662576675415
			],
			"type":"VEC3"
		},
		{
			"bufferView":33,
			"componentType":5126,
			"count":246,
			"type":"VEC3"
		},
		{
			"bufferView":34,
			"componentType":5126,
			"count":246,
			"type":"VEC2"
		},
		{
			"bufferView":35,
			"componentType":5123,
			"count":432,
			"type":"SCALAR"
		},
		{
			"bufferView":36,
			"componentType":5126,
			"count":1068,
			"max":[
				-0.6724984645843506,
				0.5274790525436401,
				4.783109664916992
			],
			"min":[
				-3.0821568965911865,
				0.17597943544387817,
				2.496711492538452
			],
			"type":"VEC3"
		},
		{
			"bufferView":37,
			"componentType":5126,
			"count":1068,
			"type":"VEC3"
		},
		{
			"bufferView":38,
			"componentType":5126,
			"count":1068,
			"type":"VEC2"
		},
		{
			"bufferView":39,
			"componentType":5123,
			"count":1728,
			"type":"SCALAR"
		},
		{
			"bufferView":40,
			"componentType":5126,
			"count":39,
			"max":[
				-2.129319190979004,
				0.2522939443588257,
				4.533904075622559
			],
			"min":[
				-2.426274538040161,
				0.1470499187707901,
				4.242400646209717
			],
			"type":"VEC3"
		},
		{
			"bufferView":41,
			"componentType":5126,
			"count":39,
			"type":"VEC3"
		},
		{
			"bufferView":42,
			"componentType":5126,
			"count":39,
			"type":"VEC2"
		},
		{
			"bufferView":43,
			"componentType":5123,
			"count":72,
			"type":"SCALAR"
		},
		{
			"bufferView":44,
			"componentType":5126,
			"count":104,
			"max":[
				-2.129319190979004,
				0.27708345651626587,
				4.533904075622559
			],
			"min":[
				-2.426274538040161,
				0.1470499187707901,
				4.242400646209717
			],
			"type":"VEC3"
		},
		{
			"bufferView":45,
			"componentType":5126,
			"count":104,
			"type":"VEC3"
		},
		{
			"bufferView":46,
			"componentType":5126,
			"count":104,
			"type":"VEC2"
		},
		{
			"bufferView":47,
			"componentType":5123,
			"count":156,
			"type":"SCALAR"
		},
		{
			"bufferView":48,
			"componentType":5126,
			"count":384,
			"max":[
				-0.7955343723297119,
				0.22783072292804718,
				4.591282844543457
			],
			"min":[
				-2.8258795738220215,
				0.15775278210639954,
				2.69814133644104
			],
			"type":"VEC3"
		},
		{
			"bufferView":49,
			"componentType":5126,
			"count":384,
			"type":"VEC3"
		},
		{
			"bufferView":50,
			"componentType":5126,
			"count":384,
			"type":"VEC2"
		},
		{
			"bufferView":51,
			"componentType":5123,
			"count":576,
			"type":"SCALAR"
		},
		{
			"bufferView":52,
			"componentType":5126,
			"count":246,
			"max":[
				-0.7955343723297119,
				0.17319199442863464,
				4.591282844543457
			],
			"min":[
				-2.8258795738220215,
				0.14284805953502655,
				2.69814133644104
			],
			"type":"VEC3"
		},
		{
			"bufferView":53,
			"componentType":5126,
			"count":246,
			"type":"VEC3"
		},
		{
			"bufferView":54,
			"componentType":5126,
			"count":246,
			"type":"VEC2"
		},
		{
			"bufferView":55,
			"componentType":5123,
			"count":432,
			"type":"SCALAR"
		},
		{
			"bufferView":56,
			"componentType":5126,
			"count":96,
			"max":[
				-0.8196413516998291,
				0.2432342767715454,
				4.564754486083984
			],
			"min":[
				-2.8017725944519043,
				0.19541120529174805,
				2.720130681991577
			],
			"type":"VEC3"
		},
		{
			"bufferView":57,
			"componentType":5126,
			"count":96,
			"type":"VEC3"
		},
		{
			"bufferView":58,
			"componentType":5126,
			"count":96,
			"type":"VEC2"
		},
		{
			"bufferView":59,
			"componentType":5123,
			"count":144,
			"type":"SCALAR"
		}
	],
	"bufferViews":[
		{
			"buffer":0,
			"byteLength":5436,
			"byteOffset":0,
			"target":34962
		},
		{
			"buffer":0,
			"byteLength":5436,
			"byteOffset":5436,
			"target":34962
		},
		{
			"buffer":0,
			"byteLength":3624,
			"byteOffset":10872,
			"target":34962
		},
		{
			"buffer":0,
			"byteLength":1392,
			"byteOffset":14496,
			"target":34963
		},
		{
			"buffer":0,
			"byteLength":6984,
			"byteOffset":15888,
			"target":34962
		},
		{
			"buffer":0,
			"byteLength":6984,
			"byteOffset":22872,
			"target":34962
		},
		{
			"buffer":0,
			"byteLength":4656,
			"byteOffset":29856,
			"target":34962
		},
		{
			"buffer":0,
			"byteLength":2400,
			"byteOffset":34512,
			"target":34963
		},
		{
			"buffer":0,
			"byteLength":288,
			"byteOffset":36912,
			"target":34962
		},
		{
			"buffer":0,
			"byteLength":288,
			"byteOffset":37200,
			"target":34962
		},
		{
			"buffer":0,
			"byteLength":192,
			"byteOffset":37488,
			"target":34962
		},
		{
			"buffer":0,
			"byteLength":108,
			"byteOffset":37680,
			"target":34963
		},
		{
			"buffer":0,
			"byteLength":1248,
			"byteOffset":37788,
			"target":34962
		},
		{
			"buffer":0,
			"byteLength":1248,
			"byteOffset":39036,
			"target":34962
		},
		{
			"buffer":0,
			"byteLength":832,
			"byteOffset":40284,
			"target":34962
		},
		{
			"buffer":0,
			"byteLength":600,
			"byteOffset":41116,
			"target":34963
		},
		{
			"buffer":0,
			"byteLength":324,
			"byteOffset":41716,
			"target":34962
		},
		{
			"buffer":0,
			"byteLength":324,
			"byteOffset":42040,
			"target":34962
		},
		{
			"buffer":0,
			"byteLength":216,
			"byteOffset":42364,
			"target":34962
		},
		{
			"buffer":0,
			"byteLength":120,
			"byteOffset":42580,
			"target":34963
		},
		{
			"buffer":0,
			"byteLength":96,
			"byteOffset":42700,
			"target":34962
		},
		{
			"buffer":0,
			"byteLength":96,
			"byteOffset":42796,
			"target":34962
		},
		{
			"buffer":0,
			"byteLength":64,
			"byteOffset":42892,
			"target":34962
		},
		{
			"buffer":0,
			"byteLength":36,
			"byteOffset":42956,
			"target":34963
		},
		{
			"buffer":0,
			"byteLength":384,
			"byteOffset":42992,
			"target":34962
		},
		{
			"buffer":0,
			"byteLength":384,
			"byteOffset":43376,
			"target":34962
		},
		{
			"buffer":0,
			"byteLength":256,
			"byteOffset":43760,
			"target":34962
		},
		{
			"buffer":0,
			"byteLength":144,
			"byteOffset":44016,
			"target":34963
		},
		{
			"buffer":0,
			"byteLength":13824,
			"byteOffset":44160,
			"target":34962
		},
		{
			"buffer":0,
			"byteLength":13824,
			"byteOffset":57984,
			"target":34962
		},
		{
			"buffer":0,
			"byteLength":9216,
			"byteOffset":71808,
			"target":34962
		},
		{
			"buffer":0,
			"byteLength":3744,
			"byteOffset":81024,
			"target":34963
		},
		{
			"buffer":0,
			"byteLength":2952,
			"byteOffset":84768,
			"target":34962
		},
		{
			"buffer":0,
			"byteLength":2952,
			"byteOffset":87720,
			"target":34962
		},
		{
			"buffer":0,
			"byteLength":1968,
			"byteOffset":90672,
			"target":34962
		},
		{
			"buffer":0,
			"byteLength":864,
			"byteOffset":92640,
			"target":34963
		},
		{
			"buffer":0,
			"byteLength":12816,
			"byteOffset":93504,
			"target":34962
		},
		{
			"buffer":0,
			"byteLength":12816,
			"byteOffset":106320,
			"target":34962
		},
		{
			"buffer":0,
			"byteLength":8544,
			"byteOffset":119136,
			"target":34962
		},
		{
			"buffer":0,
			"byteLength":3456,
			"byteOffset":127680,
			"target":34963
		},
		{
			"buffer":0,
			"byteLength":468,
			"byteOffset":131136,
			"target":34962
		},
		{
			"buffer":0,
			"byteLength":468,
			"byteOffset":131604,
			"target":34962
		},
		{
			"buffer":0,
			"byteLength":312,
			"byteOffset":132072,
			"target":34962
		},
		{
			"buffer":0,
			"byteLength":144,
			"byteOffset":132384,
			"target":34963
		},
		{
			"buffer":0,
			"byteLength":1248,
			"byteOffset":132528,
			"target":34962
		},
		{
			"buffer":0,
			"byteLength":1248,
			"byteOffset":133776,
			"target":34962
		},
		{
			"buffer":0,
			"byteLength":832,
			"byteOffset":135024,
			"target":34962
		},
		{
			"buffer":0,
			"byteLength":312,
			"byteOffset":135856,
			"target":34963
		},
		{
			"buffer":0,
			"byteLength":4608,
			"byteOffset":136168,
			"target":34962
		},
		{
			"buffer":0,
			"byteLength":4608,
			"byteOffset":140776,
			"target":34962
		},
		{
			"buffer":0,
			"byteLength":3072,
			"byteOffset":145384,
			"target":34962
		},
		{
			"buffer":0,
			"byteLength":1152,
			"byteOffset":148456,
			"target":34963
		},
		{
			"buffer":0,
			"byteLength":2952,
			"byteOffset":149608,
			"target":34962
		},
		{
			"buffer":0,
			"byteLength":2952,
			"byteOffset":152560,
			"target":34962
		},
		{
			"buffer":0,
			"byteLength":1968,
			"byteOffset":155512,
			"target":34962
		},
		{
			"buffer":0,
			"byteLength":864,
			"byteOffset":157480,
			"target":34963
		},
		{
			"buffer":0,
			"byteLength":1152,
			"byteOffset":158344,
			"target":34962
		},
		{
			"buffer":0,
			"byteLength":1152,
			"byteOffset":159496,
			"target":34962
		},
		{
			"buffer":0,
			"byteLength":768,
			"byteOffset":160648,
			"target":34962
		},
		{
			"buffer":0,
			"byteLength":288,
			"byteOffset":161416,
			"target":34963
		}
	],
	"buffers":[
		{
			"byteLength":161704,
			"uri":"data:application/octet-stream;base64,"
		}
	]
}
