{
	"asset":{
		"generator":"Khronos glTF Blender I/O v3.6.28",
		"version":"2.0"
	},
	"scene":0,
	"scenes":[
		{
			"name":"Scene",
			"nodes":[
				0
			]
		}
	],
	"nodes":[
		{
			"mesh":0,
			"name":"\u043e\u043b\u0435\u043d\u0435\u043a"
		}
	],
	"materials":[
		{
			"doubleSided":true,
			"name":"osn",
			"pbrMetallicRoughness":{
				"baseColorFactor":[
					0.17144113779067993,
					0.2746773660182953,
					0.1247718334197998,
					1
				],
				"metallicFactor":0,
				"roughnessFactor":0.5
			}
		},
		{
			"doubleSided":true,
			"name":"lightosn",
			"pbrMetallicRoughness":{
				"baseColorFactor":[
					0.22696588933467865,
					0.34191450476646423,
					0.14412851631641388,
					1
				],
				"metallicFactor":0,
				"roughnessFactor":0.5
			}
		},
		{
			"doubleSided":true,
			"name":"onlightosn",
			"pbrMetallicRoughness":{
				"baseColorFactor":[
					0.14995980262756348,
					0.2541521489620209,
					0.12213879823684692,
					1
				],
				"metallicFactor":0,
				"roughnessFactor":0.5
			}
		},
		{
			"doubleSided":true,
			"name":"osn-2",
			"pbrMetallicRoughness":{
				"baseColorFactor":[
					0.17151030898094177,
					0.29630887508392334,
					0.1398809403181076,
					1
				],
				"metallicFactor":0,
				"roughnessFactor":0.5
			}
		},
		{
			"doubleSided":true,
			"name":"shadosn",
			"pbrMetallicRoughness":{
				"baseColorFactor":[
					0.06301002949476242,
					0.14412851631641388,
					0.10224173218011856,
					1
				],
				"metallicFactor":0,
				"roughnessFactor":0.5
			}
		},
		{
			"doubleSided":true,
			"name":"underosn",
			"pbrMetallicRoughness":{
				"baseColorFactor":[
					0.19120171666145325,
					0.11193244159221649,
					0.09758733212947845,
					1
				],
				"metallicFactor":0,
				"roughnessFactor":0.5
			}
		},
		{
			"doubleSided":true,
			"name":"normal-tree",
			"pbrMetallicRoughness":{
				"baseColorFactor":[
					0.10702310502529144,
					0.22322800755500793,
					0.10224173218011856,
					1
				],
				"metallicFactor":0,
				"roughnessFactor":0.5
			}
		},
		{
			"doubleSided":true,
			"name":"osn-tree",
			"pbrMetallicRoughness":{
				"baseColorFactor":[
					0.23455063998699188,
					0.12743771076202393,
					0.05126946046948433,
					1
				],
				"metallicFactor":0,
				"roughnessFactor":0.5
			}
		},
		{
			"doubleSided":true,
			"name":"shad-tree",
			"pbrMetallicRoughness":{
				"baseColorFactor":[
					0.09305897355079651,
					0.2195262312889099,
					0.09758733212947845,
					1
				],
				"metallicFactor":0,
				"roughnessFactor":0.5
			}
		},
		{
			"doubleSided":true,
			"name":"rock",
			"pbrMetallicRoughness":{
				"baseColorFactor":[
					0.3813260495662689,
					0.34670406579971313,
					0.26225075125694275,
					1
				],
				"metallicFactor":0,
				"roughnessFactor":0.5
			}
		},
		{
			"doubleSided":true,
			"name":"rock-sh",
			"pbrMetallicRoughness":{
				"baseColorFactor":[
					0.2195262312889099,
					0.19120171666145325,
					0.1384316384792328,
					1
				],
				"metallicFactor":0,
				"roughnessFactor":0.5
			}
		},
		{
			"doubleSided":true,
			"name":"normal-kus",
			"pbrMetallicRoughness":{
				"baseColorFactor":[
					0.10702310502529144,
					0.18116427958011627,
					0.07818741351366043,
					1
				],
				"metallicFactor":0,
				"roughnessFactor":0.5
			}
		},
		{
			"doubleSided":true,
			"name":"shad-kus",
			"pbrMetallicRoughness":{
				"baseColorFactor":[
					0.06171619892120361,
					0.10226551443338394,
					0.04822072759270668,
					1
				],
				"metallicFactor":0,
				"roughnessFactor":0.5
			}
		},
		{
			"doubleSided":true,
			"name":"light-kus",
			"pbrMetallicRoughness":{
				"baseColorFactor":[
					0.1247718334197998,
					0.22322800755500793,
					0.09305897355079651,
					1
				],
				"metallicFactor":0,
				"roughnessFactor":0.5
			}
		}
	],
	"meshes":[
		{
			"name":"Vert.009",
			"primitives":[
				{
					"attributes":{
						"POSITION":0,
						"NORMAL":1,
						"TEXCOORD_0":2
					},
					"indices":3,
					"material":0
				},
				{
					"attributes":{
						"POSITION":4,
						"NORMAL":5,
						"TEXCOORD_0":6
					},
					"indices":7,
					"material":1
				},
				{
					"attributes":{
						"POSITION":8,
						"NORMAL":9,
						"TEXCOORD_0":10
					},
					"indices":11,
					"material":2
				},
				{
					"attributes":{
						"POSITION":12,
						"NORMAL":13,
						"TEXCOORD_0":14
					},
					"indices":15,
					"material":3
				},
				{
					"attributes":{
						"POSITION":16,
						"NORMAL":17,
						"TEXCOORD_0":18
					},
					"indices":19,
					"material":4
				},
				{
					"attributes":{
						"POSITION":20,
						"NORMAL":21,
						"TEXCOORD_0":22
					},
					"indices":23,
					"material":5
				},
				{
					"attributes":{
						"POSITION":24,
						"NORMAL":25,
						"TEXCOORD_0":26
					},
					"indices":27,
					"material":6
				},
				{
					"attributes":{
						"POSITION":28,
						"NORMAL":29,
						"TEXCOORD_0":30
					},
					"indices":31,
					"material":7
				},
				{
					"attributes":{
						"POSITION":32,
						"NORMAL":33,
						"TEXCOORD_0":34
					},
					"indices":35,
					"material":8
				},
				{
					"attributes":{
						"POSITION":36,
						"NORMAL":37,
						"TEXCOORD_0":38
					},
					"indices":39,
					"material":9
				},
				{
					"attributes":{
						"POSITION":40,
						"NORMAL":41,
						"TEXCOORD_0":42
					},
					"indices":43,
					"material":10
				},
				{
					"attributes":{
						"POSITION":44,
						"NORMAL":45,
						"TEXCOORD_0":46
					},
					"indices":47,
					"material":11
				},
				{
					"attributes":{
						"POSITION":48,
						"NORMAL":49,
						"TEXCOORD_0":50
					},
					"indices":51,
					"material":12
				},
				{
					"attributes":{
						"POSITION":52,
						"NORMAL":53,
						"TEXCOORD_0":54
					},
					"indices":55,
					"material":13
				}
			]
		}
	],
	"accessors":[
		{
			"bufferView":0,
			"componentType":5126,
			"count":616,
			"max":[
				-2.075021982192993,
				0.15620458126068115,
				0.8611485958099365
			],
			"min":[
				-5.265353202819824,
				0.07810229063034058,
				-3.041193723678589
			],
			"type":"VEC3"
		},
		{
			"bufferView":1,
			"componentType":5126,
			"count":616,
			"type":"VEC3"
		},
		{
			"bufferView":2,
			"componentType":5126,
			"count":616,
			"type":"VEC2"
		},
		{
			"bufferView":3,
			"componentType":5123,
			"count":930,
			"type":"SCALAR"
		},
		{
			"bufferView":4,
			"componentType":5126,
			"count":18,
			"max":[
				-2.6194679737091064,
				0.15620458126068115,
				-0.18599019944667816
			],
			"min":[
				-4.874617576599121,
				0.15620458126068115,
				-2.356210231781006
			],
			"type":"VEC3"
		},
		{
			"bufferView":5,
			"componentType":5126,
			"count":18,
			"type":"VEC3"
		},
		{
			"bufferView":6,
			"componentType":5126,
			"count":18,
			"type":"VEC2"
		},
		{
			"bufferView":7,
			"componentType":5123,
			"count":36,
			"type":"SCALAR"
		},
		{
			"bufferView":8,
			"componentType":5126,
			"count":49,
			"max":[
				-2.075021982192993,
				0.15620458126068115,
				0.44308531284332275
			],
			"min":[
				-4.987308502197266,
				0.15620458126068115,
				-2.8312795162200928
			],
			"type":"VEC3"
		},
		{
			"bufferView":9,
			"componentType":5126,
			"count":49,
			"type":"VEC3"
		},
		{
			"bufferView":10,
			"componentType":5126,
			"count":49,
			"type":"VEC2"
		},
		{
			"bufferView":11,
			"componentType":5123,
			"count":114,
			"type":"SCALAR"
		},
		{
			"bufferView":12,
			"componentType":5126,
			"count":26,
			"max":[
				-2.313661575317383,
				0.15620458126068115,
				0.04879347234964371
			],
			"min":[
				-4.92543888092041,
				0.15620458126068115,
				-2.433547019958496
			],
			"type":"VEC3"
		},
		{
			"bufferView":13,
			"componentType":5126,
			"count":26,
			"type":"VEC3"
		},
		{
			"bufferView":14,
			"componentType":5126,
			"count":26,
			"type":"VEC2"
		},
		{
			"bufferView":15,
			"componentType":5123,
			"count":48,
			"type":"SCALAR"
		},
		{
			"bufferView":16,
			"componentType":5126,
			"count":183,
			"max":[
				-2.0882797241210938,
				0.15620458126068115,
				0.8611485958099365
			],
			"min":[
				-5.265353202819824,
				0.15620458126068115,
				-3.041193723678589
			],
			"type":"VEC3"
		},
		{
			"bufferView":17,
			"componentType":5126,
			"count":183,
			"type":"VEC3"
		},
		{
			"bufferView":18,
			"componentType":5126,
			"count":183,
			"type":"VEC2"
		},
		{
			"bufferView":19,
			"componentType":5123,
			"count":537,
			"type":"SCALAR"
		},
		{
			"bufferView":20,
			"componentType":5126,
			"count":817,
			"max":[
				-2.075021982192993,
				0.07810229063034058,
				0.8611485958099365
			],
			"min":[
				-5.265353202819824,
				0,
				-3.041193723678589
			],
			"type":"VEC3"
		},
		{
			"bufferView":21,
			"componentType":5126,
			"count":817,
			"type":"VEC3"
		},
		{
			"bufferView":22,
			"componentType":5126,
			"count":817,
			"type":"VEC2"
		},
		{
			"bufferView":23,
			"componentType":5123,
			"count":1665,
			"type":"SCALAR"
		},
		{
			"bufferView":24,
			"componentType":5126,
			"count":1728,
			"max":[
				-2.415005683898926,
				0.5324561595916748,
				0.804598331451416
			],
			"min":[
				-4.976414680480957,
				0.18062539398670197,
				-2.9461653232574463
			],
			"type":"VEC3"
		},
		{
			"bufferView":25,
			"componentType":5126,
			"count":1728,
			"type":"VEC3"
		},
		{
			"bufferView":26,
			"componentType":5126,
			"count":1728,
			"type":"VEC2"
		},
		{
			"bufferView":27,
			"componentType":5123,
			"count":2808,
			"type":"SCALAR"
		},
		{
			"bufferView":28,
			"componentType":5126,
			"count":369,
			"max":[
				-2.542494058609009,
				0.21646273136138916,
				0.6646082401275635
			],
			"min":[
				-4.906179904937744,
				0.14688259363174438,
				-2.8117735385894775
			],
			"type":"VEC3"
		},
		{
			"bufferView":29,
			"componentType":5126,
			"count":369,
			"type":"VEC3"
		},
		{
			"bufferView":30,
			"componentType":5126,
			"count":369,
			"type":"VEC2"
		},
		{
			"bufferView":31,
			"componentType":5123,
			"count":648,
			"type":"SCALAR"
		},
		{
			"bufferView":32,
			"componentType":5126,
			"count":1602,
			"max":[
				-2.5112338066101074,
				0.5324561595916748,
				0.804598331451416
			],
			"min":[
				-5.046130180358887,
				0.18062539398670197,
				-2.9461653232574463
			],
			"type":"VEC3"
		},
		{
			"bufferView":33,
			"componentType":5126,
			"count":1602,
			"type":"VEC3"
		},
		{
			"bufferView":34,
			"componentType":5126,
			"count":1602,
			"type":"VEC2"
		},
		{
			"bufferView":35,
			"componentType":5123,
			"count":2592,
			"type":"SCALAR"
		},
		{
			"bufferView":36,
			"componentType":5126,
			"count":39,
			"max":[
				-2.5439183712005615,
				0.25727108120918274,
				-2.421175003051758
			],
			"min":[
				-2.7862846851348877,
				0.15202704071998596,
				-2.6553704738616943
			],
			"type":"VEC3"
		},
		{
			"bufferView":37,
			"componentType":5126,
			"count":39,
			"type":"VEC3"
		},
		{
			"bufferView":38,
			"componentType":5126,
			"count":39,
			"type":"VEC2"
		},
		{
			"bufferView":39,
			"componentType":5123,
			"count":72,
			"type":"SCALAR"
		},
		{
			"bufferView":40,
			"componentType":5126,
			"count":104,
			"max":[
				-2.5439183712005615,
				0.2820605933666229,
				-2.421175003051758
			],
			"min":[
				-2.7862846851348877,
				0.15202704071998596,
				-2.657337188720703
			],
			"type":"VEC3"
		},
		{
			"bufferView":41,
			"componentType":5126,
			"count":104,
			"type":"VEC3"
		},
		{
			"bufferView":42,
			"componentType":5126,
			"count":104,
			"type":"VEC2"
		},
		{
			"bufferView":43,
			"componentType":5123,
			"count":156,
			"type":"SCALAR"
		},
		{
			"bufferView":44,
			"componentType":5126,
			"count":512,
			"max":[
				-2.2742533683776855,
				0.23280784487724304,
				0.5237202048301697
			],
			"min":[
				-5.129397869110107,
				0.146966353058815,
				-2.8499207496643066
			],
			"type":"VEC3"
		},
		{
			"bufferView":45,
			"componentType":5126,
			"count":512,
			"type":"VEC3"
		},
		{
			"bufferView":46,
			"componentType":5126,
			"count":512,
			"type":"VEC2"
		},
		{
			"bufferView":47,
			"componentType":5123,
			"count":768,
			"type":"SCALAR"
		},
		{
			"bufferView":48,
			"componentType":5126,
			"count":328,
			"max":[
				-2.2742533683776855,
				0.1781691312789917,
				0.5237202048301697
			],
			"min":[
				-5.129397869110107,
				0.1313757598400116,
				-2.8499207496643066
			],
			"type":"VEC3"
		},
		{
			"bufferView":49,
			"componentType":5126,
			"count":328,
			"type":"VEC3"
		},
		{
			"bufferView":50,
			"componentType":5126,
			"count":328,
			"type":"VEC2"
		},
		{
			"bufferView":51,
			"componentType":5123,
			"count":576,
			"type":"SCALAR"
		},
		{
			"bufferView":52,
			"componentType":5126,
			"count":128,
			"max":[
				-2.294754981994629,
				0.24821141362190247,
				0.49722176790237427
			],
			"min":[
				-5.105290412902832,
				0.1902361512184143,
				-2.827359437942505
			],
			"type":"VEC3"
		},
		{
			"bufferView":53,
			"componentType":5126,
			"count":128,
			"type":"VEC3"
		},
		{
			"bufferView":54,
			"componentType":5126,
			"count":128,
			"type":"VEC2"
		},
		{
			"bufferView":55,
			"componentType":5123,
			"count":192,
			"type":"SCALAR"
		}
	],
	"bufferViews":[
		{
			"buffer":0,
			"byteLength":7392,
			"byteOffset":0,
			"target":34962
		},
		{
			"buffer":0,
			"byteLength":7392,
			"byteOffset":7392,
			"target":34962
		},
		{
			"buffer":0,
			"byteLength":4928,
			"byteOffset":14784,
			"target":34962
		},
		{
			"buffer":0,
			"byteLength":1860,
			"byteOffset":19712,
			"target":34963
		},
		{
			"buffer":0,
			"byteLength":216,
			"byteOffset":21572,
			"target":34962
		},
		{
			"buffer":0,
			"byteLength":216,
			"byteOffset":21788,
			"target":34962
		},
		{
			"buffer":0,
			"byteLength":144,
			"byteOffset":22004,
			"target":34962
		},
		{
			"buffer":0,
			"byteLength":72,
			"byteOffset":22148,
			"target":34963
		},
		{
			"buffer":0,
			"byteLength":588,
			"byteOffset":22220,
			"target":34962
		},
		{
			"buffer":0,
			"byteLength":588,
			"byteOffset":22808,
			"target":34962
		},
		{
			"buffer":0,
			"byteLength":392,
			"byteOffset":23396,
			"target":34962
		},
		{
			"buffer":0,
			"byteLength":228,
			"byteOffset":23788,
			"target":34963
		},
		{
			"buffer":0,
			"byteLength":312,
			"byteOffset":24016,
			"target":34962
		},
		{
			"buffer":0,
			"byteLength":312,
			"byteOffset":24328,
			"target":34962
		},
		{
			"buffer":0,
			"byteLength":208,
			"byteOffset":24640,
			"target":34962
		},
		{
			"buffer":0,
			"byteLength":96,
			"byteOffset":24848,
			"target":34963
		},
		{
			"buffer":0,
			"byteLength":2196,
			"byteOffset":24944,
			"target":34962
		},
		{
			"buffer":0,
			"byteLength":2196,
			"byteOffset":27140,
			"target":34962
		},
		{
			"buffer":0,
			"byteLength":1464,
			"byteOffset":29336,
			"target":34962
		},
		{
			"buffer":0,
			"byteLength":1074,
			"byteOffset":30800,
			"target":34963
		},
		{
			"buffer":0,
			"byteLength":9804,
			"byteOffset":31876,
			"target":34962
		},
		{
			"buffer":0,
			"byteLength":9804,
			"byteOffset":41680,
			"target":34962
		},
		{
			"buffer":0,
			"byteLength":6536,
			"byteOffset":51484,
			"target":34962
		},
		{
			"buffer":0,
			"byteLength":3330,
			"byteOffset":58020,
			"target":34963
		},
		{
			"buffer":0,
			"byteLength":20736,
			"byteOffset":61352,
			"target":34962
		},
		{
			"buffer":0,
			"byteLength":20736,
			"byteOffset":82088,
			"target":34962
		},
		{
			"buffer":0,
			"byteLength":13824,
			"byteOffset":102824,
			"target":34962
		},
		{
			"buffer":0,
			"byteLength":5616,
			"byteOffset":116648,
			"target":34963
		},
		{
			"buffer":0,
			"byteLength":4428,
			"byteOffset":122264,
			"target":34962
		},
		{
			"buffer":0,
			"byteLength":4428,
			"byteOffset":126692,
			"target":34962
		},
		{
			"buffer":0,
			"byteLength":2952,
			"byteOffset":131120,
			"target":34962
		},
		{
			"buffer":0,
			"byteLength":1296,
			"byteOffset":134072,
			"target":34963
		},
		{
			"buffer":0,
			"byteLength":19224,
			"byteOffset":135368,
			"target":34962
		},
		{
			"buffer":0,
			"byteLength":19224,
			"byteOffset":154592,
			"target":34962
		},
		{
			"buffer":0,
			"byteLength":12816,
			"byteOffset":173816,
			"target":34962
		},
		{
			"buffer":0,
			"byteLength":5184,
			"byteOffset":186632,
			"target":34963
		},
		{
			"buffer":0,
			"byteLength":468,
			"byteOffset":191816,
			"target":34962
		},
		{
			"buffer":0,
			"byteLength":468,
			"byteOffset":192284,
			"target":34962
		},
		{
			"buffer":0,
			"byteLength":312,
			"byteOffset":192752,
			"target":34962
		},
		{
			"buffer":0,
			"byteLength":144,
			"byteOffset":193064,
			"target":34963
		},
		{
			"buffer":0,
			"byteLength":1248,
			"byteOffset":193208,
			"target":34962
		},
		{
			"buffer":0,
			"byteLength":1248,
			"byteOffset":194456,
			"target":34962
		},
		{
			"buffer":0,
			"byteLength":832,
			"byteOffset":195704,
			"target":34962
		},
		{
			"buffer":0,
			"byteLength":312,
			"byteOffset":196536,
			"target":34963
		},
		{
			"buffer":0,
			"byteLength":6144,
			"byteOffset":196848,
			"target":34962
		},
		{
			"buffer":0,
			"byteLength":6144,
			"byteOffset":202992,
			"target":34962
		},
		{
			"buffer":0,
			"byteLength":4096,
			"byteOffset":209136,
			"target":34962
		},
		{
			"buffer":0,
			"byteLength":1536,
			"byteOffset":213232,
			"target":34963
		},
		{
			"buffer":0,
			"byteLength":3936,
			"byteOffset":214768,
			"target":34962
		},
		{
			"buffer":0,
			"byteLength":3936,
			"byteOffset":218704,
			"target":34962
		},
		{
			"buffer":0,
			"byteLength":2624,
			"byteOffset":222640,
			"target":34962
		},
		{
			"buffer":0,
			"byteLength":1152,
			"byteOffset":225264,
			"target":34963
		},
		{
			"buffer":0,
			"byteLength":1536,
			"byteOffset":226416,
			"target":34962
		},
		{
			"buffer":0,
			"byteLength":1536,
			"byteOffset":227952,
			"target":34962
		},
		{
			"buffer":0,
			"byteLength":1024,
			"byteOffset":229488,
			"target":34962
		},
		{
			"buffer":0,
			"byteLength":384,
			"byteOffset":230512,
			"target":34963
		}
	],
	"buffers":[
		{
			"byteLength":230896,
			"uri":"data:application/octet-stream;base64,"
		}
	]
}
