{
	"asset":{
		"generator":"Khronos glTF Blender I/O v3.6.28",
		"version":"2.0"
	},
	"scene":0,
	"scenes":[
		{
			"name":"Scene",
			"nodes":[
				0
			]
		}
	],
	"nodes":[
		{
			"mesh":0,
			"name":"\u043f\u043e\u043a\u0440\u043e\u0432\u0441\u043a"
		}
	],
	"materials":[
		{
			"doubleSided":true,
			"name":"osn",
			"pbrMetallicRoughness":{
				"baseColorFactor":[
					0.17144113779067993,
					0.2746773660182953,
					0.1247718334197998,
					1
				],
				"metallicFactor":0,
				"roughnessFactor":0.5
			}
		},
		{
			"doubleSided":true,
			"name":"lightosn",
			"pbrMetallicRoughness":{
				"baseColorFactor":[
					0.22696588933467865,
					0.34191450476646423,
					0.14412851631641388,
					1
				],
				"metallicFactor":0,
				"roughnessFactor":0.5
			}
		},
		{
			"doubleSided":true,
			"name":"onlightosn",
			"pbrMetallicRoughness":{
				"baseColorFactor":[
					0.14995980262756348,
					0.2541521489620209,
					0.12213879823684692,
					1
				],
				"metallicFactor":0,
				"roughnessFactor":0.5
			}
		},
		{
			"doubleSided":true,
			"name":"osn-2",
			"pbrMetallicRoughness":{
				"baseColorFactor":[
					0.17151030898094177,
					0.29630887508392334,
					0.1398809403181076,
					1
				],
				"metallicFactor":0,
				"roughnessFactor":0.5
			}
		},
		{
			"doubleSided":true,
			"name":"shadosn",
			"pbrMetallicRoughness":{
				"baseColorFactor":[
					0.06301002949476242,
					0.14412851631641388,
					0.10224173218011856,
					1
				],
				"metallicFactor":0,
				"roughnessFactor":0.5
			}
		},
		{
			"doubleSided":true,
			"name":"underosn",
			"pbrMetallicRoughness":{
				"baseColorFactor":[
					0.19120171666145325,
					0.11193244159221649,
					0.09758733212947845,
					1
				],
				"metallicFactor":0,
				"roughnessFactor":0.5
			}
		},
		{
			"doubleSided":true,
			"name":"normal-tree",
			"pbrMetallicRoughness":{
				"baseColorFactor":[
					0.10702310502529144,
					0.22322800755500793,
					0.10224173218011856,
					1
				],
				"metallicFactor":0,
				"roughnessFactor":0.5
			}
		},
		{
			"doubleSided":true,
			"name":"osn-tree",
			"pbrMetallicRoughness":{
				"baseColorFactor":[
					0.23455063998699188,
					0.12743771076202393,
					0.05126946046948433,
					1
				],
				"metallicFactor":0,
				"roughnessFactor":0.5
			}
		},
		{
			"doubleSided":true,
			"name":"shad-tree",
			"pbrMetallicRoughness":{
				"baseColorFactor":[
					0.09305897355079651,
					0.2195262312889099,
					0.09758733212947845,
					1
				],
				"metallicFactor":0,
				"roughnessFactor":0.5
			}
		},
		{
			"doubleSided":true,
			"name":"rock",
			"pbrMetallicRoughness":{
				"baseColorFactor":[
					0.3813260495662689,
					0.34670406579971313,
					0.26225075125694275,
					1
				],
				"metallicFactor":0,
				"roughnessFactor":0.5
			}
		},
		{
			"doubleSided":true,
			"name":"rock-sh",
			"pbrMetallicRoughness":{
				"baseColorFactor":[
					0.2195262312889099,
					0.19120171666145325,
					0.1384316384792328,
					1
				],
				"metallicFactor":0,
				"roughnessFactor":0.5
			}
		},
		{
			"doubleSided":true,
			"name":"normal-kus",
			"pbrMetallicRoughness":{
				"baseColorFactor":[
					0.10702310502529144,
					0.18116427958011627,
					0.07818741351366043,
					1
				],
				"metallicFactor":0,
				"roughnessFactor":0.5
			}
		},
		{
			"doubleSided":true,
			"name":"shad-kus",
			"pbrMetallicRoughness":{
				"baseColorFactor":[
					0.06171619892120361,
					0.10226551443338394,
					0.04822072759270668,
					1
				],
				"metallicFactor":0,
				"roughnessFactor":0.5
			}
		},
		{
			"doubleSided":true,
			"name":"light-kus",
			"pbrMetallicRoughness":{
				"baseColorFactor":[
					0.1247718334197998,
					0.22322800755500793,
					0.09305897355079651,
					1
				],
				"metallicFactor":0,
				"roughnessFactor":0.5
			}
		}
	],
	"meshes":[
		{
			"name":"Vert.014",
			"primitives":[
				{
					"attributes":{
						"POSITION":0,
						"NORMAL":1,
						"TEXCOORD_0":2
					},
					"indices":3,
					"material":0
				},
				{
					"attributes":{
						"POSITION":4,
						"NORMAL":5,
						"TEXCOORD_0":6
					},
					"indices":7,
					"material":1
				},
				{
					"attributes":{
						"POSITION":8,
						"NORMAL":9,
						"TEXCOORD_0":10
					},
					"indices":11,
					"material":2
				},
				{
					"attributes":{
						"POSITION":12,
						"NORMAL":13,
						"TEXCOORD_0":14
					},
					"indices":15,
					"material":3
				},
				{
					"attributes":{
						"POSITION":16,
						"NORMAL":17,
						"TEXCOORD_0":18
					},
					"indices":19,
					"material":4
				},
				{
					"attributes":{
						"POSITION":20,
						"NORMAL":21,
						"TEXCOORD_0":22
					},
					"indices":23,
					"material":5
				},
				{
					"attributes":{
						"POSITION":24,
						"NORMAL":25,
						"TEXCOORD_0":26
					},
					"indices":27,
					"material":6
				},
				{
					"attributes":{
						"POSITION":28,
						"NORMAL":29,
						"TEXCOORD_0":30
					},
					"indices":31,
					"material":7
				},
				{
					"attributes":{
						"POSITION":32,
						"NORMAL":33,
						"TEXCOORD_0":34
					},
					"indices":35,
					"material":8
				},
				{
					"attributes":{
						"POSITION":36,
						"NORMAL":37,
						"TEXCOORD_0":38
					},
					"indices":39,
					"material":9
				},
				{
					"attributes":{
						"POSITION":40,
						"NORMAL":41,
						"TEXCOORD_0":42
					},
					"indices":43,
					"material":10
				},
				{
					"attributes":{
						"POSITION":44,
						"NORMAL":45,
						"TEXCOORD_0":46
					},
					"indices":47,
					"material":11
				},
				{
					"attributes":{
						"POSITION":48,
						"NORMAL":49,
						"TEXCOORD_0":50
					},
					"indices":51,
					"material":12
				},
				{
					"attributes":{
						"POSITION":52,
						"NORMAL":53,
						"TEXCOORD_0":54
					},
					"indices":55,
					"material":13
				}
			]
		}
	],
	"accessors":[
		{
			"bufferView":0,
			"componentType":5126,
			"count":222,
			"max":[
				0.25640323758125305,
				0.15620458126068115,
				3.0219943523406982
			],
			"min":[
				-1.2411905527114868,
				0.07810229063034058,
				2.203312635421753
			],
			"type":"VEC3"
		},
		{
			"bufferView":1,
			"componentType":5126,
			"count":222,
			"type":"VEC3"
		},
		{
			"bufferView":2,
			"componentType":5126,
			"count":222,
			"type":"VEC2"
		},
		{
			"bufferView":3,
			"componentType":5123,
			"count":336,
			"type":"SCALAR"
		},
		{
			"bufferView":4,
			"componentType":5126,
			"count":14,
			"max":[
				0.09189131110906601,
				0.15620458126068115,
				2.9180922508239746
			],
			"min":[
				-1.1140086650848389,
				0.15620458126068115,
				2.4197754859924316
			],
			"type":"VEC3"
		},
		{
			"bufferView":5,
			"componentType":5126,
			"count":14,
			"type":"VEC3"
		},
		{
			"bufferView":6,
			"componentType":5126,
			"count":14,
			"type":"VEC2"
		},
		{
			"bufferView":7,
			"componentType":5123,
			"count":24,
			"type":"SCALAR"
		},
		{
			"bufferView":8,
			"componentType":5126,
			"count":22,
			"max":[
				0.2347569316625595,
				0.15620458126068115,
				2.9180922508239746
			],
			"min":[
				-1.1944894790649414,
				0.15620458126068115,
				2.383572578430176
			],
			"type":"VEC3"
		},
		{
			"bufferView":9,
			"componentType":5126,
			"count":22,
			"type":"VEC3"
		},
		{
			"bufferView":10,
			"componentType":5126,
			"count":22,
			"type":"VEC2"
		},
		{
			"bufferView":11,
			"componentType":5123,
			"count":42,
			"type":"SCALAR"
		},
		{
			"bufferView":12,
			"componentType":5126,
			"count":10,
			"max":[
				0.011078434064984322,
				0.15620458126068115,
				2.776785373687744
			],
			"min":[
				-0.6040369272232056,
				0.15620458126068115,
				2.2812395095825195
			],
			"type":"VEC3"
		},
		{
			"bufferView":13,
			"componentType":5126,
			"count":10,
			"type":"VEC3"
		},
		{
			"bufferView":14,
			"componentType":5126,
			"count":10,
			"type":"VEC2"
		},
		{
			"bufferView":15,
			"componentType":5123,
			"count":18,
			"type":"SCALAR"
		},
		{
			"bufferView":16,
			"componentType":5126,
			"count":39,
			"max":[
				0.25640323758125305,
				0.15620458126068115,
				3.0219943523406982
			],
			"min":[
				-1.2411905527114868,
				0.15620458126068115,
				2.203312635421753
			],
			"type":"VEC3"
		},
		{
			"bufferView":17,
			"componentType":5126,
			"count":39,
			"type":"VEC3"
		},
		{
			"bufferView":18,
			"componentType":5126,
			"count":39,
			"type":"VEC2"
		},
		{
			"bufferView":19,
			"componentType":5123,
			"count":90,
			"type":"SCALAR"
		},
		{
			"bufferView":20,
			"componentType":5126,
			"count":273,
			"max":[
				0.25640323758125305,
				0.07810229063034058,
				3.0219943523406982
			],
			"min":[
				-1.2411905527114868,
				0,
				2.203312635421753
			],
			"type":"VEC3"
		},
		{
			"bufferView":21,
			"componentType":5126,
			"count":273,
			"type":"VEC3"
		},
		{
			"bufferView":22,
			"componentType":5126,
			"count":273,
			"type":"VEC2"
		},
		{
			"bufferView":23,
			"componentType":5123,
			"count":510,
			"type":"SCALAR"
		},
		{
			"bufferView":24,
			"componentType":5126,
			"count":384,
			"max":[
				0.18940943479537964,
				0.5324561595916748,
				2.887535572052002
			],
			"min":[
				-0.9735085368156433,
				0.18085308372974396,
				2.5014004707336426
			],
			"type":"VEC3"
		},
		{
			"bufferView":25,
			"componentType":5126,
			"count":384,
			"type":"VEC3"
		},
		{
			"bufferView":26,
			"componentType":5126,
			"count":384,
			"type":"VEC2"
		},
		{
			"bufferView":27,
			"componentType":5123,
			"count":624,
			"type":"SCALAR"
		},
		{
			"bufferView":28,
			"componentType":5126,
			"count":82,
			"max":[
				0.10235288739204407,
				0.21646273136138916,
				2.7475454807281494
			],
			"min":[
				-0.9640071988105774,
				0.14710834622383118,
				2.5931708812713623
			],
			"type":"VEC3"
		},
		{
			"bufferView":29,
			"componentType":5126,
			"count":82,
			"type":"VEC3"
		},
		{
			"bufferView":30,
			"componentType":5126,
			"count":82,
			"type":"VEC2"
		},
		{
			"bufferView":31,
			"componentType":5123,
			"count":144,
			"type":"SCALAR"
		},
		{
			"bufferView":32,
			"componentType":5126,
			"count":356,
			"max":[
				0.10185450315475464,
				0.5324561595916748,
				2.887535572052002
			],
			"min":[
				-1.0968064069747925,
				0.18085308372974396,
				2.5014004707336426
			],
			"type":"VEC3"
		},
		{
			"bufferView":33,
			"componentType":5126,
			"count":356,
			"type":"VEC3"
		},
		{
			"bufferView":34,
			"componentType":5126,
			"count":356,
			"type":"VEC2"
		},
		{
			"bufferView":35,
			"componentType":5123,
			"count":576,
			"type":"SCALAR"
		},
		{
			"bufferView":36,
			"componentType":5126,
			"count":39,
			"max":[
				0.03694934397935867,
				0.22111393511295319,
				2.61006760597229
			],
			"min":[
				-0.13777676224708557,
				0.15333685278892517,
				2.419126510620117
			],
			"type":"VEC3"
		},
		{
			"bufferView":37,
			"componentType":5126,
			"count":39,
			"type":"VEC3"
		},
		{
			"bufferView":38,
			"componentType":5126,
			"count":39,
			"type":"VEC2"
		},
		{
			"bufferView":39,
			"componentType":5123,
			"count":72,
			"type":"SCALAR"
		},
		{
			"bufferView":40,
			"componentType":5126,
			"count":104,
			"max":[
				0.03694934397935867,
				0.23707836866378784,
				2.61006760597229
			],
			"min":[
				-0.13777676224708557,
				0.15333685278892517,
				2.419126510620117
			],
			"type":"VEC3"
		},
		{
			"bufferView":41,
			"componentType":5126,
			"count":104,
			"type":"VEC3"
		},
		{
			"bufferView":42,
			"componentType":5126,
			"count":104,
			"type":"VEC2"
		},
		{
			"bufferView":43,
			"componentType":5123,
			"count":156,
			"type":"SCALAR"
		},
		{
			"bufferView":44,
			"componentType":5126,
			"count":128,
			"max":[
				-0.024956941604614258,
				0.23280784487724304,
				2.8375256061553955
			],
			"min":[
				-0.8094671368598938,
				0.16613662242889404,
				2.2745285034179688
			],
			"type":"VEC3"
		},
		{
			"bufferView":45,
			"componentType":5126,
			"count":128,
			"type":"VEC3"
		},
		{
			"bufferView":46,
			"componentType":5126,
			"count":128,
			"type":"VEC2"
		},
		{
			"bufferView":47,
			"componentType":5123,
			"count":192,
			"type":"SCALAR"
		},
		{
			"bufferView":48,
			"componentType":5126,
			"count":82,
			"max":[
				-0.024956941604614258,
				0.1781691312789917,
				2.8375256061553955
			],
			"min":[
				-0.8094671368598938,
				0.1478251814842224,
				2.2745285034179688
			],
			"type":"VEC3"
		},
		{
			"bufferView":49,
			"componentType":5126,
			"count":82,
			"type":"VEC3"
		},
		{
			"bufferView":50,
			"componentType":5126,
			"count":82,
			"type":"VEC2"
		},
		{
			"bufferView":51,
			"componentType":5123,
			"count":144,
			"type":"SCALAR"
		},
		{
			"bufferView":52,
			"componentType":5126,
			"count":32,
			"max":[
				-0.04902215301990509,
				0.24821141362190247,
				2.8074374198913574
			],
			"min":[
				-0.7812322974205017,
				0.21695777773857117,
				2.3002116680145264
			],
			"type":"VEC3"
		},
		{
			"bufferView":53,
			"componentType":5126,
			"count":32,
			"type":"VEC3"
		},
		{
			"bufferView":54,
			"componentType":5126,
			"count":32,
			"type":"VEC2"
		},
		{
			"bufferView":55,
			"componentType":5123,
			"count":48,
			"type":"SCALAR"
		}
	],
	"bufferViews":[
		{
			"buffer":0,
			"byteLength":2664,
			"byteOffset":0,
			"target":34962
		},
		{
			"buffer":0,
			"byteLength":2664,
			"byteOffset":2664,
			"target":34962
		},
		{
			"buffer":0,
			"byteLength":1776,
			"byteOffset":5328,
			"target":34962
		},
		{
			"buffer":0,
			"byteLength":672,
			"byteOffset":7104,
			"target":34963
		},
		{
			"buffer":0,
			"byteLength":168,
			"byteOffset":7776,
			"target":34962
		},
		{
			"buffer":0,
			"byteLength":168,
			"byteOffset":7944,
			"target":34962
		},
		{
			"buffer":0,
			"byteLength":112,
			"byteOffset":8112,
			"target":34962
		},
		{
			"buffer":0,
			"byteLength":48,
			"byteOffset":8224,
			"target":34963
		},
		{
			"buffer":0,
			"byteLength":264,
			"byteOffset":8272,
			"target":34962
		},
		{
			"buffer":0,
			"byteLength":264,
			"byteOffset":8536,
			"target":34962
		},
		{
			"buffer":0,
			"byteLength":176,
			"byteOffset":8800,
			"target":34962
		},
		{
			"buffer":0,
			"byteLength":84,
			"byteOffset":8976,
			"target":34963
		},
		{
			"buffer":0,
			"byteLength":120,
			"byteOffset":9060,
			"target":34962
		},
		{
			"buffer":0,
			"byteLength":120,
			"byteOffset":9180,
			"target":34962
		},
		{
			"buffer":0,
			"byteLength":80,
			"byteOffset":9300,
			"target":34962
		},
		{
			"buffer":0,
			"byteLength":36,
			"byteOffset":9380,
			"target":34963
		},
		{
			"buffer":0,
			"byteLength":468,
			"byteOffset":9416,
			"target":34962
		},
		{
			"buffer":0,
			"byteLength":468,
			"byteOffset":9884,
			"target":34962
		},
		{
			"buffer":0,
			"byteLength":312,
			"byteOffset":10352,
			"target":34962
		},
		{
			"buffer":0,
			"byteLength":180,
			"byteOffset":10664,
			"target":34963
		},
		{
			"buffer":0,
			"byteLength":3276,
			"byteOffset":10844,
			"target":34962
		},
		{
			"buffer":0,
			"byteLength":3276,
			"byteOffset":14120,
			"target":34962
		},
		{
			"buffer":0,
			"byteLength":2184,
			"byteOffset":17396,
			"target":34962
		},
		{
			"buffer":0,
			"byteLength":1020,
			"byteOffset":19580,
			"target":34963
		},
		{
			"buffer":0,
			"byteLength":4608,
			"byteOffset":20600,
			"target":34962
		},
		{
			"buffer":0,
			"byteLength":4608,
			"byteOffset":25208,
			"target":34962
		},
		{
			"buffer":0,
			"byteLength":3072,
			"byteOffset":29816,
			"target":34962
		},
		{
			"buffer":0,
			"byteLength":1248,
			"byteOffset":32888,
			"target":34963
		},
		{
			"buffer":0,
			"byteLength":984,
			"byteOffset":34136,
			"target":34962
		},
		{
			"buffer":0,
			"byteLength":984,
			"byteOffset":35120,
			"target":34962
		},
		{
			"buffer":0,
			"byteLength":656,
			"byteOffset":36104,
			"target":34962
		},
		{
			"buffer":0,
			"byteLength":288,
			"byteOffset":36760,
			"target":34963
		},
		{
			"buffer":0,
			"byteLength":4272,
			"byteOffset":37048,
			"target":34962
		},
		{
			"buffer":0,
			"byteLength":4272,
			"byteOffset":41320,
			"target":34962
		},
		{
			"buffer":0,
			"byteLength":2848,
			"byteOffset":45592,
			"target":34962
		},
		{
			"buffer":0,
			"byteLength":1152,
			"byteOffset":48440,
			"target":34963
		},
		{
			"buffer":0,
			"byteLength":468,
			"byteOffset":49592,
			"target":34962
		},
		{
			"buffer":0,
			"byteLength":468,
			"byteOffset":50060,
			"target":34962
		},
		{
			"buffer":0,
			"byteLength":312,
			"byteOffset":50528,
			"target":34962
		},
		{
			"buffer":0,
			"byteLength":144,
			"byteOffset":50840,
			"target":34963
		},
		{
			"buffer":0,
			"byteLength":1248,
			"byteOffset":50984,
			"target":34962
		},
		{
			"buffer":0,
			"byteLength":1248,
			"byteOffset":52232,
			"target":34962
		},
		{
			"buffer":0,
			"byteLength":832,
			"byteOffset":53480,
			"target":34962
		},
		{
			"buffer":0,
			"byteLength":312,
			"byteOffset":54312,
			"target":34963
		},
		{
			"buffer":0,
			"byteLength":1536,
			"byteOffset":54624,
			"target":34962
		},
		{
			"buffer":0,
			"byteLength":1536,
			"byteOffset":56160,
			"target":34962
		},
		{
			"buffer":0,
			"byteLength":1024,
			"byteOffset":57696,
			"target":34962
		},
		{
			"buffer":0,
			"byteLength":384,
			"byteOffset":58720,
			"target":34963
		},
		{
			"buffer":0,
			"byteLength":984,
			"byteOffset":59104,
			"target":34962
		},
		{
			"buffer":0,
			"byteLength":984,
			"byteOffset":60088,
			"target":34962
		},
		{
			"buffer":0,
			"byteLength":656,
			"byteOffset":61072,
			"target":34962
		},
		{
			"buffer":0,
			"byteLength":288,
			"byteOffset":61728,
			"target":34963
		},
		{
			"buffer":0,
			"byteLength":384,
			"byteOffset":62016,
			"target":34962
		},
		{
			"buffer":0,
			"byteLength":384,
			"byteOffset":62400,
			"target":34962
		},
		{
			"buffer":0,
			"byteLength":256,
			"byteOffset":62784,
			"target":34962
		},
		{
			"buffer":0,
			"byteLength":96,
			"byteOffset":63040,
			"target":34963
		}
	],
	"buffers":[
		{
			"byteLength":63136,
			"uri":"data:application/octet-stream;base64,"
		}
	]
}
