{
	"asset":{
		"generator":"Khronos glTF Blender I/O v3.6.28",
		"version":"2.0"
	},
	"scene":0,
	"scenes":[
		{
			"name":"Scene",
			"nodes":[
				0
			]
		}
	],
	"nodes":[
		{
			"mesh":0,
			"name":"\u0441\u0430\u043d\u0433\u0430\u0440"
		}
	],
	"materials":[
		{
			"doubleSided":true,
			"name":"osn",
			"pbrMetallicRoughness":{
				"baseColorFactor":[
					0.17144113779067993,
					0.2746773660182953,
					0.1247718334197998,
					1
				],
				"metallicFactor":0,
				"roughnessFactor":0.5
			}
		},
		{
			"doubleSided":true,
			"name":"lightosn",
			"pbrMetallicRoughness":{
				"baseColorFactor":[
					0.22696588933467865,
					0.34191450476646423,
					0.14412851631641388,
					1
				],
				"metallicFactor":0,
				"roughnessFactor":0.5
			}
		},
		{
			"doubleSided":true,
			"name":"onlightosn",
			"pbrMetallicRoughness":{
				"baseColorFactor":[
					0.14995980262756348,
					0.2541521489620209,
					0.12213879823684692,
					1
				],
				"metallicFactor":0,
				"roughnessFactor":0.5
			}
		},
		{
			"doubleSided":true,
			"name":"osn-2",
			"pbrMetallicRoughness":{
				"baseColorFactor":[
					0.17151030898094177,
					0.29630887508392334,
					0.1398809403181076,
					1
				],
				"metallicFactor":0,
				"roughnessFactor":0.5
			}
		},
		{
			"doubleSided":true,
			"name":"shadosn",
			"pbrMetallicRoughness":{
				"baseColorFactor":[
					0.06301002949476242,
					0.14412851631641388,
					0.10224173218011856,
					1
				],
				"metallicFactor":0,
				"roughnessFactor":0.5
			}
		},
		{
			"doubleSided":true,
			"name":"underosn",
			"pbrMetallicRoughness":{
				"baseColorFactor":[
					0.19120171666145325,
					0.11193244159221649,
					0.09758733212947845,
					1
				],
				"metallicFactor":0,
				"roughnessFactor":0.5
			}
		},
		{
			"doubleSided":true,
			"name":"normal-tree",
			"pbrMetallicRoughness":{
				"baseColorFactor":[
					0.10702310502529144,
					0.22322800755500793,
					0.10224173218011856,
					1
				],
				"metallicFactor":0,
				"roughnessFactor":0.5
			}
		},
		{
			"doubleSided":true,
			"name":"osn-tree",
			"pbrMetallicRoughness":{
				"baseColorFactor":[
					0.23455063998699188,
					0.12743771076202393,
					0.05126946046948433,
					1
				],
				"metallicFactor":0,
				"roughnessFactor":0.5
			}
		},
		{
			"doubleSided":true,
			"name":"shad-tree",
			"pbrMetallicRoughness":{
				"baseColorFactor":[
					0.09305897355079651,
					0.2195262312889099,
					0.09758733212947845,
					1
				],
				"metallicFactor":0,
				"roughnessFactor":0.5
			}
		},
		{
			"doubleSided":true,
			"name":"rock",
			"pbrMetallicRoughness":{
				"baseColorFactor":[
					0.3813260495662689,
					0.34670406579971313,
					0.26225075125694275,
					1
				],
				"metallicFactor":0,
				"roughnessFactor":0.5
			}
		},
		{
			"doubleSided":true,
			"name":"rock-sh",
			"pbrMetallicRoughness":{
				"baseColorFactor":[
					0.2195262312889099,
					0.19120171666145325,
					0.1384316384792328,
					1
				],
				"metallicFactor":0,
				"roughnessFactor":0.5
			}
		},
		{
			"doubleSided":true,
			"name":"normal-kus",
			"pbrMetallicRoughness":{
				"baseColorFactor":[
					0.10702310502529144,
					0.18116427958011627,
					0.07818741351366043,
					1
				],
				"metallicFactor":0,
				"roughnessFactor":0.5
			}
		},
		{
			"doubleSided":true,
			"name":"shad-kus",
			"pbrMetallicRoughness":{
				"baseColorFactor":[
					0.06171619892120361,
					0.10226551443338394,
					0.04822072759270668,
					1
				],
				"metallicFactor":0,
				"roughnessFactor":0.5
			}
		},
		{
			"doubleSided":true,
			"name":"light-kus",
			"pbrMetallicRoughness":{
				"baseColorFactor":[
					0.1247718334197998,
					0.22322800755500793,
					0.09305897355079651,
					1
				],
				"metallicFactor":0,
				"roughnessFactor":0.5
			}
		}
	],
	"meshes":[
		{
			"name":"Vert",
			"primitives":[
				{
					"attributes":{
						"POSITION":0,
						"NORMAL":1,
						"TEXCOORD_0":2
					},
					"indices":3,
					"material":0
				},
				{
					"attributes":{
						"POSITION":4,
						"NORMAL":5,
						"TEXCOORD_0":6
					},
					"indices":7,
					"material":1
				},
				{
					"attributes":{
						"POSITION":8,
						"NORMAL":9,
						"TEXCOORD_0":10
					},
					"indices":11,
					"material":2
				},
				{
					"attributes":{
						"POSITION":12,
						"NORMAL":13,
						"TEXCOORD_0":14
					},
					"indices":15,
					"material":3
				},
				{
					"attributes":{
						"POSITION":16,
						"NORMAL":17,
						"TEXCOORD_0":18
					},
					"indices":19,
					"material":4
				},
				{
					"attributes":{
						"POSITION":20,
						"NORMAL":21,
						"TEXCOORD_0":22
					},
					"indices":23,
					"material":5
				},
				{
					"attributes":{
						"POSITION":24,
						"NORMAL":25,
						"TEXCOORD_0":26
					},
					"indices":27,
					"material":6
				},
				{
					"attributes":{
						"POSITION":28,
						"NORMAL":29,
						"TEXCOORD_0":30
					},
					"indices":31,
					"material":7
				},
				{
					"attributes":{
						"POSITION":32,
						"NORMAL":33,
						"TEXCOORD_0":34
					},
					"indices":35,
					"material":8
				},
				{
					"attributes":{
						"POSITION":36,
						"NORMAL":37,
						"TEXCOORD_0":38
					},
					"indices":39,
					"material":9
				},
				{
					"attributes":{
						"POSITION":40,
						"NORMAL":41,
						"TEXCOORD_0":42
					},
					"indices":43,
					"material":10
				},
				{
					"attributes":{
						"POSITION":44,
						"NORMAL":45,
						"TEXCOORD_0":46
					},
					"indices":47,
					"material":11
				},
				{
					"attributes":{
						"POSITION":48,
						"NORMAL":49,
						"TEXCOORD_0":50
					},
					"indices":51,
					"material":12
				},
				{
					"attributes":{
						"POSITION":52,
						"NORMAL":53,
						"TEXCOORD_0":54
					},
					"indices":55,
					"material":13
				}
			]
		}
	],
	"accessors":[
		{
			"bufferView":0,
			"componentType":5126,
			"count":210,
			"max":[
				0.5665897727012634,
				0.15620458126068115,
				1.720978856086731
			],
			"min":[
				-1.5117723941802979,
				0.07810229063034058,
				-0.21232017874717712
			],
			"type":"VEC3"
		},
		{
			"bufferView":1,
			"componentType":5126,
			"count":210,
			"type":"VEC3"
		},
		{
			"bufferView":2,
			"componentType":5126,
			"count":210,
			"type":"VEC2"
		},
		{
			"bufferView":3,
			"componentType":5123,
			"count":318,
			"type":"SCALAR"
		},
		{
			"bufferView":4,
			"componentType":5126,
			"count":12,
			"max":[
				0.155137300491333,
				0.15620458126068115,
				1.520527720451355
			],
			"min":[
				-0.8513922095298767,
				0.15620458126068115,
				0.05406889319419861
			],
			"type":"VEC3"
		},
		{
			"bufferView":5,
			"componentType":5126,
			"count":12,
			"type":"VEC3"
		},
		{
			"bufferView":6,
			"componentType":5126,
			"count":12,
			"type":"VEC2"
		},
		{
			"bufferView":7,
			"componentType":5123,
			"count":18,
			"type":"SCALAR"
		},
		{
			"bufferView":8,
			"componentType":5126,
			"count":21,
			"max":[
				0.4848267734050751,
				0.15620458126068115,
				1.652403473854065
			],
			"min":[
				-1.1987872123718262,
				0.15620458126068115,
				-0.17803248763084412
			],
			"type":"VEC3"
		},
		{
			"bufferView":9,
			"componentType":5126,
			"count":21,
			"type":"VEC3"
		},
		{
			"bufferView":10,
			"componentType":5126,
			"count":21,
			"type":"VEC2"
		},
		{
			"bufferView":11,
			"componentType":5123,
			"count":42,
			"type":"SCALAR"
		},
		{
			"bufferView":12,
			"componentType":5126,
			"count":8,
			"max":[
				-0.0031136032193899155,
				0.15620458126068115,
				1.552177906036377
			],
			"min":[
				-0.8513922095298767,
				0.15620458126068115,
				0.05406889319419861
			],
			"type":"VEC3"
		},
		{
			"bufferView":13,
			"componentType":5126,
			"count":8,
			"type":"VEC3"
		},
		{
			"bufferView":14,
			"componentType":5126,
			"count":8,
			"type":"VEC2"
		},
		{
			"bufferView":15,
			"componentType":5123,
			"count":12,
			"type":"SCALAR"
		},
		{
			"bufferView":16,
			"componentType":5126,
			"count":38,
			"max":[
				0.5665897727012634,
				0.15620458126068115,
				1.720978856086731
			],
			"min":[
				-1.5117723941802979,
				0.15620458126068115,
				-0.21232017874717712
			],
			"type":"VEC3"
		},
		{
			"bufferView":17,
			"componentType":5126,
			"count":38,
			"type":"VEC3"
		},
		{
			"bufferView":18,
			"componentType":5126,
			"count":38,
			"type":"VEC2"
		},
		{
			"bufferView":19,
			"componentType":5123,
			"count":72,
			"type":"SCALAR"
		},
		{
			"bufferView":20,
			"componentType":5126,
			"count":258,
			"max":[
				0.5665897727012634,
				0.07810229063034058,
				1.720978856086731
			],
			"min":[
				-1.5117723941802979,
				0,
				-0.21232017874717712
			],
			"type":"VEC3"
		},
		{
			"bufferView":21,
			"componentType":5126,
			"count":258,
			"type":"VEC3"
		},
		{
			"bufferView":22,
			"componentType":5126,
			"count":258,
			"type":"VEC2"
		},
		{
			"bufferView":23,
			"componentType":5123,
			"count":462,
			"type":"SCALAR"
		},
		{
			"bufferView":24,
			"componentType":5126,
			"count":960,
			"max":[
				0.5408319234848022,
				0.5324561595916748,
				1.7124358415603638
			],
			"min":[
				-1.3511178493499756,
				0.1890220195055008,
				-0.11080654710531235
			],
			"type":"VEC3"
		},
		{
			"bufferView":25,
			"componentType":5126,
			"count":960,
			"type":"VEC3"
		},
		{
			"bufferView":26,
			"componentType":5126,
			"count":960,
			"type":"VEC2"
		},
		{
			"bufferView":27,
			"componentType":5123,
			"count":1560,
			"type":"SCALAR"
		},
		{
			"bufferView":28,
			"componentType":5126,
			"count":205,
			"max":[
				0.4018130600452423,
				0.21646273136138916,
				1.572793960571289
			],
			"min":[
				-1.2354296445846558,
				0.14710834622383118,
				-0.04199591279029846
			],
			"type":"VEC3"
		},
		{
			"bufferView":29,
			"componentType":5126,
			"count":205,
			"type":"VEC3"
		},
		{
			"bufferView":30,
			"componentType":5126,
			"count":205,
			"type":"VEC2"
		},
		{
			"bufferView":31,
			"componentType":5123,
			"count":360,
			"type":"SCALAR"
		},
		{
			"bufferView":32,
			"componentType":5126,
			"count":890,
			"max":[
				0.5175012946128845,
				0.5324561595916748,
				1.6416046619415283
			],
			"min":[
				-1.3744484186172485,
				0.1890220195055008,
				-0.18163776397705078
			],
			"type":"VEC3"
		},
		{
			"bufferView":33,
			"componentType":5126,
			"count":890,
			"type":"VEC3"
		},
		{
			"bufferView":34,
			"componentType":5126,
			"count":890,
			"type":"VEC2"
		},
		{
			"bufferView":35,
			"componentType":5123,
			"count":1440,
			"type":"SCALAR"
		},
		{
			"bufferView":36,
			"componentType":5126,
			"count":39,
			"max":[
				-0.8147144317626953,
				0.25727108120918274,
				1.585489273071289
			],
			"min":[
				-1.057080626487732,
				0.15202704071998596,
				1.3512938022613525
			],
			"type":"VEC3"
		},
		{
			"bufferView":37,
			"componentType":5126,
			"count":39,
			"type":"VEC3"
		},
		{
			"bufferView":38,
			"componentType":5126,
			"count":39,
			"type":"VEC2"
		},
		{
			"bufferView":39,
			"componentType":5123,
			"count":72,
			"type":"SCALAR"
		},
		{
			"bufferView":40,
			"componentType":5126,
			"count":104,
			"max":[
				-0.8147144317626953,
				0.2820605933666229,
				1.585489273071289
			],
			"min":[
				-1.057080626487732,
				0.15202704071998596,
				1.3493270874023438
			],
			"type":"VEC3"
		},
		{
			"bufferView":41,
			"componentType":5126,
			"count":104,
			"type":"VEC3"
		},
		{
			"bufferView":42,
			"componentType":5126,
			"count":104,
			"type":"VEC2"
		},
		{
			"bufferView":43,
			"componentType":5123,
			"count":156,
			"type":"SCALAR"
		},
		{
			"bufferView":44,
			"componentType":5126,
			"count":256,
			"max":[
				0.207199826836586,
				0.23280784487724304,
				1.6115212440490723
			],
			"min":[
				-1.2637364864349365,
				0.16613662242889404,
				-0.17524266242980957
			],
			"type":"VEC3"
		},
		{
			"bufferView":45,
			"componentType":5126,
			"count":256,
			"type":"VEC3"
		},
		{
			"bufferView":46,
			"componentType":5126,
			"count":256,
			"type":"VEC2"
		},
		{
			"bufferView":47,
			"componentType":5123,
			"count":384,
			"type":"SCALAR"
		},
		{
			"bufferView":48,
			"componentType":5126,
			"count":164,
			"max":[
				0.207199826836586,
				0.1781691312789917,
				1.6115212440490723
			],
			"min":[
				-1.2637364864349365,
				0.1478251814842224,
				-0.17524266242980957
			],
			"type":"VEC3"
		},
		{
			"bufferView":49,
			"componentType":5126,
			"count":164,
			"type":"VEC3"
		},
		{
			"bufferView":50,
			"componentType":5126,
			"count":164,
			"type":"VEC2"
		},
		{
			"bufferView":51,
			"componentType":5123,
			"count":288,
			"type":"SCALAR"
		},
		{
			"bufferView":52,
			"componentType":5126,
			"count":64,
			"max":[
				0.1761583685874939,
				0.24821141362190247,
				1.5849967002868652
			],
			"min":[
				-1.2396295070648193,
				0.21695777773857117,
				-0.14871415495872498
			],
			"type":"VEC3"
		},
		{
			"bufferView":53,
			"componentType":5126,
			"count":64,
			"type":"VEC3"
		},
		{
			"bufferView":54,
			"componentType":5126,
			"count":64,
			"type":"VEC2"
		},
		{
			"bufferView":55,
			"componentType":5123,
			"count":96,
			"type":"SCALAR"
		}
	],
	"bufferViews":[
		{
			"buffer":0,
			"byteLength":2520,
			"byteOffset":0,
			"target":34962
		},
		{
			"buffer":0,
			"byteLength":2520,
			"byteOffset":2520,
			"target":34962
		},
		{
			"buffer":0,
			"byteLength":1680,
			"byteOffset":5040,
			"target":34962
		},
		{
			"buffer":0,
			"byteLength":636,
			"byteOffset":6720,
			"target":34963
		},
		{
			"buffer":0,
			"byteLength":144,
			"byteOffset":7356,
			"target":34962
		},
		{
			"buffer":0,
			"byteLength":144,
			"byteOffset":7500,
			"target":34962
		},
		{
			"buffer":0,
			"byteLength":96,
			"byteOffset":7644,
			"target":34962
		},
		{
			"buffer":0,
			"byteLength":36,
			"byteOffset":7740,
			"target":34963
		},
		{
			"buffer":0,
			"byteLength":252,
			"byteOffset":7776,
			"target":34962
		},
		{
			"buffer":0,
			"byteLength":252,
			"byteOffset":8028,
			"target":34962
		},
		{
			"buffer":0,
			"byteLength":168,
			"byteOffset":8280,
			"target":34962
		},
		{
			"buffer":0,
			"byteLength":84,
			"byteOffset":8448,
			"target":34963
		},
		{
			"buffer":0,
			"byteLength":96,
			"byteOffset":8532,
			"target":34962
		},
		{
			"buffer":0,
			"byteLength":96,
			"byteOffset":8628,
			"target":34962
		},
		{
			"buffer":0,
			"byteLength":64,
			"byteOffset":8724,
			"target":34962
		},
		{
			"buffer":0,
			"byteLength":24,
			"byteOffset":8788,
			"target":34963
		},
		{
			"buffer":0,
			"byteLength":456,
			"byteOffset":8812,
			"target":34962
		},
		{
			"buffer":0,
			"byteLength":456,
			"byteOffset":9268,
			"target":34962
		},
		{
			"buffer":0,
			"byteLength":304,
			"byteOffset":9724,
			"target":34962
		},
		{
			"buffer":0,
			"byteLength":144,
			"byteOffset":10028,
			"target":34963
		},
		{
			"buffer":0,
			"byteLength":3096,
			"byteOffset":10172,
			"target":34962
		},
		{
			"buffer":0,
			"byteLength":3096,
			"byteOffset":13268,
			"target":34962
		},
		{
			"buffer":0,
			"byteLength":2064,
			"byteOffset":16364,
			"target":34962
		},
		{
			"buffer":0,
			"byteLength":924,
			"byteOffset":18428,
			"target":34963
		},
		{
			"buffer":0,
			"byteLength":11520,
			"byteOffset":19352,
			"target":34962
		},
		{
			"buffer":0,
			"byteLength":11520,
			"byteOffset":30872,
			"target":34962
		},
		{
			"buffer":0,
			"byteLength":7680,
			"byteOffset":42392,
			"target":34962
		},
		{
			"buffer":0,
			"byteLength":3120,
			"byteOffset":50072,
			"target":34963
		},
		{
			"buffer":0,
			"byteLength":2460,
			"byteOffset":53192,
			"target":34962
		},
		{
			"buffer":0,
			"byteLength":2460,
			"byteOffset":55652,
			"target":34962
		},
		{
			"buffer":0,
			"byteLength":1640,
			"byteOffset":58112,
			"target":34962
		},
		{
			"buffer":0,
			"byteLength":720,
			"byteOffset":59752,
			"target":34963
		},
		{
			"buffer":0,
			"byteLength":10680,
			"byteOffset":60472,
			"target":34962
		},
		{
			"buffer":0,
			"byteLength":10680,
			"byteOffset":71152,
			"target":34962
		},
		{
			"buffer":0,
			"byteLength":7120,
			"byteOffset":81832,
			"target":34962
		},
		{
			"buffer":0,
			"byteLength":2880,
			"byteOffset":88952,
			"target":34963
		},
		{
			"buffer":0,
			"byteLength":468,
			"byteOffset":91832,
			"target":34962
		},
		{
			"buffer":0,
			"byteLength":468,
			"byteOffset":92300,
			"target":34962
		},
		{
			"buffer":0,
			"byteLength":312,
			"byteOffset":92768,
			"target":34962
		},
		{
			"buffer":0,
			"byteLength":144,
			"byteOffset":93080,
			"target":34963
		},
		{
			"buffer":0,
			"byteLength":1248,
			"byteOffset":93224,
			"target":34962
		},
		{
			"buffer":0,
			"byteLength":1248,
			"byteOffset":94472,
			"target":34962
		},
		{
			"buffer":0,
			"byteLength":832,
			"byteOffset":95720,
			"target":34962
		},
		{
			"buffer":0,
			"byteLength":312,
			"byteOffset":96552,
			"target":34963
		},
		{
			"buffer":0,
			"byteLength":3072,
			"byteOffset":96864,
			"target":34962
		},
		{
			"buffer":0,
			"byteLength":3072,
			"byteOffset":99936,
			"target":34962
		},
		{
			"buffer":0,
			"byteLength":2048,
			"byteOffset":103008,
			"target":34962
		},
		{
			"buffer":0,
			"byteLength":768,
			"byteOffset":105056,
			"target":34963
		},
		{
			"buffer":0,
			"byteLength":1968,
			"byteOffset":105824,
			"target":34962
		},
		{
			"buffer":0,
			"byteLength":1968,
			"byteOffset":107792,
			"target":34962
		},
		{
			"buffer":0,
			"byteLength":1312,
			"byteOffset":109760,
			"target":34962
		},
		{
			"buffer":0,
			"byteLength":576,
			"byteOffset":111072,
			"target":34963
		},
		{
			"buffer":0,
			"byteLength":768,
			"byteOffset":111648,
			"target":34962
		},
		{
			"buffer":0,
			"byteLength":768,
			"byteOffset":112416,
			"target":34962
		},
		{
			"buffer":0,
			"byteLength":512,
			"byteOffset":113184,
			"target":34962
		},
		{
			"buffer":0,
			"byteLength":192,
			"byteOffset":113696,
			"target":34963
		}
	],
	"buffers":[
		{
			"byteLength":113888,
			"uri":"data:application/octet-stream;base64,"
		}
	]
}
