{
	"asset":{
		"generator":"Khronos glTF Blender I/O v3.6.28",
		"version":"2.0"
	},
	"scene":0,
	"scenes":[
		{
			"name":"Scene",
			"nodes":[
				0
			]
		}
	],
	"nodes":[
		{
			"mesh":0,
			"name":"\u0441\u0430\u0441\u043a\u044b\u043b\u0430\u0445"
		}
	],
	"materials":[
		{
			"doubleSided":true,
			"name":"osn",
			"pbrMetallicRoughness":{
				"baseColorFactor":[
					0.17144113779067993,
					0.2746773660182953,
					0.1247718334197998,
					1
				],
				"metallicFactor":0,
				"roughnessFactor":0.5
			}
		},
		{
			"doubleSided":true,
			"name":"lightosn",
			"pbrMetallicRoughness":{
				"baseColorFactor":[
					0.22696588933467865,
					0.34191450476646423,
					0.14412851631641388,
					1
				],
				"metallicFactor":0,
				"roughnessFactor":0.5
			}
		},
		{
			"doubleSided":true,
			"name":"Material",
			"pbrMetallicRoughness":{
				"baseColorFactor":[
					0.15292617678642273,
					0.25818291306495667,
					0.1247718334197998,
					1
				],
				"metallicFactor":0,
				"roughnessFactor":0.5
			}
		},
		{
			"doubleSided":true,
			"name":"onlightosn",
			"pbrMetallicRoughness":{
				"baseColorFactor":[
					0.14995980262756348,
					0.2541521489620209,
					0.12213879823684692,
					1
				],
				"metallicFactor":0,
				"roughnessFactor":0.5
			}
		},
		{
			"doubleSided":true,
			"name":"osn-2",
			"pbrMetallicRoughness":{
				"baseColorFactor":[
					0.17151030898094177,
					0.29630887508392334,
					0.1398809403181076,
					1
				],
				"metallicFactor":0,
				"roughnessFactor":0.5
			}
		},
		{
			"doubleSided":true,
			"name":"shadosn",
			"pbrMetallicRoughness":{
				"baseColorFactor":[
					0.06301002949476242,
					0.14412851631641388,
					0.10224173218011856,
					1
				],
				"metallicFactor":0,
				"roughnessFactor":0.5
			}
		},
		{
			"doubleSided":true,
			"name":"underosn",
			"pbrMetallicRoughness":{
				"baseColorFactor":[
					0.19120171666145325,
					0.11193244159221649,
					0.09758733212947845,
					1
				],
				"metallicFactor":0,
				"roughnessFactor":0.5
			}
		},
		{
			"doubleSided":true,
			"name":"normal-tree",
			"pbrMetallicRoughness":{
				"baseColorFactor":[
					0.10702310502529144,
					0.22322800755500793,
					0.10224173218011856,
					1
				],
				"metallicFactor":0,
				"roughnessFactor":0.5
			}
		},
		{
			"doubleSided":true,
			"name":"osn-tree",
			"pbrMetallicRoughness":{
				"baseColorFactor":[
					0.23455063998699188,
					0.12743771076202393,
					0.05126946046948433,
					1
				],
				"metallicFactor":0,
				"roughnessFactor":0.5
			}
		},
		{
			"doubleSided":true,
			"name":"shad-tree",
			"pbrMetallicRoughness":{
				"baseColorFactor":[
					0.09305897355079651,
					0.2195262312889099,
					0.09758733212947845,
					1
				],
				"metallicFactor":0,
				"roughnessFactor":0.5
			}
		},
		{
			"doubleSided":true,
			"name":"normal-kus",
			"pbrMetallicRoughness":{
				"baseColorFactor":[
					0.10702310502529144,
					0.18116427958011627,
					0.07818741351366043,
					1
				],
				"metallicFactor":0,
				"roughnessFactor":0.5
			}
		},
		{
			"doubleSided":true,
			"name":"shad-kus",
			"pbrMetallicRoughness":{
				"baseColorFactor":[
					0.06171619892120361,
					0.10226551443338394,
					0.04822072759270668,
					1
				],
				"metallicFactor":0,
				"roughnessFactor":0.5
			}
		},
		{
			"doubleSided":true,
			"name":"light-kus",
			"pbrMetallicRoughness":{
				"baseColorFactor":[
					0.1247718334197998,
					0.22322800755500793,
					0.09305897355079651,
					1
				],
				"metallicFactor":0,
				"roughnessFactor":0.5
			}
		}
	],
	"meshes":[
		{
			"name":"Vert.015",
			"primitives":[
				{
					"attributes":{
						"POSITION":0,
						"NORMAL":1,
						"TEXCOORD_0":2
					},
					"indices":3,
					"material":0
				},
				{
					"attributes":{
						"POSITION":4,
						"NORMAL":5,
						"TEXCOORD_0":6
					},
					"indices":7,
					"material":1
				},
				{
					"attributes":{
						"POSITION":8,
						"NORMAL":9,
						"TEXCOORD_0":10
					},
					"indices":11,
					"material":2
				},
				{
					"attributes":{
						"POSITION":12,
						"NORMAL":13,
						"TEXCOORD_0":14
					},
					"indices":15,
					"material":3
				},
				{
					"attributes":{
						"POSITION":16,
						"NORMAL":17,
						"TEXCOORD_0":18
					},
					"indices":19,
					"material":4
				},
				{
					"attributes":{
						"POSITION":20,
						"NORMAL":21,
						"TEXCOORD_0":22
					},
					"indices":23,
					"material":5
				},
				{
					"attributes":{
						"POSITION":24,
						"NORMAL":25,
						"TEXCOORD_0":26
					},
					"indices":27,
					"material":6
				},
				{
					"attributes":{
						"POSITION":28,
						"NORMAL":29,
						"TEXCOORD_0":30
					},
					"indices":31,
					"material":7
				},
				{
					"attributes":{
						"POSITION":32,
						"NORMAL":33,
						"TEXCOORD_0":34
					},
					"indices":35,
					"material":8
				},
				{
					"attributes":{
						"POSITION":36,
						"NORMAL":37,
						"TEXCOORD_0":38
					},
					"indices":39,
					"material":9
				},
				{
					"attributes":{
						"POSITION":40,
						"NORMAL":41,
						"TEXCOORD_0":42
					},
					"indices":43,
					"material":10
				},
				{
					"attributes":{
						"POSITION":44,
						"NORMAL":45,
						"TEXCOORD_0":46
					},
					"indices":47,
					"material":11
				},
				{
					"attributes":{
						"POSITION":48,
						"NORMAL":49,
						"TEXCOORD_0":50
					},
					"indices":51,
					"material":12
				}
			]
		}
	],
	"accessors":[
		{
			"bufferView":0,
			"componentType":5126,
			"count":298,
			"max":[
				-2.2871460914611816,
				0.15620458126068115,
				-2.325275421142578
			],
			"min":[
				-3.887394428253174,
				0.07810229063034058,
				-3.9410672187805176
			],
			"type":"VEC3"
		},
		{
			"bufferView":1,
			"componentType":5126,
			"count":298,
			"type":"VEC3"
		},
		{
			"bufferView":2,
			"componentType":5126,
			"count":298,
			"type":"VEC2"
		},
		{
			"bufferView":3,
			"componentType":5123,
			"count":456,
			"type":"SCALAR"
		},
		{
			"bufferView":4,
			"componentType":5126,
			"count":8,
			"max":[
				-2.6480047702789307,
				0.15620458126068115,
				-2.999211311340332
			],
			"min":[
				-3.754876136779785,
				0.15620458126068115,
				-3.5915262699127197
			],
			"type":"VEC3"
		},
		{
			"bufferView":5,
			"componentType":5126,
			"count":8,
			"type":"VEC3"
		},
		{
			"bufferView":6,
			"componentType":5126,
			"count":8,
			"type":"VEC2"
		},
		{
			"bufferView":7,
			"componentType":5123,
			"count":18,
			"type":"SCALAR"
		},
		{
			"bufferView":8,
			"componentType":5126,
			"count":4,
			"max":[
				-3.595823049545288,
				0.15620458126068115,
				-3.1478779315948486
			],
			"min":[
				-3.8336188793182373,
				0.15620458126068115,
				-3.3999364376068115
			],
			"type":"VEC3"
		},
		{
			"bufferView":9,
			"componentType":5126,
			"count":4,
			"type":"VEC3"
		},
		{
			"bufferView":10,
			"componentType":5126,
			"count":4,
			"type":"VEC2"
		},
		{
			"bufferView":11,
			"componentType":5123,
			"count":6,
			"type":"SCALAR"
		},
		{
			"bufferView":12,
			"componentType":5126,
			"count":21,
			"max":[
				-2.5156383514404297,
				0.15620458126068115,
				-2.780458450317383
			],
			"min":[
				-3.8374600410461426,
				0.15620458126068115,
				-3.716362237930298
			],
			"type":"VEC3"
		},
		{
			"bufferView":13,
			"componentType":5126,
			"count":21,
			"type":"VEC3"
		},
		{
			"bufferView":14,
			"componentType":5126,
			"count":21,
			"type":"VEC2"
		},
		{
			"bufferView":15,
			"componentType":5123,
			"count":48,
			"type":"SCALAR"
		},
		{
			"bufferView":16,
			"componentType":5126,
			"count":22,
			"max":[
				-2.411780595779419,
				0.15620458126068115,
				-2.7185888290405273
			],
			"min":[
				-3.841301202774048,
				0.15620458126068115,
				-3.733647346496582
			],
			"type":"VEC3"
		},
		{
			"bufferView":17,
			"componentType":5126,
			"count":22,
			"type":"VEC3"
		},
		{
			"bufferView":18,
			"componentType":5126,
			"count":22,
			"type":"VEC2"
		},
		{
			"bufferView":19,
			"componentType":5123,
			"count":42,
			"type":"SCALAR"
		},
		{
			"bufferView":20,
			"componentType":5126,
			"count":68,
			"max":[
				-2.2871460914611816,
				0.15620458126068115,
				-2.325275421142578
			],
			"min":[
				-3.887394428253174,
				0.15620458126068115,
				-3.9410672187805176
			],
			"type":"VEC3"
		},
		{
			"bufferView":21,
			"componentType":5126,
			"count":68,
			"type":"VEC3"
		},
		{
			"bufferView":22,
			"componentType":5126,
			"count":68,
			"type":"VEC2"
		},
		{
			"bufferView":23,
			"componentType":5123,
			"count":186,
			"type":"SCALAR"
		},
		{
			"bufferView":24,
			"componentType":5126,
			"count":377,
			"max":[
				-2.2871460914611816,
				0.07810229063034058,
				-2.325275421142578
			],
			"min":[
				-3.887394428253174,
				0,
				-3.9410672187805176
			],
			"type":"VEC3"
		},
		{
			"bufferView":25,
			"componentType":5126,
			"count":377,
			"type":"VEC3"
		},
		{
			"bufferView":26,
			"componentType":5126,
			"count":377,
			"type":"VEC2"
		},
		{
			"bufferView":27,
			"componentType":5123,
			"count":756,
			"type":"SCALAR"
		},
		{
			"bufferView":28,
			"componentType":5126,
			"count":576,
			"max":[
				-2.8448662757873535,
				0.5324561595916748,
				-2.613924741744995
			],
			"min":[
				-3.694338321685791,
				0.17787760496139526,
				-3.786386251449585
			],
			"type":"VEC3"
		},
		{
			"bufferView":29,
			"componentType":5126,
			"count":576,
			"type":"VEC3"
		},
		{
			"bufferView":30,
			"componentType":5126,
			"count":576,
			"type":"VEC2"
		},
		{
			"bufferView":31,
			"componentType":5123,
			"count":936,
			"type":"SCALAR"
		},
		{
			"bufferView":32,
			"componentType":5126,
			"count":123,
			"max":[
				-2.977665662765503,
				0.21646273136138916,
				-2.7539148330688477
			],
			"min":[
				-3.6314401626586914,
				0.14710834622383118,
				-3.7145516872406006
			],
			"type":"VEC3"
		},
		{
			"bufferView":33,
			"componentType":5126,
			"count":123,
			"type":"VEC3"
		},
		{
			"bufferView":34,
			"componentType":5126,
			"count":123,
			"type":"VEC2"
		},
		{
			"bufferView":35,
			"componentType":5123,
			"count":216,
			"type":"SCALAR"
		},
		{
			"bufferView":36,
			"componentType":5126,
			"count":534,
			"max":[
				-2.978425979614258,
				0.5324561595916748,
				-2.613924741744995
			],
			"min":[
				-3.7332472801208496,
				0.17787760496139526,
				-3.816240072250366
			],
			"type":"VEC3"
		},
		{
			"bufferView":37,
			"componentType":5126,
			"count":534,
			"type":"VEC3"
		},
		{
			"bufferView":38,
			"componentType":5126,
			"count":534,
			"type":"VEC2"
		},
		{
			"bufferView":39,
			"componentType":5123,
			"count":864,
			"type":"SCALAR"
		},
		{
			"bufferView":40,
			"componentType":5126,
			"count":320,
			"max":[
				-2.392357110977173,
				0.23280784487724304,
				-2.8418965339660645
			],
			"min":[
				-3.8162217140197754,
				0.16613662242889404,
				-3.6772212982177734
			],
			"type":"VEC3"
		},
		{
			"bufferView":41,
			"componentType":5126,
			"count":320,
			"type":"VEC3"
		},
		{
			"bufferView":42,
			"componentType":5126,
			"count":320,
			"type":"VEC2"
		},
		{
			"bufferView":43,
			"componentType":5123,
			"count":480,
			"type":"SCALAR"
		},
		{
			"bufferView":44,
			"componentType":5126,
			"count":205,
			"max":[
				-2.392357110977173,
				0.1781691312789917,
				-2.8418965339660645
			],
			"min":[
				-3.8162217140197754,
				0.1478251814842224,
				-3.6772212982177734
			],
			"type":"VEC3"
		},
		{
			"bufferView":45,
			"componentType":5126,
			"count":205,
			"type":"VEC3"
		},
		{
			"bufferView":46,
			"componentType":5126,
			"count":205,
			"type":"VEC2"
		},
		{
			"bufferView":47,
			"componentType":5123,
			"count":360,
			"type":"SCALAR"
		},
		{
			"bufferView":48,
			"componentType":5126,
			"count":80,
			"max":[
				-2.413419246673584,
				0.24821141362190247,
				-2.868425130844116
			],
			"min":[
				-3.790811538696289,
				0.20812176167964935,
				-3.6525774002075195
			],
			"type":"VEC3"
		},
		{
			"bufferView":49,
			"componentType":5126,
			"count":80,
			"type":"VEC3"
		},
		{
			"bufferView":50,
			"componentType":5126,
			"count":80,
			"type":"VEC2"
		},
		{
			"bufferView":51,
			"componentType":5123,
			"count":120,
			"type":"SCALAR"
		}
	],
	"bufferViews":[
		{
			"buffer":0,
			"byteLength":3576,
			"byteOffset":0,
			"target":34962
		},
		{
			"buffer":0,
			"byteLength":3576,
			"byteOffset":3576,
			"target":34962
		},
		{
			"buffer":0,
			"byteLength":2384,
			"byteOffset":7152,
			"target":34962
		},
		{
			"buffer":0,
			"byteLength":912,
			"byteOffset":9536,
			"target":34963
		},
		{
			"buffer":0,
			"byteLength":96,
			"byteOffset":10448,
			"target":34962
		},
		{
			"buffer":0,
			"byteLength":96,
			"byteOffset":10544,
			"target":34962
		},
		{
			"buffer":0,
			"byteLength":64,
			"byteOffset":10640,
			"target":34962
		},
		{
			"buffer":0,
			"byteLength":36,
			"byteOffset":10704,
			"target":34963
		},
		{
			"buffer":0,
			"byteLength":48,
			"byteOffset":10740,
			"target":34962
		},
		{
			"buffer":0,
			"byteLength":48,
			"byteOffset":10788,
			"target":34962
		},
		{
			"buffer":0,
			"byteLength":32,
			"byteOffset":10836,
			"target":34962
		},
		{
			"buffer":0,
			"byteLength":12,
			"byteOffset":10868,
			"target":34963
		},
		{
			"buffer":0,
			"byteLength":252,
			"byteOffset":10880,
			"target":34962
		},
		{
			"buffer":0,
			"byteLength":252,
			"byteOffset":11132,
			"target":34962
		},
		{
			"buffer":0,
			"byteLength":168,
			"byteOffset":11384,
			"target":34962
		},
		{
			"buffer":0,
			"byteLength":96,
			"byteOffset":11552,
			"target":34963
		},
		{
			"buffer":0,
			"byteLength":264,
			"byteOffset":11648,
			"target":34962
		},
		{
			"buffer":0,
			"byteLength":264,
			"byteOffset":11912,
			"target":34962
		},
		{
			"buffer":0,
			"byteLength":176,
			"byteOffset":12176,
			"target":34962
		},
		{
			"buffer":0,
			"byteLength":84,
			"byteOffset":12352,
			"target":34963
		},
		{
			"buffer":0,
			"byteLength":816,
			"byteOffset":12436,
			"target":34962
		},
		{
			"buffer":0,
			"byteLength":816,
			"byteOffset":13252,
			"target":34962
		},
		{
			"buffer":0,
			"byteLength":544,
			"byteOffset":14068,
			"target":34962
		},
		{
			"buffer":0,
			"byteLength":372,
			"byteOffset":14612,
			"target":34963
		},
		{
			"buffer":0,
			"byteLength":4524,
			"byteOffset":14984,
			"target":34962
		},
		{
			"buffer":0,
			"byteLength":4524,
			"byteOffset":19508,
			"target":34962
		},
		{
			"buffer":0,
			"byteLength":3016,
			"byteOffset":24032,
			"target":34962
		},
		{
			"buffer":0,
			"byteLength":1512,
			"byteOffset":27048,
			"target":34963
		},
		{
			"buffer":0,
			"byteLength":6912,
			"byteOffset":28560,
			"target":34962
		},
		{
			"buffer":0,
			"byteLength":6912,
			"byteOffset":35472,
			"target":34962
		},
		{
			"buffer":0,
			"byteLength":4608,
			"byteOffset":42384,
			"target":34962
		},
		{
			"buffer":0,
			"byteLength":1872,
			"byteOffset":46992,
			"target":34963
		},
		{
			"buffer":0,
			"byteLength":1476,
			"byteOffset":48864,
			"target":34962
		},
		{
			"buffer":0,
			"byteLength":1476,
			"byteOffset":50340,
			"target":34962
		},
		{
			"buffer":0,
			"byteLength":984,
			"byteOffset":51816,
			"target":34962
		},
		{
			"buffer":0,
			"byteLength":432,
			"byteOffset":52800,
			"target":34963
		},
		{
			"buffer":0,
			"byteLength":6408,
			"byteOffset":53232,
			"target":34962
		},
		{
			"buffer":0,
			"byteLength":6408,
			"byteOffset":59640,
			"target":34962
		},
		{
			"buffer":0,
			"byteLength":4272,
			"byteOffset":66048,
			"target":34962
		},
		{
			"buffer":0,
			"byteLength":1728,
			"byteOffset":70320,
			"target":34963
		},
		{
			"buffer":0,
			"byteLength":3840,
			"byteOffset":72048,
			"target":34962
		},
		{
			"buffer":0,
			"byteLength":3840,
			"byteOffset":75888,
			"target":34962
		},
		{
			"buffer":0,
			"byteLength":2560,
			"byteOffset":79728,
			"target":34962
		},
		{
			"buffer":0,
			"byteLength":960,
			"byteOffset":82288,
			"target":34963
		},
		{
			"buffer":0,
			"byteLength":2460,
			"byteOffset":83248,
			"target":34962
		},
		{
			"buffer":0,
			"byteLength":2460,
			"byteOffset":85708,
			"target":34962
		},
		{
			"buffer":0,
			"byteLength":1640,
			"byteOffset":88168,
			"target":34962
		},
		{
			"buffer":0,
			"byteLength":720,
			"byteOffset":89808,
			"target":34963
		},
		{
			"buffer":0,
			"byteLength":960,
			"byteOffset":90528,
			"target":34962
		},
		{
			"buffer":0,
			"byteLength":960,
			"byteOffset":91488,
			"target":34962
		},
		{
			"buffer":0,
			"byteLength":640,
			"byteOffset":92448,
			"target":34962
		},
		{
			"buffer":0,
			"byteLength":240,
			"byteOffset":93088,
			"target":34963
		}
	],
	"buffers":[
		{
			"byteLength":93328,
			"uri":"data:application/octet-stream;base64,"
		}
	]
}
