{
	"asset":{
		"generator":"Khronos glTF Blender I/O v3.6.28",
		"version":"2.0"
	},
	"scene":0,
	"scenes":[
		{
			"name":"Scene",
			"nodes":[
				0
			]
		}
	],
	"nodes":[
		{
			"mesh":0,
			"name":"\u0441\u0440\u0435\u0434\u043d\u0435\u043a\u043e\u043b\u044b\u043c\u0441\u043a"
		}
	],
	"materials":[
		{
			"doubleSided":true,
			"name":"osn",
			"pbrMetallicRoughness":{
				"baseColorFactor":[
					0.17144113779067993,
					0.2746773660182953,
					0.1247718334197998,
					1
				],
				"metallicFactor":0,
				"roughnessFactor":0.5
			}
		},
		{
			"doubleSided":true,
			"name":"lightosn",
			"pbrMetallicRoughness":{
				"baseColorFactor":[
					0.22696588933467865,
					0.34191450476646423,
					0.14412851631641388,
					1
				],
				"metallicFactor":0,
				"roughnessFactor":0.5
			}
		},
		{
			"doubleSided":true,
			"name":"onlightosn",
			"pbrMetallicRoughness":{
				"baseColorFactor":[
					0.14995980262756348,
					0.2541521489620209,
					0.12213879823684692,
					1
				],
				"metallicFactor":0,
				"roughnessFactor":0.5
			}
		},
		{
			"doubleSided":true,
			"name":"osn-2",
			"pbrMetallicRoughness":{
				"baseColorFactor":[
					0.17151030898094177,
					0.29630887508392334,
					0.1398809403181076,
					1
				],
				"metallicFactor":0,
				"roughnessFactor":0.5
			}
		},
		{
			"doubleSided":true,
			"name":"shadosn",
			"pbrMetallicRoughness":{
				"baseColorFactor":[
					0.06301002949476242,
					0.14412851631641388,
					0.10224173218011856,
					1
				],
				"metallicFactor":0,
				"roughnessFactor":0.5
			}
		},
		{
			"doubleSided":true,
			"name":"underosn",
			"pbrMetallicRoughness":{
				"baseColorFactor":[
					0.19120171666145325,
					0.11193244159221649,
					0.09758733212947845,
					1
				],
				"metallicFactor":0,
				"roughnessFactor":0.5
			}
		},
		{
			"doubleSided":true,
			"name":"normal-tree",
			"pbrMetallicRoughness":{
				"baseColorFactor":[
					0.10702310502529144,
					0.22322800755500793,
					0.10224173218011856,
					1
				],
				"metallicFactor":0,
				"roughnessFactor":0.5
			}
		},
		{
			"doubleSided":true,
			"name":"osn-tree",
			"pbrMetallicRoughness":{
				"baseColorFactor":[
					0.23455063998699188,
					0.12743771076202393,
					0.05126946046948433,
					1
				],
				"metallicFactor":0,
				"roughnessFactor":0.5
			}
		},
		{
			"doubleSided":true,
			"name":"shad-tree",
			"pbrMetallicRoughness":{
				"baseColorFactor":[
					0.09305897355079651,
					0.2195262312889099,
					0.09758733212947845,
					1
				],
				"metallicFactor":0,
				"roughnessFactor":0.5
			}
		},
		{
			"doubleSided":true,
			"name":"normal-kus",
			"pbrMetallicRoughness":{
				"baseColorFactor":[
					0.10702310502529144,
					0.18116427958011627,
					0.07818741351366043,
					1
				],
				"metallicFactor":0,
				"roughnessFactor":0.5
			}
		},
		{
			"doubleSided":true,
			"name":"shad-kus",
			"pbrMetallicRoughness":{
				"baseColorFactor":[
					0.06171619892120361,
					0.10226551443338394,
					0.04822072759270668,
					1
				],
				"metallicFactor":0,
				"roughnessFactor":0.5
			}
		},
		{
			"doubleSided":true,
			"name":"light-kus",
			"pbrMetallicRoughness":{
				"baseColorFactor":[
					0.1247718334197998,
					0.22322800755500793,
					0.09305897355079651,
					1
				],
				"metallicFactor":0,
				"roughnessFactor":0.5
			}
		},
		{
			"doubleSided":true,
			"name":"rock",
			"pbrMetallicRoughness":{
				"baseColorFactor":[
					0.3813260495662689,
					0.34670406579971313,
					0.26225075125694275,
					1
				],
				"metallicFactor":0,
				"roughnessFactor":0.5
			}
		},
		{
			"doubleSided":true,
			"name":"rock-sh",
			"pbrMetallicRoughness":{
				"baseColorFactor":[
					0.2195262312889099,
					0.19120171666145325,
					0.1384316384792328,
					1
				],
				"metallicFactor":0,
				"roughnessFactor":0.5
			}
		}
	],
	"meshes":[
		{
			"name":"Vert.035",
			"primitives":[
				{
					"attributes":{
						"POSITION":0,
						"NORMAL":1,
						"TEXCOORD_0":2
					},
					"indices":3,
					"material":0
				},
				{
					"attributes":{
						"POSITION":4,
						"NORMAL":5,
						"TEXCOORD_0":6
					},
					"indices":7,
					"material":1
				},
				{
					"attributes":{
						"POSITION":8,
						"NORMAL":9,
						"TEXCOORD_0":10
					},
					"indices":11,
					"material":2
				},
				{
					"attributes":{
						"POSITION":12,
						"NORMAL":13,
						"TEXCOORD_0":14
					},
					"indices":15,
					"material":3
				},
				{
					"attributes":{
						"POSITION":16,
						"NORMAL":17,
						"TEXCOORD_0":18
					},
					"indices":19,
					"material":4
				},
				{
					"attributes":{
						"POSITION":20,
						"NORMAL":21,
						"TEXCOORD_0":22
					},
					"indices":23,
					"material":5
				},
				{
					"attributes":{
						"POSITION":24,
						"NORMAL":25,
						"TEXCOORD_0":26
					},
					"indices":27,
					"material":6
				},
				{
					"attributes":{
						"POSITION":28,
						"NORMAL":29,
						"TEXCOORD_0":30
					},
					"indices":31,
					"material":7
				},
				{
					"attributes":{
						"POSITION":32,
						"NORMAL":33,
						"TEXCOORD_0":34
					},
					"indices":35,
					"material":8
				},
				{
					"attributes":{
						"POSITION":36,
						"NORMAL":37,
						"TEXCOORD_0":38
					},
					"indices":39,
					"material":9
				},
				{
					"attributes":{
						"POSITION":40,
						"NORMAL":41,
						"TEXCOORD_0":42
					},
					"indices":43,
					"material":10
				},
				{
					"attributes":{
						"POSITION":44,
						"NORMAL":45,
						"TEXCOORD_0":46
					},
					"indices":47,
					"material":11
				},
				{
					"attributes":{
						"POSITION":48,
						"NORMAL":49,
						"TEXCOORD_0":50
					},
					"indices":51,
					"material":12
				},
				{
					"attributes":{
						"POSITION":52,
						"NORMAL":53,
						"TEXCOORD_0":54
					},
					"indices":55,
					"material":13
				}
			]
		}
	],
	"accessors":[
		{
			"bufferView":0,
			"componentType":5126,
			"count":514,
			"max":[
				5.410940170288086,
				0.15620458126068115,
				-1.4742389917373657
			],
			"min":[
				2.821012496948242,
				0,
				-3.1506738662719727
			],
			"type":"VEC3"
		},
		{
			"bufferView":1,
			"componentType":5126,
			"count":514,
			"type":"VEC3"
		},
		{
			"bufferView":2,
			"componentType":5126,
			"count":514,
			"type":"VEC2"
		},
		{
			"bufferView":3,
			"componentType":5123,
			"count":780,
			"type":"SCALAR"
		},
		{
			"bufferView":4,
			"componentType":5126,
			"count":14,
			"max":[
				4.984475612640381,
				0.15620458126068115,
				-1.71511971950531
			],
			"min":[
				3.3574681282043457,
				0.15620458126068115,
				-3.0367603302001953
			],
			"type":"VEC3"
		},
		{
			"bufferView":5,
			"componentType":5126,
			"count":14,
			"type":"VEC3"
		},
		{
			"bufferView":6,
			"componentType":5126,
			"count":14,
			"type":"VEC2"
		},
		{
			"bufferView":7,
			"componentType":5123,
			"count":24,
			"type":"SCALAR"
		},
		{
			"bufferView":8,
			"componentType":5126,
			"count":18,
			"max":[
				5.074657440185547,
				0.15620458126068115,
				-1.831407070159912
			],
			"min":[
				3.1546108722686768,
				0.15620458126068115,
				-3.120771646499634
			],
			"type":"VEC3"
		},
		{
			"bufferView":9,
			"componentType":5126,
			"count":18,
			"type":"VEC3"
		},
		{
			"bufferView":10,
			"componentType":5126,
			"count":18,
			"type":"VEC2"
		},
		{
			"bufferView":11,
			"componentType":5123,
			"count":42,
			"type":"SCALAR"
		},
		{
			"bufferView":12,
			"componentType":5126,
			"count":12,
			"max":[
				4.76495361328125,
				0.15620458126068115,
				-1.71511971950531
			],
			"min":[
				3.2039995193481445,
				0.15620458126068115,
				-3.019238233566284
			],
			"type":"VEC3"
		},
		{
			"bufferView":13,
			"componentType":5126,
			"count":12,
			"type":"VEC3"
		},
		{
			"bufferView":14,
			"componentType":5126,
			"count":12,
			"type":"VEC2"
		},
		{
			"bufferView":15,
			"componentType":5123,
			"count":18,
			"type":"SCALAR"
		},
		{
			"bufferView":16,
			"componentType":5126,
			"count":137,
			"max":[
				5.410940170288086,
				0.15620458126068115,
				-1.4742389917373657
			],
			"min":[
				2.821012496948242,
				0.15620458126068115,
				-3.1506738662719727
			],
			"type":"VEC3"
		},
		{
			"bufferView":17,
			"componentType":5126,
			"count":137,
			"type":"VEC3"
		},
		{
			"bufferView":18,
			"componentType":5126,
			"count":137,
			"type":"VEC2"
		},
		{
			"bufferView":19,
			"componentType":5123,
			"count":396,
			"type":"SCALAR"
		},
		{
			"bufferView":20,
			"componentType":5126,
			"count":625,
			"max":[
				5.410940170288086,
				0.07810229063034058,
				-1.4742389917373657
			],
			"min":[
				2.821012496948242,
				0,
				-3.1506738662719727
			],
			"type":"VEC3"
		},
		{
			"bufferView":21,
			"componentType":5126,
			"count":625,
			"type":"VEC3"
		},
		{
			"bufferView":22,
			"componentType":5126,
			"count":625,
			"type":"VEC2"
		},
		{
			"bufferView":23,
			"componentType":5123,
			"count":1212,
			"type":"SCALAR"
		},
		{
			"bufferView":24,
			"componentType":5126,
			"count":1152,
			"max":[
				5.159057140350342,
				0.5324561595916748,
				-1.838821291923523
			],
			"min":[
				3.0532724857330322,
				0.1890220195055008,
				-3.134800910949707
			],
			"type":"VEC3"
		},
		{
			"bufferView":25,
			"componentType":5126,
			"count":1152,
			"type":"VEC3"
		},
		{
			"bufferView":26,
			"componentType":5126,
			"count":1152,
			"type":"VEC2"
		},
		{
			"bufferView":27,
			"componentType":5123,
			"count":1872,
			"type":"SCALAR"
		},
		{
			"bufferView":28,
			"componentType":5126,
			"count":246,
			"max":[
				5.0262579917907715,
				0.21646273136138916,
				-1.9788113832473755
			],
			"min":[
				3.0627739429473877,
				0.14710834622383118,
				-2.9948108196258545
			],
			"type":"VEC3"
		},
		{
			"bufferView":29,
			"componentType":5126,
			"count":246,
			"type":"VEC3"
		},
		{
			"bufferView":30,
			"componentType":5126,
			"count":246,
			"type":"VEC2"
		},
		{
			"bufferView":31,
			"componentType":5123,
			"count":432,
			"type":"SCALAR"
		},
		{
			"bufferView":32,
			"componentType":5126,
			"count":1068,
			"max":[
				5.025497913360596,
				0.5324561595916748,
				-1.838821291923523
			],
			"min":[
				2.9299745559692383,
				0.1890220195055008,
				-3.134800910949707
			],
			"type":"VEC3"
		},
		{
			"bufferView":33,
			"componentType":5126,
			"count":1068,
			"type":"VEC3"
		},
		{
			"bufferView":34,
			"componentType":5126,
			"count":1068,
			"type":"VEC2"
		},
		{
			"bufferView":35,
			"componentType":5123,
			"count":1728,
			"type":"SCALAR"
		},
		{
			"bufferView":36,
			"componentType":5126,
			"count":576,
			"max":[
				5.191279411315918,
				0.23280784487724304,
				-1.7543522119522095
			],
			"min":[
				2.886162281036377,
				0.16613662242889404,
				-2.919264793395996
			],
			"type":"VEC3"
		},
		{
			"bufferView":37,
			"componentType":5126,
			"count":576,
			"type":"VEC3"
		},
		{
			"bufferView":38,
			"componentType":5126,
			"count":576,
			"type":"VEC2"
		},
		{
			"bufferView":39,
			"componentType":5123,
			"count":864,
			"type":"SCALAR"
		},
		{
			"bufferView":40,
			"componentType":5126,
			"count":369,
			"max":[
				5.191279411315918,
				0.1781691312789917,
				-1.7543522119522095
			],
			"min":[
				2.886162281036377,
				0.1478251814842224,
				-2.919264793395996
			],
			"type":"VEC3"
		},
		{
			"bufferView":41,
			"componentType":5126,
			"count":369,
			"type":"VEC3"
		},
		{
			"bufferView":42,
			"componentType":5126,
			"count":369,
			"type":"VEC2"
		},
		{
			"bufferView":43,
			"componentType":5123,
			"count":648,
			"type":"SCALAR"
		},
		{
			"bufferView":44,
			"componentType":5126,
			"count":144,
			"max":[
				5.1600236892700195,
				0.24821141362190247,
				-1.785211443901062
			],
			"min":[
				2.9169185161590576,
				0.21695777773857117,
				-2.8884055614471436
			],
			"type":"VEC3"
		},
		{
			"bufferView":45,
			"componentType":5126,
			"count":144,
			"type":"VEC3"
		},
		{
			"bufferView":46,
			"componentType":5126,
			"count":144,
			"type":"VEC2"
		},
		{
			"bufferView":47,
			"componentType":5123,
			"count":216,
			"type":"SCALAR"
		},
		{
			"bufferView":48,
			"componentType":5126,
			"count":39,
			"max":[
				3.1578874588012695,
				0.24193722009658813,
				-2.081744432449341
			],
			"min":[
				2.951052188873291,
				0.15212199091911316,
				-2.281606912612915
			],
			"type":"VEC3"
		},
		{
			"bufferView":49,
			"componentType":5126,
			"count":39,
			"type":"VEC3"
		},
		{
			"bufferView":50,
			"componentType":5126,
			"count":39,
			"type":"VEC2"
		},
		{
			"bufferView":51,
			"componentType":5123,
			"count":72,
			"type":"SCALAR"
		},
		{
			"bufferView":52,
			"componentType":5126,
			"count":104,
			"max":[
				3.1578874588012695,
				0.26309260725975037,
				-2.081744432449341
			],
			"min":[
				2.951052188873291,
				0.15212199091911316,
				-2.28328537940979
			],
			"type":"VEC3"
		},
		{
			"bufferView":53,
			"componentType":5126,
			"count":104,
			"type":"VEC3"
		},
		{
			"bufferView":54,
			"componentType":5126,
			"count":104,
			"type":"VEC2"
		},
		{
			"bufferView":55,
			"componentType":5123,
			"count":156,
			"type":"SCALAR"
		}
	],
	"bufferViews":[
		{
			"buffer":0,
			"byteLength":6168,
			"byteOffset":0,
			"target":34962
		},
		{
			"buffer":0,
			"byteLength":6168,
			"byteOffset":6168,
			"target":34962
		},
		{
			"buffer":0,
			"byteLength":4112,
			"byteOffset":12336,
			"target":34962
		},
		{
			"buffer":0,
			"byteLength":1560,
			"byteOffset":16448,
			"target":34963
		},
		{
			"buffer":0,
			"byteLength":168,
			"byteOffset":18008,
			"target":34962
		},
		{
			"buffer":0,
			"byteLength":168,
			"byteOffset":18176,
			"target":34962
		},
		{
			"buffer":0,
			"byteLength":112,
			"byteOffset":18344,
			"target":34962
		},
		{
			"buffer":0,
			"byteLength":48,
			"byteOffset":18456,
			"target":34963
		},
		{
			"buffer":0,
			"byteLength":216,
			"byteOffset":18504,
			"target":34962
		},
		{
			"buffer":0,
			"byteLength":216,
			"byteOffset":18720,
			"target":34962
		},
		{
			"buffer":0,
			"byteLength":144,
			"byteOffset":18936,
			"target":34962
		},
		{
			"buffer":0,
			"byteLength":84,
			"byteOffset":19080,
			"target":34963
		},
		{
			"buffer":0,
			"byteLength":144,
			"byteOffset":19164,
			"target":34962
		},
		{
			"buffer":0,
			"byteLength":144,
			"byteOffset":19308,
			"target":34962
		},
		{
			"buffer":0,
			"byteLength":96,
			"byteOffset":19452,
			"target":34962
		},
		{
			"buffer":0,
			"byteLength":36,
			"byteOffset":19548,
			"target":34963
		},
		{
			"buffer":0,
			"byteLength":1644,
			"byteOffset":19584,
			"target":34962
		},
		{
			"buffer":0,
			"byteLength":1644,
			"byteOffset":21228,
			"target":34962
		},
		{
			"buffer":0,
			"byteLength":1096,
			"byteOffset":22872,
			"target":34962
		},
		{
			"buffer":0,
			"byteLength":792,
			"byteOffset":23968,
			"target":34963
		},
		{
			"buffer":0,
			"byteLength":7500,
			"byteOffset":24760,
			"target":34962
		},
		{
			"buffer":0,
			"byteLength":7500,
			"byteOffset":32260,
			"target":34962
		},
		{
			"buffer":0,
			"byteLength":5000,
			"byteOffset":39760,
			"target":34962
		},
		{
			"buffer":0,
			"byteLength":2424,
			"byteOffset":44760,
			"target":34963
		},
		{
			"buffer":0,
			"byteLength":13824,
			"byteOffset":47184,
			"target":34962
		},
		{
			"buffer":0,
			"byteLength":13824,
			"byteOffset":61008,
			"target":34962
		},
		{
			"buffer":0,
			"byteLength":9216,
			"byteOffset":74832,
			"target":34962
		},
		{
			"buffer":0,
			"byteLength":3744,
			"byteOffset":84048,
			"target":34963
		},
		{
			"buffer":0,
			"byteLength":2952,
			"byteOffset":87792,
			"target":34962
		},
		{
			"buffer":0,
			"byteLength":2952,
			"byteOffset":90744,
			"target":34962
		},
		{
			"buffer":0,
			"byteLength":1968,
			"byteOffset":93696,
			"target":34962
		},
		{
			"buffer":0,
			"byteLength":864,
			"byteOffset":95664,
			"target":34963
		},
		{
			"buffer":0,
			"byteLength":12816,
			"byteOffset":96528,
			"target":34962
		},
		{
			"buffer":0,
			"byteLength":12816,
			"byteOffset":109344,
			"target":34962
		},
		{
			"buffer":0,
			"byteLength":8544,
			"byteOffset":122160,
			"target":34962
		},
		{
			"buffer":0,
			"byteLength":3456,
			"byteOffset":130704,
			"target":34963
		},
		{
			"buffer":0,
			"byteLength":6912,
			"byteOffset":134160,
			"target":34962
		},
		{
			"buffer":0,
			"byteLength":6912,
			"byteOffset":141072,
			"target":34962
		},
		{
			"buffer":0,
			"byteLength":4608,
			"byteOffset":147984,
			"target":34962
		},
		{
			"buffer":0,
			"byteLength":1728,
			"byteOffset":152592,
			"target":34963
		},
		{
			"buffer":0,
			"byteLength":4428,
			"byteOffset":154320,
			"target":34962
		},
		{
			"buffer":0,
			"byteLength":4428,
			"byteOffset":158748,
			"target":34962
		},
		{
			"buffer":0,
			"byteLength":2952,
			"byteOffset":163176,
			"target":34962
		},
		{
			"buffer":0,
			"byteLength":1296,
			"byteOffset":166128,
			"target":34963
		},
		{
			"buffer":0,
			"byteLength":1728,
			"byteOffset":167424,
			"target":34962
		},
		{
			"buffer":0,
			"byteLength":1728,
			"byteOffset":169152,
			"target":34962
		},
		{
			"buffer":0,
			"byteLength":1152,
			"byteOffset":170880,
			"target":34962
		},
		{
			"buffer":0,
			"byteLength":432,
			"byteOffset":172032,
			"target":34963
		},
		{
			"buffer":0,
			"byteLength":468,
			"byteOffset":172464,
			"target":34962
		},
		{
			"buffer":0,
			"byteLength":468,
			"byteOffset":172932,
			"target":34962
		},
		{
			"buffer":0,
			"byteLength":312,
			"byteOffset":173400,
			"target":34962
		},
		{
			"buffer":0,
			"byteLength":144,
			"byteOffset":173712,
			"target":34963
		},
		{
			"buffer":0,
			"byteLength":1248,
			"byteOffset":173856,
			"target":34962
		},
		{
			"buffer":0,
			"byteLength":1248,
			"byteOffset":175104,
			"target":34962
		},
		{
			"buffer":0,
			"byteLength":832,
			"byteOffset":176352,
			"target":34962
		},
		{
			"buffer":0,
			"byteLength":312,
			"byteOffset":177184,
			"target":34963
		}
	],
	"buffers":[
		{
			"byteLength":177496,
			"uri":"data:application/octet-stream;base64,"
		}
	]
}
