{
	"asset":{
		"generator":"Khronos glTF Blender I/O v3.6.28",
		"version":"2.0"
	},
	"scene":0,
	"scenes":[
		{
			"name":"Scene",
			"nodes":[
				0
			]
		}
	],
	"nodes":[
		{
			"mesh":0,
			"name":"\u0441\u0443\u043d\u0442\u0430\u0440",
			"translation":[
				0,
				-0.0012414876837283373,
				0
			]
		}
	],
	"materials":[
		{
			"doubleSided":true,
			"name":"osn",
			"pbrMetallicRoughness":{
				"baseColorFactor":[
					0.17144113779067993,
					0.2746773660182953,
					0.1247718334197998,
					1
				],
				"metallicFactor":0,
				"roughnessFactor":0.5
			}
		},
		{
			"doubleSided":true,
			"name":"onlightosn",
			"pbrMetallicRoughness":{
				"baseColorFactor":[
					0.14995980262756348,
					0.2541521489620209,
					0.12213879823684692,
					1
				],
				"metallicFactor":0,
				"roughnessFactor":0.5
			}
		},
		{
			"doubleSided":true,
			"name":"lightosn",
			"pbrMetallicRoughness":{
				"baseColorFactor":[
					0.22696588933467865,
					0.34191450476646423,
					0.14412851631641388,
					1
				],
				"metallicFactor":0,
				"roughnessFactor":0.5
			}
		},
		{
			"doubleSided":true,
			"name":"osn-2",
			"pbrMetallicRoughness":{
				"baseColorFactor":[
					0.17151030898094177,
					0.29630887508392334,
					0.1398809403181076,
					1
				],
				"metallicFactor":0,
				"roughnessFactor":0.5
			}
		},
		{
			"doubleSided":true,
			"name":"shadosn",
			"pbrMetallicRoughness":{
				"baseColorFactor":[
					0.06301002949476242,
					0.14412851631641388,
					0.10224173218011856,
					1
				],
				"metallicFactor":0,
				"roughnessFactor":0.5
			}
		},
		{
			"doubleSided":true,
			"name":"underosn",
			"pbrMetallicRoughness":{
				"baseColorFactor":[
					0.19120171666145325,
					0.11193244159221649,
					0.09758733212947845,
					1
				],
				"metallicFactor":0,
				"roughnessFactor":0.5
			}
		},
		{
			"doubleSided":true,
			"name":"normal-tree",
			"pbrMetallicRoughness":{
				"baseColorFactor":[
					0.10702310502529144,
					0.22322800755500793,
					0.10224173218011856,
					1
				],
				"metallicFactor":0,
				"roughnessFactor":0.5
			}
		},
		{
			"doubleSided":true,
			"name":"osn-tree",
			"pbrMetallicRoughness":{
				"baseColorFactor":[
					0.23455063998699188,
					0.12743771076202393,
					0.05126946046948433,
					1
				],
				"metallicFactor":0,
				"roughnessFactor":0.5
			}
		},
		{
			"doubleSided":true,
			"name":"shad-tree",
			"pbrMetallicRoughness":{
				"baseColorFactor":[
					0.09305897355079651,
					0.2195262312889099,
					0.09758733212947845,
					1
				],
				"metallicFactor":0,
				"roughnessFactor":0.5
			}
		},
		{
			"doubleSided":true,
			"name":"normal-kus",
			"pbrMetallicRoughness":{
				"baseColorFactor":[
					0.10702310502529144,
					0.18116427958011627,
					0.07818741351366043,
					1
				],
				"metallicFactor":0,
				"roughnessFactor":0.5
			}
		},
		{
			"doubleSided":true,
			"name":"shad-kus",
			"pbrMetallicRoughness":{
				"baseColorFactor":[
					0.06171619892120361,
					0.10226551443338394,
					0.04822072759270668,
					1
				],
				"metallicFactor":0,
				"roughnessFactor":0.5
			}
		},
		{
			"doubleSided":true,
			"name":"light-kus",
			"pbrMetallicRoughness":{
				"baseColorFactor":[
					0.1247718334197998,
					0.22322800755500793,
					0.09305897355079651,
					1
				],
				"metallicFactor":0,
				"roughnessFactor":0.5
			}
		}
	],
	"meshes":[
		{
			"name":"Vert.020",
			"primitives":[
				{
					"attributes":{
						"POSITION":0,
						"NORMAL":1,
						"TEXCOORD_0":2
					},
					"indices":3,
					"material":0
				},
				{
					"attributes":{
						"POSITION":4,
						"NORMAL":5,
						"TEXCOORD_0":6
					},
					"indices":7,
					"material":1
				},
				{
					"attributes":{
						"POSITION":8,
						"NORMAL":9,
						"TEXCOORD_0":10
					},
					"indices":11,
					"material":2
				},
				{
					"attributes":{
						"POSITION":12,
						"NORMAL":13,
						"TEXCOORD_0":14
					},
					"indices":15,
					"material":3
				},
				{
					"attributes":{
						"POSITION":16,
						"NORMAL":17,
						"TEXCOORD_0":18
					},
					"indices":19,
					"material":4
				},
				{
					"attributes":{
						"POSITION":20,
						"NORMAL":21,
						"TEXCOORD_0":22
					},
					"indices":23,
					"material":5
				},
				{
					"attributes":{
						"POSITION":24,
						"NORMAL":25,
						"TEXCOORD_0":26
					},
					"indices":27,
					"material":6
				},
				{
					"attributes":{
						"POSITION":28,
						"NORMAL":29,
						"TEXCOORD_0":30
					},
					"indices":31,
					"material":7
				},
				{
					"attributes":{
						"POSITION":32,
						"NORMAL":33,
						"TEXCOORD_0":34
					},
					"indices":35,
					"material":8
				},
				{
					"attributes":{
						"POSITION":36,
						"NORMAL":37,
						"TEXCOORD_0":38
					},
					"indices":39,
					"material":9
				},
				{
					"attributes":{
						"POSITION":40,
						"NORMAL":41,
						"TEXCOORD_0":42
					},
					"indices":43,
					"material":10
				},
				{
					"attributes":{
						"POSITION":44,
						"NORMAL":45,
						"TEXCOORD_0":46
					},
					"indices":47,
					"material":11
				}
			]
		}
	],
	"accessors":[
		{
			"bufferView":0,
			"componentType":5126,
			"count":284,
			"max":[
				-2.2186269760131836,
				0.1574459820985794,
				2.92704176902771
			],
			"min":[
				-3.8659403324127197,
				0.0012413982767611742,
				1.1591880321502686
			],
			"type":"VEC3"
		},
		{
			"bufferView":1,
			"componentType":5126,
			"count":284,
			"type":"VEC3"
		},
		{
			"bufferView":2,
			"componentType":5126,
			"count":284,
			"type":"VEC2"
		},
		{
			"bufferView":3,
			"componentType":5123,
			"count":432,
			"type":"SCALAR"
		},
		{
			"bufferView":4,
			"componentType":5126,
			"count":14,
			"max":[
				-2.5784943103790283,
				0.1574459820985794,
				2.634028673171997
			],
			"min":[
				-3.7235820293426514,
				0.1574459820985794,
				1.6126346588134766
			],
			"type":"VEC3"
		},
		{
			"bufferView":5,
			"componentType":5126,
			"count":14,
			"type":"VEC3"
		},
		{
			"bufferView":6,
			"componentType":5126,
			"count":14,
			"type":"VEC2"
		},
		{
			"bufferView":7,
			"componentType":5123,
			"count":24,
			"type":"SCALAR"
		},
		{
			"bufferView":8,
			"componentType":5126,
			"count":10,
			"max":[
				-2.5784943103790283,
				0.1574459820985794,
				2.431173324584961
			],
			"min":[
				-3.7235820293426514,
				0.1574459820985794,
				1.850217580795288
			],
			"type":"VEC3"
		},
		{
			"bufferView":9,
			"componentType":5126,
			"count":10,
			"type":"VEC3"
		},
		{
			"bufferView":10,
			"componentType":5126,
			"count":10,
			"type":"VEC2"
		},
		{
			"bufferView":11,
			"componentType":5123,
			"count":18,
			"type":"SCALAR"
		},
		{
			"bufferView":12,
			"componentType":5126,
			"count":8,
			"max":[
				-2.5784943103790283,
				0.1574459820985794,
				2.672393321990967
			],
			"min":[
				-3.7057876586914062,
				0.1574459820985794,
				1.505868673324585
			],
			"type":"VEC3"
		},
		{
			"bufferView":13,
			"componentType":5126,
			"count":8,
			"type":"VEC3"
		},
		{
			"bufferView":14,
			"componentType":5126,
			"count":8,
			"type":"VEC2"
		},
		{
			"bufferView":15,
			"componentType":5123,
			"count":12,
			"type":"SCALAR"
		},
		{
			"bufferView":16,
			"componentType":5126,
			"count":61,
			"max":[
				-2.2186269760131836,
				0.1574459820985794,
				2.92704176902771
			],
			"min":[
				-3.8659403324127197,
				0.1574459820985794,
				1.1591880321502686
			],
			"type":"VEC3"
		},
		{
			"bufferView":17,
			"componentType":5126,
			"count":61,
			"type":"VEC3"
		},
		{
			"bufferView":18,
			"componentType":5126,
			"count":61,
			"type":"VEC2"
		},
		{
			"bufferView":19,
			"componentType":5123,
			"count":150,
			"type":"SCALAR"
		},
		{
			"bufferView":20,
			"componentType":5126,
			"count":310,
			"max":[
				-2.2186269760131836,
				0.07934369146823883,
				2.92704176902771
			],
			"min":[
				-3.8659403324127197,
				0.0012413982767611742,
				1.1591880321502686
			],
			"type":"VEC3"
		},
		{
			"bufferView":21,
			"componentType":5126,
			"count":310,
			"type":"VEC3"
		},
		{
			"bufferView":22,
			"componentType":5126,
			"count":310,
			"type":"VEC2"
		},
		{
			"bufferView":23,
			"componentType":5123,
			"count":570,
			"type":"SCALAR"
		},
		{
			"bufferView":24,
			"componentType":5126,
			"count":576,
			"max":[
				-2.4094958305358887,
				0.5336976051330566,
				2.5839180946350098
			],
			"min":[
				-3.6422832012176514,
				0.18024078011512756,
				1.3747150897979736
			],
			"type":"VEC3"
		},
		{
			"bufferView":25,
			"componentType":5126,
			"count":576,
			"type":"VEC3"
		},
		{
			"bufferView":26,
			"componentType":5126,
			"count":576,
			"type":"VEC2"
		},
		{
			"bufferView":27,
			"componentType":5123,
			"count":936,
			"type":"SCALAR"
		},
		{
			"bufferView":28,
			"componentType":5126,
			"count":123,
			"max":[
				-2.542295217514038,
				0.21770422160625458,
				2.477799654006958
			],
			"min":[
				-3.5710792541503906,
				0.1483498364686966,
				1.4440144300460815
			],
			"type":"VEC3"
		},
		{
			"bufferView":29,
			"componentType":5126,
			"count":123,
			"type":"VEC3"
		},
		{
			"bufferView":30,
			"componentType":5126,
			"count":123,
			"type":"VEC2"
		},
		{
			"bufferView":31,
			"componentType":5123,
			"count":216,
			"type":"SCALAR"
		},
		{
			"bufferView":32,
			"componentType":5126,
			"count":534,
			"max":[
				-2.543055534362793,
				0.5336976051330566,
				2.5470991134643555
			],
			"min":[
				-3.6771721839904785,
				0.18024078011512756,
				1.3378961086273193
			],
			"type":"VEC3"
		},
		{
			"bufferView":33,
			"componentType":5126,
			"count":534,
			"type":"VEC3"
		},
		{
			"bufferView":34,
			"componentType":5126,
			"count":534,
			"type":"VEC2"
		},
		{
			"bufferView":35,
			"componentType":5123,
			"count":864,
			"type":"SCALAR"
		},
		{
			"bufferView":36,
			"componentType":5126,
			"count":320,
			"max":[
				-2.488990068435669,
				0.23404933512210846,
				2.6285269260406494
			],
			"min":[
				-3.726454496383667,
				0.16364014148712158,
				1.5195330381393433
			],
			"type":"VEC3"
		},
		{
			"bufferView":37,
			"componentType":5126,
			"count":320,
			"type":"VEC3"
		},
		{
			"bufferView":38,
			"componentType":5126,
			"count":320,
			"type":"VEC2"
		},
		{
			"bufferView":39,
			"componentType":5123,
			"count":480,
			"type":"SCALAR"
		},
		{
			"bufferView":40,
			"componentType":5126,
			"count":205,
			"max":[
				-2.488990068435669,
				0.17941060662269592,
				2.6285269260406494
			],
			"min":[
				-3.726454496383667,
				0.14906667172908783,
				1.5195330381393433
			],
			"type":"VEC3"
		},
		{
			"bufferView":41,
			"componentType":5126,
			"count":205,
			"type":"VEC3"
		},
		{
			"bufferView":42,
			"componentType":5126,
			"count":205,
			"type":"VEC2"
		},
		{
			"bufferView":43,
			"componentType":5123,
			"count":360,
			"type":"SCALAR"
		},
		{
			"bufferView":44,
			"componentType":5126,
			"count":80,
			"max":[
				-2.519176483154297,
				0.2494528889656067,
				2.6083755493164062
			],
			"min":[
				-3.70234751701355,
				0.1994112730026245,
				1.5460615158081055
			],
			"type":"VEC3"
		},
		{
			"bufferView":45,
			"componentType":5126,
			"count":80,
			"type":"VEC3"
		},
		{
			"bufferView":46,
			"componentType":5126,
			"count":80,
			"type":"VEC2"
		},
		{
			"bufferView":47,
			"componentType":5123,
			"count":120,
			"type":"SCALAR"
		}
	],
	"bufferViews":[
		{
			"buffer":0,
			"byteLength":3408,
			"byteOffset":0,
			"target":34962
		},
		{
			"buffer":0,
			"byteLength":3408,
			"byteOffset":3408,
			"target":34962
		},
		{
			"buffer":0,
			"byteLength":2272,
			"byteOffset":6816,
			"target":34962
		},
		{
			"buffer":0,
			"byteLength":864,
			"byteOffset":9088,
			"target":34963
		},
		{
			"buffer":0,
			"byteLength":168,
			"byteOffset":9952,
			"target":34962
		},
		{
			"buffer":0,
			"byteLength":168,
			"byteOffset":10120,
			"target":34962
		},
		{
			"buffer":0,
			"byteLength":112,
			"byteOffset":10288,
			"target":34962
		},
		{
			"buffer":0,
			"byteLength":48,
			"byteOffset":10400,
			"target":34963
		},
		{
			"buffer":0,
			"byteLength":120,
			"byteOffset":10448,
			"target":34962
		},
		{
			"buffer":0,
			"byteLength":120,
			"byteOffset":10568,
			"target":34962
		},
		{
			"buffer":0,
			"byteLength":80,
			"byteOffset":10688,
			"target":34962
		},
		{
			"buffer":0,
			"byteLength":36,
			"byteOffset":10768,
			"target":34963
		},
		{
			"buffer":0,
			"byteLength":96,
			"byteOffset":10804,
			"target":34962
		},
		{
			"buffer":0,
			"byteLength":96,
			"byteOffset":10900,
			"target":34962
		},
		{
			"buffer":0,
			"byteLength":64,
			"byteOffset":10996,
			"target":34962
		},
		{
			"buffer":0,
			"byteLength":24,
			"byteOffset":11060,
			"target":34963
		},
		{
			"buffer":0,
			"byteLength":732,
			"byteOffset":11084,
			"target":34962
		},
		{
			"buffer":0,
			"byteLength":732,
			"byteOffset":11816,
			"target":34962
		},
		{
			"buffer":0,
			"byteLength":488,
			"byteOffset":12548,
			"target":34962
		},
		{
			"buffer":0,
			"byteLength":300,
			"byteOffset":13036,
			"target":34963
		},
		{
			"buffer":0,
			"byteLength":3720,
			"byteOffset":13336,
			"target":34962
		},
		{
			"buffer":0,
			"byteLength":3720,
			"byteOffset":17056,
			"target":34962
		},
		{
			"buffer":0,
			"byteLength":2480,
			"byteOffset":20776,
			"target":34962
		},
		{
			"buffer":0,
			"byteLength":1140,
			"byteOffset":23256,
			"target":34963
		},
		{
			"buffer":0,
			"byteLength":6912,
			"byteOffset":24396,
			"target":34962
		},
		{
			"buffer":0,
			"byteLength":6912,
			"byteOffset":31308,
			"target":34962
		},
		{
			"buffer":0,
			"byteLength":4608,
			"byteOffset":38220,
			"target":34962
		},
		{
			"buffer":0,
			"byteLength":1872,
			"byteOffset":42828,
			"target":34963
		},
		{
			"buffer":0,
			"byteLength":1476,
			"byteOffset":44700,
			"target":34962
		},
		{
			"buffer":0,
			"byteLength":1476,
			"byteOffset":46176,
			"target":34962
		},
		{
			"buffer":0,
			"byteLength":984,
			"byteOffset":47652,
			"target":34962
		},
		{
			"buffer":0,
			"byteLength":432,
			"byteOffset":48636,
			"target":34963
		},
		{
			"buffer":0,
			"byteLength":6408,
			"byteOffset":49068,
			"target":34962
		},
		{
			"buffer":0,
			"byteLength":6408,
			"byteOffset":55476,
			"target":34962
		},
		{
			"buffer":0,
			"byteLength":4272,
			"byteOffset":61884,
			"target":34962
		},
		{
			"buffer":0,
			"byteLength":1728,
			"byteOffset":66156,
			"target":34963
		},
		{
			"buffer":0,
			"byteLength":3840,
			"byteOffset":67884,
			"target":34962
		},
		{
			"buffer":0,
			"byteLength":3840,
			"byteOffset":71724,
			"target":34962
		},
		{
			"buffer":0,
			"byteLength":2560,
			"byteOffset":75564,
			"target":34962
		},
		{
			"buffer":0,
			"byteLength":960,
			"byteOffset":78124,
			"target":34963
		},
		{
			"buffer":0,
			"byteLength":2460,
			"byteOffset":79084,
			"target":34962
		},
		{
			"buffer":0,
			"byteLength":2460,
			"byteOffset":81544,
			"target":34962
		},
		{
			"buffer":0,
			"byteLength":1640,
			"byteOffset":84004,
			"target":34962
		},
		{
			"buffer":0,
			"byteLength":720,
			"byteOffset":85644,
			"target":34963
		},
		{
			"buffer":0,
			"byteLength":960,
			"byteOffset":86364,
			"target":34962
		},
		{
			"buffer":0,
			"byteLength":960,
			"byteOffset":87324,
			"target":34962
		},
		{
			"buffer":0,
			"byteLength":640,
			"byteOffset":88284,
			"target":34962
		},
		{
			"buffer":0,
			"byteLength":240,
			"byteOffset":88924,
			"target":34963
		}
	],
	"buffers":[
		{
			"byteLength":89164,
			"uri":"data:application/octet-stream;base64,"
		}
	]
}
