{
	"asset":{
		"generator":"Khronos glTF Blender I/O v3.6.28",
		"version":"2.0"
	},
	"scene":0,
	"scenes":[
		{
			"name":"Scene",
			"nodes":[
				0
			]
		}
	],
	"nodes":[
		{
			"mesh":0,
			"name":"\u0442\u0438\u043a\u0441\u0438"
		}
	],
	"materials":[
		{
			"doubleSided":true,
			"name":"osn",
			"pbrMetallicRoughness":{
				"baseColorFactor":[
					0.17144113779067993,
					0.2746773660182953,
					0.1247718334197998,
					1
				],
				"metallicFactor":0,
				"roughnessFactor":0.5
			}
		},
		{
			"doubleSided":true,
			"name":"lightosn",
			"pbrMetallicRoughness":{
				"baseColorFactor":[
					0.22696588933467865,
					0.34191450476646423,
					0.14412851631641388,
					1
				],
				"metallicFactor":0,
				"roughnessFactor":0.5
			}
		},
		{
			"doubleSided":true,
			"name":"onlightosn",
			"pbrMetallicRoughness":{
				"baseColorFactor":[
					0.14995980262756348,
					0.2541521489620209,
					0.12213879823684692,
					1
				],
				"metallicFactor":0,
				"roughnessFactor":0.5
			}
		},
		{
			"doubleSided":true,
			"name":"osn-2",
			"pbrMetallicRoughness":{
				"baseColorFactor":[
					0.17151030898094177,
					0.29630887508392334,
					0.1398809403181076,
					1
				],
				"metallicFactor":0,
				"roughnessFactor":0.5
			}
		},
		{
			"doubleSided":true,
			"name":"shadosn",
			"pbrMetallicRoughness":{
				"baseColorFactor":[
					0.06301002949476242,
					0.14412851631641388,
					0.10224173218011856,
					1
				],
				"metallicFactor":0,
				"roughnessFactor":0.5
			}
		},
		{
			"doubleSided":true,
			"name":"underosn",
			"pbrMetallicRoughness":{
				"baseColorFactor":[
					0.19120171666145325,
					0.11193244159221649,
					0.09758733212947845,
					1
				],
				"metallicFactor":0,
				"roughnessFactor":0.5
			}
		},
		{
			"doubleSided":true,
			"name":"normal-tree",
			"pbrMetallicRoughness":{
				"baseColorFactor":[
					0.10702310502529144,
					0.22322800755500793,
					0.10224173218011856,
					1
				],
				"metallicFactor":0,
				"roughnessFactor":0.5
			}
		},
		{
			"doubleSided":true,
			"name":"osn-tree",
			"pbrMetallicRoughness":{
				"baseColorFactor":[
					0.23455063998699188,
					0.12743771076202393,
					0.05126946046948433,
					1
				],
				"metallicFactor":0,
				"roughnessFactor":0.5
			}
		},
		{
			"doubleSided":true,
			"name":"shad-tree",
			"pbrMetallicRoughness":{
				"baseColorFactor":[
					0.09305897355079651,
					0.2195262312889099,
					0.09758733212947845,
					1
				],
				"metallicFactor":0,
				"roughnessFactor":0.5
			}
		},
		{
			"doubleSided":true,
			"name":"rock",
			"pbrMetallicRoughness":{
				"baseColorFactor":[
					0.3813260495662689,
					0.34670406579971313,
					0.26225075125694275,
					1
				],
				"metallicFactor":0,
				"roughnessFactor":0.5
			}
		},
		{
			"doubleSided":true,
			"name":"rock-sh",
			"pbrMetallicRoughness":{
				"baseColorFactor":[
					0.2195262312889099,
					0.19120171666145325,
					0.1384316384792328,
					1
				],
				"metallicFactor":0,
				"roughnessFactor":0.5
			}
		},
		{
			"doubleSided":true,
			"name":"normal-kus",
			"pbrMetallicRoughness":{
				"baseColorFactor":[
					0.10702310502529144,
					0.18116427958011627,
					0.07818741351366043,
					1
				],
				"metallicFactor":0,
				"roughnessFactor":0.5
			}
		},
		{
			"doubleSided":true,
			"name":"shad-kus",
			"pbrMetallicRoughness":{
				"baseColorFactor":[
					0.06171619892120361,
					0.10226551443338394,
					0.04822072759270668,
					1
				],
				"metallicFactor":0,
				"roughnessFactor":0.5
			}
		},
		{
			"doubleSided":true,
			"name":"light-kus",
			"pbrMetallicRoughness":{
				"baseColorFactor":[
					0.1247718334197998,
					0.22322800755500793,
					0.09305897355079651,
					1
				],
				"metallicFactor":0,
				"roughnessFactor":0.5
			}
		}
	],
	"meshes":[
		{
			"name":"Vert.011",
			"primitives":[
				{
					"attributes":{
						"POSITION":0,
						"NORMAL":1,
						"TEXCOORD_0":2
					},
					"indices":3,
					"material":0
				},
				{
					"attributes":{
						"POSITION":4,
						"NORMAL":5,
						"TEXCOORD_0":6
					},
					"indices":7,
					"material":1
				},
				{
					"attributes":{
						"POSITION":8,
						"NORMAL":9,
						"TEXCOORD_0":10
					},
					"indices":11,
					"material":2
				},
				{
					"attributes":{
						"POSITION":12,
						"NORMAL":13,
						"TEXCOORD_0":14
					},
					"indices":15,
					"material":3
				},
				{
					"attributes":{
						"POSITION":16,
						"NORMAL":17,
						"TEXCOORD_0":18
					},
					"indices":19,
					"material":4
				},
				{
					"attributes":{
						"POSITION":20,
						"NORMAL":21,
						"TEXCOORD_0":22
					},
					"indices":23,
					"material":5
				},
				{
					"attributes":{
						"POSITION":24,
						"NORMAL":25,
						"TEXCOORD_0":26
					},
					"indices":27,
					"material":6
				},
				{
					"attributes":{
						"POSITION":28,
						"NORMAL":29,
						"TEXCOORD_0":30
					},
					"indices":31,
					"material":7
				},
				{
					"attributes":{
						"POSITION":32,
						"NORMAL":33,
						"TEXCOORD_0":34
					},
					"indices":35,
					"material":8
				},
				{
					"attributes":{
						"POSITION":36,
						"NORMAL":37,
						"TEXCOORD_0":38
					},
					"indices":39,
					"material":9
				},
				{
					"attributes":{
						"POSITION":40,
						"NORMAL":41,
						"TEXCOORD_0":42
					},
					"indices":43,
					"material":10
				},
				{
					"attributes":{
						"POSITION":44,
						"NORMAL":45,
						"TEXCOORD_0":46
					},
					"indices":47,
					"material":11
				},
				{
					"attributes":{
						"POSITION":48,
						"NORMAL":49,
						"TEXCOORD_0":50
					},
					"indices":51,
					"material":12
				},
				{
					"attributes":{
						"POSITION":52,
						"NORMAL":53,
						"TEXCOORD_0":54
					},
					"indices":55,
					"material":13
				}
			]
		}
	],
	"accessors":[
		{
			"bufferView":0,
			"componentType":5126,
			"count":522,
			"max":[
				0.10670813918113708,
				0.15620458126068115,
				-1.223514437675476
			],
			"min":[
				-2.820854663848877,
				0.08520250022411346,
				-3.8373870849609375
			],
			"type":"VEC3"
		},
		{
			"bufferView":1,
			"componentType":5126,
			"count":522,
			"type":"VEC3"
		},
		{
			"bufferView":2,
			"componentType":5126,
			"count":522,
			"type":"VEC2"
		},
		{
			"bufferView":3,
			"componentType":5123,
			"count":816,
			"type":"SCALAR"
		},
		{
			"bufferView":4,
			"componentType":5126,
			"count":29,
			"max":[
				-0.6423075795173645,
				0.15620458126068115,
				-2.1440861225128174
			],
			"min":[
				-2.0882797241210938,
				0.15620458126068115,
				-3.3694400787353516
			],
			"type":"VEC3"
		},
		{
			"bufferView":5,
			"componentType":5126,
			"count":29,
			"type":"VEC3"
		},
		{
			"bufferView":6,
			"componentType":5126,
			"count":29,
			"type":"VEC2"
		},
		{
			"bufferView":7,
			"componentType":5123,
			"count":66,
			"type":"SCALAR"
		},
		{
			"bufferView":8,
			"componentType":5126,
			"count":53,
			"max":[
				-0.18329539895057678,
				0.15620458126068115,
				-1.3580278158187866
			],
			"min":[
				-2.366323709487915,
				0.15620458126068115,
				-3.704868793487549
			],
			"type":"VEC3"
		},
		{
			"bufferView":9,
			"componentType":5126,
			"count":53,
			"type":"VEC3"
		},
		{
			"bufferView":10,
			"componentType":5126,
			"count":53,
			"type":"VEC2"
		},
		{
			"bufferView":11,
			"componentType":5123,
			"count":132,
			"type":"SCALAR"
		},
		{
			"bufferView":12,
			"componentType":5126,
			"count":37,
			"max":[
				-0.4425700604915619,
				0.15620458126068115,
				-1.359873652458191
			],
			"min":[
				-2.216438055038452,
				0.15620458126068115,
				-3.5300986766815186
			],
			"type":"VEC3"
		},
		{
			"bufferView":13,
			"componentType":5126,
			"count":37,
			"type":"VEC3"
		},
		{
			"bufferView":14,
			"componentType":5126,
			"count":37,
			"type":"VEC2"
		},
		{
			"bufferView":15,
			"componentType":5123,
			"count":84,
			"type":"SCALAR"
		},
		{
			"bufferView":16,
			"componentType":5126,
			"count":103,
			"max":[
				0.10670813918113708,
				0.15620458126068115,
				-1.223514437675476
			],
			"min":[
				-2.820854663848877,
				0.15620458126068115,
				-3.8373870849609375
			],
			"type":"VEC3"
		},
		{
			"bufferView":17,
			"componentType":5126,
			"count":103,
			"type":"VEC3"
		},
		{
			"bufferView":18,
			"componentType":5126,
			"count":103,
			"type":"VEC2"
		},
		{
			"bufferView":19,
			"componentType":5123,
			"count":258,
			"type":"SCALAR"
		},
		{
			"bufferView":20,
			"componentType":5126,
			"count":664,
			"max":[
				0.10670813918113708,
				0.08520250022411346,
				-1.223514437675476
			],
			"min":[
				-2.820854663848877,
				0,
				-3.8373870849609375
			],
			"type":"VEC3"
		},
		{
			"bufferView":21,
			"componentType":5126,
			"count":664,
			"type":"VEC3"
		},
		{
			"bufferView":22,
			"componentType":5126,
			"count":664,
			"type":"VEC2"
		},
		{
			"bufferView":23,
			"componentType":5123,
			"count":1356,
			"type":"SCALAR"
		},
		{
			"bufferView":24,
			"componentType":5126,
			"count":1920,
			"max":[
				-0.060224756598472595,
				0.5324561595916748,
				-1.3565787076950073
			],
			"min":[
				-2.291118621826172,
				0.17346492409706116,
				-3.744467258453369
			],
			"type":"VEC3"
		},
		{
			"bufferView":25,
			"componentType":5126,
			"count":1920,
			"type":"VEC3"
		},
		{
			"bufferView":26,
			"componentType":5126,
			"count":1920,
			"type":"VEC2"
		},
		{
			"bufferView":27,
			"componentType":5123,
			"count":3120,
			"type":"SCALAR"
		},
		{
			"bufferView":28,
			"componentType":5126,
			"count":410,
			"max":[
				-0.17939519882202148,
				0.21646273136138916,
				-1.4579777717590332
			],
			"min":[
				-2.1991915702819824,
				0.14275239408016205,
				-3.64770770072937
			],
			"type":"VEC3"
		},
		{
			"bufferView":29,
			"componentType":5126,
			"count":410,
			"type":"VEC3"
		},
		{
			"bufferView":30,
			"componentType":5126,
			"count":410,
			"type":"VEC2"
		},
		{
			"bufferView":31,
			"componentType":5123,
			"count":720,
			"type":"SCALAR"
		},
		{
			"bufferView":32,
			"componentType":5126,
			"count":1780,
			"max":[
				-0.04175373911857605,
				0.5324561595916748,
				-1.4113882780075073
			],
			"min":[
				-2.341716766357422,
				0.17346492409706116,
				-3.790168523788452
			],
			"type":"VEC3"
		},
		{
			"bufferView":33,
			"componentType":5126,
			"count":1780,
			"type":"VEC3"
		},
		{
			"bufferView":34,
			"componentType":5126,
			"count":1780,
			"type":"VEC2"
		},
		{
			"bufferView":35,
			"componentType":5123,
			"count":2880,
			"type":"SCALAR"
		},
		{
			"bufferView":36,
			"componentType":5126,
			"count":39,
			"max":[
				-1.6441686153411865,
				0.25727108120918274,
				-1.619858741760254
			],
			"min":[
				-1.8865348100662231,
				0.15202704071998596,
				-1.8540542125701904
			],
			"type":"VEC3"
		},
		{
			"bufferView":37,
			"componentType":5126,
			"count":39,
			"type":"VEC3"
		},
		{
			"bufferView":38,
			"componentType":5126,
			"count":39,
			"type":"VEC2"
		},
		{
			"bufferView":39,
			"componentType":5123,
			"count":72,
			"type":"SCALAR"
		},
		{
			"bufferView":40,
			"componentType":5126,
			"count":104,
			"max":[
				-1.6441686153411865,
				0.2820605933666229,
				-1.619858741760254
			],
			"min":[
				-1.8865348100662231,
				0.15202704071998596,
				-1.8560209274291992
			],
			"type":"VEC3"
		},
		{
			"bufferView":41,
			"componentType":5126,
			"count":104,
			"type":"VEC3"
		},
		{
			"bufferView":42,
			"componentType":5126,
			"count":104,
			"type":"VEC2"
		},
		{
			"bufferView":43,
			"componentType":5123,
			"count":156,
			"type":"SCALAR"
		},
		{
			"bufferView":44,
			"componentType":5126,
			"count":448,
			"max":[
				-0.32304638624191284,
				0.23280784487724304,
				-1.4091538190841675
			],
			"min":[
				-2.5383284091949463,
				0.16613662242889404,
				-3.507117748260498
			],
			"type":"VEC3"
		},
		{
			"bufferView":45,
			"componentType":5126,
			"count":448,
			"type":"VEC3"
		},
		{
			"bufferView":46,
			"componentType":5126,
			"count":448,
			"type":"VEC2"
		},
		{
			"bufferView":47,
			"componentType":5123,
			"count":672,
			"type":"SCALAR"
		},
		{
			"bufferView":48,
			"componentType":5126,
			"count":287,
			"max":[
				-0.32304638624191284,
				0.1781691312789917,
				-1.4091538190841675
			],
			"min":[
				-2.5383284091949463,
				0.1478251814842224,
				-3.507117748260498
			],
			"type":"VEC3"
		},
		{
			"bufferView":49,
			"componentType":5126,
			"count":287,
			"type":"VEC3"
		},
		{
			"bufferView":50,
			"componentType":5126,
			"count":287,
			"type":"VEC2"
		},
		{
			"bufferView":51,
			"componentType":5123,
			"count":504,
			"type":"SCALAR"
		},
		{
			"bufferView":52,
			"componentType":5126,
			"count":112,
			"max":[
				-0.3543146848678589,
				0.24821141362190247,
				-1.4300729036331177
			],
			"min":[
				-2.508392810821533,
				0.20349013805389404,
				-3.4805891513824463
			],
			"type":"VEC3"
		},
		{
			"bufferView":53,
			"componentType":5126,
			"count":112,
			"type":"VEC3"
		},
		{
			"bufferView":54,
			"componentType":5126,
			"count":112,
			"type":"VEC2"
		},
		{
			"bufferView":55,
			"componentType":5123,
			"count":168,
			"type":"SCALAR"
		}
	],
	"bufferViews":[
		{
			"buffer":0,
			"byteLength":6264,
			"byteOffset":0,
			"target":34962
		},
		{
			"buffer":0,
			"byteLength":6264,
			"byteOffset":6264,
			"target":34962
		},
		{
			"buffer":0,
			"byteLength":4176,
			"byteOffset":12528,
			"target":34962
		},
		{
			"buffer":0,
			"byteLength":1632,
			"byteOffset":16704,
			"target":34963
		},
		{
			"buffer":0,
			"byteLength":348,
			"byteOffset":18336,
			"target":34962
		},
		{
			"buffer":0,
			"byteLength":348,
			"byteOffset":18684,
			"target":34962
		},
		{
			"buffer":0,
			"byteLength":232,
			"byteOffset":19032,
			"target":34962
		},
		{
			"buffer":0,
			"byteLength":132,
			"byteOffset":19264,
			"target":34963
		},
		{
			"buffer":0,
			"byteLength":636,
			"byteOffset":19396,
			"target":34962
		},
		{
			"buffer":0,
			"byteLength":636,
			"byteOffset":20032,
			"target":34962
		},
		{
			"buffer":0,
			"byteLength":424,
			"byteOffset":20668,
			"target":34962
		},
		{
			"buffer":0,
			"byteLength":264,
			"byteOffset":21092,
			"target":34963
		},
		{
			"buffer":0,
			"byteLength":444,
			"byteOffset":21356,
			"target":34962
		},
		{
			"buffer":0,
			"byteLength":444,
			"byteOffset":21800,
			"target":34962
		},
		{
			"buffer":0,
			"byteLength":296,
			"byteOffset":22244,
			"target":34962
		},
		{
			"buffer":0,
			"byteLength":168,
			"byteOffset":22540,
			"target":34963
		},
		{
			"buffer":0,
			"byteLength":1236,
			"byteOffset":22708,
			"target":34962
		},
		{
			"buffer":0,
			"byteLength":1236,
			"byteOffset":23944,
			"target":34962
		},
		{
			"buffer":0,
			"byteLength":824,
			"byteOffset":25180,
			"target":34962
		},
		{
			"buffer":0,
			"byteLength":516,
			"byteOffset":26004,
			"target":34963
		},
		{
			"buffer":0,
			"byteLength":7968,
			"byteOffset":26520,
			"target":34962
		},
		{
			"buffer":0,
			"byteLength":7968,
			"byteOffset":34488,
			"target":34962
		},
		{
			"buffer":0,
			"byteLength":5312,
			"byteOffset":42456,
			"target":34962
		},
		{
			"buffer":0,
			"byteLength":2712,
			"byteOffset":47768,
			"target":34963
		},
		{
			"buffer":0,
			"byteLength":23040,
			"byteOffset":50480,
			"target":34962
		},
		{
			"buffer":0,
			"byteLength":23040,
			"byteOffset":73520,
			"target":34962
		},
		{
			"buffer":0,
			"byteLength":15360,
			"byteOffset":96560,
			"target":34962
		},
		{
			"buffer":0,
			"byteLength":6240,
			"byteOffset":111920,
			"target":34963
		},
		{
			"buffer":0,
			"byteLength":4920,
			"byteOffset":118160,
			"target":34962
		},
		{
			"buffer":0,
			"byteLength":4920,
			"byteOffset":123080,
			"target":34962
		},
		{
			"buffer":0,
			"byteLength":3280,
			"byteOffset":128000,
			"target":34962
		},
		{
			"buffer":0,
			"byteLength":1440,
			"byteOffset":131280,
			"target":34963
		},
		{
			"buffer":0,
			"byteLength":21360,
			"byteOffset":132720,
			"target":34962
		},
		{
			"buffer":0,
			"byteLength":21360,
			"byteOffset":154080,
			"target":34962
		},
		{
			"buffer":0,
			"byteLength":14240,
			"byteOffset":175440,
			"target":34962
		},
		{
			"buffer":0,
			"byteLength":5760,
			"byteOffset":189680,
			"target":34963
		},
		{
			"buffer":0,
			"byteLength":468,
			"byteOffset":195440,
			"target":34962
		},
		{
			"buffer":0,
			"byteLength":468,
			"byteOffset":195908,
			"target":34962
		},
		{
			"buffer":0,
			"byteLength":312,
			"byteOffset":196376,
			"target":34962
		},
		{
			"buffer":0,
			"byteLength":144,
			"byteOffset":196688,
			"target":34963
		},
		{
			"buffer":0,
			"byteLength":1248,
			"byteOffset":196832,
			"target":34962
		},
		{
			"buffer":0,
			"byteLength":1248,
			"byteOffset":198080,
			"target":34962
		},
		{
			"buffer":0,
			"byteLength":832,
			"byteOffset":199328,
			"target":34962
		},
		{
			"buffer":0,
			"byteLength":312,
			"byteOffset":200160,
			"target":34963
		},
		{
			"buffer":0,
			"byteLength":5376,
			"byteOffset":200472,
			"target":34962
		},
		{
			"buffer":0,
			"byteLength":5376,
			"byteOffset":205848,
			"target":34962
		},
		{
			"buffer":0,
			"byteLength":3584,
			"byteOffset":211224,
			"target":34962
		},
		{
			"buffer":0,
			"byteLength":1344,
			"byteOffset":214808,
			"target":34963
		},
		{
			"buffer":0,
			"byteLength":3444,
			"byteOffset":216152,
			"target":34962
		},
		{
			"buffer":0,
			"byteLength":3444,
			"byteOffset":219596,
			"target":34962
		},
		{
			"buffer":0,
			"byteLength":2296,
			"byteOffset":223040,
			"target":34962
		},
		{
			"buffer":0,
			"byteLength":1008,
			"byteOffset":225336,
			"target":34963
		},
		{
			"buffer":0,
			"byteLength":1344,
			"byteOffset":226344,
			"target":34962
		},
		{
			"buffer":0,
			"byteLength":1344,
			"byteOffset":227688,
			"target":34962
		},
		{
			"buffer":0,
			"byteLength":896,
			"byteOffset":229032,
			"target":34962
		},
		{
			"buffer":0,
			"byteLength":336,
			"byteOffset":229928,
			"target":34963
		}
	],
	"buffers":[
		{
			"byteLength":230264,
			"uri":"data:application/octet-stream;base64,"
		}
	]
}
