{
	"asset":{
		"generator":"Khronos glTF Blender I/O v3.6.28",
		"version":"2.0"
	},
	"scene":0,
	"scenes":[
		{
			"name":"Scene",
			"nodes":[
				0
			]
		}
	],
	"nodes":[
		{
			"mesh":0,
			"name":"\u0443\u0441\u0442\u044c-\u043c\u0430\u044f"
		}
	],
	"materials":[
		{
			"doubleSided":true,
			"name":"osn",
			"pbrMetallicRoughness":{
				"baseColorFactor":[
					0.17144113779067993,
					0.2746773660182953,
					0.1247718334197998,
					1
				],
				"metallicFactor":0,
				"roughnessFactor":0.5
			}
		},
		{
			"doubleSided":true,
			"name":"underosn",
			"pbrMetallicRoughness":{
				"baseColorFactor":[
					0.19120171666145325,
					0.11193244159221649,
					0.09758733212947845,
					1
				],
				"metallicFactor":0,
				"roughnessFactor":0.5
			}
		},
		{
			"doubleSided":true,
			"name":"Material",
			"pbrMetallicRoughness":{
				"baseColorFactor":[
					0.15292617678642273,
					0.25818291306495667,
					0.1247718334197998,
					1
				],
				"metallicFactor":0,
				"roughnessFactor":0.5
			}
		},
		{
			"doubleSided":true,
			"name":"lightosn",
			"pbrMetallicRoughness":{
				"baseColorFactor":[
					0.22696588933467865,
					0.34191450476646423,
					0.14412851631641388,
					1
				],
				"metallicFactor":0,
				"roughnessFactor":0.5
			}
		},
		{
			"doubleSided":true,
			"name":"onlightosn",
			"pbrMetallicRoughness":{
				"baseColorFactor":[
					0.14995980262756348,
					0.2541521489620209,
					0.12213879823684692,
					1
				],
				"metallicFactor":0,
				"roughnessFactor":0.5
			}
		},
		{
			"doubleSided":true,
			"name":"shadosn",
			"pbrMetallicRoughness":{
				"baseColorFactor":[
					0.06301002949476242,
					0.14412851631641388,
					0.10224173218011856,
					1
				],
				"metallicFactor":0,
				"roughnessFactor":0.5
			}
		},
		{
			"doubleSided":true,
			"name":"normal-tree",
			"pbrMetallicRoughness":{
				"baseColorFactor":[
					0.10702310502529144,
					0.22322800755500793,
					0.10224173218011856,
					1
				],
				"metallicFactor":0,
				"roughnessFactor":0.5
			}
		},
		{
			"doubleSided":true,
			"name":"osn-tree",
			"pbrMetallicRoughness":{
				"baseColorFactor":[
					0.23455063998699188,
					0.12743771076202393,
					0.05126946046948433,
					1
				],
				"metallicFactor":0,
				"roughnessFactor":0.5
			}
		},
		{
			"doubleSided":true,
			"name":"shad-tree",
			"pbrMetallicRoughness":{
				"baseColorFactor":[
					0.09305897355079651,
					0.2195262312889099,
					0.09758733212947845,
					1
				],
				"metallicFactor":0,
				"roughnessFactor":0.5
			}
		},
		{
			"doubleSided":true,
			"name":"rock",
			"pbrMetallicRoughness":{
				"baseColorFactor":[
					0.3813260495662689,
					0.34670406579971313,
					0.26225075125694275,
					1
				],
				"metallicFactor":0,
				"roughnessFactor":0.5
			}
		},
		{
			"doubleSided":true,
			"name":"rock-sh",
			"pbrMetallicRoughness":{
				"baseColorFactor":[
					0.2195262312889099,
					0.19120171666145325,
					0.1384316384792328,
					1
				],
				"metallicFactor":0,
				"roughnessFactor":0.5
			}
		},
		{
			"doubleSided":true,
			"name":"normal-kus",
			"pbrMetallicRoughness":{
				"baseColorFactor":[
					0.10702310502529144,
					0.18116427958011627,
					0.07818741351366043,
					1
				],
				"metallicFactor":0,
				"roughnessFactor":0.5
			}
		},
		{
			"doubleSided":true,
			"name":"shad-kus",
			"pbrMetallicRoughness":{
				"baseColorFactor":[
					0.06171619892120361,
					0.10226551443338394,
					0.04822072759270668,
					1
				],
				"metallicFactor":0,
				"roughnessFactor":0.5
			}
		},
		{
			"doubleSided":true,
			"name":"light-kus",
			"pbrMetallicRoughness":{
				"baseColorFactor":[
					0.1247718334197998,
					0.22322800755500793,
					0.09305897355079651,
					1
				],
				"metallicFactor":0,
				"roughnessFactor":0.5
			}
		}
	],
	"meshes":[
		{
			"name":"Vert.037",
			"primitives":[
				{
					"attributes":{
						"POSITION":0,
						"NORMAL":1,
						"TEXCOORD_0":2
					},
					"indices":3,
					"material":0
				},
				{
					"attributes":{
						"POSITION":4,
						"NORMAL":5,
						"TEXCOORD_0":6
					},
					"indices":7,
					"material":1
				},
				{
					"attributes":{
						"POSITION":8,
						"NORMAL":9,
						"TEXCOORD_0":10
					},
					"indices":11,
					"material":2
				},
				{
					"attributes":{
						"POSITION":12,
						"NORMAL":13,
						"TEXCOORD_0":14
					},
					"indices":15,
					"material":3
				},
				{
					"attributes":{
						"POSITION":16,
						"NORMAL":17,
						"TEXCOORD_0":18
					},
					"indices":19,
					"material":4
				},
				{
					"attributes":{
						"POSITION":20,
						"NORMAL":21,
						"TEXCOORD_0":22
					},
					"indices":23,
					"material":5
				},
				{
					"attributes":{
						"POSITION":24,
						"NORMAL":25,
						"TEXCOORD_0":26
					},
					"indices":27,
					"material":6
				},
				{
					"attributes":{
						"POSITION":28,
						"NORMAL":29,
						"TEXCOORD_0":30
					},
					"indices":31,
					"material":7
				},
				{
					"attributes":{
						"POSITION":32,
						"NORMAL":33,
						"TEXCOORD_0":34
					},
					"indices":35,
					"material":8
				},
				{
					"attributes":{
						"POSITION":36,
						"NORMAL":37,
						"TEXCOORD_0":38
					},
					"indices":39,
					"material":9
				},
				{
					"attributes":{
						"POSITION":40,
						"NORMAL":41,
						"TEXCOORD_0":42
					},
					"indices":43,
					"material":10
				},
				{
					"attributes":{
						"POSITION":44,
						"NORMAL":45,
						"TEXCOORD_0":46
					},
					"indices":47,
					"material":11
				},
				{
					"attributes":{
						"POSITION":48,
						"NORMAL":49,
						"TEXCOORD_0":50
					},
					"indices":51,
					"material":12
				},
				{
					"attributes":{
						"POSITION":52,
						"NORMAL":53,
						"TEXCOORD_0":54
					},
					"indices":55,
					"material":13
				}
			]
		}
	],
	"accessors":[
		{
			"bufferView":0,
			"componentType":5126,
			"count":531,
			"max":[
				2.5324745178222656,
				0.15620458126068115,
				3.630286455154419
			],
			"min":[
				0.677685022354126,
				0,
				1.2968201637268066
			],
			"type":"VEC3"
		},
		{
			"bufferView":1,
			"componentType":5126,
			"count":531,
			"type":"VEC3"
		},
		{
			"bufferView":2,
			"componentType":5126,
			"count":531,
			"type":"VEC2"
		},
		{
			"bufferView":3,
			"componentType":5123,
			"count":816,
			"type":"SCALAR"
		},
		{
			"bufferView":4,
			"componentType":5126,
			"count":619,
			"max":[
				2.5324745178222656,
				0.07810229063034058,
				3.630286455154419
			],
			"min":[
				0.677685022354126,
				0,
				1.2968201637268066
			],
			"type":"VEC3"
		},
		{
			"bufferView":5,
			"componentType":5126,
			"count":619,
			"type":"VEC3"
		},
		{
			"bufferView":6,
			"componentType":5126,
			"count":619,
			"type":"VEC2"
		},
		{
			"bufferView":7,
			"componentType":5123,
			"count":1188,
			"type":"SCALAR"
		},
		{
			"bufferView":8,
			"componentType":5126,
			"count":32,
			"max":[
				2.4658353328704834,
				0.15620458126068115,
				3.379312753677368
			],
			"min":[
				0.8819172382354736,
				0.15620458126068115,
				1.6505206823349
			],
			"type":"VEC3"
		},
		{
			"bufferView":9,
			"componentType":5126,
			"count":32,
			"type":"VEC3"
		},
		{
			"bufferView":10,
			"componentType":5126,
			"count":32,
			"type":"VEC2"
		},
		{
			"bufferView":11,
			"componentType":5123,
			"count":72,
			"type":"SCALAR"
		},
		{
			"bufferView":12,
			"componentType":5126,
			"count":22,
			"max":[
				2.4658353328704834,
				0.15620458126068115,
				3.2008779048919678
			],
			"min":[
				0.9880507588386536,
				0.15620458126068115,
				1.4198464155197144
			],
			"type":"VEC3"
		},
		{
			"bufferView":13,
			"componentType":5126,
			"count":22,
			"type":"VEC3"
		},
		{
			"bufferView":14,
			"componentType":5126,
			"count":22,
			"type":"VEC2"
		},
		{
			"bufferView":15,
			"componentType":5123,
			"count":42,
			"type":"SCALAR"
		},
		{
			"bufferView":16,
			"componentType":5126,
			"count":16,
			"max":[
				2.4658353328704834,
				0.15620458126068115,
				3.379312753677368
			],
			"min":[
				0.9880507588386536,
				0.15620458126068115,
				1.6043858528137207
			],
			"type":"VEC3"
		},
		{
			"bufferView":17,
			"componentType":5126,
			"count":16,
			"type":"VEC3"
		},
		{
			"bufferView":18,
			"componentType":5126,
			"count":16,
			"type":"VEC2"
		},
		{
			"bufferView":19,
			"componentType":5123,
			"count":24,
			"type":"SCALAR"
		},
		{
			"bufferView":20,
			"componentType":5126,
			"count":106,
			"max":[
				2.5324745178222656,
				0.15620458126068115,
				3.630286455154419
			],
			"min":[
				0.677685022354126,
				0.15620458126068115,
				1.2968201637268066
			],
			"type":"VEC3"
		},
		{
			"bufferView":21,
			"componentType":5126,
			"count":106,
			"type":"VEC3"
		},
		{
			"bufferView":22,
			"componentType":5126,
			"count":106,
			"type":"VEC2"
		},
		{
			"bufferView":23,
			"componentType":5123,
			"count":282,
			"type":"SCALAR"
		},
		{
			"bufferView":24,
			"componentType":5126,
			"count":768,
			"max":[
				2.3205931186676025,
				0.5324561595916748,
				3.2596144676208496
			],
			"min":[
				0.8974171280860901,
				0.17784664034843445,
				1.482285499572754
			],
			"type":"VEC3"
		},
		{
			"bufferView":25,
			"componentType":5126,
			"count":768,
			"type":"VEC3"
		},
		{
			"bufferView":26,
			"componentType":5126,
			"count":768,
			"type":"VEC2"
		},
		{
			"bufferView":27,
			"componentType":5123,
			"count":1248,
			"type":"SCALAR"
		},
		{
			"bufferView":28,
			"componentType":5126,
			"count":164,
			"max":[
				2.193760395050049,
				0.21646273136138916,
				3.119624376296997
			],
			"min":[
				0.906918466091156,
				0.14612147212028503,
				1.6222755908966064
			],
			"type":"VEC3"
		},
		{
			"bufferView":29,
			"componentType":5126,
			"count":164,
			"type":"VEC3"
		},
		{
			"bufferView":30,
			"componentType":5126,
			"count":164,
			"type":"VEC2"
		},
		{
			"bufferView":31,
			"componentType":5123,
			"count":288,
			"type":"SCALAR"
		},
		{
			"bufferView":32,
			"componentType":5126,
			"count":712,
			"max":[
				2.1931850910186768,
				0.5324561595916748,
				3.2596144676208496
			],
			"min":[
				0.7741192579269409,
				0.17784664034843445,
				1.482285499572754
			],
			"type":"VEC3"
		},
		{
			"bufferView":33,
			"componentType":5126,
			"count":712,
			"type":"VEC3"
		},
		{
			"bufferView":34,
			"componentType":5126,
			"count":712,
			"type":"VEC2"
		},
		{
			"bufferView":35,
			"componentType":5123,
			"count":1152,
			"type":"SCALAR"
		},
		{
			"bufferView":36,
			"componentType":5126,
			"count":117,
			"max":[
				2.2333672046661377,
				0.21362091600894928,
				2.9704527854919434
			],
			"min":[
				0.92298424243927,
				0.14715713262557983,
				2.7052738666534424
			],
			"type":"VEC3"
		},
		{
			"bufferView":37,
			"componentType":5126,
			"count":117,
			"type":"VEC3"
		},
		{
			"bufferView":38,
			"componentType":5126,
			"count":117,
			"type":"VEC2"
		},
		{
			"bufferView":39,
			"componentType":5123,
			"count":216,
			"type":"SCALAR"
		},
		{
			"bufferView":40,
			"componentType":5126,
			"count":312,
			"max":[
				2.2333672046661377,
				0.22792688012123108,
				2.9704527854919434
			],
			"min":[
				0.92298424243927,
				0.14715713262557983,
				2.7052738666534424
			],
			"type":"VEC3"
		},
		{
			"bufferView":41,
			"componentType":5126,
			"count":312,
			"type":"VEC3"
		},
		{
			"bufferView":42,
			"componentType":5126,
			"count":312,
			"type":"VEC2"
		},
		{
			"bufferView":43,
			"componentType":5123,
			"count":468,
			"type":"SCALAR"
		},
		{
			"bufferView":44,
			"componentType":5126,
			"count":320,
			"max":[
				2.438199758529663,
				0.23280784487724304,
				3.380871295928955
			],
			"min":[
				0.9792666435241699,
				0.16043034195899963,
				1.424740195274353
			],
			"type":"VEC3"
		},
		{
			"bufferView":45,
			"componentType":5126,
			"count":320,
			"type":"VEC3"
		},
		{
			"bufferView":46,
			"componentType":5126,
			"count":320,
			"type":"VEC2"
		},
		{
			"bufferView":47,
			"componentType":5123,
			"count":480,
			"type":"SCALAR"
		},
		{
			"bufferView":48,
			"componentType":5126,
			"count":205,
			"max":[
				2.438199758529663,
				0.1781691312789917,
				3.380871295928955
			],
			"min":[
				0.9792666435241699,
				0.1478251814842224,
				1.424740195274353
			],
			"type":"VEC3"
		},
		{
			"bufferView":49,
			"componentType":5126,
			"count":205,
			"type":"VEC3"
		},
		{
			"bufferView":50,
			"componentType":5126,
			"count":205,
			"type":"VEC2"
		},
		{
			"bufferView":51,
			"componentType":5123,
			"count":360,
			"type":"SCALAR"
		},
		{
			"bufferView":52,
			"componentType":5126,
			"count":80,
			"max":[
				2.414092779159546,
				0.24821141362190247,
				3.3543426990509033
			],
			"min":[
				1.003373622894287,
				0.189839705824852,
				1.4512686729431152
			],
			"type":"VEC3"
		},
		{
			"bufferView":53,
			"componentType":5126,
			"count":80,
			"type":"VEC3"
		},
		{
			"bufferView":54,
			"componentType":5126,
			"count":80,
			"type":"VEC2"
		},
		{
			"bufferView":55,
			"componentType":5123,
			"count":120,
			"type":"SCALAR"
		}
	],
	"bufferViews":[
		{
			"buffer":0,
			"byteLength":6372,
			"byteOffset":0,
			"target":34962
		},
		{
			"buffer":0,
			"byteLength":6372,
			"byteOffset":6372,
			"target":34962
		},
		{
			"buffer":0,
			"byteLength":4248,
			"byteOffset":12744,
			"target":34962
		},
		{
			"buffer":0,
			"byteLength":1632,
			"byteOffset":16992,
			"target":34963
		},
		{
			"buffer":0,
			"byteLength":7428,
			"byteOffset":18624,
			"target":34962
		},
		{
			"buffer":0,
			"byteLength":7428,
			"byteOffset":26052,
			"target":34962
		},
		{
			"buffer":0,
			"byteLength":4952,
			"byteOffset":33480,
			"target":34962
		},
		{
			"buffer":0,
			"byteLength":2376,
			"byteOffset":38432,
			"target":34963
		},
		{
			"buffer":0,
			"byteLength":384,
			"byteOffset":40808,
			"target":34962
		},
		{
			"buffer":0,
			"byteLength":384,
			"byteOffset":41192,
			"target":34962
		},
		{
			"buffer":0,
			"byteLength":256,
			"byteOffset":41576,
			"target":34962
		},
		{
			"buffer":0,
			"byteLength":144,
			"byteOffset":41832,
			"target":34963
		},
		{
			"buffer":0,
			"byteLength":264,
			"byteOffset":41976,
			"target":34962
		},
		{
			"buffer":0,
			"byteLength":264,
			"byteOffset":42240,
			"target":34962
		},
		{
			"buffer":0,
			"byteLength":176,
			"byteOffset":42504,
			"target":34962
		},
		{
			"buffer":0,
			"byteLength":84,
			"byteOffset":42680,
			"target":34963
		},
		{
			"buffer":0,
			"byteLength":192,
			"byteOffset":42764,
			"target":34962
		},
		{
			"buffer":0,
			"byteLength":192,
			"byteOffset":42956,
			"target":34962
		},
		{
			"buffer":0,
			"byteLength":128,
			"byteOffset":43148,
			"target":34962
		},
		{
			"buffer":0,
			"byteLength":48,
			"byteOffset":43276,
			"target":34963
		},
		{
			"buffer":0,
			"byteLength":1272,
			"byteOffset":43324,
			"target":34962
		},
		{
			"buffer":0,
			"byteLength":1272,
			"byteOffset":44596,
			"target":34962
		},
		{
			"buffer":0,
			"byteLength":848,
			"byteOffset":45868,
			"target":34962
		},
		{
			"buffer":0,
			"byteLength":564,
			"byteOffset":46716,
			"target":34963
		},
		{
			"buffer":0,
			"byteLength":9216,
			"byteOffset":47280,
			"target":34962
		},
		{
			"buffer":0,
			"byteLength":9216,
			"byteOffset":56496,
			"target":34962
		},
		{
			"buffer":0,
			"byteLength":6144,
			"byteOffset":65712,
			"target":34962
		},
		{
			"buffer":0,
			"byteLength":2496,
			"byteOffset":71856,
			"target":34963
		},
		{
			"buffer":0,
			"byteLength":1968,
			"byteOffset":74352,
			"target":34962
		},
		{
			"buffer":0,
			"byteLength":1968,
			"byteOffset":76320,
			"target":34962
		},
		{
			"buffer":0,
			"byteLength":1312,
			"byteOffset":78288,
			"target":34962
		},
		{
			"buffer":0,
			"byteLength":576,
			"byteOffset":79600,
			"target":34963
		},
		{
			"buffer":0,
			"byteLength":8544,
			"byteOffset":80176,
			"target":34962
		},
		{
			"buffer":0,
			"byteLength":8544,
			"byteOffset":88720,
			"target":34962
		},
		{
			"buffer":0,
			"byteLength":5696,
			"byteOffset":97264,
			"target":34962
		},
		{
			"buffer":0,
			"byteLength":2304,
			"byteOffset":102960,
			"target":34963
		},
		{
			"buffer":0,
			"byteLength":1404,
			"byteOffset":105264,
			"target":34962
		},
		{
			"buffer":0,
			"byteLength":1404,
			"byteOffset":106668,
			"target":34962
		},
		{
			"buffer":0,
			"byteLength":936,
			"byteOffset":108072,
			"target":34962
		},
		{
			"buffer":0,
			"byteLength":432,
			"byteOffset":109008,
			"target":34963
		},
		{
			"buffer":0,
			"byteLength":3744,
			"byteOffset":109440,
			"target":34962
		},
		{
			"buffer":0,
			"byteLength":3744,
			"byteOffset":113184,
			"target":34962
		},
		{
			"buffer":0,
			"byteLength":2496,
			"byteOffset":116928,
			"target":34962
		},
		{
			"buffer":0,
			"byteLength":936,
			"byteOffset":119424,
			"target":34963
		},
		{
			"buffer":0,
			"byteLength":3840,
			"byteOffset":120360,
			"target":34962
		},
		{
			"buffer":0,
			"byteLength":3840,
			"byteOffset":124200,
			"target":34962
		},
		{
			"buffer":0,
			"byteLength":2560,
			"byteOffset":128040,
			"target":34962
		},
		{
			"buffer":0,
			"byteLength":960,
			"byteOffset":130600,
			"target":34963
		},
		{
			"buffer":0,
			"byteLength":2460,
			"byteOffset":131560,
			"target":34962
		},
		{
			"buffer":0,
			"byteLength":2460,
			"byteOffset":134020,
			"target":34962
		},
		{
			"buffer":0,
			"byteLength":1640,
			"byteOffset":136480,
			"target":34962
		},
		{
			"buffer":0,
			"byteLength":720,
			"byteOffset":138120,
			"target":34963
		},
		{
			"buffer":0,
			"byteLength":960,
			"byteOffset":138840,
			"target":34962
		},
		{
			"buffer":0,
			"byteLength":960,
			"byteOffset":139800,
			"target":34962
		},
		{
			"buffer":0,
			"byteLength":640,
			"byteOffset":140760,
			"target":34962
		},
		{
			"buffer":0,
			"byteLength":240,
			"byteOffset":141400,
			"target":34963
		}
	],
	"buffers":[
		{
			"byteLength":141640,
			"uri":"data:application/octet-stream;base64,"
		}
	]
}
