{
	"asset":{
		"generator":"Khronos glTF Blender I/O v3.6.28",
		"version":"2.0"
	},
	"scene":0,
	"scenes":[
		{
			"name":"Scene",
			"nodes":[
				0
			]
		}
	],
	"nodes":[
		{
			"mesh":0,
			"name":"\u0443\u0441\u0442\u044c-\u043d\u0435\u0440\u0430"
		}
	],
	"materials":[
		{
			"doubleSided":true,
			"name":"osn",
			"pbrMetallicRoughness":{
				"baseColorFactor":[
					0.17144113779067993,
					0.2746773660182953,
					0.1247718334197998,
					1
				],
				"metallicFactor":0,
				"roughnessFactor":0.5
			}
		},
		{
			"doubleSided":true,
			"name":"lightosn",
			"pbrMetallicRoughness":{
				"baseColorFactor":[
					0.22696588933467865,
					0.34191450476646423,
					0.14412851631641388,
					1
				],
				"metallicFactor":0,
				"roughnessFactor":0.5
			}
		},
		{
			"doubleSided":true,
			"name":"onlightosn",
			"pbrMetallicRoughness":{
				"baseColorFactor":[
					0.14995980262756348,
					0.2541521489620209,
					0.12213879823684692,
					1
				],
				"metallicFactor":0,
				"roughnessFactor":0.5
			}
		},
		{
			"doubleSided":true,
			"name":"osn-2",
			"pbrMetallicRoughness":{
				"baseColorFactor":[
					0.17151030898094177,
					0.29630887508392334,
					0.1398809403181076,
					1
				],
				"metallicFactor":0,
				"roughnessFactor":0.5
			}
		},
		{
			"doubleSided":true,
			"name":"shadosn",
			"pbrMetallicRoughness":{
				"baseColorFactor":[
					0.06301002949476242,
					0.14412851631641388,
					0.10224173218011856,
					1
				],
				"metallicFactor":0,
				"roughnessFactor":0.5
			}
		},
		{
			"doubleSided":true,
			"name":"underosn",
			"pbrMetallicRoughness":{
				"baseColorFactor":[
					0.19120171666145325,
					0.11193244159221649,
					0.09758733212947845,
					1
				],
				"metallicFactor":0,
				"roughnessFactor":0.5
			}
		},
		{
			"doubleSided":true,
			"name":"normal-tree",
			"pbrMetallicRoughness":{
				"baseColorFactor":[
					0.10702310502529144,
					0.22322800755500793,
					0.10224173218011856,
					1
				],
				"metallicFactor":0,
				"roughnessFactor":0.5
			}
		},
		{
			"doubleSided":true,
			"name":"osn-tree",
			"pbrMetallicRoughness":{
				"baseColorFactor":[
					0.23455063998699188,
					0.12743771076202393,
					0.05126946046948433,
					1
				],
				"metallicFactor":0,
				"roughnessFactor":0.5
			}
		},
		{
			"doubleSided":true,
			"name":"shad-tree",
			"pbrMetallicRoughness":{
				"baseColorFactor":[
					0.09305897355079651,
					0.2195262312889099,
					0.09758733212947845,
					1
				],
				"metallicFactor":0,
				"roughnessFactor":0.5
			}
		},
		{
			"doubleSided":true,
			"name":"rock",
			"pbrMetallicRoughness":{
				"baseColorFactor":[
					0.3813260495662689,
					0.34670406579971313,
					0.26225075125694275,
					1
				],
				"metallicFactor":0,
				"roughnessFactor":0.5
			}
		},
		{
			"doubleSided":true,
			"name":"rock-sh",
			"pbrMetallicRoughness":{
				"baseColorFactor":[
					0.2195262312889099,
					0.19120171666145325,
					0.1384316384792328,
					1
				],
				"metallicFactor":0,
				"roughnessFactor":0.5
			}
		},
		{
			"doubleSided":true,
			"name":"normal-kus",
			"pbrMetallicRoughness":{
				"baseColorFactor":[
					0.10702310502529144,
					0.18116427958011627,
					0.07818741351366043,
					1
				],
				"metallicFactor":0,
				"roughnessFactor":0.5
			}
		},
		{
			"doubleSided":true,
			"name":"shad-kus",
			"pbrMetallicRoughness":{
				"baseColorFactor":[
					0.06171619892120361,
					0.10226551443338394,
					0.04822072759270668,
					1
				],
				"metallicFactor":0,
				"roughnessFactor":0.5
			}
		},
		{
			"doubleSided":true,
			"name":"light-kus",
			"pbrMetallicRoughness":{
				"baseColorFactor":[
					0.1247718334197998,
					0.22322800755500793,
					0.09305897355079651,
					1
				],
				"metallicFactor":0,
				"roughnessFactor":0.5
			}
		}
	],
	"meshes":[
		{
			"name":"Vert.050",
			"primitives":[
				{
					"attributes":{
						"POSITION":0,
						"NORMAL":1,
						"TEXCOORD_0":2
					},
					"indices":3,
					"material":0
				},
				{
					"attributes":{
						"POSITION":4,
						"NORMAL":5,
						"TEXCOORD_0":6
					},
					"indices":7,
					"material":1
				},
				{
					"attributes":{
						"POSITION":8,
						"NORMAL":9,
						"TEXCOORD_0":10
					},
					"indices":11,
					"material":2
				},
				{
					"attributes":{
						"POSITION":12,
						"NORMAL":13,
						"TEXCOORD_0":14
					},
					"indices":15,
					"material":3
				},
				{
					"attributes":{
						"POSITION":16,
						"NORMAL":17,
						"TEXCOORD_0":18
					},
					"indices":19,
					"material":4
				},
				{
					"attributes":{
						"POSITION":20,
						"NORMAL":21,
						"TEXCOORD_0":22
					},
					"indices":23,
					"material":5
				},
				{
					"attributes":{
						"POSITION":24,
						"NORMAL":25,
						"TEXCOORD_0":26
					},
					"indices":27,
					"material":6
				},
				{
					"attributes":{
						"POSITION":28,
						"NORMAL":29,
						"TEXCOORD_0":30
					},
					"indices":31,
					"material":7
				},
				{
					"attributes":{
						"POSITION":32,
						"NORMAL":33,
						"TEXCOORD_0":34
					},
					"indices":35,
					"material":8
				},
				{
					"attributes":{
						"POSITION":36,
						"NORMAL":37,
						"TEXCOORD_0":38
					},
					"indices":39,
					"material":9
				},
				{
					"attributes":{
						"POSITION":40,
						"NORMAL":41,
						"TEXCOORD_0":42
					},
					"indices":43,
					"material":10
				},
				{
					"attributes":{
						"POSITION":44,
						"NORMAL":45,
						"TEXCOORD_0":46
					},
					"indices":47,
					"material":11
				},
				{
					"attributes":{
						"POSITION":48,
						"NORMAL":49,
						"TEXCOORD_0":50
					},
					"indices":51,
					"material":12
				},
				{
					"attributes":{
						"POSITION":52,
						"NORMAL":53,
						"TEXCOORD_0":54
					},
					"indices":55,
					"material":13
				}
			]
		}
	],
	"accessors":[
		{
			"bufferView":0,
			"componentType":5126,
			"count":592,
			"max":[
				3.6400320529937744,
				0.15620458126068115,
				1.475466251373291
			],
			"min":[
				1.8295215368270874,
				0.07810229063034058,
				-0.30108219385147095
			],
			"type":"VEC3"
		},
		{
			"bufferView":1,
			"componentType":5126,
			"count":592,
			"type":"VEC3"
		},
		{
			"bufferView":2,
			"componentType":5126,
			"count":592,
			"type":"VEC2"
		},
		{
			"bufferView":3,
			"componentType":5123,
			"count":900,
			"type":"SCALAR"
		},
		{
			"bufferView":4,
			"componentType":5126,
			"count":8,
			"max":[
				3.3310420513153076,
				0.15620458126068115,
				1.3107926845550537
			],
			"min":[
				2.3879644870758057,
				0.15620458126068115,
				-0.1544186770915985
			],
			"type":"VEC3"
		},
		{
			"bufferView":5,
			"componentType":5126,
			"count":8,
			"type":"VEC3"
		},
		{
			"bufferView":6,
			"componentType":5126,
			"count":8,
			"type":"VEC2"
		},
		{
			"bufferView":7,
			"componentType":5123,
			"count":12,
			"type":"SCALAR"
		},
		{
			"bufferView":8,
			"componentType":5126,
			"count":18,
			"max":[
				3.4685020446777344,
				0.15620458126068115,
				1.3107926845550537
			],
			"min":[
				2.073723077774048,
				0.15620458126068115,
				-0.22134283185005188
			],
			"type":"VEC3"
		},
		{
			"bufferView":9,
			"componentType":5126,
			"count":18,
			"type":"VEC3"
		},
		{
			"bufferView":10,
			"componentType":5126,
			"count":18,
			"type":"VEC2"
		},
		{
			"bufferView":11,
			"componentType":5123,
			"count":36,
			"type":"SCALAR"
		},
		{
			"bufferView":12,
			"componentType":5126,
			"count":14,
			"max":[
				3.3310420513153076,
				0.15620458126068115,
				1.3107926845550537
			],
			"min":[
				2.3380966186523438,
				0.15620458126068115,
				-0.269756019115448
			],
			"type":"VEC3"
		},
		{
			"bufferView":13,
			"componentType":5126,
			"count":14,
			"type":"VEC3"
		},
		{
			"bufferView":14,
			"componentType":5126,
			"count":14,
			"type":"VEC2"
		},
		{
			"bufferView":15,
			"componentType":5123,
			"count":24,
			"type":"SCALAR"
		},
		{
			"bufferView":16,
			"componentType":5126,
			"count":172,
			"max":[
				3.6400320529937744,
				0.15620458126068115,
				1.475466251373291
			],
			"min":[
				1.8295215368270874,
				0.15620458126068115,
				-0.30108219385147095
			],
			"type":"VEC3"
		},
		{
			"bufferView":17,
			"componentType":5126,
			"count":172,
			"type":"VEC3"
		},
		{
			"bufferView":18,
			"componentType":5126,
			"count":172,
			"type":"VEC2"
		},
		{
			"bufferView":19,
			"componentType":5123,
			"count":510,
			"type":"SCALAR"
		},
		{
			"bufferView":20,
			"componentType":5126,
			"count":760,
			"max":[
				3.6400320529937744,
				0.07810229063034058,
				1.475466251373291
			],
			"min":[
				1.8295215368270874,
				0,
				-0.30108219385147095
			],
			"type":"VEC3"
		},
		{
			"bufferView":21,
			"componentType":5126,
			"count":760,
			"type":"VEC3"
		},
		{
			"bufferView":22,
			"componentType":5126,
			"count":760,
			"type":"VEC2"
		},
		{
			"bufferView":23,
			"componentType":5123,
			"count":1482,
			"type":"SCALAR"
		},
		{
			"bufferView":24,
			"componentType":5126,
			"count":1536,
			"max":[
				3.510012626647949,
				0.5324561595916748,
				1.3529419898986816
			],
			"min":[
				2.0888099670410156,
				0.17359210550785065,
				-0.2087641805410385
			],
			"type":"VEC3"
		},
		{
			"bufferView":25,
			"componentType":5126,
			"count":1536,
			"type":"VEC3"
		},
		{
			"bufferView":26,
			"componentType":5126,
			"count":1536,
			"type":"VEC2"
		},
		{
			"bufferView":27,
			"componentType":5123,
			"count":2496,
			"type":"SCALAR"
		},
		{
			"bufferView":28,
			"componentType":5126,
			"count":328,
			"max":[
				3.3772132396698,
				0.21646273136138916,
				1.3348534107208252
			],
			"min":[
				2.098311424255371,
				0.14710834622383118,
				-0.06877407431602478
			],
			"type":"VEC3"
		},
		{
			"bufferView":29,
			"componentType":5126,
			"count":328,
			"type":"VEC3"
		},
		{
			"bufferView":30,
			"componentType":5126,
			"count":328,
			"type":"VEC2"
		},
		{
			"bufferView":31,
			"componentType":5123,
			"count":576,
			"type":"SCALAR"
		},
		{
			"bufferView":32,
			"componentType":5126,
			"count":1424,
			"max":[
				3.376452922821045,
				0.5324561595916748,
				1.4000517129898071
			],
			"min":[
				1.9655121564865112,
				0.17359210550785065,
				-0.2087641805410385
			],
			"type":"VEC3"
		},
		{
			"bufferView":33,
			"componentType":5126,
			"count":1424,
			"type":"VEC3"
		},
		{
			"bufferView":34,
			"componentType":5126,
			"count":1424,
			"type":"VEC2"
		},
		{
			"bufferView":35,
			"componentType":5123,
			"count":2304,
			"type":"SCALAR"
		},
		{
			"bufferView":36,
			"componentType":5126,
			"count":39,
			"max":[
				2.510857105255127,
				0.25727108120918274,
				0.9479665756225586
			],
			"min":[
				2.268490791320801,
				0.15202704071998596,
				0.7137711048126221
			],
			"type":"VEC3"
		},
		{
			"bufferView":37,
			"componentType":5126,
			"count":39,
			"type":"VEC3"
		},
		{
			"bufferView":38,
			"componentType":5126,
			"count":39,
			"type":"VEC2"
		},
		{
			"bufferView":39,
			"componentType":5123,
			"count":72,
			"type":"SCALAR"
		},
		{
			"bufferView":40,
			"componentType":5126,
			"count":104,
			"max":[
				2.510857105255127,
				0.2820605933666229,
				0.9479665756225586
			],
			"min":[
				2.268490791320801,
				0.15202704071998596,
				0.7118043899536133
			],
			"type":"VEC3"
		},
		{
			"bufferView":41,
			"componentType":5126,
			"count":104,
			"type":"VEC3"
		},
		{
			"bufferView":42,
			"componentType":5126,
			"count":104,
			"type":"VEC2"
		},
		{
			"bufferView":43,
			"componentType":5123,
			"count":156,
			"type":"SCALAR"
		},
		{
			"bufferView":44,
			"componentType":5126,
			"count":192,
			"max":[
				3.4464359283447266,
				0.23280784487724304,
				1.2574299573898315
			],
			"min":[
				2.2497148513793945,
				0.16613662242889404,
				-0.24685698747634888
			],
			"type":"VEC3"
		},
		{
			"bufferView":45,
			"componentType":5126,
			"count":192,
			"type":"VEC3"
		},
		{
			"bufferView":46,
			"componentType":5126,
			"count":192,
			"type":"VEC2"
		},
		{
			"bufferView":47,
			"componentType":5123,
			"count":288,
			"type":"SCALAR"
		},
		{
			"bufferView":48,
			"componentType":5126,
			"count":123,
			"max":[
				3.4464359283447266,
				0.1781691312789917,
				1.2574299573898315
			],
			"min":[
				2.2497148513793945,
				0.1478251814842224,
				-0.24685698747634888
			],
			"type":"VEC3"
		},
		{
			"bufferView":49,
			"componentType":5126,
			"count":123,
			"type":"VEC3"
		},
		{
			"bufferView":50,
			"componentType":5126,
			"count":123,
			"type":"VEC2"
		},
		{
			"bufferView":51,
			"componentType":5123,
			"count":216,
			"type":"SCALAR"
		},
		{
			"bufferView":52,
			"componentType":5126,
			"count":48,
			"max":[
				3.4223289489746094,
				0.24821141362190247,
				1.2309014797210693
			],
			"min":[
				2.2738218307495117,
				0.21695777773857117,
				-0.2203284651041031
			],
			"type":"VEC3"
		},
		{
			"bufferView":53,
			"componentType":5126,
			"count":48,
			"type":"VEC3"
		},
		{
			"bufferView":54,
			"componentType":5126,
			"count":48,
			"type":"VEC2"
		},
		{
			"bufferView":55,
			"componentType":5123,
			"count":72,
			"type":"SCALAR"
		}
	],
	"bufferViews":[
		{
			"buffer":0,
			"byteLength":7104,
			"byteOffset":0,
			"target":34962
		},
		{
			"buffer":0,
			"byteLength":7104,
			"byteOffset":7104,
			"target":34962
		},
		{
			"buffer":0,
			"byteLength":4736,
			"byteOffset":14208,
			"target":34962
		},
		{
			"buffer":0,
			"byteLength":1800,
			"byteOffset":18944,
			"target":34963
		},
		{
			"buffer":0,
			"byteLength":96,
			"byteOffset":20744,
			"target":34962
		},
		{
			"buffer":0,
			"byteLength":96,
			"byteOffset":20840,
			"target":34962
		},
		{
			"buffer":0,
			"byteLength":64,
			"byteOffset":20936,
			"target":34962
		},
		{
			"buffer":0,
			"byteLength":24,
			"byteOffset":21000,
			"target":34963
		},
		{
			"buffer":0,
			"byteLength":216,
			"byteOffset":21024,
			"target":34962
		},
		{
			"buffer":0,
			"byteLength":216,
			"byteOffset":21240,
			"target":34962
		},
		{
			"buffer":0,
			"byteLength":144,
			"byteOffset":21456,
			"target":34962
		},
		{
			"buffer":0,
			"byteLength":72,
			"byteOffset":21600,
			"target":34963
		},
		{
			"buffer":0,
			"byteLength":168,
			"byteOffset":21672,
			"target":34962
		},
		{
			"buffer":0,
			"byteLength":168,
			"byteOffset":21840,
			"target":34962
		},
		{
			"buffer":0,
			"byteLength":112,
			"byteOffset":22008,
			"target":34962
		},
		{
			"buffer":0,
			"byteLength":48,
			"byteOffset":22120,
			"target":34963
		},
		{
			"buffer":0,
			"byteLength":2064,
			"byteOffset":22168,
			"target":34962
		},
		{
			"buffer":0,
			"byteLength":2064,
			"byteOffset":24232,
			"target":34962
		},
		{
			"buffer":0,
			"byteLength":1376,
			"byteOffset":26296,
			"target":34962
		},
		{
			"buffer":0,
			"byteLength":1020,
			"byteOffset":27672,
			"target":34963
		},
		{
			"buffer":0,
			"byteLength":9120,
			"byteOffset":28692,
			"target":34962
		},
		{
			"buffer":0,
			"byteLength":9120,
			"byteOffset":37812,
			"target":34962
		},
		{
			"buffer":0,
			"byteLength":6080,
			"byteOffset":46932,
			"target":34962
		},
		{
			"buffer":0,
			"byteLength":2964,
			"byteOffset":53012,
			"target":34963
		},
		{
			"buffer":0,
			"byteLength":18432,
			"byteOffset":55976,
			"target":34962
		},
		{
			"buffer":0,
			"byteLength":18432,
			"byteOffset":74408,
			"target":34962
		},
		{
			"buffer":0,
			"byteLength":12288,
			"byteOffset":92840,
			"target":34962
		},
		{
			"buffer":0,
			"byteLength":4992,
			"byteOffset":105128,
			"target":34963
		},
		{
			"buffer":0,
			"byteLength":3936,
			"byteOffset":110120,
			"target":34962
		},
		{
			"buffer":0,
			"byteLength":3936,
			"byteOffset":114056,
			"target":34962
		},
		{
			"buffer":0,
			"byteLength":2624,
			"byteOffset":117992,
			"target":34962
		},
		{
			"buffer":0,
			"byteLength":1152,
			"byteOffset":120616,
			"target":34963
		},
		{
			"buffer":0,
			"byteLength":17088,
			"byteOffset":121768,
			"target":34962
		},
		{
			"buffer":0,
			"byteLength":17088,
			"byteOffset":138856,
			"target":34962
		},
		{
			"buffer":0,
			"byteLength":11392,
			"byteOffset":155944,
			"target":34962
		},
		{
			"buffer":0,
			"byteLength":4608,
			"byteOffset":167336,
			"target":34963
		},
		{
			"buffer":0,
			"byteLength":468,
			"byteOffset":171944,
			"target":34962
		},
		{
			"buffer":0,
			"byteLength":468,
			"byteOffset":172412,
			"target":34962
		},
		{
			"buffer":0,
			"byteLength":312,
			"byteOffset":172880,
			"target":34962
		},
		{
			"buffer":0,
			"byteLength":144,
			"byteOffset":173192,
			"target":34963
		},
		{
			"buffer":0,
			"byteLength":1248,
			"byteOffset":173336,
			"target":34962
		},
		{
			"buffer":0,
			"byteLength":1248,
			"byteOffset":174584,
			"target":34962
		},
		{
			"buffer":0,
			"byteLength":832,
			"byteOffset":175832,
			"target":34962
		},
		{
			"buffer":0,
			"byteLength":312,
			"byteOffset":176664,
			"target":34963
		},
		{
			"buffer":0,
			"byteLength":2304,
			"byteOffset":176976,
			"target":34962
		},
		{
			"buffer":0,
			"byteLength":2304,
			"byteOffset":179280,
			"target":34962
		},
		{
			"buffer":0,
			"byteLength":1536,
			"byteOffset":181584,
			"target":34962
		},
		{
			"buffer":0,
			"byteLength":576,
			"byteOffset":183120,
			"target":34963
		},
		{
			"buffer":0,
			"byteLength":1476,
			"byteOffset":183696,
			"target":34962
		},
		{
			"buffer":0,
			"byteLength":1476,
			"byteOffset":185172,
			"target":34962
		},
		{
			"buffer":0,
			"byteLength":984,
			"byteOffset":186648,
			"target":34962
		},
		{
			"buffer":0,
			"byteLength":432,
			"byteOffset":187632,
			"target":34963
		},
		{
			"buffer":0,
			"byteLength":576,
			"byteOffset":188064,
			"target":34962
		},
		{
			"buffer":0,
			"byteLength":576,
			"byteOffset":188640,
			"target":34962
		},
		{
			"buffer":0,
			"byteLength":384,
			"byteOffset":189216,
			"target":34962
		},
		{
			"buffer":0,
			"byteLength":144,
			"byteOffset":189600,
			"target":34963
		}
	],
	"buffers":[
		{
			"byteLength":189744,
			"uri":"data:application/octet-stream;base64,"
		}
	]
}
