{
	"asset":{
		"generator":"Khronos glTF Blender I/O v3.6.28",
		"version":"2.0"
	},
	"scene":0,
	"scenes":[
		{
			"name":"Scene",
			"nodes":[
				0
			]
		}
	],
	"nodes":[
		{
			"mesh":0,
			"name":"\u0432\u0435\u0440\u0445\u043d\u0435\u0432\u0438\u043b\u044e\u0439\u0441\u043a"
		}
	],
	"materials":[
		{
			"doubleSided":true,
			"name":"osn",
			"pbrMetallicRoughness":{
				"baseColorFactor":[
					0.17144113779067993,
					0.2746773660182953,
					0.1247718334197998,
					1
				],
				"metallicFactor":0,
				"roughnessFactor":0.5
			}
		},
		{
			"doubleSided":true,
			"name":"lightosn",
			"pbrMetallicRoughness":{
				"baseColorFactor":[
					0.22696588933467865,
					0.34191450476646423,
					0.14412851631641388,
					1
				],
				"metallicFactor":0,
				"roughnessFactor":0.5
			}
		},
		{
			"doubleSided":true,
			"name":"onlightosn",
			"pbrMetallicRoughness":{
				"baseColorFactor":[
					0.14995980262756348,
					0.2541521489620209,
					0.12213879823684692,
					1
				],
				"metallicFactor":0,
				"roughnessFactor":0.5
			}
		},
		{
			"doubleSided":true,
			"name":"osn-2",
			"pbrMetallicRoughness":{
				"baseColorFactor":[
					0.17151030898094177,
					0.29630887508392334,
					0.1398809403181076,
					1
				],
				"metallicFactor":0,
				"roughnessFactor":0.5
			}
		},
		{
			"doubleSided":true,
			"name":"shadosn",
			"pbrMetallicRoughness":{
				"baseColorFactor":[
					0.06301002949476242,
					0.14412851631641388,
					0.10224173218011856,
					1
				],
				"metallicFactor":0,
				"roughnessFactor":0.5
			}
		},
		{
			"doubleSided":true,
			"name":"underosn",
			"pbrMetallicRoughness":{
				"baseColorFactor":[
					0.19120171666145325,
					0.11193244159221649,
					0.09758733212947845,
					1
				],
				"metallicFactor":0,
				"roughnessFactor":0.5
			}
		},
		{
			"doubleSided":true,
			"name":"normal-tree",
			"pbrMetallicRoughness":{
				"baseColorFactor":[
					0.10702310502529144,
					0.22322800755500793,
					0.10224173218011856,
					1
				],
				"metallicFactor":0,
				"roughnessFactor":0.5
			}
		},
		{
			"doubleSided":true,
			"name":"osn-tree",
			"pbrMetallicRoughness":{
				"baseColorFactor":[
					0.23455063998699188,
					0.12743771076202393,
					0.05126946046948433,
					1
				],
				"metallicFactor":0,
				"roughnessFactor":0.5
			}
		},
		{
			"doubleSided":true,
			"name":"shad-tree",
			"pbrMetallicRoughness":{
				"baseColorFactor":[
					0.09305897355079651,
					0.2195262312889099,
					0.09758733212947845,
					1
				],
				"metallicFactor":0,
				"roughnessFactor":0.5
			}
		},
		{
			"doubleSided":true,
			"name":"normal-kus",
			"pbrMetallicRoughness":{
				"baseColorFactor":[
					0.10702310502529144,
					0.18116427958011627,
					0.07818741351366043,
					1
				],
				"metallicFactor":0,
				"roughnessFactor":0.5
			}
		},
		{
			"doubleSided":true,
			"name":"shad-kus",
			"pbrMetallicRoughness":{
				"baseColorFactor":[
					0.06171619892120361,
					0.10226551443338394,
					0.04822072759270668,
					1
				],
				"metallicFactor":0,
				"roughnessFactor":0.5
			}
		},
		{
			"doubleSided":true,
			"name":"light-kus",
			"pbrMetallicRoughness":{
				"baseColorFactor":[
					0.1247718334197998,
					0.22322800755500793,
					0.09305897355079651,
					1
				],
				"metallicFactor":0,
				"roughnessFactor":0.5
			}
		}
	],
	"meshes":[
		{
			"name":"Vert.004",
			"primitives":[
				{
					"attributes":{
						"POSITION":0,
						"NORMAL":1,
						"TEXCOORD_0":2
					},
					"indices":3,
					"material":0
				},
				{
					"attributes":{
						"POSITION":4,
						"NORMAL":5,
						"TEXCOORD_0":6
					},
					"indices":7,
					"material":1
				},
				{
					"attributes":{
						"POSITION":8,
						"NORMAL":9,
						"TEXCOORD_0":10
					},
					"indices":11,
					"material":2
				},
				{
					"attributes":{
						"POSITION":12,
						"NORMAL":13,
						"TEXCOORD_0":14
					},
					"indices":15,
					"material":3
				},
				{
					"attributes":{
						"POSITION":16,
						"NORMAL":17,
						"TEXCOORD_0":18
					},
					"indices":19,
					"material":4
				},
				{
					"attributes":{
						"POSITION":20,
						"NORMAL":21,
						"TEXCOORD_0":22
					},
					"indices":23,
					"material":5
				},
				{
					"attributes":{
						"POSITION":24,
						"NORMAL":25,
						"TEXCOORD_0":26
					},
					"indices":27,
					"material":6
				},
				{
					"attributes":{
						"POSITION":28,
						"NORMAL":29,
						"TEXCOORD_0":30
					},
					"indices":31,
					"material":7
				},
				{
					"attributes":{
						"POSITION":32,
						"NORMAL":33,
						"TEXCOORD_0":34
					},
					"indices":35,
					"material":8
				},
				{
					"attributes":{
						"POSITION":36,
						"NORMAL":37,
						"TEXCOORD_0":38
					},
					"indices":39,
					"material":9
				},
				{
					"attributes":{
						"POSITION":40,
						"NORMAL":41,
						"TEXCOORD_0":42
					},
					"indices":43,
					"material":10
				},
				{
					"attributes":{
						"POSITION":44,
						"NORMAL":45,
						"TEXCOORD_0":46
					},
					"indices":47,
					"material":11
				}
			]
		}
	],
	"accessors":[
		{
			"bufferView":0,
			"componentType":5126,
			"count":196,
			"max":[
				-1.6752984523773193,
				0.15620458126068115,
				2.4858593940734863
			],
			"min":[
				-2.7804179191589355,
				0.07810229063034058,
				-0.011869418434798717
			],
			"type":"VEC3"
		},
		{
			"bufferView":1,
			"componentType":5126,
			"count":196,
			"type":"VEC3"
		},
		{
			"bufferView":2,
			"componentType":5126,
			"count":196,
			"type":"VEC2"
		},
		{
			"bufferView":3,
			"componentType":5123,
			"count":294,
			"type":"SCALAR"
		},
		{
			"bufferView":4,
			"componentType":5126,
			"count":12,
			"max":[
				-1.8625621795654297,
				0.15620458126068115,
				2.119243621826172
			],
			"min":[
				-2.645904541015625,
				0.15620458126068115,
				0.6211346387863159
			],
			"type":"VEC3"
		},
		{
			"bufferView":5,
			"componentType":5126,
			"count":12,
			"type":"VEC3"
		},
		{
			"bufferView":6,
			"componentType":5126,
			"count":12,
			"type":"VEC2"
		},
		{
			"bufferView":7,
			"componentType":5123,
			"count":18,
			"type":"SCALAR"
		},
		{
			"bufferView":8,
			"componentType":5126,
			"count":16,
			"max":[
				-1.8625621795654297,
				0.15620458126068115,
				2.119243621826172
			],
			"min":[
				-2.7065675258636475,
				0.15620458126068115,
				0.370570570230484
			],
			"type":"VEC3"
		},
		{
			"bufferView":9,
			"componentType":5126,
			"count":16,
			"type":"VEC3"
		},
		{
			"bufferView":10,
			"componentType":5126,
			"count":16,
			"type":"VEC2"
		},
		{
			"bufferView":11,
			"componentType":5123,
			"count":30,
			"type":"SCALAR"
		},
		{
			"bufferView":12,
			"componentType":5126,
			"count":8,
			"max":[
				-2.060375690460205,
				0.15620458126068115,
				1.3807389736175537
			],
			"min":[
				-2.5694167613983154,
				0.15620458126068115,
				0.7398226261138916
			],
			"type":"VEC3"
		},
		{
			"bufferView":13,
			"componentType":5126,
			"count":8,
			"type":"VEC3"
		},
		{
			"bufferView":14,
			"componentType":5126,
			"count":8,
			"type":"VEC2"
		},
		{
			"bufferView":15,
			"componentType":5123,
			"count":12,
			"type":"SCALAR"
		},
		{
			"bufferView":16,
			"componentType":5126,
			"count":27,
			"max":[
				-1.6752984523773193,
				0.15620458126068115,
				2.4858593940734863
			],
			"min":[
				-2.7804179191589355,
				0.15620458126068115,
				-0.011869418434798717
			],
			"type":"VEC3"
		},
		{
			"bufferView":17,
			"componentType":5126,
			"count":27,
			"type":"VEC3"
		},
		{
			"bufferView":18,
			"componentType":5126,
			"count":27,
			"type":"VEC2"
		},
		{
			"bufferView":19,
			"componentType":5123,
			"count":63,
			"type":"SCALAR"
		},
		{
			"bufferView":20,
			"componentType":5126,
			"count":235,
			"max":[
				-1.6752984523773193,
				0.07810229063034058,
				2.4858593940734863
			],
			"min":[
				-2.7804179191589355,
				0,
				-0.011869418434798717
			],
			"type":"VEC3"
		},
		{
			"bufferView":21,
			"componentType":5126,
			"count":235,
			"type":"VEC3"
		},
		{
			"bufferView":22,
			"componentType":5126,
			"count":235,
			"type":"VEC2"
		},
		{
			"bufferView":23,
			"componentType":5123,
			"count":417,
			"type":"SCALAR"
		},
		{
			"bufferView":24,
			"componentType":5126,
			"count":576,
			"max":[
				-2.084961414337158,
				0.5324561595916748,
				2.39341402053833
			],
			"min":[
				-2.5860092639923096,
				0.17594866454601288,
				0.14739784598350525
			],
			"type":"VEC3"
		},
		{
			"bufferView":25,
			"componentType":5126,
			"count":576,
			"type":"VEC3"
		},
		{
			"bufferView":26,
			"componentType":5126,
			"count":576,
			"type":"VEC2"
		},
		{
			"bufferView":27,
			"componentType":5123,
			"count":936,
			"type":"SCALAR"
		},
		{
			"bufferView":28,
			"componentType":5126,
			"count":123,
			"max":[
				-2.1778500080108643,
				0.21646273136138916,
				2.2954957485198975
			],
			"min":[
				-2.5793633460998535,
				0.14663149416446686,
				0.2453160583972931
			],
			"type":"VEC3"
		},
		{
			"bufferView":29,
			"componentType":5126,
			"count":123,
			"type":"VEC3"
		},
		{
			"bufferView":30,
			"componentType":5126,
			"count":123,
			"type":"VEC2"
		},
		{
			"bufferView":31,
			"componentType":5123,
			"count":216,
			"type":"SCALAR"
		},
		{
			"bufferView":32,
			"componentType":5126,
			"count":534,
			"max":[
				-2.1783816814422607,
				0.5324561595916748,
				2.39341402053833
			],
			"min":[
				-2.6722519397735596,
				0.17594866454601288,
				0.14739784598350525
			],
			"type":"VEC3"
		},
		{
			"bufferView":33,
			"componentType":5126,
			"count":534,
			"type":"VEC3"
		},
		{
			"bufferView":34,
			"componentType":5126,
			"count":534,
			"type":"VEC2"
		},
		{
			"bufferView":35,
			"componentType":5123,
			"count":864,
			"type":"SCALAR"
		},
		{
			"bufferView":36,
			"componentType":5126,
			"count":192,
			"max":[
				-1.7410736083984375,
				0.23280784487724304,
				2.4533934593200684
			],
			"min":[
				-2.657285213470459,
				0.16263112425804138,
				0.3673022985458374
			],
			"type":"VEC3"
		},
		{
			"bufferView":37,
			"componentType":5126,
			"count":192,
			"type":"VEC3"
		},
		{
			"bufferView":38,
			"componentType":5126,
			"count":192,
			"type":"VEC2"
		},
		{
			"bufferView":39,
			"componentType":5123,
			"count":288,
			"type":"SCALAR"
		},
		{
			"bufferView":40,
			"componentType":5126,
			"count":123,
			"max":[
				-1.7410736083984375,
				0.1781691312789917,
				2.4533934593200684
			],
			"min":[
				-2.657285213470459,
				0.1478251814842224,
				0.3673022985458374
			],
			"type":"VEC3"
		},
		{
			"bufferView":41,
			"componentType":5126,
			"count":123,
			"type":"VEC3"
		},
		{
			"bufferView":42,
			"componentType":5126,
			"count":123,
			"type":"VEC2"
		},
		{
			"bufferView":43,
			"componentType":5123,
			"count":216,
			"type":"SCALAR"
		},
		{
			"bufferView":44,
			"componentType":5126,
			"count":48,
			"max":[
				-1.7651805877685547,
				0.24821141362190247,
				2.4268648624420166
			],
			"min":[
				-2.637472152709961,
				0.19608110189437866,
				0.38590124249458313
			],
			"type":"VEC3"
		},
		{
			"bufferView":45,
			"componentType":5126,
			"count":48,
			"type":"VEC3"
		},
		{
			"bufferView":46,
			"componentType":5126,
			"count":48,
			"type":"VEC2"
		},
		{
			"bufferView":47,
			"componentType":5123,
			"count":72,
			"type":"SCALAR"
		}
	],
	"bufferViews":[
		{
			"buffer":0,
			"byteLength":2352,
			"byteOffset":0,
			"target":34962
		},
		{
			"buffer":0,
			"byteLength":2352,
			"byteOffset":2352,
			"target":34962
		},
		{
			"buffer":0,
			"byteLength":1568,
			"byteOffset":4704,
			"target":34962
		},
		{
			"buffer":0,
			"byteLength":588,
			"byteOffset":6272,
			"target":34963
		},
		{
			"buffer":0,
			"byteLength":144,
			"byteOffset":6860,
			"target":34962
		},
		{
			"buffer":0,
			"byteLength":144,
			"byteOffset":7004,
			"target":34962
		},
		{
			"buffer":0,
			"byteLength":96,
			"byteOffset":7148,
			"target":34962
		},
		{
			"buffer":0,
			"byteLength":36,
			"byteOffset":7244,
			"target":34963
		},
		{
			"buffer":0,
			"byteLength":192,
			"byteOffset":7280,
			"target":34962
		},
		{
			"buffer":0,
			"byteLength":192,
			"byteOffset":7472,
			"target":34962
		},
		{
			"buffer":0,
			"byteLength":128,
			"byteOffset":7664,
			"target":34962
		},
		{
			"buffer":0,
			"byteLength":60,
			"byteOffset":7792,
			"target":34963
		},
		{
			"buffer":0,
			"byteLength":96,
			"byteOffset":7852,
			"target":34962
		},
		{
			"buffer":0,
			"byteLength":96,
			"byteOffset":7948,
			"target":34962
		},
		{
			"buffer":0,
			"byteLength":64,
			"byteOffset":8044,
			"target":34962
		},
		{
			"buffer":0,
			"byteLength":24,
			"byteOffset":8108,
			"target":34963
		},
		{
			"buffer":0,
			"byteLength":324,
			"byteOffset":8132,
			"target":34962
		},
		{
			"buffer":0,
			"byteLength":324,
			"byteOffset":8456,
			"target":34962
		},
		{
			"buffer":0,
			"byteLength":216,
			"byteOffset":8780,
			"target":34962
		},
		{
			"buffer":0,
			"byteLength":126,
			"byteOffset":8996,
			"target":34963
		},
		{
			"buffer":0,
			"byteLength":2820,
			"byteOffset":9124,
			"target":34962
		},
		{
			"buffer":0,
			"byteLength":2820,
			"byteOffset":11944,
			"target":34962
		},
		{
			"buffer":0,
			"byteLength":1880,
			"byteOffset":14764,
			"target":34962
		},
		{
			"buffer":0,
			"byteLength":834,
			"byteOffset":16644,
			"target":34963
		},
		{
			"buffer":0,
			"byteLength":6912,
			"byteOffset":17480,
			"target":34962
		},
		{
			"buffer":0,
			"byteLength":6912,
			"byteOffset":24392,
			"target":34962
		},
		{
			"buffer":0,
			"byteLength":4608,
			"byteOffset":31304,
			"target":34962
		},
		{
			"buffer":0,
			"byteLength":1872,
			"byteOffset":35912,
			"target":34963
		},
		{
			"buffer":0,
			"byteLength":1476,
			"byteOffset":37784,
			"target":34962
		},
		{
			"buffer":0,
			"byteLength":1476,
			"byteOffset":39260,
			"target":34962
		},
		{
			"buffer":0,
			"byteLength":984,
			"byteOffset":40736,
			"target":34962
		},
		{
			"buffer":0,
			"byteLength":432,
			"byteOffset":41720,
			"target":34963
		},
		{
			"buffer":0,
			"byteLength":6408,
			"byteOffset":42152,
			"target":34962
		},
		{
			"buffer":0,
			"byteLength":6408,
			"byteOffset":48560,
			"target":34962
		},
		{
			"buffer":0,
			"byteLength":4272,
			"byteOffset":54968,
			"target":34962
		},
		{
			"buffer":0,
			"byteLength":1728,
			"byteOffset":59240,
			"target":34963
		},
		{
			"buffer":0,
			"byteLength":2304,
			"byteOffset":60968,
			"target":34962
		},
		{
			"buffer":0,
			"byteLength":2304,
			"byteOffset":63272,
			"target":34962
		},
		{
			"buffer":0,
			"byteLength":1536,
			"byteOffset":65576,
			"target":34962
		},
		{
			"buffer":0,
			"byteLength":576,
			"byteOffset":67112,
			"target":34963
		},
		{
			"buffer":0,
			"byteLength":1476,
			"byteOffset":67688,
			"target":34962
		},
		{
			"buffer":0,
			"byteLength":1476,
			"byteOffset":69164,
			"target":34962
		},
		{
			"buffer":0,
			"byteLength":984,
			"byteOffset":70640,
			"target":34962
		},
		{
			"buffer":0,
			"byteLength":432,
			"byteOffset":71624,
			"target":34963
		},
		{
			"buffer":0,
			"byteLength":576,
			"byteOffset":72056,
			"target":34962
		},
		{
			"buffer":0,
			"byteLength":576,
			"byteOffset":72632,
			"target":34962
		},
		{
			"buffer":0,
			"byteLength":384,
			"byteOffset":73208,
			"target":34962
		},
		{
			"buffer":0,
			"byteLength":144,
			"byteOffset":73592,
			"target":34963
		}
	],
	"buffers":[
		{
			"byteLength":73736,
			"uri":"data:application/octet-stream;base64,"
		}
	]
}
