{
	"asset":{
		"generator":"Khronos glTF Blender I/O v3.6.28",
		"version":"2.0"
	},
	"scene":0,
	"scenes":[
		{
			"name":"Scene",
			"nodes":[
				0
			]
		}
	],
	"nodes":[
		{
			"mesh":0,
			"name":"\u0432\u0438\u043b\u044e\u0439\u0441\u043a"
		}
	],
	"materials":[
		{
			"doubleSided":true,
			"name":"osn",
			"pbrMetallicRoughness":{
				"baseColorFactor":[
					0.17144113779067993,
					0.2746773660182953,
					0.1247718334197998,
					1
				],
				"metallicFactor":0,
				"roughnessFactor":0.5
			}
		},
		{
			"doubleSided":true,
			"name":"lightosn",
			"pbrMetallicRoughness":{
				"baseColorFactor":[
					0.22696588933467865,
					0.34191450476646423,
					0.14412851631641388,
					1
				],
				"metallicFactor":0,
				"roughnessFactor":0.5
			}
		},
		{
			"doubleSided":true,
			"name":"onlightosn",
			"pbrMetallicRoughness":{
				"baseColorFactor":[
					0.14995980262756348,
					0.2541521489620209,
					0.12213879823684692,
					1
				],
				"metallicFactor":0,
				"roughnessFactor":0.5
			}
		},
		{
			"doubleSided":true,
			"name":"osn-2",
			"pbrMetallicRoughness":{
				"baseColorFactor":[
					0.17151030898094177,
					0.29630887508392334,
					0.1398809403181076,
					1
				],
				"metallicFactor":0,
				"roughnessFactor":0.5
			}
		},
		{
			"doubleSided":true,
			"name":"shadosn",
			"pbrMetallicRoughness":{
				"baseColorFactor":[
					0.06301002949476242,
					0.14412851631641388,
					0.10224173218011856,
					1
				],
				"metallicFactor":0,
				"roughnessFactor":0.5
			}
		},
		{
			"doubleSided":true,
			"name":"underosn",
			"pbrMetallicRoughness":{
				"baseColorFactor":[
					0.19120171666145325,
					0.11193244159221649,
					0.09758733212947845,
					1
				],
				"metallicFactor":0,
				"roughnessFactor":0.5
			}
		},
		{
			"doubleSided":true,
			"name":"normal-tree",
			"pbrMetallicRoughness":{
				"baseColorFactor":[
					0.10702310502529144,
					0.22322800755500793,
					0.10224173218011856,
					1
				],
				"metallicFactor":0,
				"roughnessFactor":0.5
			}
		},
		{
			"doubleSided":true,
			"name":"osn-tree",
			"pbrMetallicRoughness":{
				"baseColorFactor":[
					0.23455063998699188,
					0.12743771076202393,
					0.05126946046948433,
					1
				],
				"metallicFactor":0,
				"roughnessFactor":0.5
			}
		},
		{
			"doubleSided":true,
			"name":"shad-tree",
			"pbrMetallicRoughness":{
				"baseColorFactor":[
					0.09305897355079651,
					0.2195262312889099,
					0.09758733212947845,
					1
				],
				"metallicFactor":0,
				"roughnessFactor":0.5
			}
		},
		{
			"doubleSided":true,
			"name":"rock",
			"pbrMetallicRoughness":{
				"baseColorFactor":[
					0.3813260495662689,
					0.34670406579971313,
					0.26225075125694275,
					1
				],
				"metallicFactor":0,
				"roughnessFactor":0.5
			}
		},
		{
			"doubleSided":true,
			"name":"rock-sh",
			"pbrMetallicRoughness":{
				"baseColorFactor":[
					0.2195262312889099,
					0.19120171666145325,
					0.1384316384792328,
					1
				],
				"metallicFactor":0,
				"roughnessFactor":0.5
			}
		},
		{
			"doubleSided":true,
			"name":"normal-kus",
			"pbrMetallicRoughness":{
				"baseColorFactor":[
					0.10702310502529144,
					0.18116427958011627,
					0.07818741351366043,
					1
				],
				"metallicFactor":0,
				"roughnessFactor":0.5
			}
		},
		{
			"doubleSided":true,
			"name":"shad-kus",
			"pbrMetallicRoughness":{
				"baseColorFactor":[
					0.06171619892120361,
					0.10226551443338394,
					0.04822072759270668,
					1
				],
				"metallicFactor":0,
				"roughnessFactor":0.5
			}
		},
		{
			"doubleSided":true,
			"name":"light-kus",
			"pbrMetallicRoughness":{
				"baseColorFactor":[
					0.1247718334197998,
					0.22322800755500793,
					0.09305897355079651,
					1
				],
				"metallicFactor":0,
				"roughnessFactor":0.5
			}
		}
	],
	"meshes":[
		{
			"name":"Vert.003",
			"primitives":[
				{
					"attributes":{
						"POSITION":0,
						"NORMAL":1,
						"TEXCOORD_0":2
					},
					"indices":3,
					"material":0
				},
				{
					"attributes":{
						"POSITION":4,
						"NORMAL":5,
						"TEXCOORD_0":6
					},
					"indices":7,
					"material":1
				},
				{
					"attributes":{
						"POSITION":8,
						"NORMAL":9,
						"TEXCOORD_0":10
					},
					"indices":11,
					"material":2
				},
				{
					"attributes":{
						"POSITION":12,
						"NORMAL":13,
						"TEXCOORD_0":14
					},
					"indices":15,
					"material":3
				},
				{
					"attributes":{
						"POSITION":16,
						"NORMAL":17,
						"TEXCOORD_0":18
					},
					"indices":19,
					"material":4
				},
				{
					"attributes":{
						"POSITION":20,
						"NORMAL":21,
						"TEXCOORD_0":22
					},
					"indices":23,
					"material":5
				},
				{
					"attributes":{
						"POSITION":24,
						"NORMAL":25,
						"TEXCOORD_0":26
					},
					"indices":27,
					"material":6
				},
				{
					"attributes":{
						"POSITION":28,
						"NORMAL":29,
						"TEXCOORD_0":30
					},
					"indices":31,
					"material":7
				},
				{
					"attributes":{
						"POSITION":32,
						"NORMAL":33,
						"TEXCOORD_0":34
					},
					"indices":35,
					"material":8
				},
				{
					"attributes":{
						"POSITION":36,
						"NORMAL":37,
						"TEXCOORD_0":38
					},
					"indices":39,
					"material":9
				},
				{
					"attributes":{
						"POSITION":40,
						"NORMAL":41,
						"TEXCOORD_0":42
					},
					"indices":43,
					"material":10
				},
				{
					"attributes":{
						"POSITION":44,
						"NORMAL":45,
						"TEXCOORD_0":46
					},
					"indices":47,
					"material":11
				},
				{
					"attributes":{
						"POSITION":48,
						"NORMAL":49,
						"TEXCOORD_0":50
					},
					"indices":51,
					"material":12
				},
				{
					"attributes":{
						"POSITION":52,
						"NORMAL":53,
						"TEXCOORD_0":54
					},
					"indices":55,
					"material":13
				}
			]
		}
	],
	"accessors":[
		{
			"bufferView":0,
			"componentType":5126,
			"count":228,
			"max":[
				-0.9658067226409912,
				0.15620458126068115,
				2.1218812465667725
			],
			"min":[
				-2.6010665893554688,
				0,
				-0.2169421911239624
			],
			"type":"VEC3"
		},
		{
			"bufferView":1,
			"componentType":5126,
			"count":228,
			"type":"VEC3"
		},
		{
			"bufferView":2,
			"componentType":5126,
			"count":228,
			"type":"VEC2"
		},
		{
			"bufferView":3,
			"componentType":5123,
			"count":348,
			"type":"SCALAR"
		},
		{
			"bufferView":4,
			"componentType":5126,
			"count":8,
			"max":[
				-1.6788549423217773,
				0.15620458126068115,
				1.135450005531311
			],
			"min":[
				-2.5113911628723145,
				0.15620458126068115,
				0.531458854675293
			],
			"type":"VEC3"
		},
		{
			"bufferView":5,
			"componentType":5126,
			"count":8,
			"type":"VEC3"
		},
		{
			"bufferView":6,
			"componentType":5126,
			"count":8,
			"type":"VEC2"
		},
		{
			"bufferView":7,
			"componentType":5123,
			"count":12,
			"type":"SCALAR"
		},
		{
			"bufferView":8,
			"componentType":5126,
			"count":22,
			"max":[
				-1.3456089496612549,
				0.15620458126068115,
				1.9636303186416626
			],
			"min":[
				-2.5113911628723145,
				0.15620458126068115,
				0.3019949793815613
			],
			"type":"VEC3"
		},
		{
			"bufferView":9,
			"componentType":5126,
			"count":22,
			"type":"VEC3"
		},
		{
			"bufferView":10,
			"componentType":5126,
			"count":22,
			"type":"VEC2"
		},
		{
			"bufferView":11,
			"componentType":5123,
			"count":48,
			"type":"SCALAR"
		},
		{
			"bufferView":12,
			"componentType":5126,
			"count":10,
			"max":[
				-1.493309736251831,
				0.15620458126068115,
				1.568002700805664
			],
			"min":[
				-2.474465847015381,
				0.15620458126068115,
				0.6580595970153809
			],
			"type":"VEC3"
		},
		{
			"bufferView":13,
			"componentType":5126,
			"count":10,
			"type":"VEC3"
		},
		{
			"bufferView":14,
			"componentType":5126,
			"count":10,
			"type":"VEC2"
		},
		{
			"bufferView":15,
			"componentType":5123,
			"count":18,
			"type":"SCALAR"
		},
		{
			"bufferView":16,
			"componentType":5126,
			"count":48,
			"max":[
				-0.9658067226409912,
				0.15620458126068115,
				2.1218812465667725
			],
			"min":[
				-2.6010665893554688,
				0.15620458126068115,
				-0.2169421911239624
			],
			"type":"VEC3"
		},
		{
			"bufferView":17,
			"componentType":5126,
			"count":48,
			"type":"VEC3"
		},
		{
			"bufferView":18,
			"componentType":5126,
			"count":48,
			"type":"VEC2"
		},
		{
			"bufferView":19,
			"componentType":5123,
			"count":120,
			"type":"SCALAR"
		},
		{
			"bufferView":20,
			"componentType":5126,
			"count":269,
			"max":[
				-0.9658067226409912,
				0.07810229063034058,
				2.1218812465667725
			],
			"min":[
				-2.6010665893554688,
				0,
				-0.2169421911239624
			],
			"type":"VEC3"
		},
		{
			"bufferView":21,
			"componentType":5126,
			"count":269,
			"type":"VEC3"
		},
		{
			"bufferView":22,
			"componentType":5126,
			"count":269,
			"type":"VEC2"
		},
		{
			"bufferView":23,
			"componentType":5123,
			"count":522,
			"type":"SCALAR"
		},
		{
			"bufferView":24,
			"componentType":5126,
			"count":576,
			"max":[
				-1.3209308385849,
				0.5324561595916748,
				1.8921316862106323
			],
			"min":[
				-2.470261335372925,
				0.182514488697052,
				0.4158726632595062
			],
			"type":"VEC3"
		},
		{
			"bufferView":25,
			"componentType":5126,
			"count":576,
			"type":"VEC3"
		},
		{
			"bufferView":26,
			"componentType":5126,
			"count":576,
			"type":"VEC2"
		},
		{
			"bufferView":27,
			"componentType":5123,
			"count":936,
			"type":"SCALAR"
		},
		{
			"bufferView":28,
			"componentType":5126,
			"count":123,
			"max":[
				-1.4537301063537598,
				0.21646273136138916,
				1.7804079055786133
			],
			"min":[
				-2.3390300273895264,
				0.1467301994562149,
				0.4569447934627533
			],
			"type":"VEC3"
		},
		{
			"bufferView":29,
			"componentType":5126,
			"count":123,
			"type":"VEC3"
		},
		{
			"bufferView":30,
			"componentType":5126,
			"count":123,
			"type":"VEC2"
		},
		{
			"bufferView":31,
			"componentType":5123,
			"count":216,
			"type":"SCALAR"
		},
		{
			"bufferView":32,
			"componentType":5126,
			"count":534,
			"max":[
				-1.4322677850723267,
				0.5324561595916748,
				1.8154737949371338
			],
			"min":[
				-2.470261335372925,
				0.182514488697052,
				0.3260842561721802
			],
			"type":"VEC3"
		},
		{
			"bufferView":33,
			"componentType":5126,
			"count":534,
			"type":"VEC3"
		},
		{
			"bufferView":34,
			"componentType":5126,
			"count":534,
			"type":"VEC2"
		},
		{
			"bufferView":35,
			"componentType":5123,
			"count":864,
			"type":"SCALAR"
		},
		{
			"bufferView":36,
			"componentType":5126,
			"count":39,
			"max":[
				-1.6063252687454224,
				0.22860084474086761,
				1.7187016010284424
			],
			"min":[
				-1.7865431308746338,
				0.15527336299419403,
				1.547014594078064
			],
			"type":"VEC3"
		},
		{
			"bufferView":37,
			"componentType":5126,
			"count":39,
			"type":"VEC3"
		},
		{
			"bufferView":38,
			"componentType":5126,
			"count":39,
			"type":"VEC2"
		},
		{
			"bufferView":39,
			"componentType":5123,
			"count":72,
			"type":"SCALAR"
		},
		{
			"bufferView":40,
			"componentType":5126,
			"count":104,
			"max":[
				-1.6063252687454224,
				0.2458726465702057,
				1.7187016010284424
			],
			"min":[
				-1.7865431308746338,
				0.15527336299419403,
				1.547014594078064
			],
			"type":"VEC3"
		},
		{
			"bufferView":41,
			"componentType":5126,
			"count":104,
			"type":"VEC3"
		},
		{
			"bufferView":42,
			"componentType":5126,
			"count":104,
			"type":"VEC2"
		},
		{
			"bufferView":43,
			"componentType":5123,
			"count":156,
			"type":"SCALAR"
		},
		{
			"bufferView":44,
			"componentType":5126,
			"count":192,
			"max":[
				-1.583738923072815,
				0.23280784487724304,
				1.4988430738449097
			],
			"min":[
				-2.443592071533203,
				0.159552663564682,
				0.12986987829208374
			],
			"type":"VEC3"
		},
		{
			"bufferView":45,
			"componentType":5126,
			"count":192,
			"type":"VEC3"
		},
		{
			"bufferView":46,
			"componentType":5126,
			"count":192,
			"type":"VEC2"
		},
		{
			"bufferView":47,
			"componentType":5123,
			"count":288,
			"type":"SCALAR"
		},
		{
			"bufferView":48,
			"componentType":5126,
			"count":123,
			"max":[
				-1.583738923072815,
				0.1781691312789917,
				1.4988430738449097
			],
			"min":[
				-2.443592071533203,
				0.14771835505962372,
				0.12986987829208374
			],
			"type":"VEC3"
		},
		{
			"bufferView":49,
			"componentType":5126,
			"count":123,
			"type":"VEC3"
		},
		{
			"bufferView":50,
			"componentType":5126,
			"count":123,
			"type":"VEC2"
		},
		{
			"bufferView":51,
			"componentType":5123,
			"count":216,
			"type":"SCALAR"
		},
		{
			"bufferView":52,
			"componentType":5126,
			"count":48,
			"max":[
				-1.6144356727600098,
				0.24821141362190247,
				1.478649377822876
			],
			"min":[
				-2.412895441055298,
				0.192397341132164,
				0.16113170981407166
			],
			"type":"VEC3"
		},
		{
			"bufferView":53,
			"componentType":5126,
			"count":48,
			"type":"VEC3"
		},
		{
			"bufferView":54,
			"componentType":5126,
			"count":48,
			"type":"VEC2"
		},
		{
			"bufferView":55,
			"componentType":5123,
			"count":72,
			"type":"SCALAR"
		}
	],
	"bufferViews":[
		{
			"buffer":0,
			"byteLength":2736,
			"byteOffset":0,
			"target":34962
		},
		{
			"buffer":0,
			"byteLength":2736,
			"byteOffset":2736,
			"target":34962
		},
		{
			"buffer":0,
			"byteLength":1824,
			"byteOffset":5472,
			"target":34962
		},
		{
			"buffer":0,
			"byteLength":696,
			"byteOffset":7296,
			"target":34963
		},
		{
			"buffer":0,
			"byteLength":96,
			"byteOffset":7992,
			"target":34962
		},
		{
			"buffer":0,
			"byteLength":96,
			"byteOffset":8088,
			"target":34962
		},
		{
			"buffer":0,
			"byteLength":64,
			"byteOffset":8184,
			"target":34962
		},
		{
			"buffer":0,
			"byteLength":24,
			"byteOffset":8248,
			"target":34963
		},
		{
			"buffer":0,
			"byteLength":264,
			"byteOffset":8272,
			"target":34962
		},
		{
			"buffer":0,
			"byteLength":264,
			"byteOffset":8536,
			"target":34962
		},
		{
			"buffer":0,
			"byteLength":176,
			"byteOffset":8800,
			"target":34962
		},
		{
			"buffer":0,
			"byteLength":96,
			"byteOffset":8976,
			"target":34963
		},
		{
			"buffer":0,
			"byteLength":120,
			"byteOffset":9072,
			"target":34962
		},
		{
			"buffer":0,
			"byteLength":120,
			"byteOffset":9192,
			"target":34962
		},
		{
			"buffer":0,
			"byteLength":80,
			"byteOffset":9312,
			"target":34962
		},
		{
			"buffer":0,
			"byteLength":36,
			"byteOffset":9392,
			"target":34963
		},
		{
			"buffer":0,
			"byteLength":576,
			"byteOffset":9428,
			"target":34962
		},
		{
			"buffer":0,
			"byteLength":576,
			"byteOffset":10004,
			"target":34962
		},
		{
			"buffer":0,
			"byteLength":384,
			"byteOffset":10580,
			"target":34962
		},
		{
			"buffer":0,
			"byteLength":240,
			"byteOffset":10964,
			"target":34963
		},
		{
			"buffer":0,
			"byteLength":3228,
			"byteOffset":11204,
			"target":34962
		},
		{
			"buffer":0,
			"byteLength":3228,
			"byteOffset":14432,
			"target":34962
		},
		{
			"buffer":0,
			"byteLength":2152,
			"byteOffset":17660,
			"target":34962
		},
		{
			"buffer":0,
			"byteLength":1044,
			"byteOffset":19812,
			"target":34963
		},
		{
			"buffer":0,
			"byteLength":6912,
			"byteOffset":20856,
			"target":34962
		},
		{
			"buffer":0,
			"byteLength":6912,
			"byteOffset":27768,
			"target":34962
		},
		{
			"buffer":0,
			"byteLength":4608,
			"byteOffset":34680,
			"target":34962
		},
		{
			"buffer":0,
			"byteLength":1872,
			"byteOffset":39288,
			"target":34963
		},
		{
			"buffer":0,
			"byteLength":1476,
			"byteOffset":41160,
			"target":34962
		},
		{
			"buffer":0,
			"byteLength":1476,
			"byteOffset":42636,
			"target":34962
		},
		{
			"buffer":0,
			"byteLength":984,
			"byteOffset":44112,
			"target":34962
		},
		{
			"buffer":0,
			"byteLength":432,
			"byteOffset":45096,
			"target":34963
		},
		{
			"buffer":0,
			"byteLength":6408,
			"byteOffset":45528,
			"target":34962
		},
		{
			"buffer":0,
			"byteLength":6408,
			"byteOffset":51936,
			"target":34962
		},
		{
			"buffer":0,
			"byteLength":4272,
			"byteOffset":58344,
			"target":34962
		},
		{
			"buffer":0,
			"byteLength":1728,
			"byteOffset":62616,
			"target":34963
		},
		{
			"buffer":0,
			"byteLength":468,
			"byteOffset":64344,
			"target":34962
		},
		{
			"buffer":0,
			"byteLength":468,
			"byteOffset":64812,
			"target":34962
		},
		{
			"buffer":0,
			"byteLength":312,
			"byteOffset":65280,
			"target":34962
		},
		{
			"buffer":0,
			"byteLength":144,
			"byteOffset":65592,
			"target":34963
		},
		{
			"buffer":0,
			"byteLength":1248,
			"byteOffset":65736,
			"target":34962
		},
		{
			"buffer":0,
			"byteLength":1248,
			"byteOffset":66984,
			"target":34962
		},
		{
			"buffer":0,
			"byteLength":832,
			"byteOffset":68232,
			"target":34962
		},
		{
			"buffer":0,
			"byteLength":312,
			"byteOffset":69064,
			"target":34963
		},
		{
			"buffer":0,
			"byteLength":2304,
			"byteOffset":69376,
			"target":34962
		},
		{
			"buffer":0,
			"byteLength":2304,
			"byteOffset":71680,
			"target":34962
		},
		{
			"buffer":0,
			"byteLength":1536,
			"byteOffset":73984,
			"target":34962
		},
		{
			"buffer":0,
			"byteLength":576,
			"byteOffset":75520,
			"target":34963
		},
		{
			"buffer":0,
			"byteLength":1476,
			"byteOffset":76096,
			"target":34962
		},
		{
			"buffer":0,
			"byteLength":1476,
			"byteOffset":77572,
			"target":34962
		},
		{
			"buffer":0,
			"byteLength":984,
			"byteOffset":79048,
			"target":34962
		},
		{
			"buffer":0,
			"byteLength":432,
			"byteOffset":80032,
			"target":34963
		},
		{
			"buffer":0,
			"byteLength":576,
			"byteOffset":80464,
			"target":34962
		},
		{
			"buffer":0,
			"byteLength":576,
			"byteOffset":81040,
			"target":34962
		},
		{
			"buffer":0,
			"byteLength":384,
			"byteOffset":81616,
			"target":34962
		},
		{
			"buffer":0,
			"byteLength":144,
			"byteOffset":82000,
			"target":34963
		}
	],
	"buffers":[
		{
			"byteLength":82144,
			"uri":"data:application/octet-stream;base64,"
		}
	]
}
