{
	"asset":{
		"generator":"Khronos glTF Blender I/O v3.6.28",
		"version":"2.0"
	},
	"scene":0,
	"scenes":[
		{
			"name":"Scene",
			"nodes":[
				0
			]
		}
	],
	"nodes":[
		{
			"mesh":0,
			"name":"\u044f\u043a\u0443\u0442\u0441\u043a"
		}
	],
	"materials":[
		{
			"doubleSided":true,
			"name":"osn",
			"pbrMetallicRoughness":{
				"baseColorFactor":[
					0.17144113779067993,
					0.2746773660182953,
					0.1247718334197998,
					1
				],
				"metallicFactor":0,
				"roughnessFactor":0.5
			}
		},
		{
			"doubleSided":true,
			"name":"lightosn",
			"pbrMetallicRoughness":{
				"baseColorFactor":[
					0.22696588933467865,
					0.34191450476646423,
					0.14412851631641388,
					1
				],
				"metallicFactor":0,
				"roughnessFactor":0.5
			}
		},
		{
			"doubleSided":true,
			"name":"onlightosn",
			"pbrMetallicRoughness":{
				"baseColorFactor":[
					0.14995980262756348,
					0.2541521489620209,
					0.12213879823684692,
					1
				],
				"metallicFactor":0,
				"roughnessFactor":0.5
			}
		},
		{
			"doubleSided":true,
			"name":"osn-2",
			"pbrMetallicRoughness":{
				"baseColorFactor":[
					0.17151030898094177,
					0.29630887508392334,
					0.1398809403181076,
					1
				],
				"metallicFactor":0,
				"roughnessFactor":0.5
			}
		},
		{
			"doubleSided":true,
			"name":"shadosn",
			"pbrMetallicRoughness":{
				"baseColorFactor":[
					0.06301002949476242,
					0.14412851631641388,
					0.10224173218011856,
					1
				],
				"metallicFactor":0,
				"roughnessFactor":0.5
			}
		},
		{
			"doubleSided":true,
			"name":"underosn",
			"pbrMetallicRoughness":{
				"baseColorFactor":[
					0.19120171666145325,
					0.11193244159221649,
					0.09758733212947845,
					1
				],
				"metallicFactor":0,
				"roughnessFactor":0.5
			}
		},
		{
			"doubleSided":true,
			"name":"normal-kus",
			"pbrMetallicRoughness":{
				"baseColorFactor":[
					0.10702310502529144,
					0.18116427958011627,
					0.07818741351366043,
					1
				],
				"metallicFactor":0,
				"roughnessFactor":0.5
			}
		},
		{
			"doubleSided":true,
			"name":"shad-kus",
			"pbrMetallicRoughness":{
				"baseColorFactor":[
					0.06171619892120361,
					0.10226551443338394,
					0.04822072759270668,
					1
				],
				"metallicFactor":0,
				"roughnessFactor":0.5
			}
		},
		{
			"doubleSided":true,
			"name":"light-kus",
			"pbrMetallicRoughness":{
				"baseColorFactor":[
					0.1247718334197998,
					0.22322800755500793,
					0.09305897355079651,
					1
				],
				"metallicFactor":0,
				"roughnessFactor":0.5
			}
		},
		{
			"doubleSided":true,
			"name":"normal-tree",
			"pbrMetallicRoughness":{
				"baseColorFactor":[
					0.10702310502529144,
					0.22322800755500793,
					0.10224173218011856,
					1
				],
				"metallicFactor":0,
				"roughnessFactor":0.5
			}
		},
		{
			"doubleSided":true,
			"name":"osn-tree",
			"pbrMetallicRoughness":{
				"baseColorFactor":[
					0.23455063998699188,
					0.12743771076202393,
					0.05126946046948433,
					1
				],
				"metallicFactor":0,
				"roughnessFactor":0.5
			}
		},
		{
			"doubleSided":true,
			"name":"shad-tree",
			"pbrMetallicRoughness":{
				"baseColorFactor":[
					0.09305897355079651,
					0.2195262312889099,
					0.09758733212947845,
					1
				],
				"metallicFactor":0,
				"roughnessFactor":0.5
			}
		}
	],
	"meshes":[
		{
			"name":"Vert.012",
			"primitives":[
				{
					"attributes":{
						"POSITION":0,
						"NORMAL":1,
						"TEXCOORD_0":2
					},
					"indices":3,
					"material":0
				},
				{
					"attributes":{
						"POSITION":4,
						"NORMAL":5,
						"TEXCOORD_0":6
					},
					"indices":7,
					"material":1
				},
				{
					"attributes":{
						"POSITION":8,
						"NORMAL":9,
						"TEXCOORD_0":10
					},
					"indices":11,
					"material":2
				},
				{
					"attributes":{
						"POSITION":12,
						"NORMAL":13,
						"TEXCOORD_0":14
					},
					"indices":15,
					"material":3
				},
				{
					"attributes":{
						"POSITION":16,
						"NORMAL":17,
						"TEXCOORD_0":18
					},
					"indices":19,
					"material":4
				},
				{
					"attributes":{
						"POSITION":20,
						"NORMAL":21,
						"TEXCOORD_0":22
					},
					"indices":23,
					"material":5
				},
				{
					"attributes":{
						"POSITION":24,
						"NORMAL":25,
						"TEXCOORD_0":26
					},
					"indices":27,
					"material":6
				},
				{
					"attributes":{
						"POSITION":28,
						"NORMAL":29,
						"TEXCOORD_0":30
					},
					"indices":31,
					"material":7
				},
				{
					"attributes":{
						"POSITION":32,
						"NORMAL":33,
						"TEXCOORD_0":34
					},
					"indices":35,
					"material":8
				},
				{
					"attributes":{
						"POSITION":36,
						"NORMAL":37,
						"TEXCOORD_0":38
					},
					"indices":39,
					"material":9
				},
				{
					"attributes":{
						"POSITION":40,
						"NORMAL":41,
						"TEXCOORD_0":42
					},
					"indices":43,
					"material":10
				},
				{
					"attributes":{
						"POSITION":44,
						"NORMAL":45,
						"TEXCOORD_0":46
					},
					"indices":47,
					"material":11
				}
			]
		}
	],
	"accessors":[
		{
			"bufferView":0,
			"componentType":5126,
			"count":96,
			"max":[
				0.12481892108917236,
				0.15620458126068115,
				2.2812395095825195
			],
			"min":[
				-0.4314679801464081,
				0.07810229063034058,
				1.9467933177947998
			],
			"type":"VEC3"
		},
		{
			"bufferView":1,
			"componentType":5126,
			"count":96,
			"type":"VEC3"
		},
		{
			"bufferView":2,
			"componentType":5126,
			"count":96,
			"type":"VEC2"
		},
		{
			"bufferView":3,
			"componentType":5123,
			"count":156,
			"type":"SCALAR"
		},
		{
			"bufferView":4,
			"componentType":5126,
			"count":4,
			"max":[
				-0.05294492840766907,
				0.15620458126068115,
				2.134766101837158
			],
			"min":[
				-0.21981550753116608,
				0.15620458126068115,
				1.9835777282714844
			],
			"type":"VEC3"
		},
		{
			"bufferView":5,
			"componentType":5126,
			"count":4,
			"type":"VEC3"
		},
		{
			"bufferView":6,
			"componentType":5126,
			"count":4,
			"type":"VEC2"
		},
		{
			"bufferView":7,
			"componentType":5123,
			"count":6,
			"type":"SCALAR"
		},
		{
			"bufferView":8,
			"componentType":5126,
			"count":6,
			"max":[
				0.12481892108917236,
				0.15620458126068115,
				2.180565357208252
			],
			"min":[
				-0.0363326296210289,
				0.15620458126068115,
				1.9645922183990479
			],
			"type":"VEC3"
		},
		{
			"bufferView":9,
			"componentType":5126,
			"count":6,
			"type":"VEC3"
		},
		{
			"bufferView":10,
			"componentType":5126,
			"count":6,
			"type":"VEC2"
		},
		{
			"bufferView":11,
			"componentType":5123,
			"count":12,
			"type":"SCALAR"
		},
		{
			"bufferView":12,
			"componentType":5126,
			"count":4,
			"max":[
				-0.17516396939754486,
				0.15620458126068115,
				2.134766101837158
			],
			"min":[
				-0.3294210135936737,
				0.15620458126068115,
				1.9835777282714844
			],
			"type":"VEC3"
		},
		{
			"bufferView":13,
			"componentType":5126,
			"count":4,
			"type":"VEC3"
		},
		{
			"bufferView":14,
			"componentType":5126,
			"count":4,
			"type":"VEC2"
		},
		{
			"bufferView":15,
			"componentType":5123,
			"count":6,
			"type":"SCALAR"
		},
		{
			"bufferView":16,
			"componentType":5126,
			"count":21,
			"max":[
				0.12481892108917236,
				0.15620458126068115,
				2.2812395095825195
			],
			"min":[
				-0.4314679801464081,
				0.15620458126068115,
				1.9467933177947998
			],
			"type":"VEC3"
		},
		{
			"bufferView":17,
			"componentType":5126,
			"count":21,
			"type":"VEC3"
		},
		{
			"bufferView":18,
			"componentType":5126,
			"count":21,
			"type":"VEC2"
		},
		{
			"bufferView":19,
			"componentType":5123,
			"count":42,
			"type":"SCALAR"
		},
		{
			"bufferView":20,
			"componentType":5126,
			"count":116,
			"max":[
				0.12481892108917236,
				0.07810229063034058,
				2.2812395095825195
			],
			"min":[
				-0.4314679801464081,
				0,
				1.9467933177947998
			],
			"type":"VEC3"
		},
		{
			"bufferView":21,
			"componentType":5126,
			"count":116,
			"type":"VEC3"
		},
		{
			"bufferView":22,
			"componentType":5126,
			"count":116,
			"type":"VEC2"
		},
		{
			"bufferView":23,
			"componentType":5123,
			"count":222,
			"type":"SCALAR"
		},
		{
			"bufferView":24,
			"componentType":5126,
			"count":64,
			"max":[
				-0.06795698404312134,
				0.20633350312709808,
				2.234586715698242
			],
			"min":[
				-0.16999921202659607,
				0.16388368606567383,
				2.1407275199890137
			],
			"type":"VEC3"
		},
		{
			"bufferView":25,
			"componentType":5126,
			"count":64,
			"type":"VEC3"
		},
		{
			"bufferView":26,
			"componentType":5126,
			"count":64,
			"type":"VEC2"
		},
		{
			"bufferView":27,
			"componentType":5123,
			"count":96,
			"type":"SCALAR"
		},
		{
			"bufferView":28,
			"componentType":5126,
			"count":41,
			"max":[
				-0.06795698404312134,
				0.17154483497142792,
				2.234586715698242
			],
			"min":[
				-0.16999921202659607,
				0.15222473442554474,
				2.1407275199890137
			],
			"type":"VEC3"
		},
		{
			"bufferView":29,
			"componentType":5126,
			"count":41,
			"type":"VEC3"
		},
		{
			"bufferView":30,
			"componentType":5126,
			"count":41,
			"type":"VEC2"
		},
		{
			"bufferView":31,
			"componentType":5123,
			"count":72,
			"type":"SCALAR"
		},
		{
			"bufferView":32,
			"componentType":5126,
			"count":16,
			"max":[
				-0.08330599963665009,
				0.216141015291214,
				2.217695951461792
			],
			"min":[
				-0.15465019643306732,
				0.19624170660972595,
				2.157618284225464
			],
			"type":"VEC3"
		},
		{
			"bufferView":33,
			"componentType":5126,
			"count":16,
			"type":"VEC3"
		},
		{
			"bufferView":34,
			"componentType":5126,
			"count":16,
			"type":"VEC2"
		},
		{
			"bufferView":35,
			"componentType":5123,
			"count":24,
			"type":"SCALAR"
		},
		{
			"bufferView":36,
			"componentType":5126,
			"count":384,
			"max":[
				0.08842401206493378,
				0.3313169479370117,
				2.241767406463623
			],
			"min":[
				-0.2948026657104492,
				0.1631866842508316,
				1.9739917516708374
			],
			"type":"VEC3"
		},
		{
			"bufferView":37,
			"componentType":5126,
			"count":384,
			"type":"VEC3"
		},
		{
			"bufferView":38,
			"componentType":5126,
			"count":384,
			"type":"VEC2"
		},
		{
			"bufferView":39,
			"componentType":5123,
			"count":624,
			"type":"SCALAR"
		},
		{
			"bufferView":40,
			"componentType":5126,
			"count":82,
			"max":[
				0.026422221213579178,
				0.18378481268882751,
				2.176408290863037
			],
			"min":[
				-0.29230907559394836,
				0.15140438079833984,
				2.0107312202453613
			],
			"type":"VEC3"
		},
		{
			"bufferView":41,
			"componentType":5126,
			"count":82,
			"type":"VEC3"
		},
		{
			"bufferView":42,
			"componentType":5126,
			"count":82,
			"type":"VEC2"
		},
		{
			"bufferView":43,
			"componentType":5123,
			"count":144,
			"type":"SCALAR"
		},
		{
			"bufferView":44,
			"componentType":5126,
			"count":356,
			"max":[
				0.02606726996600628,
				0.3313169479370117,
				2.241767406463623
			],
			"min":[
				-0.32716143131256104,
				0.1631866842508316,
				1.9739917516708374
			],
			"type":"VEC3"
		},
		{
			"bufferView":45,
			"componentType":5126,
			"count":356,
			"type":"VEC3"
		},
		{
			"bufferView":46,
			"componentType":5126,
			"count":356,
			"type":"VEC2"
		},
		{
			"bufferView":47,
			"componentType":5123,
			"count":576,
			"type":"SCALAR"
		}
	],
	"bufferViews":[
		{
			"buffer":0,
			"byteLength":1152,
			"byteOffset":0,
			"target":34962
		},
		{
			"buffer":0,
			"byteLength":1152,
			"byteOffset":1152,
			"target":34962
		},
		{
			"buffer":0,
			"byteLength":768,
			"byteOffset":2304,
			"target":34962
		},
		{
			"buffer":0,
			"byteLength":312,
			"byteOffset":3072,
			"target":34963
		},
		{
			"buffer":0,
			"byteLength":48,
			"byteOffset":3384,
			"target":34962
		},
		{
			"buffer":0,
			"byteLength":48,
			"byteOffset":3432,
			"target":34962
		},
		{
			"buffer":0,
			"byteLength":32,
			"byteOffset":3480,
			"target":34962
		},
		{
			"buffer":0,
			"byteLength":12,
			"byteOffset":3512,
			"target":34963
		},
		{
			"buffer":0,
			"byteLength":72,
			"byteOffset":3524,
			"target":34962
		},
		{
			"buffer":0,
			"byteLength":72,
			"byteOffset":3596,
			"target":34962
		},
		{
			"buffer":0,
			"byteLength":48,
			"byteOffset":3668,
			"target":34962
		},
		{
			"buffer":0,
			"byteLength":24,
			"byteOffset":3716,
			"target":34963
		},
		{
			"buffer":0,
			"byteLength":48,
			"byteOffset":3740,
			"target":34962
		},
		{
			"buffer":0,
			"byteLength":48,
			"byteOffset":3788,
			"target":34962
		},
		{
			"buffer":0,
			"byteLength":32,
			"byteOffset":3836,
			"target":34962
		},
		{
			"buffer":0,
			"byteLength":12,
			"byteOffset":3868,
			"target":34963
		},
		{
			"buffer":0,
			"byteLength":252,
			"byteOffset":3880,
			"target":34962
		},
		{
			"buffer":0,
			"byteLength":252,
			"byteOffset":4132,
			"target":34962
		},
		{
			"buffer":0,
			"byteLength":168,
			"byteOffset":4384,
			"target":34962
		},
		{
			"buffer":0,
			"byteLength":84,
			"byteOffset":4552,
			"target":34963
		},
		{
			"buffer":0,
			"byteLength":1392,
			"byteOffset":4636,
			"target":34962
		},
		{
			"buffer":0,
			"byteLength":1392,
			"byteOffset":6028,
			"target":34962
		},
		{
			"buffer":0,
			"byteLength":928,
			"byteOffset":7420,
			"target":34962
		},
		{
			"buffer":0,
			"byteLength":444,
			"byteOffset":8348,
			"target":34963
		},
		{
			"buffer":0,
			"byteLength":768,
			"byteOffset":8792,
			"target":34962
		},
		{
			"buffer":0,
			"byteLength":768,
			"byteOffset":9560,
			"target":34962
		},
		{
			"buffer":0,
			"byteLength":512,
			"byteOffset":10328,
			"target":34962
		},
		{
			"buffer":0,
			"byteLength":192,
			"byteOffset":10840,
			"target":34963
		},
		{
			"buffer":0,
			"byteLength":492,
			"byteOffset":11032,
			"target":34962
		},
		{
			"buffer":0,
			"byteLength":492,
			"byteOffset":11524,
			"target":34962
		},
		{
			"buffer":0,
			"byteLength":328,
			"byteOffset":12016,
			"target":34962
		},
		{
			"buffer":0,
			"byteLength":144,
			"byteOffset":12344,
			"target":34963
		},
		{
			"buffer":0,
			"byteLength":192,
			"byteOffset":12488,
			"target":34962
		},
		{
			"buffer":0,
			"byteLength":192,
			"byteOffset":12680,
			"target":34962
		},
		{
			"buffer":0,
			"byteLength":128,
			"byteOffset":12872,
			"target":34962
		},
		{
			"buffer":0,
			"byteLength":48,
			"byteOffset":13000,
			"target":34963
		},
		{
			"buffer":0,
			"byteLength":4608,
			"byteOffset":13048,
			"target":34962
		},
		{
			"buffer":0,
			"byteLength":4608,
			"byteOffset":17656,
			"target":34962
		},
		{
			"buffer":0,
			"byteLength":3072,
			"byteOffset":22264,
			"target":34962
		},
		{
			"buffer":0,
			"byteLength":1248,
			"byteOffset":25336,
			"target":34963
		},
		{
			"buffer":0,
			"byteLength":984,
			"byteOffset":26584,
			"target":34962
		},
		{
			"buffer":0,
			"byteLength":984,
			"byteOffset":27568,
			"target":34962
		},
		{
			"buffer":0,
			"byteLength":656,
			"byteOffset":28552,
			"target":34962
		},
		{
			"buffer":0,
			"byteLength":288,
			"byteOffset":29208,
			"target":34963
		},
		{
			"buffer":0,
			"byteLength":4272,
			"byteOffset":29496,
			"target":34962
		},
		{
			"buffer":0,
			"byteLength":4272,
			"byteOffset":33768,
			"target":34962
		},
		{
			"buffer":0,
			"byteLength":2848,
			"byteOffset":38040,
			"target":34962
		},
		{
			"buffer":0,
			"byteLength":1152,
			"byteOffset":40888,
			"target":34963
		}
	],
	"buffers":[
		{
			"byteLength":42040,
			"uri":"data:application/octet-stream;base64,"
		}
	]
}
