{
	"asset":{
		"generator":"Khronos glTF Blender I/O v3.6.28",
		"version":"2.0"
	},
	"scene":0,
	"scenes":[
		{
			"name":"Scene",
			"nodes":[
				0
			]
		}
	],
	"nodes":[
		{
			"mesh":0,
			"name":"\u0436\u0438\u0433\u0430\u043d\u0441\u043a"
		}
	],
	"materials":[
		{
			"doubleSided":true,
			"name":"osn",
			"pbrMetallicRoughness":{
				"baseColorFactor":[
					0.17144113779067993,
					0.2746773660182953,
					0.1247718334197998,
					1
				],
				"metallicFactor":0,
				"roughnessFactor":0.5
			}
		},
		{
			"doubleSided":true,
			"name":"lightosn",
			"pbrMetallicRoughness":{
				"baseColorFactor":[
					0.22696588933467865,
					0.34191450476646423,
					0.14412851631641388,
					1
				],
				"metallicFactor":0,
				"roughnessFactor":0.5
			}
		},
		{
			"doubleSided":true,
			"name":"osn-2",
			"pbrMetallicRoughness":{
				"baseColorFactor":[
					0.17151030898094177,
					0.29630887508392334,
					0.1398809403181076,
					1
				],
				"metallicFactor":0,
				"roughnessFactor":0.5
			}
		},
		{
			"doubleSided":true,
			"name":"shadosn",
			"pbrMetallicRoughness":{
				"baseColorFactor":[
					0.06301002949476242,
					0.14412851631641388,
					0.10224173218011856,
					1
				],
				"metallicFactor":0,
				"roughnessFactor":0.5
			}
		},
		{
			"doubleSided":true,
			"name":"underosn",
			"pbrMetallicRoughness":{
				"baseColorFactor":[
					0.19120171666145325,
					0.11193244159221649,
					0.09758733212947845,
					1
				],
				"metallicFactor":0,
				"roughnessFactor":0.5
			}
		},
		{
			"doubleSided":true,
			"name":"onlightosn",
			"pbrMetallicRoughness":{
				"baseColorFactor":[
					0.14995980262756348,
					0.2541521489620209,
					0.12213879823684692,
					1
				],
				"metallicFactor":0,
				"roughnessFactor":0.5
			}
		},
		{
			"doubleSided":true,
			"name":"normal-tree",
			"pbrMetallicRoughness":{
				"baseColorFactor":[
					0.10702310502529144,
					0.22322800755500793,
					0.10224173218011856,
					1
				],
				"metallicFactor":0,
				"roughnessFactor":0.5
			}
		},
		{
			"doubleSided":true,
			"name":"osn-tree",
			"pbrMetallicRoughness":{
				"baseColorFactor":[
					0.23455063998699188,
					0.12743771076202393,
					0.05126946046948433,
					1
				],
				"metallicFactor":0,
				"roughnessFactor":0.5
			}
		},
		{
			"doubleSided":true,
			"name":"shad-tree",
			"pbrMetallicRoughness":{
				"baseColorFactor":[
					0.09305897355079651,
					0.2195262312889099,
					0.09758733212947845,
					1
				],
				"metallicFactor":0,
				"roughnessFactor":0.5
			}
		},
		{
			"doubleSided":true,
			"name":"rock",
			"pbrMetallicRoughness":{
				"baseColorFactor":[
					0.3813260495662689,
					0.34670406579971313,
					0.26225075125694275,
					1
				],
				"metallicFactor":0,
				"roughnessFactor":0.5
			}
		},
		{
			"doubleSided":true,
			"name":"rock-sh",
			"pbrMetallicRoughness":{
				"baseColorFactor":[
					0.2195262312889099,
					0.19120171666145325,
					0.1384316384792328,
					1
				],
				"metallicFactor":0,
				"roughnessFactor":0.5
			}
		},
		{
			"doubleSided":true,
			"name":"normal-kus",
			"pbrMetallicRoughness":{
				"baseColorFactor":[
					0.10702310502529144,
					0.18116427958011627,
					0.07818741351366043,
					1
				],
				"metallicFactor":0,
				"roughnessFactor":0.5
			}
		},
		{
			"doubleSided":true,
			"name":"shad-kus",
			"pbrMetallicRoughness":{
				"baseColorFactor":[
					0.06171619892120361,
					0.10226551443338394,
					0.04822072759270668,
					1
				],
				"metallicFactor":0,
				"roughnessFactor":0.5
			}
		},
		{
			"doubleSided":true,
			"name":"light-kus",
			"pbrMetallicRoughness":{
				"baseColorFactor":[
					0.1247718334197998,
					0.22322800755500793,
					0.09305897355079651,
					1
				],
				"metallicFactor":0,
				"roughnessFactor":0.5
			}
		}
	],
	"meshes":[
		{
			"name":"Vert.001",
			"primitives":[
				{
					"attributes":{
						"POSITION":0,
						"NORMAL":1,
						"TEXCOORD_0":2
					},
					"indices":3,
					"material":0
				},
				{
					"attributes":{
						"POSITION":4,
						"NORMAL":5,
						"TEXCOORD_0":6
					},
					"indices":7,
					"material":1
				},
				{
					"attributes":{
						"POSITION":8,
						"NORMAL":9,
						"TEXCOORD_0":10
					},
					"indices":11,
					"material":2
				},
				{
					"attributes":{
						"POSITION":12,
						"NORMAL":13,
						"TEXCOORD_0":14
					},
					"indices":15,
					"material":3
				},
				{
					"attributes":{
						"POSITION":16,
						"NORMAL":17,
						"TEXCOORD_0":18
					},
					"indices":19,
					"material":4
				},
				{
					"attributes":{
						"POSITION":20,
						"NORMAL":21,
						"TEXCOORD_0":22
					},
					"indices":23,
					"material":5
				},
				{
					"attributes":{
						"POSITION":24,
						"NORMAL":25,
						"TEXCOORD_0":26
					},
					"indices":27,
					"material":6
				},
				{
					"attributes":{
						"POSITION":28,
						"NORMAL":29,
						"TEXCOORD_0":30
					},
					"indices":31,
					"material":7
				},
				{
					"attributes":{
						"POSITION":32,
						"NORMAL":33,
						"TEXCOORD_0":34
					},
					"indices":35,
					"material":8
				},
				{
					"attributes":{
						"POSITION":36,
						"NORMAL":37,
						"TEXCOORD_0":38
					},
					"indices":39,
					"material":9
				},
				{
					"attributes":{
						"POSITION":40,
						"NORMAL":41,
						"TEXCOORD_0":42
					},
					"indices":43,
					"material":10
				},
				{
					"attributes":{
						"POSITION":44,
						"NORMAL":45,
						"TEXCOORD_0":46
					},
					"indices":47,
					"material":11
				},
				{
					"attributes":{
						"POSITION":48,
						"NORMAL":49,
						"TEXCOORD_0":50
					},
					"indices":51,
					"material":12
				},
				{
					"attributes":{
						"POSITION":52,
						"NORMAL":53,
						"TEXCOORD_0":54
					},
					"indices":55,
					"material":13
				}
			]
		}
	],
	"accessors":[
		{
			"bufferView":0,
			"componentType":5126,
			"count":246,
			"max":[
				-0.7582855224609375,
				0.15620458126068115,
				0.8714790344238281
			],
			"min":[
				-2.8780057430267334,
				0.07810229063034058,
				-1.5321037769317627
			],
			"type":"VEC3"
		},
		{
			"bufferView":1,
			"componentType":5126,
			"count":246,
			"type":"VEC3"
		},
		{
			"bufferView":2,
			"componentType":5126,
			"count":246,
			"type":"VEC2"
		},
		{
			"bufferView":3,
			"componentType":5123,
			"count":372,
			"type":"SCALAR"
		},
		{
			"bufferView":4,
			"componentType":5126,
			"count":24,
			"max":[
				-0.8734943866729736,
				0.15620458126068115,
				0.6154202222824097
			],
			"min":[
				-2.5937769412994385,
				0.15620458126068115,
				-0.8700874447822571
			],
			"type":"VEC3"
		},
		{
			"bufferView":5,
			"componentType":5126,
			"count":24,
			"type":"VEC3"
		},
		{
			"bufferView":6,
			"componentType":5126,
			"count":24,
			"type":"VEC2"
		},
		{
			"bufferView":7,
			"componentType":5123,
			"count":54,
			"type":"SCALAR"
		},
		{
			"bufferView":8,
			"componentType":5126,
			"count":14,
			"max":[
				-1.1004481315612793,
				0.15620458126068115,
				0.6919813752174377
			],
			"min":[
				-2.2757728099823,
				0.15620458126068115,
				-1.2525324821472168
			],
			"type":"VEC3"
		},
		{
			"bufferView":9,
			"componentType":5126,
			"count":14,
			"type":"VEC3"
		},
		{
			"bufferView":10,
			"componentType":5126,
			"count":14,
			"type":"VEC2"
		},
		{
			"bufferView":11,
			"componentType":5123,
			"count":24,
			"type":"SCALAR"
		},
		{
			"bufferView":12,
			"componentType":5126,
			"count":66,
			"max":[
				-0.7582855224609375,
				0.15620458126068115,
				0.8714790344238281
			],
			"min":[
				-2.8780057430267334,
				0.15620458126068115,
				-1.5321037769317627
			],
			"type":"VEC3"
		},
		{
			"bufferView":13,
			"componentType":5126,
			"count":66,
			"type":"VEC3"
		},
		{
			"bufferView":14,
			"componentType":5126,
			"count":66,
			"type":"VEC2"
		},
		{
			"bufferView":15,
			"componentType":5123,
			"count":168,
			"type":"SCALAR"
		},
		{
			"bufferView":16,
			"componentType":5126,
			"count":319,
			"max":[
				-0.7582855224609375,
				0.07810229063034058,
				0.8714790344238281
			],
			"min":[
				-2.8780057430267334,
				0,
				-1.5321037769317627
			],
			"type":"VEC3"
		},
		{
			"bufferView":17,
			"componentType":5126,
			"count":319,
			"type":"VEC3"
		},
		{
			"bufferView":18,
			"componentType":5126,
			"count":319,
			"type":"VEC2"
		},
		{
			"bufferView":19,
			"componentType":5123,
			"count":660,
			"type":"SCALAR"
		},
		{
			"bufferView":20,
			"componentType":5126,
			"count":22,
			"max":[
				-0.8181065320968628,
				0.15620458126068115,
				0.4696441888809204
			],
			"min":[
				-2.4823784828186035,
				0.15620458126068115,
				-1.2578022480010986
			],
			"type":"VEC3"
		},
		{
			"bufferView":21,
			"componentType":5126,
			"count":22,
			"type":"VEC3"
		},
		{
			"bufferView":22,
			"componentType":5126,
			"count":22,
			"type":"VEC2"
		},
		{
			"bufferView":23,
			"componentType":5123,
			"count":42,
			"type":"SCALAR"
		},
		{
			"bufferView":24,
			"componentType":5126,
			"count":1152,
			"max":[
				-1.1194403171539307,
				0.5324561595916748,
				0.7897518873214722
			],
			"min":[
				-2.6213223934173584,
				0.17351196706295013,
				-1.3612936735153198
			],
			"type":"VEC3"
		},
		{
			"bufferView":25,
			"componentType":5126,
			"count":1152,
			"type":"VEC3"
		},
		{
			"bufferView":26,
			"componentType":5126,
			"count":1152,
			"type":"VEC2"
		},
		{
			"bufferView":27,
			"componentType":5123,
			"count":1872,
			"type":"SCALAR"
		},
		{
			"bufferView":28,
			"componentType":5126,
			"count":246,
			"max":[
				-1.1844433546066284,
				0.21646273136138916,
				0.6497617959976196
			],
			"min":[
				-2.4997730255126953,
				0.1456831991672516,
				-1.3015269041061401
			],
			"type":"VEC3"
		},
		{
			"bufferView":29,
			"componentType":5126,
			"count":246,
			"type":"VEC3"
		},
		{
			"bufferView":30,
			"componentType":5126,
			"count":246,
			"type":"VEC2"
		},
		{
			"bufferView":31,
			"componentType":5123,
			"count":432,
			"type":"SCALAR"
		},
		{
			"bufferView":32,
			"componentType":5126,
			"count":1068,
			"max":[
				-1.0898929834365845,
				0.5324561595916748,
				0.7897518873214722
			],
			"min":[
				-2.636289358139038,
				0.17351196706295013,
				-1.4388643503189087
			],
			"type":"VEC3"
		},
		{
			"bufferView":33,
			"componentType":5126,
			"count":1068,
			"type":"VEC3"
		},
		{
			"bufferView":34,
			"componentType":5126,
			"count":1068,
			"type":"VEC2"
		},
		{
			"bufferView":35,
			"componentType":5123,
			"count":1728,
			"type":"SCALAR"
		},
		{
			"bufferView":36,
			"componentType":5126,
			"count":39,
			"max":[
				-1.412203073501587,
				0.25727108120918274,
				-0.9606680870056152
			],
			"min":[
				-1.6545692682266235,
				0.15202704071998596,
				-1.1948635578155518
			],
			"type":"VEC3"
		},
		{
			"bufferView":37,
			"componentType":5126,
			"count":39,
			"type":"VEC3"
		},
		{
			"bufferView":38,
			"componentType":5126,
			"count":39,
			"type":"VEC2"
		},
		{
			"bufferView":39,
			"componentType":5123,
			"count":72,
			"type":"SCALAR"
		},
		{
			"bufferView":40,
			"componentType":5126,
			"count":104,
			"max":[
				-1.412203073501587,
				0.2820605933666229,
				-0.9606680870056152
			],
			"min":[
				-1.6545692682266235,
				0.15202704071998596,
				-1.1968302726745605
			],
			"type":"VEC3"
		},
		{
			"bufferView":41,
			"componentType":5126,
			"count":104,
			"type":"VEC3"
		},
		{
			"bufferView":42,
			"componentType":5126,
			"count":104,
			"type":"VEC2"
		},
		{
			"bufferView":43,
			"componentType":5123,
			"count":156,
			"type":"SCALAR"
		},
		{
			"bufferView":44,
			"componentType":5126,
			"count":256,
			"max":[
				-0.8702347874641418,
				0.23280784487724304,
				0.6091142892837524
			],
			"min":[
				-2.4887373447418213,
				0.16613662242889404,
				-1.315783977508545
			],
			"type":"VEC3"
		},
		{
			"bufferView":45,
			"componentType":5126,
			"count":256,
			"type":"VEC3"
		},
		{
			"bufferView":46,
			"componentType":5126,
			"count":256,
			"type":"VEC2"
		},
		{
			"bufferView":47,
			"componentType":5123,
			"count":384,
			"type":"SCALAR"
		},
		{
			"bufferView":48,
			"componentType":5126,
			"count":164,
			"max":[
				-0.8702347874641418,
				0.1781691312789917,
				0.6091142892837524
			],
			"min":[
				-2.4887373447418213,
				0.1478251814842224,
				-1.315783977508545
			],
			"type":"VEC3"
		},
		{
			"bufferView":49,
			"componentType":5126,
			"count":164,
			"type":"VEC3"
		},
		{
			"bufferView":50,
			"componentType":5126,
			"count":164,
			"type":"VEC2"
		},
		{
			"bufferView":51,
			"componentType":5123,
			"count":288,
			"type":"SCALAR"
		},
		{
			"bufferView":52,
			"componentType":5126,
			"count":64,
			"max":[
				-0.9013199806213379,
				0.24821141362190247,
				0.5778992176055908
			],
			"min":[
				-2.464630365371704,
				0.21695777773857117,
				-1.2845690250396729
			],
			"type":"VEC3"
		},
		{
			"bufferView":53,
			"componentType":5126,
			"count":64,
			"type":"VEC3"
		},
		{
			"bufferView":54,
			"componentType":5126,
			"count":64,
			"type":"VEC2"
		},
		{
			"bufferView":55,
			"componentType":5123,
			"count":96,
			"type":"SCALAR"
		}
	],
	"bufferViews":[
		{
			"buffer":0,
			"byteLength":2952,
			"byteOffset":0,
			"target":34962
		},
		{
			"buffer":0,
			"byteLength":2952,
			"byteOffset":2952,
			"target":34962
		},
		{
			"buffer":0,
			"byteLength":1968,
			"byteOffset":5904,
			"target":34962
		},
		{
			"buffer":0,
			"byteLength":744,
			"byteOffset":7872,
			"target":34963
		},
		{
			"buffer":0,
			"byteLength":288,
			"byteOffset":8616,
			"target":34962
		},
		{
			"buffer":0,
			"byteLength":288,
			"byteOffset":8904,
			"target":34962
		},
		{
			"buffer":0,
			"byteLength":192,
			"byteOffset":9192,
			"target":34962
		},
		{
			"buffer":0,
			"byteLength":108,
			"byteOffset":9384,
			"target":34963
		},
		{
			"buffer":0,
			"byteLength":168,
			"byteOffset":9492,
			"target":34962
		},
		{
			"buffer":0,
			"byteLength":168,
			"byteOffset":9660,
			"target":34962
		},
		{
			"buffer":0,
			"byteLength":112,
			"byteOffset":9828,
			"target":34962
		},
		{
			"buffer":0,
			"byteLength":48,
			"byteOffset":9940,
			"target":34963
		},
		{
			"buffer":0,
			"byteLength":792,
			"byteOffset":9988,
			"target":34962
		},
		{
			"buffer":0,
			"byteLength":792,
			"byteOffset":10780,
			"target":34962
		},
		{
			"buffer":0,
			"byteLength":528,
			"byteOffset":11572,
			"target":34962
		},
		{
			"buffer":0,
			"byteLength":336,
			"byteOffset":12100,
			"target":34963
		},
		{
			"buffer":0,
			"byteLength":3828,
			"byteOffset":12436,
			"target":34962
		},
		{
			"buffer":0,
			"byteLength":3828,
			"byteOffset":16264,
			"target":34962
		},
		{
			"buffer":0,
			"byteLength":2552,
			"byteOffset":20092,
			"target":34962
		},
		{
			"buffer":0,
			"byteLength":1320,
			"byteOffset":22644,
			"target":34963
		},
		{
			"buffer":0,
			"byteLength":264,
			"byteOffset":23964,
			"target":34962
		},
		{
			"buffer":0,
			"byteLength":264,
			"byteOffset":24228,
			"target":34962
		},
		{
			"buffer":0,
			"byteLength":176,
			"byteOffset":24492,
			"target":34962
		},
		{
			"buffer":0,
			"byteLength":84,
			"byteOffset":24668,
			"target":34963
		},
		{
			"buffer":0,
			"byteLength":13824,
			"byteOffset":24752,
			"target":34962
		},
		{
			"buffer":0,
			"byteLength":13824,
			"byteOffset":38576,
			"target":34962
		},
		{
			"buffer":0,
			"byteLength":9216,
			"byteOffset":52400,
			"target":34962
		},
		{
			"buffer":0,
			"byteLength":3744,
			"byteOffset":61616,
			"target":34963
		},
		{
			"buffer":0,
			"byteLength":2952,
			"byteOffset":65360,
			"target":34962
		},
		{
			"buffer":0,
			"byteLength":2952,
			"byteOffset":68312,
			"target":34962
		},
		{
			"buffer":0,
			"byteLength":1968,
			"byteOffset":71264,
			"target":34962
		},
		{
			"buffer":0,
			"byteLength":864,
			"byteOffset":73232,
			"target":34963
		},
		{
			"buffer":0,
			"byteLength":12816,
			"byteOffset":74096,
			"target":34962
		},
		{
			"buffer":0,
			"byteLength":12816,
			"byteOffset":86912,
			"target":34962
		},
		{
			"buffer":0,
			"byteLength":8544,
			"byteOffset":99728,
			"target":34962
		},
		{
			"buffer":0,
			"byteLength":3456,
			"byteOffset":108272,
			"target":34963
		},
		{
			"buffer":0,
			"byteLength":468,
			"byteOffset":111728,
			"target":34962
		},
		{
			"buffer":0,
			"byteLength":468,
			"byteOffset":112196,
			"target":34962
		},
		{
			"buffer":0,
			"byteLength":312,
			"byteOffset":112664,
			"target":34962
		},
		{
			"buffer":0,
			"byteLength":144,
			"byteOffset":112976,
			"target":34963
		},
		{
			"buffer":0,
			"byteLength":1248,
			"byteOffset":113120,
			"target":34962
		},
		{
			"buffer":0,
			"byteLength":1248,
			"byteOffset":114368,
			"target":34962
		},
		{
			"buffer":0,
			"byteLength":832,
			"byteOffset":115616,
			"target":34962
		},
		{
			"buffer":0,
			"byteLength":312,
			"byteOffset":116448,
			"target":34963
		},
		{
			"buffer":0,
			"byteLength":3072,
			"byteOffset":116760,
			"target":34962
		},
		{
			"buffer":0,
			"byteLength":3072,
			"byteOffset":119832,
			"target":34962
		},
		{
			"buffer":0,
			"byteLength":2048,
			"byteOffset":122904,
			"target":34962
		},
		{
			"buffer":0,
			"byteLength":768,
			"byteOffset":124952,
			"target":34963
		},
		{
			"buffer":0,
			"byteLength":1968,
			"byteOffset":125720,
			"target":34962
		},
		{
			"buffer":0,
			"byteLength":1968,
			"byteOffset":127688,
			"target":34962
		},
		{
			"buffer":0,
			"byteLength":1312,
			"byteOffset":129656,
			"target":34962
		},
		{
			"buffer":0,
			"byteLength":576,
			"byteOffset":130968,
			"target":34963
		},
		{
			"buffer":0,
			"byteLength":768,
			"byteOffset":131544,
			"target":34962
		},
		{
			"buffer":0,
			"byteLength":768,
			"byteOffset":132312,
			"target":34962
		},
		{
			"buffer":0,
			"byteLength":512,
			"byteOffset":133080,
			"target":34962
		},
		{
			"buffer":0,
			"byteLength":192,
			"byteOffset":133592,
			"target":34963
		}
	],
	"buffers":[
		{
			"byteLength":133784,
			"uri":"data:application/octet-stream;base64,"
		}
	]
}
