{
	"asset":{
		"generator":"Khronos glTF Blender I/O v3.6.28",
		"version":"2.0"
	},
	"scene":0,
	"scenes":[
		{
			"name":"Scene",
			"nodes":[
				0
			]
		}
	],
	"nodes":[
		{
			"mesh":0,
			"name":"\u0437\u044b\u0440\u044f\u043d\u043a\u0430"
		}
	],
	"materials":[
		{
			"doubleSided":true,
			"name":"osn",
			"pbrMetallicRoughness":{
				"baseColorFactor":[
					0.17144113779067993,
					0.2746773660182953,
					0.1247718334197998,
					1
				],
				"metallicFactor":0,
				"roughnessFactor":0.5
			}
		},
		{
			"doubleSided":true,
			"name":"lightosn",
			"pbrMetallicRoughness":{
				"baseColorFactor":[
					0.22696588933467865,
					0.34191450476646423,
					0.14412851631641388,
					1
				],
				"metallicFactor":0,
				"roughnessFactor":0.5
			}
		},
		{
			"doubleSided":true,
			"name":"onlightosn",
			"pbrMetallicRoughness":{
				"baseColorFactor":[
					0.14995980262756348,
					0.2541521489620209,
					0.12213879823684692,
					1
				],
				"metallicFactor":0,
				"roughnessFactor":0.5
			}
		},
		{
			"doubleSided":true,
			"name":"osn-2",
			"pbrMetallicRoughness":{
				"baseColorFactor":[
					0.17151030898094177,
					0.29630887508392334,
					0.1398809403181076,
					1
				],
				"metallicFactor":0,
				"roughnessFactor":0.5
			}
		},
		{
			"doubleSided":true,
			"name":"shadosn",
			"pbrMetallicRoughness":{
				"baseColorFactor":[
					0.06301002949476242,
					0.14412851631641388,
					0.10224173218011856,
					1
				],
				"metallicFactor":0,
				"roughnessFactor":0.5
			}
		},
		{
			"doubleSided":true,
			"name":"underosn",
			"pbrMetallicRoughness":{
				"baseColorFactor":[
					0.19120171666145325,
					0.11193244159221649,
					0.09758733212947845,
					1
				],
				"metallicFactor":0,
				"roughnessFactor":0.5
			}
		},
		{
			"doubleSided":true,
			"name":"normal-tree",
			"pbrMetallicRoughness":{
				"baseColorFactor":[
					0.10702310502529144,
					0.22322800755500793,
					0.10224173218011856,
					1
				],
				"metallicFactor":0,
				"roughnessFactor":0.5
			}
		},
		{
			"doubleSided":true,
			"name":"osn-tree",
			"pbrMetallicRoughness":{
				"baseColorFactor":[
					0.23455063998699188,
					0.12743771076202393,
					0.05126946046948433,
					1
				],
				"metallicFactor":0,
				"roughnessFactor":0.5
			}
		},
		{
			"doubleSided":true,
			"name":"shad-tree",
			"pbrMetallicRoughness":{
				"baseColorFactor":[
					0.09305897355079651,
					0.2195262312889099,
					0.09758733212947845,
					1
				],
				"metallicFactor":0,
				"roughnessFactor":0.5
			}
		},
		{
			"doubleSided":true,
			"name":"rock",
			"pbrMetallicRoughness":{
				"baseColorFactor":[
					0.3813260495662689,
					0.34670406579971313,
					0.26225075125694275,
					1
				],
				"metallicFactor":0,
				"roughnessFactor":0.5
			}
		},
		{
			"doubleSided":true,
			"name":"rock-sh",
			"pbrMetallicRoughness":{
				"baseColorFactor":[
					0.2195262312889099,
					0.19120171666145325,
					0.1384316384792328,
					1
				],
				"metallicFactor":0,
				"roughnessFactor":0.5
			}
		},
		{
			"doubleSided":true,
			"name":"normal-kus",
			"pbrMetallicRoughness":{
				"baseColorFactor":[
					0.10702310502529144,
					0.18116427958011627,
					0.07818741351366043,
					1
				],
				"metallicFactor":0,
				"roughnessFactor":0.5
			}
		},
		{
			"doubleSided":true,
			"name":"shad-kus",
			"pbrMetallicRoughness":{
				"baseColorFactor":[
					0.06171619892120361,
					0.10226551443338394,
					0.04822072759270668,
					1
				],
				"metallicFactor":0,
				"roughnessFactor":0.5
			}
		},
		{
			"doubleSided":true,
			"name":"light-kus",
			"pbrMetallicRoughness":{
				"baseColorFactor":[
					0.1247718334197998,
					0.22322800755500793,
					0.09305897355079651,
					1
				],
				"metallicFactor":0,
				"roughnessFactor":0.5
			}
		}
	],
	"meshes":[
		{
			"name":"Vert.033",
			"primitives":[
				{
					"attributes":{
						"POSITION":0,
						"NORMAL":1,
						"TEXCOORD_0":2
					},
					"indices":3,
					"material":0
				},
				{
					"attributes":{
						"POSITION":4,
						"NORMAL":5,
						"TEXCOORD_0":6
					},
					"indices":7,
					"material":1
				},
				{
					"attributes":{
						"POSITION":8,
						"NORMAL":9,
						"TEXCOORD_0":10
					},
					"indices":11,
					"material":2
				},
				{
					"attributes":{
						"POSITION":12,
						"NORMAL":13,
						"TEXCOORD_0":14
					},
					"indices":15,
					"material":3
				},
				{
					"attributes":{
						"POSITION":16,
						"NORMAL":17,
						"TEXCOORD_0":18
					},
					"indices":19,
					"material":4
				},
				{
					"attributes":{
						"POSITION":20,
						"NORMAL":21,
						"TEXCOORD_0":22
					},
					"indices":23,
					"material":5
				},
				{
					"attributes":{
						"POSITION":24,
						"NORMAL":25,
						"TEXCOORD_0":26
					},
					"indices":27,
					"material":6
				},
				{
					"attributes":{
						"POSITION":28,
						"NORMAL":29,
						"TEXCOORD_0":30
					},
					"indices":31,
					"material":7
				},
				{
					"attributes":{
						"POSITION":32,
						"NORMAL":33,
						"TEXCOORD_0":34
					},
					"indices":35,
					"material":8
				},
				{
					"attributes":{
						"POSITION":36,
						"NORMAL":37,
						"TEXCOORD_0":38
					},
					"indices":39,
					"material":9
				},
				{
					"attributes":{
						"POSITION":40,
						"NORMAL":41,
						"TEXCOORD_0":42
					},
					"indices":43,
					"material":10
				},
				{
					"attributes":{
						"POSITION":44,
						"NORMAL":45,
						"TEXCOORD_0":46
					},
					"indices":47,
					"material":11
				},
				{
					"attributes":{
						"POSITION":48,
						"NORMAL":49,
						"TEXCOORD_0":50
					},
					"indices":51,
					"material":12
				},
				{
					"attributes":{
						"POSITION":52,
						"NORMAL":53,
						"TEXCOORD_0":54
					},
					"indices":55,
					"material":13
				}
			]
		}
	],
	"accessors":[
		{
			"bufferView":0,
			"componentType":5126,
			"count":384,
			"max":[
				4.698146820068359,
				0.15620458126068115,
				-0.29580381512641907
			],
			"min":[
				3.1542105674743652,
				0.07810229063034058,
				-1.8856555223464966
			],
			"type":"VEC3"
		},
		{
			"bufferView":1,
			"componentType":5126,
			"count":384,
			"type":"VEC3"
		},
		{
			"bufferView":2,
			"componentType":5126,
			"count":384,
			"type":"VEC2"
		},
		{
			"bufferView":3,
			"componentType":5123,
			"count":576,
			"type":"SCALAR"
		},
		{
			"bufferView":4,
			"componentType":5126,
			"count":13,
			"max":[
				4.502950191497803,
				0.15620458126068115,
				-0.48210063576698303
			],
			"min":[
				3.2641372680664062,
				0.15620458126068115,
				-1.8302807807922363
			],
			"type":"VEC3"
		},
		{
			"bufferView":5,
			"componentType":5126,
			"count":13,
			"type":"VEC3"
		},
		{
			"bufferView":6,
			"componentType":5126,
			"count":13,
			"type":"VEC2"
		},
		{
			"bufferView":7,
			"componentType":5123,
			"count":24,
			"type":"SCALAR"
		},
		{
			"bufferView":8,
			"componentType":5126,
			"count":26,
			"max":[
				4.566631317138672,
				0.15620458126068115,
				-0.5244901776313782
			],
			"min":[
				3.2641372680664062,
				0.15620458126068115,
				-1.8500574827194214
			],
			"type":"VEC3"
		},
		{
			"bufferView":9,
			"componentType":5126,
			"count":26,
			"type":"VEC3"
		},
		{
			"bufferView":10,
			"componentType":5126,
			"count":26,
			"type":"VEC2"
		},
		{
			"bufferView":11,
			"componentType":5123,
			"count":60,
			"type":"SCALAR"
		},
		{
			"bufferView":12,
			"componentType":5126,
			"count":8,
			"max":[
				4.307285308837891,
				0.15620458126068115,
				-0.46755245327949524
			],
			"min":[
				3.3626251220703125,
				0.15620458126068115,
				-1.6300350427627563
			],
			"type":"VEC3"
		},
		{
			"bufferView":13,
			"componentType":5126,
			"count":8,
			"type":"VEC3"
		},
		{
			"bufferView":14,
			"componentType":5126,
			"count":8,
			"type":"VEC2"
		},
		{
			"bufferView":15,
			"componentType":5123,
			"count":12,
			"type":"SCALAR"
		},
		{
			"bufferView":16,
			"componentType":5126,
			"count":100,
			"max":[
				4.698146820068359,
				0.15620458126068115,
				-0.29580381512641907
			],
			"min":[
				3.1542105674743652,
				0.15620458126068115,
				-1.8856555223464966
			],
			"type":"VEC3"
		},
		{
			"bufferView":17,
			"componentType":5126,
			"count":100,
			"type":"VEC3"
		},
		{
			"bufferView":18,
			"componentType":5126,
			"count":100,
			"type":"VEC2"
		},
		{
			"bufferView":19,
			"componentType":5123,
			"count":276,
			"type":"SCALAR"
		},
		{
			"bufferView":20,
			"componentType":5126,
			"count":496,
			"max":[
				4.698146820068359,
				0.07810229063034058,
				-0.29580381512641907
			],
			"min":[
				3.1542105674743652,
				0,
				-1.8856555223464966
			],
			"type":"VEC3"
		},
		{
			"bufferView":21,
			"componentType":5126,
			"count":496,
			"type":"VEC3"
		},
		{
			"bufferView":22,
			"componentType":5126,
			"count":496,
			"type":"VEC2"
		},
		{
			"bufferView":23,
			"componentType":5123,
			"count":948,
			"type":"SCALAR"
		},
		{
			"bufferView":24,
			"componentType":5126,
			"count":960,
			"max":[
				4.559459209442139,
				0.5324561595916748,
				-0.4460207223892212
			],
			"min":[
				3.3595356941223145,
				0.18260708451271057,
				-1.8418136835098267
			],
			"type":"VEC3"
		},
		{
			"bufferView":25,
			"componentType":5126,
			"count":960,
			"type":"VEC3"
		},
		{
			"bufferView":26,
			"componentType":5126,
			"count":960,
			"type":"VEC2"
		},
		{
			"bufferView":27,
			"componentType":5123,
			"count":1560,
			"type":"SCALAR"
		},
		{
			"bufferView":28,
			"componentType":5126,
			"count":205,
			"max":[
				4.426660060882568,
				0.21646273136138916,
				-0.5620242953300476
			],
			"min":[
				3.36903715133667,
				0.14710834622383118,
				-1.7281641960144043
			],
			"type":"VEC3"
		},
		{
			"bufferView":29,
			"componentType":5126,
			"count":205,
			"type":"VEC3"
		},
		{
			"bufferView":30,
			"componentType":5126,
			"count":205,
			"type":"VEC2"
		},
		{
			"bufferView":31,
			"componentType":5123,
			"count":360,
			"type":"SCALAR"
		},
		{
			"bufferView":32,
			"componentType":5126,
			"count":890,
			"max":[
				4.425899982452393,
				0.5324561595916748,
				-0.4460207223892212
			],
			"min":[
				3.2362377643585205,
				0.18260708451271057,
				-1.8418136835098267
			],
			"type":"VEC3"
		},
		{
			"bufferView":33,
			"componentType":5126,
			"count":890,
			"type":"VEC3"
		},
		{
			"bufferView":34,
			"componentType":5126,
			"count":890,
			"type":"VEC2"
		},
		{
			"bufferView":35,
			"componentType":5123,
			"count":1440,
			"type":"SCALAR"
		},
		{
			"bufferView":36,
			"componentType":5126,
			"count":39,
			"max":[
				4.585007190704346,
				0.25727108120918274,
				-0.578910231590271
			],
			"min":[
				4.304074764251709,
				0.15202704071998596,
				-0.8530471324920654
			],
			"type":"VEC3"
		},
		{
			"bufferView":37,
			"componentType":5126,
			"count":39,
			"type":"VEC3"
		},
		{
			"bufferView":38,
			"componentType":5126,
			"count":39,
			"type":"VEC2"
		},
		{
			"bufferView":39,
			"componentType":5123,
			"count":72,
			"type":"SCALAR"
		},
		{
			"bufferView":40,
			"componentType":5126,
			"count":104,
			"max":[
				4.585007190704346,
				0.2820605933666229,
				-0.578910231590271
			],
			"min":[
				4.304074764251709,
				0.15202704071998596,
				-0.8530471324920654
			],
			"type":"VEC3"
		},
		{
			"bufferView":41,
			"componentType":5126,
			"count":104,
			"type":"VEC3"
		},
		{
			"bufferView":42,
			"componentType":5126,
			"count":104,
			"type":"VEC2"
		},
		{
			"bufferView":43,
			"componentType":5123,
			"count":156,
			"type":"SCALAR"
		},
		{
			"bufferView":44,
			"componentType":5126,
			"count":192,
			"max":[
				4.548699378967285,
				0.23280784487724304,
				-0.8650707602500916
			],
			"min":[
				3.256983995437622,
				0.16613662242889404,
				-1.5563979148864746
			],
			"type":"VEC3"
		},
		{
			"bufferView":45,
			"componentType":5126,
			"count":192,
			"type":"VEC3"
		},
		{
			"bufferView":46,
			"componentType":5126,
			"count":192,
			"type":"VEC2"
		},
		{
			"bufferView":47,
			"componentType":5123,
			"count":288,
			"type":"SCALAR"
		},
		{
			"bufferView":48,
			"componentType":5126,
			"count":123,
			"max":[
				4.548699378967285,
				0.1781691312789917,
				-0.8650707602500916
			],
			"min":[
				3.256983995437622,
				0.1478251814842224,
				-1.5563979148864746
			],
			"type":"VEC3"
		},
		{
			"bufferView":49,
			"componentType":5126,
			"count":123,
			"type":"VEC3"
		},
		{
			"bufferView":50,
			"componentType":5126,
			"count":123,
			"type":"VEC2"
		},
		{
			"bufferView":51,
			"componentType":5123,
			"count":216,
			"type":"SCALAR"
		},
		{
			"bufferView":52,
			"componentType":5126,
			"count":48,
			"max":[
				4.517474174499512,
				0.24821141362190247,
				-0.8955738544464111
			],
			"min":[
				3.2882096767425537,
				0.21695777773857117,
				-1.5258948802947998
			],
			"type":"VEC3"
		},
		{
			"bufferView":53,
			"componentType":5126,
			"count":48,
			"type":"VEC3"
		},
		{
			"bufferView":54,
			"componentType":5126,
			"count":48,
			"type":"VEC2"
		},
		{
			"bufferView":55,
			"componentType":5123,
			"count":72,
			"type":"SCALAR"
		}
	],
	"bufferViews":[
		{
			"buffer":0,
			"byteLength":4608,
			"byteOffset":0,
			"target":34962
		},
		{
			"buffer":0,
			"byteLength":4608,
			"byteOffset":4608,
			"target":34962
		},
		{
			"buffer":0,
			"byteLength":3072,
			"byteOffset":9216,
			"target":34962
		},
		{
			"buffer":0,
			"byteLength":1152,
			"byteOffset":12288,
			"target":34963
		},
		{
			"buffer":0,
			"byteLength":156,
			"byteOffset":13440,
			"target":34962
		},
		{
			"buffer":0,
			"byteLength":156,
			"byteOffset":13596,
			"target":34962
		},
		{
			"buffer":0,
			"byteLength":104,
			"byteOffset":13752,
			"target":34962
		},
		{
			"buffer":0,
			"byteLength":48,
			"byteOffset":13856,
			"target":34963
		},
		{
			"buffer":0,
			"byteLength":312,
			"byteOffset":13904,
			"target":34962
		},
		{
			"buffer":0,
			"byteLength":312,
			"byteOffset":14216,
			"target":34962
		},
		{
			"buffer":0,
			"byteLength":208,
			"byteOffset":14528,
			"target":34962
		},
		{
			"buffer":0,
			"byteLength":120,
			"byteOffset":14736,
			"target":34963
		},
		{
			"buffer":0,
			"byteLength":96,
			"byteOffset":14856,
			"target":34962
		},
		{
			"buffer":0,
			"byteLength":96,
			"byteOffset":14952,
			"target":34962
		},
		{
			"buffer":0,
			"byteLength":64,
			"byteOffset":15048,
			"target":34962
		},
		{
			"buffer":0,
			"byteLength":24,
			"byteOffset":15112,
			"target":34963
		},
		{
			"buffer":0,
			"byteLength":1200,
			"byteOffset":15136,
			"target":34962
		},
		{
			"buffer":0,
			"byteLength":1200,
			"byteOffset":16336,
			"target":34962
		},
		{
			"buffer":0,
			"byteLength":800,
			"byteOffset":17536,
			"target":34962
		},
		{
			"buffer":0,
			"byteLength":552,
			"byteOffset":18336,
			"target":34963
		},
		{
			"buffer":0,
			"byteLength":5952,
			"byteOffset":18888,
			"target":34962
		},
		{
			"buffer":0,
			"byteLength":5952,
			"byteOffset":24840,
			"target":34962
		},
		{
			"buffer":0,
			"byteLength":3968,
			"byteOffset":30792,
			"target":34962
		},
		{
			"buffer":0,
			"byteLength":1896,
			"byteOffset":34760,
			"target":34963
		},
		{
			"buffer":0,
			"byteLength":11520,
			"byteOffset":36656,
			"target":34962
		},
		{
			"buffer":0,
			"byteLength":11520,
			"byteOffset":48176,
			"target":34962
		},
		{
			"buffer":0,
			"byteLength":7680,
			"byteOffset":59696,
			"target":34962
		},
		{
			"buffer":0,
			"byteLength":3120,
			"byteOffset":67376,
			"target":34963
		},
		{
			"buffer":0,
			"byteLength":2460,
			"byteOffset":70496,
			"target":34962
		},
		{
			"buffer":0,
			"byteLength":2460,
			"byteOffset":72956,
			"target":34962
		},
		{
			"buffer":0,
			"byteLength":1640,
			"byteOffset":75416,
			"target":34962
		},
		{
			"buffer":0,
			"byteLength":720,
			"byteOffset":77056,
			"target":34963
		},
		{
			"buffer":0,
			"byteLength":10680,
			"byteOffset":77776,
			"target":34962
		},
		{
			"buffer":0,
			"byteLength":10680,
			"byteOffset":88456,
			"target":34962
		},
		{
			"buffer":0,
			"byteLength":7120,
			"byteOffset":99136,
			"target":34962
		},
		{
			"buffer":0,
			"byteLength":2880,
			"byteOffset":106256,
			"target":34963
		},
		{
			"buffer":0,
			"byteLength":468,
			"byteOffset":109136,
			"target":34962
		},
		{
			"buffer":0,
			"byteLength":468,
			"byteOffset":109604,
			"target":34962
		},
		{
			"buffer":0,
			"byteLength":312,
			"byteOffset":110072,
			"target":34962
		},
		{
			"buffer":0,
			"byteLength":144,
			"byteOffset":110384,
			"target":34963
		},
		{
			"buffer":0,
			"byteLength":1248,
			"byteOffset":110528,
			"target":34962
		},
		{
			"buffer":0,
			"byteLength":1248,
			"byteOffset":111776,
			"target":34962
		},
		{
			"buffer":0,
			"byteLength":832,
			"byteOffset":113024,
			"target":34962
		},
		{
			"buffer":0,
			"byteLength":312,
			"byteOffset":113856,
			"target":34963
		},
		{
			"buffer":0,
			"byteLength":2304,
			"byteOffset":114168,
			"target":34962
		},
		{
			"buffer":0,
			"byteLength":2304,
			"byteOffset":116472,
			"target":34962
		},
		{
			"buffer":0,
			"byteLength":1536,
			"byteOffset":118776,
			"target":34962
		},
		{
			"buffer":0,
			"byteLength":576,
			"byteOffset":120312,
			"target":34963
		},
		{
			"buffer":0,
			"byteLength":1476,
			"byteOffset":120888,
			"target":34962
		},
		{
			"buffer":0,
			"byteLength":1476,
			"byteOffset":122364,
			"target":34962
		},
		{
			"buffer":0,
			"byteLength":984,
			"byteOffset":123840,
			"target":34962
		},
		{
			"buffer":0,
			"byteLength":432,
			"byteOffset":124824,
			"target":34963
		},
		{
			"buffer":0,
			"byteLength":576,
			"byteOffset":125256,
			"target":34962
		},
		{
			"buffer":0,
			"byteLength":576,
			"byteOffset":125832,
			"target":34962
		},
		{
			"buffer":0,
			"byteLength":384,
			"byteOffset":126408,
			"target":34962
		},
		{
			"buffer":0,
			"byteLength":144,
			"byteOffset":126792,
			"target":34963
		}
	],
	"buffers":[
		{
			"byteLength":126936,
			"uri":"data:application/octet-stream;base64,"
		}
	]
}
