<svg width="99" height="5" viewBox="0 0 99 5" fill="none" xmlns="http://www.w3.org/2000/svg">
<path d="M15.635 4.76305C16.8914 4.76305 17.91 3.74451 17.91 2.48806C17.91 1.23161 16.8914 0.213051 15.635 0.213051C14.3785 0.213051 13.36 1.23161 13.36 2.48806C13.36 3.74451 14.3785 4.76305 15.635 4.76305Z" fill="white"/>
<path d="M2.275 4.76305C3.53145 4.76305 4.55 3.74451 4.55 2.48806C4.55 1.23161 3.53145 0.213051 2.275 0.213051C1.01855 0.213051 0 1.23161 0 2.48806C0 3.74451 1.01855 4.76305 2.275 4.76305Z" fill="white"/>
<path d="M28.994 0.213051C30.251 0.213051 31.269 1.23106 31.269 2.48806C31.269 3.74406 30.25 4.76305 28.994 4.76305C27.738 4.76305 26.719 3.74406 26.719 2.48806C26.72 1.23106 27.738 0.213051 28.994 0.213051Z" fill="white"/>
<path d="M42.354 4.76305C43.6104 4.76305 44.629 3.74451 44.629 2.48806C44.629 1.23161 43.6104 0.213051 42.354 0.213051C41.0975 0.213051 40.079 1.23161 40.079 2.48806C40.079 3.74451 41.0975 4.76305 42.354 4.76305Z" fill="white"/>
<path d="M55.714 4.76305C56.9704 4.76305 57.989 3.74451 57.989 2.48806C57.989 1.23161 56.9704 0.213051 55.714 0.213051C54.4575 0.213051 53.439 1.23161 53.439 2.48806C53.439 3.74451 54.4575 4.76305 55.714 4.76305Z" fill="white"/>
<path d="M69.2889 4.75179C70.5392 4.62803 71.4524 3.51415 71.3286 2.26386C71.2049 1.01357 70.091 0.100326 68.8407 0.224086C67.5904 0.347846 66.6772 1.46174 66.8009 2.71204C66.9247 3.96233 68.0386 4.87555 69.2889 4.75179Z" fill="white"/>
<path d="M82.434 4.76305C83.6904 4.76305 84.709 3.74451 84.709 2.48806C84.709 1.23161 83.6904 0.213051 82.434 0.213051C81.1775 0.213051 80.159 1.23161 80.159 2.48806C80.159 3.74451 81.1775 4.76305 82.434 4.76305Z" fill="white"/>
<path d="M95.794 4.76305C97.0504 4.76305 98.069 3.74451 98.069 2.48806C98.069 1.23161 97.0504 0.213051 95.794 0.213051C94.5375 0.213051 93.519 1.23161 93.519 2.48806C93.519 3.74451 94.5375 4.76305 95.794 4.76305Z" fill="white"/>
</svg>
