<svg width="132" height="131" viewBox="0 0 132 131" fill="none" xmlns="http://www.w3.org/2000/svg">
<path d="M65.512 43.2206V0" stroke="white" stroke-miterlimit="10"/>
<path d="M68.1427 43.3764L73.2439 0.457153" stroke="white" stroke-miterlimit="10"/>
<path d="M70.7365 43.8413L80.8671 1.82361" stroke="white" stroke-miterlimit="10"/>
<path d="M73.2567 44.6093L88.2762 4.08038" stroke="white" stroke-miterlimit="10"/>
<path d="M75.6691 45.6692L95.3675 7.19501" stroke="white" stroke-miterlimit="10"/>
<path d="M77.9401 47.0056L102.041 11.1247" stroke="white" stroke-miterlimit="10"/>
<path d="M80.0364 48.6014L108.205 15.8138" stroke="white" stroke-miterlimit="10"/>
<path d="M81.9307 50.4327L113.771 21.1972" stroke="white" stroke-miterlimit="10"/>
<path d="M83.5954 52.4747L118.664 27.1996" stroke="white" stroke-miterlimit="10"/>
<path d="M85.0075 54.6989L122.814 33.738" stroke="white" stroke-miterlimit="10"/>
<path d="M86.1464 57.0747L126.163 40.7198" stroke="white" stroke-miterlimit="10"/>
<path d="M86.9977 59.5677L128.666 48.0475" stroke="white" stroke-miterlimit="10"/>
<path d="M87.5491 62.1439L130.285 55.6201" stroke="white" stroke-miterlimit="10"/>
<path d="M87.7923 64.7671L131 63.3305" stroke="white" stroke-miterlimit="10"/>
<path d="M87.7238 67.4006L130.799 71.0709" stroke="white" stroke-miterlimit="10"/>
<path d="M87.3453 70.0076L129.686 78.7334" stroke="white" stroke-miterlimit="10"/>
<path d="M86.6619 72.552L127.677 86.2117" stroke="white" stroke-miterlimit="10"/>
<path d="M85.6823 74.998L124.799 93.4007" stroke="white" stroke-miterlimit="10"/>
<path d="M84.4218 77.3104L121.093 100.2" stroke="white" stroke-miterlimit="10"/>
<path d="M82.8966 79.4594L116.61 106.514" stroke="white" stroke-miterlimit="10"/>
<path d="M81.1283 81.4122L111.414 112.256" stroke="white" stroke-miterlimit="10"/>
<path d="M79.1424 83.1433L105.575 117.344" stroke="white" stroke-miterlimit="10"/>
<path d="M76.9656 84.6279L99.1775 121.708" stroke="white" stroke-miterlimit="10"/>
<path d="M74.6286 85.8461L92.3096 125.288" stroke="white" stroke-miterlimit="10"/>
<path d="M72.1649 86.7794L85.0666 128.031" stroke="white" stroke-miterlimit="10"/>
<path d="M69.6079 87.4155L77.5505 129.901" stroke="white" stroke-miterlimit="10"/>
<path d="M66.9935 87.7459L69.8665 130.871" stroke="white" stroke-miterlimit="10"/>
<path d="M64.3585 87.7648L62.1217 130.928" stroke="white" stroke-miterlimit="10"/>
<path d="M61.7398 87.4737L54.424 130.071" stroke="white" stroke-miterlimit="10"/>
<path d="M59.1733 86.8752L46.8814 128.312" stroke="white" stroke-miterlimit="10"/>
<path d="M56.6959 85.978L39.599 125.676" stroke="white" stroke-miterlimit="10"/>
<path d="M54.3418 84.7948L32.6789 122.198" stroke="white" stroke-miterlimit="10"/>
<path d="M52.1436 83.3428L26.2178 117.929" stroke="white" stroke-miterlimit="10"/>
<path d="M50.1321 81.6408L20.3048 112.928" stroke="white" stroke-miterlimit="10"/>
<path d="M48.3354 79.7136L15.0237 107.263" stroke="white" stroke-miterlimit="10"/>
<path d="M46.7786 77.5878L10.4491 101.015" stroke="white" stroke-miterlimit="10"/>
<path d="M45.4838 75.2933L6.64262 94.2714" stroke="white" stroke-miterlimit="10"/>
<path d="M44.469 72.8628L3.65912 87.1253" stroke="white" stroke-miterlimit="10"/>
<path d="M43.748 70.3286L1.53969 79.6777" stroke="white" stroke-miterlimit="10"/>
<path d="M43.331 67.7276L0.314224 72.0323" stroke="white" stroke-miterlimit="10"/>
<path d="M43.2239 65.095L0 64.2953" stroke="white" stroke-miterlimit="10"/>
<path d="M43.4277 62.4692L0.600281 56.5747" stroke="white" stroke-miterlimit="10"/>
<path d="M43.9407 59.8845L2.10829 48.9799" stroke="white" stroke-miterlimit="10"/>
<path d="M44.7559 57.3794L4.50177 41.6153" stroke="white" stroke-miterlimit="10"/>
<path d="M45.8598 54.9874L7.74817 34.5855" stroke="white" stroke-miterlimit="10"/>
<path d="M47.2385 52.7426L11.8012 27.9872" stroke="white" stroke-miterlimit="10"/>
<path d="M48.8732 50.6758L16.6053 21.9129" stroke="white" stroke-miterlimit="10"/>
<path d="M50.74 48.8172L22.0919 16.4482" stroke="white" stroke-miterlimit="10"/>
<path d="M52.8133 47.1906L28.1857 11.6684" stroke="white" stroke-miterlimit="10"/>
<path d="M55.0637 45.8207L34.8009 7.64105" stroke="white" stroke-miterlimit="10"/>
<path d="M57.4606 44.7256L41.8452 4.42194" stroke="white" stroke-miterlimit="10"/>
<path d="M59.9697 43.9209L49.2201 2.05731" stroke="white" stroke-miterlimit="10"/>
<path d="M62.5559 43.4175L56.8227 0.577881" stroke="white" stroke-miterlimit="10"/>
</svg>
