<svg width="122" height="108" viewBox="0 0 122 108" fill="none" xmlns="http://www.w3.org/2000/svg">
<path d="M1 1.0124C1 1.0124 30.9998 1.0124 60.9995 1.0124C62.4996 1.0124 63.9997 1.0124 65.4955 1.01197C71.5433 0.995939 77.347 0.995939 83.0304 1.0124C84.4368 1.0124 85.8243 1.0124 87.189 1.0124C106.299 1.0124 120.999 1.0124 120.999 1.0124" stroke="white" stroke-width="0.5" stroke-miterlimit="10"/>
<path d="M1 6.6209C1 6.6209 25.2997 6.6209 52.0294 6.6209C53.5143 6.62132 55.0068 6.62175 56.5026 6.6209C67.8504 6.14958 78.9297 6.14958 90.7166 6.61542C91.8755 6.6209 93.0135 6.6209 94.1287 6.6209C109.744 6.6209 120.999 6.6209 120.999 6.6209" stroke="white" stroke-width="0.5" stroke-miterlimit="10"/>
<path d="M1 12.2295C1 12.2295 22.6749 12.2295 47.6009 12.2295C49.0673 12.2341 50.545 12.2384 52.0394 12.2519C66.2676 12.2405 81.0404 11.3033 95.0733 12.2164C96.3391 12.2287 97.5693 12.2295 98.7658 12.2295C111.924 12.2295 121 12.2295 121 12.2295" stroke="white" stroke-width="0.5" stroke-miterlimit="10"/>
<path d="M1 17.838C1 17.838 17.8749 17.838 38.9687 17.838C40.3752 17.838 41.7997 17.838 43.2399 17.838C44.7191 17.8402 46.1926 17.8743 47.6603 17.933C64.6849 17.8625 82.0957 17.3941 98.7387 17.8169C100.95 17.8393 103.034 17.8385 104.981 17.8376C114.697 17.8376 120.999 17.8376 120.999 17.8376" stroke="white" stroke-width="0.5" stroke-miterlimit="10"/>
<path d="M1 23.4462C1 23.4462 17.8749 23.4462 38.9687 23.4462C40.3752 23.4462 41.7997 23.4462 43.2399 23.4462C44.4592 23.318 45.6656 23.2677 46.863 23.2808C55.1888 23.4846 62.5747 24.8901 71.0164 25.8273C81.5683 27.2328 91.5928 24.4218 102.247 23.4483C104.5 23.4466 106.599 23.4466 108.519 23.4466C116.199 23.4466 121 23.4466 121 23.4466" stroke="white" stroke-width="0.5" stroke-miterlimit="10"/>
<path d="M1 29.0548C1 29.0548 17.8749 29.0548 38.9687 29.0548C40.3752 29.0548 41.7997 29.0548 43.2399 29.0548C44.4592 28.9717 45.6656 28.9624 46.8625 29.0135C48.059 29.0645 49.2431 29.1687 50.4039 29.2785C62.5747 29.5755 73.1266 35.6659 84.7338 36.1343C91.0649 36.1343 95.8131 31.449 101.682 29.5439C102.744 29.2109 103.834 28.9751 104.972 28.8793C106.103 28.7843 107.282 28.8291 108.52 29.0548C110.44 29.0548 112.18 29.0548 113.71 29.0548C118.3 29.0548 121 29.0548 121 29.0548" stroke="white" stroke-width="0.5" stroke-miterlimit="10"/>
<path d="M1 34.6633C1 34.6633 17.8749 34.6633 38.9687 34.6633C40.3752 34.6633 41.7997 34.6633 43.2399 34.6633C44.9676 34.5962 46.6563 34.6312 48.3203 34.7473C49.9843 34.8633 51.6175 35.0448 53.205 35.2232C60.9919 35.6659 67.8504 38.4769 74.7093 41.2879C85.7887 45.5045 95.2857 39.8824 104.575 35.4207C105.988 34.9561 107.44 34.6161 108.955 34.4671C110.469 34.3186 112.046 34.3616 113.71 34.6629C116.005 34.6629 117.827 34.6629 119.076 34.6629C120.324 34.6629 121 34.6629 121 34.6629" stroke="white" stroke-width="0.5" stroke-miterlimit="10"/>
<path d="M1 40.2719C1 40.2719 20.1998 40.2719 43.2399 40.2719C44.6796 40.2719 46.1351 40.2723 47.6009 40.2749C49.3324 40.5934 51.0549 40.8888 52.7702 41.1601C67.3225 42.6939 82.0952 48.7843 96.7587 45.2062C98.3747 44.8121 99.9851 44.3011 101.587 43.6543C103.189 43.0074 104.782 42.2251 106.365 41.288C109.003 39.8825 111.113 40.3508 113.718 40.2791C116.004 40.2719 117.826 40.2719 119.075 40.2719C120.324 40.2719 120.999 40.2719 120.999 40.2719" stroke="white" stroke-width="0.5" stroke-miterlimit="10"/>
<path d="M1 45.8805C1 45.8805 25.2997 45.8805 52.0294 45.8805C53.5143 45.8809 55.0134 45.8864 56.5853 45.9632C67.8499 49.2531 79.4571 50.1903 90.9427 49.5325C92.8443 49.3856 94.745 49.1924 96.6451 48.9586C102.346 48.2565 108.04 47.1869 113.732 45.8999C116.004 45.8805 117.826 45.8805 119.075 45.8805C120.324 45.8805 120.999 45.8805 120.999 45.8805" stroke="white" stroke-width="0.5" stroke-miterlimit="10"/>
<path d="M1 51.4886C1 51.4886 28.0747 51.4886 56.5035 51.4886C57.9998 51.4886 59.5023 51.4907 61.0333 51.5168C72.0713 53.0008 82.6231 55.3431 94.2304 53.9376C101.089 53.0004 106.892 51.1265 113.72 51.4966C115.24 51.4886 116.559 51.4886 117.639 51.4886C119.799 51.4886 120.999 51.4886 120.999 51.4886" stroke="white" stroke-width="0.5" stroke-miterlimit="10"/>
<path d="M1 57.0972C1 57.0972 6.20824 57.0972 14.4547 57.0972C16.1039 57.0972 17.8734 57.0972 19.7365 57.0993C20.9848 57.1191 22.2449 57.1356 23.5122 57.1486C24.7794 57.1617 26.0543 57.1714 27.331 57.1761C33.5566 57.2178 39.8876 57.2178 46.1156 57.0989C47.3391 57.0984 48.5688 57.098 49.8085 57.0976C53.5001 57.0976 57.25 57.0976 61 57.0976C62.5001 57.0976 64.0002 57.0976 65.5055 57.1027C80.513 58.6234 95.2857 58.155 109.964 57.1288C112.213 57.0993 114.203 57.0976 115.844 57.0976C119.125 57.0976 121 57.0976 121 57.0976" stroke="white" stroke-width="0.5" stroke-miterlimit="10"/>
<path d="M1 62.7057C1 62.7057 2.19978 62.7057 4.35986 62.7057C5.4399 62.7057 6.75991 62.7057 8.28992 62.7057C10.1293 62.7226 11.9615 62.7298 13.788 62.7306C29.8632 61.9027 45.1634 62.8399 60.9995 62.7057C62.8745 62.7057 64.7495 62.7057 66.6173 62.7057C68.4852 62.7057 70.3455 62.7057 72.2 62.7103C83.151 62.8399 94.7578 62.8399 105.871 62.7188C108.16 62.7061 110.259 62.7057 112.111 62.7057C117.666 62.7057 121 62.7057 121 62.7057" stroke="white" stroke-width="0.5" stroke-miterlimit="10"/>
<path d="M1 68.3144C1 68.3144 2.87498 68.3144 6.12223 68.3194C7.75774 68.287 9.38801 68.2435 11.0064 68.1684C29.3357 65.1827 47.274 67.5253 65.4955 68.3148C66.9918 68.3148 68.4843 68.3148 69.9691 68.3148C72.6419 68.3148 75.2909 68.3148 77.8934 68.3148C79.1944 68.3148 80.4845 68.3148 81.7603 68.3152C87.371 68.4625 93.702 68.4625 99.479 68.3148C101.608 68.3148 103.624 68.3148 105.508 68.3148C114.924 68.3148 120.999 68.3148 120.999 68.3148" stroke="white" stroke-width="0.5" stroke-miterlimit="10"/>
<path d="M1 73.9229C1 73.9229 2.19978 73.9229 4.3304 73.9271C6.19779 73.8022 8.06232 73.6495 9.90215 73.4086C27.7535 67.9937 46.7471 69.868 65.4209 73.8989C66.987 73.9195 68.4847 73.9225 69.9696 73.9233C96.6993 73.9233 120.999 73.9233 120.999 73.9233" stroke="white" stroke-width="0.5" stroke-miterlimit="10"/>
<path d="M1 79.531C1 79.531 2.19978 79.531 4.32138 79.5365C5.94073 79.7209 7.50686 79.7103 9.0193 79.5027C15.0909 78.3002 19.8392 74.552 26.1707 73.1465C39.8881 70.3354 51.4954 76.8947 64.7338 78.5753C66.5513 78.8529 68.2804 79.1715 69.9696 79.5285C71.455 79.5293 72.9322 79.5297 74.3986 79.5302C99.3246 79.5302 121 79.5302 121 79.5302" stroke="white" stroke-width="0.5" stroke-miterlimit="10"/>
<path d="M1 85.1395C1 85.1395 2.19979 85.1395 4.34846 85.1412C5.45131 85.188 6.57506 85.2522 7.68694 85.2762C15.0909 86.2653 18.2564 79.2377 24.5875 77.3634C29.8632 75.4895 35.6668 76.4263 40.943 77.8318C48.8568 80.1744 56.2432 82.9855 64.7699 83.9665C66.5665 84.3095 68.2709 84.6847 69.9592 85.0817C71.4545 85.1353 72.9322 85.137 74.3986 85.1395C99.3246 85.1395 121 85.1395 121 85.1395" stroke="white" stroke-width="0.5" stroke-miterlimit="10"/>
<path d="M1 90.7482C1 90.7482 2.19978 90.7482 4.35986 90.7482C5.4399 90.7482 6.75991 90.7481 8.27615 90.746C11.398 90.0135 15.6183 91.4191 17.729 89.0768C30.919 75.49 49.3847 87.6713 64.9053 89.3646C66.5907 89.7553 68.2738 90.195 69.962 90.6836C71.4545 90.7414 72.9318 90.7443 74.3981 90.7486C99.3241 90.7486 120.999 90.7486 120.999 90.7486" stroke="white" stroke-width="0.5" stroke-miterlimit="10"/>
<path d="M1 96.3567C1 96.3567 3.69987 96.3567 8.28992 96.3567C9.81994 96.3567 11.56 96.3567 13.4773 96.3385C15.0909 96.1044 16.6737 96.5727 17.729 96.1044C30.919 86.7341 45.6917 92.3562 59.776 94.4364C61.5255 94.7225 63.219 95.0208 64.9172 95.3444C66.5969 95.6486 68.2804 95.9778 69.9696 96.3284C71.4545 96.3512 72.9322 96.3537 74.3981 96.3571C99.3241 96.3571 120.999 96.3571 120.999 96.3571" stroke="white" stroke-width="0.5" stroke-miterlimit="10"/>
<path d="M1 101.965C1 101.965 5.80008 101.965 13.4801 101.965C15.4002 101.965 17.5 101.965 19.7498 101.962C21.4096 101.581 23.0765 101.262 24.7428 100.982C33.0292 99.8525 41.4704 99.3841 49.8879 100.22C51.5852 100.315 53.2639 100.429 54.936 100.553C56.5948 100.677 58.2464 100.812 59.8895 100.949C61.5621 101.076 63.237 101.223 64.9167 101.392C66.5964 101.561 68.2799 101.751 69.9691 101.962C71.454 101.964 72.9318 101.964 74.3976 101.965C99.3236 101.965 120.999 101.965 120.999 101.965" stroke="white" stroke-width="0.5" stroke-miterlimit="10"/>
<path d="M1 107.573C1 107.573 10.0751 107.573 23.2337 107.573C24.4297 107.57 25.6599 107.569 26.92 107.562C30.1621 107.508 33.3851 107.468 36.5972 107.44C39.8093 107.413 43.0137 107.402 46.2168 107.403C49.4194 107.403 52.621 107.417 55.8312 107.445C59.0414 107.473 62.2601 107.514 65.4964 107.569C66.9927 107.571 68.4852 107.572 69.9701 107.573C96.6998 107.573 121 107.573 121 107.573" stroke="white" stroke-width="0.5" stroke-miterlimit="10"/>
<path d="M1 107.573V1.01245" stroke="white" stroke-width="0.5" stroke-miterlimit="10"/>
<path d="M7.31583 107.573C7.31583 107.573 7.31583 103.311 7.31583 96.4909C7.31583 94.7858 7.31584 92.9212 7.31109 90.9236C7.26642 88.1215 7.23649 85.3682 7.2208 82.6315C7.20512 79.8947 7.20513 77.1795 7.21938 74.4516C7.23316 71.722 7.26118 68.9793 7.30347 66.1927C7.31488 64.8889 7.31583 63.577 7.31583 62.258C7.31583 33.2468 7.31583 1.01196 7.31583 1.01196" stroke="white" stroke-width="0.5" stroke-miterlimit="10"/>
<path d="M13.6317 107.573C13.6317 107.573 13.6317 105.176 13.6317 101.1C13.6317 99.7412 13.6317 98.196 13.6293 96.4808C12.9807 86.7338 12.9807 77.3635 13.1651 67.684C13.3133 64.5814 13.4687 61.4155 13.6317 58.2854C13.6317 56.9567 13.6317 55.6246 13.6317 54.2929C13.6317 27.6527 13.6317 1.01245 13.6317 1.01245" stroke="white" stroke-width="0.5" stroke-miterlimit="10"/>
<path d="M19.9475 107.573C19.9475 107.573 19.9475 106.974 19.9475 105.865C19.9475 104.756 19.9475 103.137 19.9428 101.083C17.2016 88.1393 16.6741 74.0837 19.2989 61.0724C19.5042 59.6036 19.7133 58.0939 19.9337 56.5774C19.9475 55.4347 19.9475 54.2925 19.9475 53.1512C19.9475 26.897 19.9475 1.01245 19.9475 1.01245" stroke="white" stroke-width="0.5" stroke-miterlimit="10"/>
<path d="M26.2629 107.572C25.9915 106.07 25.7278 104.575 25.476 103.089C22.4773 88.608 19.8392 73.6157 25.0308 59.3078C25.4085 57.9027 25.8048 56.4373 26.251 54.9609C26.2629 53.7381 26.2629 52.517 26.2629 51.2975C26.2629 25.6923 26.2629 1.01245 26.2629 1.01245" stroke="white" stroke-width="0.5" stroke-miterlimit="10"/>
<path d="M32.5787 107.458C32.6348 106.156 32.5773 104.877 32.4219 103.618C30.9185 93.7617 23.0047 84.8599 24.5874 74.0841C25.6428 67.0565 33.0292 62.3712 32.5749 54.793C32.5782 53.6271 32.5782 52.4613 32.5782 51.2975C32.5782 25.6923 32.5782 1.01245 32.5782 1.01245" stroke="white" stroke-width="0.5" stroke-miterlimit="10"/>
<path d="M38.8789 107.194C38.8713 105.58 38.6907 104.002 38.34 102.43C32.5017 88.6081 23.5326 74.0841 37.25 60.4973C38.8328 59.5602 39.3602 57.2179 38.8946 54.7925C38.8946 53.6271 38.8946 52.4613 38.8946 51.2975C38.8946 25.6923 38.8946 1.01245 38.8946 1.01245" stroke="white" stroke-width="0.5" stroke-miterlimit="10"/>
<path d="M45.1871 107.062C44.8155 105.404 44.4406 103.754 44.0135 102.114C37.7779 87.6709 33.0296 71.7414 45.0916 58.2926C45.1876 56.9584 45.2109 55.625 45.2109 54.2929C45.2109 48.743 45.2109 43.1927 45.2109 37.8837C45.2109 36.8221 45.2109 35.7698 45.2109 34.7292C45.1643 29.1072 45.1643 23.4847 45.2109 17.6626C45.2109 15.9976 45.2109 14.425 45.2109 12.9604C45.2109 5.63745 45.2109 1.01245 45.2109 1.01245" stroke="white" stroke-width="0.5" stroke-miterlimit="10"/>
<path d="M51.5148 107.205C51.302 105.721 51.0995 104.234 50.9114 102.746C50.641 101.264 50.3849 99.7791 50.0637 98.2981C43.5816 84.8598 46.7471 71.273 51.4735 58.2888C51.5262 56.5419 51.5262 54.7921 51.5262 53.0443C51.5262 51.2966 51.5262 49.5506 51.5262 47.8138C51.5262 46.656 51.5262 45.5024 51.5262 44.3551C51.5885 42.9175 51.6346 41.4766 51.6674 40.0335C51.7006 38.59 51.7201 37.1427 51.7253 35.6811C51.4953 26.7644 51.4953 18.3313 51.5262 9.66069C51.5262 8.31467 51.5262 7.10072 51.5262 6.03782C51.5262 2.8483 51.5262 1.01282 51.5262 1.01282" stroke="white" stroke-width="0.5" stroke-miterlimit="10"/>
<path d="M57.8416 107.458C57.7874 105.948 57.7437 104.439 57.709 102.93C57.6658 101.413 57.6311 99.8956 57.5955 98.3703C54.1325 86.7342 56.2432 74.5525 57.8026 62.2611C57.8397 60.9404 57.8416 59.6146 57.8416 58.2859C57.8416 57.1234 57.8416 55.958 57.8416 54.7925C57.8416 53.6271 57.8416 52.4617 57.8416 51.2984C58.015 50.2549 58.159 49.2287 58.2816 48.2148C58.4028 47.2008 58.5011 46.1987 58.581 45.1961C59.9366 30.981 57.8264 17.3942 57.8421 3.31714C57.8421 1.82808 57.8421 1.01245 57.8421 1.01245" stroke="white" stroke-width="0.5" stroke-miterlimit="10"/>
<path d="M64.1574 107.572C64.1574 104.354 64.1574 101.179 64.1574 98.0315C64.1574 96.458 64.1574 94.8917 64.1574 93.3301C64.1574 91.7685 64.1451 90.2127 64.1028 88.6616C63.6295 81.1117 64.1574 73.6153 64.1574 66.1911C64.1574 65.1215 64.1574 64.0451 64.1574 62.964C64.1574 61.883 64.1574 60.7969 64.1574 59.7078C64.1574 58.6188 64.1574 57.5268 64.1589 56.4339C64.8184 55.0094 65.362 53.5723 65.801 52.1262C68.9057 35.1976 63.6295 17.8626 64.1574 1.01245" stroke="white" stroke-width="0.5" stroke-miterlimit="10"/>
<path d="M70.4733 107.573C70.4733 107.573 70.4733 105.176 70.4733 101.1C70.4733 99.7411 70.4733 98.1959 70.4733 96.4887C70.4885 91.4185 70.4885 86.2653 70.4728 81.1221C70.4733 79.9537 70.4733 78.7617 70.4733 77.5495C70.4733 73.8561 70.4733 69.9776 70.4733 66.0074C70.4733 64.6842 70.4733 63.3508 70.4752 62.0112C70.4818 59.8482 70.6168 57.7128 71.1461 55.7667C71.6754 53.8203 72.5987 52.0633 74.171 50.6514C76.2921 48.3155 77.8749 45.5045 77.8749 42.2246C76.8195 28.1691 68.3783 15.5194 70.4723 1.00854" stroke="white" stroke-width="0.5" stroke-miterlimit="10"/>
<path d="M76.7891 107.573C76.7891 107.573 76.7891 90.2025 76.7891 69.4877C76.7891 68.3974 76.7891 67.2978 76.7896 66.1918C76.0132 62.642 77.0757 59.4613 78.6622 56.4655C79.1911 55.4667 79.7784 54.4886 80.3747 53.5245C84.2059 48.7847 85.7887 43.1626 84.7334 37.0718C81.5678 24.4222 74.7089 13.646 76.7877 1.0094" stroke="white" stroke-width="0.5" stroke-miterlimit="10"/>
<path d="M83.105 107.573C83.105 107.573 83.105 91.9828 83.105 72.7287C83.105 71.6591 83.105 70.5781 83.1054 69.4877C82.0805 63.1817 85.2565 57.9563 87.9563 52.5359C88.6315 51.1806 89.2735 49.8139 89.8066 48.4143C91.0649 45.5049 91.5928 42.2255 91.0649 39.4145C86.844 26.2961 81.0404 14.5836 83.105 1.01282" stroke="white" stroke-width="0.5" stroke-miterlimit="10"/>
<path d="M89.4203 107.573C89.4203 107.573 89.4203 91.9828 89.4203 72.7287C89.4203 71.6591 89.4203 70.5781 89.4208 69.4877C88.5921 62.7762 91.7515 56.7773 93.7438 50.3553C94.1425 49.0708 94.4941 47.7695 94.7578 46.4421C95.2852 33.3237 87.8989 20.674 89.4108 7.45811C89.4198 5.44625 89.4203 3.83018 89.4203 2.7213C89.4203 1.61241 89.4203 1.01282 89.4203 1.01282" stroke="white" stroke-width="0.5" stroke-miterlimit="10"/>
<path d="M95.7362 107.573C95.7362 107.573 95.7362 91.9828 95.7362 72.7287C95.7362 71.5962 95.7362 70.4511 95.7362 69.2953C96.83 60.6795 97.9043 52.1553 98.1685 43.5939C98.2127 41.8833 98.2255 40.1702 98.1904 38.4491C97.9233 29.5755 95.8131 21.1424 95.7305 12.092C95.7343 10.3907 95.7352 8.84506 95.7362 7.48638C95.7362 3.41034 95.7362 1.01282 95.7362 1.01282" stroke="white" stroke-width="0.5" stroke-miterlimit="10"/>
<path d="M102.052 107.573C102.052 107.573 102.052 90.2026 102.052 69.4878C102.052 68.2692 102.052 67.0392 102.056 65.8038C102.856 55.858 103.096 46.2168 102.775 36.5326C102.728 35.1491 102.67 33.7651 102.6 32.379C102.144 28.6384 102.144 24.4218 102.051 20.7563C102.052 18.8086 102.052 16.9622 102.052 15.2364C102.052 6.60878 102.052 1.01245 102.052 1.01245" stroke="white" stroke-width="0.5" stroke-miterlimit="10"/>
<path d="M108.368 107.573C108.368 107.573 108.368 87.1768 108.368 64.2311C108.368 63.0839 108.37 61.9315 108.379 60.7813C108.475 51.1266 109.003 40.8197 108.379 31.0477C108.368 29.976 108.367 28.9299 108.367 27.9025C108.367 12.4857 108.367 1.01245 108.367 1.01245" stroke="white" stroke-width="0.5" stroke-miterlimit="10"/>
<path d="M114.683 107.573C114.683 107.573 114.683 83.5307 114.683 58.2858C114.683 56.9571 114.683 55.625 114.683 54.2933C114.806 49.2531 114.806 43.6311 114.684 38.5225C114.683 37.2436 114.683 35.9781 114.683 34.7296C114.683 15.998 114.683 1.01282 114.683 1.01282" stroke="white" stroke-width="0.5" stroke-miterlimit="10"/>
<path d="M120.999 107.573V1.01245" stroke="white" stroke-width="0.5" stroke-miterlimit="10"/>
</svg>
