<svg width="172" height="36" viewBox="0 0 172 36" fill="none" xmlns="http://www.w3.org/2000/svg">
<path d="M1 35.216L10.231 1" stroke="white" stroke-miterlimit="10"/>
<path d="M11.074 35.216L20.305 1" stroke="white" stroke-miterlimit="10"/>
<path d="M21.147 35.216L30.378 1" stroke="white" stroke-miterlimit="10"/>
<path d="M31.22 35.216L40.451 1" stroke="white" stroke-miterlimit="10"/>
<path d="M41.294 35.216L50.525 1" stroke="white" stroke-miterlimit="10"/>
<path d="M51.367 35.216L60.598 1" stroke="white" stroke-miterlimit="10"/>
<path d="M61.441 35.216L70.672 1" stroke="white" stroke-miterlimit="10"/>
<path d="M71.514 35.216L80.745 1" stroke="white" stroke-miterlimit="10"/>
<path d="M81.587 35.216L90.818 1" stroke="white" stroke-miterlimit="10"/>
<path d="M91.661 35.216L100.892 1" stroke="white" stroke-miterlimit="10"/>
<path d="M101.734 35.216L110.965 1" stroke="white" stroke-miterlimit="10"/>
<path d="M111.807 35.216L121.038 1" stroke="white" stroke-miterlimit="10"/>
<path d="M121.881 35.216L131.112 1" stroke="white" stroke-miterlimit="10"/>
<path d="M131.954 35.216L141.185 1" stroke="white" stroke-miterlimit="10"/>
<path d="M142.027 35.216L151.258 1" stroke="white" stroke-miterlimit="10"/>
<path d="M152.101 35.216L161.332 1" stroke="white" stroke-miterlimit="10"/>
<path d="M162.174 35.216L171.405 1" stroke="white" stroke-miterlimit="10"/>
</svg>
