<svg width="93" height="39" viewBox="0 0 93 39" fill="none" xmlns="http://www.w3.org/2000/svg">
<path d="M5.41803 2.709C5.41803 4.205 4.20498 5.418 2.70898 5.418C1.21298 5.418 0 4.205 0 2.709C0 1.213 1.21298 0 2.70898 0C4.20498 0 5.41803 1.213 5.41803 2.709Z" fill="white"/>
<path d="M5.41803 24.56C5.41803 26.056 4.20498 27.269 2.70898 27.269C1.21298 27.269 0 26.056 0 24.56C0 23.064 1.21298 21.851 2.70898 21.851C4.20498 21.851 5.41803 23.064 5.41803 24.56Z" fill="white"/>
<path d="M21.223 2.709C21.223 4.205 20.01 5.418 18.514 5.418C17.018 5.418 15.805 4.205 15.805 2.709C15.805 1.213 17.018 0 18.514 0C20.01 0 21.223 1.213 21.223 2.709Z" fill="white"/>
<path d="M52.834 2.709C52.834 4.205 51.621 5.418 50.125 5.418C48.629 5.418 47.416 4.205 47.416 2.709C47.416 1.213 48.629 0 50.125 0C51.621 0 52.834 1.213 52.834 2.709Z" fill="white"/>
<path d="M68.639 2.709C68.639 4.205 67.426 5.418 65.93 5.418C64.434 5.418 63.221 4.205 63.221 2.709C63.221 1.213 64.434 0 65.93 0C67.426 0 68.639 1.213 68.639 2.709Z" fill="white"/>
<path d="M84.444 2.709C84.444 4.205 83.231 5.418 81.735 5.418C80.239 5.418 79.026 4.205 79.026 2.709C79.026 1.213 80.239 0 81.735 0C83.231 0 84.444 1.213 84.444 2.709Z" fill="white"/>
<path d="M29.126 14.037C29.126 15.533 27.913 16.746 26.417 16.746C24.921 16.746 23.708 15.533 23.708 14.037C23.708 12.541 24.921 11.328 26.417 11.328C27.913 11.328 29.126 12.541 29.126 14.037Z" fill="white"/>
<path d="M44.931 14.037C44.931 15.533 43.718 16.746 42.222 16.746C40.726 16.746 39.513 15.533 39.513 14.037C39.513 12.541 40.726 11.328 42.222 11.328C43.718 11.328 44.931 12.541 44.931 14.037Z" fill="white"/>
<path d="M60.736 14.037C60.736 15.533 59.523 16.746 58.027 16.746C56.531 16.746 55.318 15.533 55.318 14.037C55.318 12.541 56.531 11.328 58.027 11.328C59.523 11.328 60.736 12.541 60.736 14.037Z" fill="white"/>
<path d="M76.541 14.037C76.541 15.533 75.328 16.746 73.832 16.746C72.336 16.746 71.123 15.533 71.123 14.037C71.123 12.541 72.336 11.328 73.832 11.328C75.328 11.328 76.541 12.541 76.541 14.037Z" fill="white"/>
<path d="M92.347 14.037C92.347 15.533 91.134 16.746 89.638 16.746C88.142 16.746 86.929 15.533 86.929 14.037C86.929 12.541 88.142 11.328 89.638 11.328C91.134 11.328 92.347 12.541 92.347 14.037Z" fill="white"/>
<path d="M21.223 24.56C21.223 26.056 20.01 27.269 18.514 27.269C17.018 27.269 15.805 26.056 15.805 24.56C15.805 23.064 17.018 21.851 18.514 21.851C20.01 21.851 21.223 23.064 21.223 24.56Z" fill="white"/>
<path d="M37.028 24.56C37.028 26.056 35.815 27.269 34.319 27.269C32.823 27.269 31.61 26.056 31.61 24.56C31.61 23.064 32.823 21.851 34.319 21.851C35.816 21.851 37.028 23.064 37.028 24.56Z" fill="white"/>
<path d="M52.834 24.56C52.834 26.056 51.621 27.269 50.125 27.269C48.629 27.269 47.416 26.056 47.416 24.56C47.416 23.064 48.629 21.851 50.125 21.851C51.621 21.851 52.834 23.064 52.834 24.56Z" fill="white"/>
<path d="M68.639 24.56C68.639 26.056 67.426 27.269 65.93 27.269C64.434 27.269 63.221 26.056 63.221 24.56C63.221 23.064 64.434 21.851 65.93 21.851C67.426 21.851 68.639 23.064 68.639 24.56Z" fill="white"/>
<path d="M84.444 24.56C84.444 26.056 83.231 27.269 81.735 27.269C80.239 27.269 79.026 26.056 79.026 24.56C79.026 23.064 80.239 21.851 81.735 21.851C83.231 21.851 84.444 23.064 84.444 24.56Z" fill="white"/>
<path d="M13.321 35.888C13.321 37.384 12.108 38.597 10.612 38.597C9.116 38.597 7.90302 37.384 7.90302 35.888C7.90302 34.392 9.116 33.179 10.612 33.179C12.108 33.179 13.321 34.392 13.321 35.888Z" fill="white"/>
<path d="M44.931 35.888C44.931 37.384 43.718 38.597 42.222 38.597C40.726 38.597 39.513 37.384 39.513 35.888C39.513 34.392 40.726 33.179 42.222 33.179C43.718 33.179 44.931 34.392 44.931 35.888Z" fill="white"/>
<path d="M60.736 35.888C60.736 37.384 59.523 38.597 58.027 38.597C56.531 38.597 55.318 37.384 55.318 35.888C55.318 34.392 56.531 33.179 58.027 33.179C59.523 33.179 60.736 34.392 60.736 35.888Z" fill="white"/>
<path d="M76.541 35.888C76.541 37.384 75.328 38.597 73.832 38.597C72.336 38.597 71.123 37.384 71.123 35.888C71.123 34.392 72.336 33.179 73.832 33.179C75.328 33.179 76.541 34.392 76.541 35.888Z" fill="white"/>
</svg>
