<svg width="407" height="65" viewBox="0 0 407 65" fill="none" xmlns="http://www.w3.org/2000/svg">
<path opacity="0.125" d="M1.65399 38.2801C47.406 37.6261 51.09 31.6681 80.838 34.6741C110.586 37.6801 137.753 47.0921 170.708 40.3901C203.663 33.6871 222.767 12.2591 244.404 21.3911C266.041 30.5231 265.294 43.5121 284.062 42.0551C302.831 40.5981 323.79 26.327 338.621 26.198C351.389 26.087 339.703 39.0331 374.788 38.2561" stroke="white" stroke-width="0.2813" stroke-miterlimit="10"/>
<path opacity="0.25" d="M3.30798 39.5181C49.06 38.8651 51.512 26.8771 81.26 29.8831C111.008 32.8891 138.564 50.3821 171.519 43.6791C204.474 36.9761 222.494 9.72807 244.131 18.8601C265.768 27.9921 258.377 45.4461 277.146 43.9891C295.914 42.5321 317.784 25.4121 334.677 25.6731C347.441 25.8701 344.274 43.5351 379.352 40.2211" stroke="white" stroke-width="0.3125" stroke-miterlimit="10"/>
<path opacity="0.375" d="M4.96201 40.7561C50.714 40.1031 51.934 22.0851 81.682 25.0921C111.43 28.0981 139.374 53.671 172.329 46.969C205.284 40.266 222.221 7.19905 243.858 16.331C265.495 25.463 251.46 47.3811 270.229 45.9251C288.997 44.4681 311.777 24.6331 330.733 25.1491C343.493 25.4971 348.845 48.0381 383.917 42.1871" stroke="white" stroke-width="0.3438" stroke-miterlimit="10"/>
<path opacity="0.5" d="M6.61603 41.9931C52.368 41.3401 52.356 17.2931 82.104 20.2991C111.852 23.3051 140.185 56.9591 173.14 50.2561C206.095 43.5531 221.948 4.66707 243.586 13.7991C265.223 22.9311 244.545 49.3141 263.313 47.8581C282.081 46.4011 305.772 23.8281 326.79 24.6221C339.545 25.1041 353.417 52.5381 388.483 44.1491" stroke="white" stroke-width="0.375" stroke-miterlimit="10"/>
<path opacity="0.625" d="M8.27002 43.2311C54.022 42.5781 52.778 12.5021 82.526 15.5081C112.274 18.5141 140.996 60.2481 173.95 53.5461C206.905 46.8431 221.675 2.13808 243.312 11.2701C264.949 20.4021 237.627 51.2501 256.396 49.7931C275.164 48.3361 299.766 23.0031 322.845 24.0981C335.597 24.7031 357.986 57.0411 393.046 46.1151" stroke="white" stroke-width="0.4063" stroke-miterlimit="10"/>
<path opacity="0.75" d="M9.92401 44.4691C55.676 43.8161 53.2 7.71107 82.948 10.7171C112.696 13.7231 141.806 63.5371 174.761 56.8351C207.716 50.1331 221.403 -0.391922 243.04 8.74008C264.677 17.8721 230.712 53.1851 249.48 51.7281C268.249 50.2711 293.764 22.1561 318.902 23.5731C331.652 24.2921 362.558 61.5431 397.612 48.0801" stroke="white" stroke-width="0.4375" stroke-miterlimit="10"/>
<path opacity="0.875" d="M11.578 45.7071C57.33 45.0541 53.623 2.92005 83.37 5.92605C113.118 8.93205 142.617 66.8271 175.572 60.1241C208.527 53.4211 221.13 -2.92293 242.767 6.20907C264.404 15.3411 223.795 55.1191 242.564 53.6621C261.332 52.2051 287.763 21.2851 314.959 23.0481C327.707 23.8741 367.13 66.0451 402.177 50.0451" stroke="white" stroke-width="0.4688" stroke-miterlimit="10"/>
<path d="M13.232 46.9451C58.984 46.2921 54.045 -1.87094 83.793 1.13506C113.541 4.14106 143.429 70.1161 176.384 63.4141C209.339 56.7111 220.859 -5.45193 242.496 3.68007C264.133 12.8121 216.881 57.0541 235.649 55.5981C254.418 54.1411 281.766 20.3941 311.016 22.5241C323.763 23.4521 371.702 70.5481 406.743 52.0101" stroke="white" stroke-width="0.5" stroke-miterlimit="10"/>
</svg>
